<?xml version="1.0" encoding="utf-8" standalone="no"?><svg xmlns:android="http://schemas.android.com/apk/res/android" height="175.00003" width="375.1055" xmlns="http://www.w3.org/2000/svg">
    <path d="M0,0l375,0l0,175l-375,0l0,-175" fill="#57c2ea" fill-opacity="1.0" fill-rule="evenOdd"/>
    <path d="M0.105,0l375,0l0,127l-375,0l0,-127" fill="#a1daf7" fill-opacity="1.0"/>
    <path d="M282.558,133.333H206.69q-2.172,0.166 -4.2,0.351l-0.082,0.596a0.726,0.726 0,0 1,-0.719 0.627h-0.789a0.726,0.726 0,0 1,-0.719 -0.627h0l-0.051,-0.37c-3.501,0.352 -6.616,0.745 -9.273,1.172l-0.086,0.627 -0.642,4.66a0.726,0.726 0,0 1,-0.719 0.627h-0.789a0.726,0.726 0,0 1,-0.719 -0.627l-0.638,-4.631c-4.244,0.889 -6.63,1.891 -6.63,2.951 0,3.672 28.649,6.648 63.99,6.648s63.99,-2.977 63.99,-6.648c0,-1.041 -2.306,-2.027 -6.414,-2.905l-0.631,4.586a0.724,0.724 0,0 1,-0.719 0.627h-0.789a0.726,0.726 0,0 1,-0.719 -0.627l-0.702,-5.103h0l-0.02,-0.147c-2.567,-0.418 -5.571,-0.805 -8.947,-1.153l-0.043,0.314a0.726,0.726 0,0 1,-0.719 0.627h-0.789a0.725,0.725 0,0 1,-0.719 -0.627h0l-0.075,-0.544q-2.289,-0.213 -4.769,-0.403" fill="#48a1c3" fill-opacity="1.0"/>
    <path d="M298.64,135.266l0.702,5.103a0.726,0.726 0,0 0,0.719 0.627h0.789a0.724,0.724 0,0 0,0.719 -0.627L302.21,135.709a9.453,9.453 0,0 0,-3.57 -0.443" fill="#aaaaaa" fill-opacity="1.0"/>
    <path d="M302.21,135.709l0.389,-2.823h-4.286l0.327,2.38a9.453,9.453 0,0 1,3.57 0.443" fill="#727272" fill-opacity="1.0"/>
    <path d="M187.2,135.266l0.703,5.103a0.726,0.726 0,0 0,0.719 0.627h0.789a0.726,0.726 0,0 0,0.719 -0.627l0.641,-4.66a9.452,9.452 0,0 0,-3.57 -0.443" fill="#aaaaaa" fill-opacity="1.0"/>
    <path d="M190.77,135.709l0.389,-2.823h-4.286l0.327,2.38a9.452,9.452 0,0 1,3.57 0.443" fill="#727272" fill-opacity="1.0"/>
    <path d="M199.151,126.797l0.327,2.38 0.702,5.103a0.726,0.726 0,0 0,0.719 0.627h0.789a0.726,0.726 0,0 0,0.719 -0.627l0.642,-4.66 0.388,-2.823h-4.285" fill="#727272" fill-opacity="1.0"/>
    <path d="M286.372,126.797l0.328,2.38 0.702,5.103a0.725,0.725 0,0 0,0.719 0.627h0.789a0.726,0.726 0,0 0,0.719 -0.627l0.641,-4.66 0.389,-2.823H286.372" fill="#727272" fill-opacity="1.0"/>
    <path d="M308.44,101.755l-10.07,-2.398a1.036,1.036 0,0 0,-0.458 -0.109h-105.249a1.045,1.045 0,0 0,-0.421 0.09l-11.69,2.48 -0.026,0.006 -0.021,0.005v0.001A3.181,3.181 0,0 0,178 104.937v25.214a3.182,3.182 0,0 0,3.182 3.183H308.44a3.182,3.182 0,0 0,3.182 -3.183V104.937a3.182,3.182 0,0 0,-3.182 -3.182" fill="#e5e5e1" fill-opacity="1.0"/>
    <path d="M308.44,109.209 L298.37,107.377a1.291,1.291 0,0 0,-0.458 -0.084h-105.249a1.344,1.344 0,0 0,-0.421 0.068L180.552,109.257l-0.026,0.004 -0.021,0.004v0.001A2.691,2.691 0,0 0,178 111.64v19.262c0,1.343 1.425,2.432 3.182,2.432H308.44c1.757,0 3.182,-1.089 3.182,-2.432V111.64c0,-1.343 -1.425,-2.431 -3.182,-2.431" fill="#727272" fill-opacity="1.0"/>
    <path d="M305.001,104.569v21.048a2.894,2.894 0,0 1,-4.994 1.92l-7.088,-7.432a2.784,2.784 0,0 1,-0.773 -1.974l0.296,-15.314a2.871,2.871 0,0 1,3.599 -2.676l6.792,1.699c1.871,0.542 2.169,0.251 2.169,2.728" fill="#aaaaaa" fill-opacity="1.0"/>
    <path d="M310.377,133.333h-5.376v-30.382a0.568,0.568 0,0 1,0.567 -0.568H310.377a1.245,1.245 0,0 1,1.245 1.245v28.459a1.245,1.245 0,0 1,-1.245 1.246" fill="#d1d1d1" fill-opacity="1.0"/>
    <path d="M184.622,104.569v21.048a2.893,2.893 0,0 0,4.994 1.92l7.088,-7.432a2.784,2.784 0,0 0,0.773 -1.974l-0.296,-15.314a2.871,2.871 0,0 0,-3.599 -2.676L186.79,101.841c-1.871,0.542 -2.168,0.251 -2.168,2.728" fill="#aaaaaa" fill-opacity="1.0"/>
    <path d="M247.18,91h46.791a1.551,1.551 0,0 1,1.552 1.552V109.834a1.551,1.551 0,0 1,-1.552 1.551h-46.791a1.551,1.551 0,0 1,-1.552 -1.551V92.552a1.551,1.551 0,0 1,1.552 -1.552" fill="#aaaaaa" fill-opacity="1.0"/>
    <path d="M197.285,91h46.791a1.551,1.551 0,0 1,1.552 1.552V109.834a1.551,1.551 0,0 1,-1.552 1.551h-46.791a1.551,1.551 0,0 1,-1.552 -1.551V92.552a1.551,1.551 0,0 1,1.552 -1.552" fill="#aaaaaa" fill-opacity="1.0"/>
    <path d="M247.849,91h46.792a1.552,1.552 0,0 1,1.552 1.552V109.834a1.552,1.552 0,0 1,-1.552 1.551h-46.792a1.551,1.551 0,0 1,-1.551 -1.551V92.552a1.551,1.551 0,0 1,1.551 -1.552" fill="#d1d1d1" fill-opacity="1.0"/>
    <path d="M196.615,91h46.792A1.551,1.551 0,0 1,244.958 92.552V109.834a1.551,1.551 0,0 1,-1.551 1.551h-46.792a1.552,1.552 0,0 1,-1.552 -1.551V92.552a1.552,1.552 0,0 1,1.552 -1.552" fill="#d1d1d1" fill-opacity="1.0"/>
    <path d="M184.971,118.453H304.76a0.239,0.239 0,0 0,0.147 -0.428l-8.688,-6.738 -0.147,-0.051H195.195l-0.133,0.04 -10.225,6.737a0.239,0.239 0,0 0,0.133 0.439" fill="#e5e5e1" fill-opacity="1.0"/>
    <path d="M293.213,105.059l-0.023,-0.004 -0.043,-0.008a5.044,5.044 0,0 0,-2.276 9.821l6.928,1.922 2.038,-10.519 -6.623,-1.213" fill="#aaaaaa" fill-opacity="1.0"/>
    <path d="M298.982,106.203a5.359,5.359 0,1 1,-5.359 5.359,5.359 5.359,0 0,1 5.359,-5.359" fill="#aaaaaa" fill-opacity="1.0"/>
    <path d="M293.659,105.059l-0.023,-0.004 -0.043,-0.008a5.044,5.044 0,0 0,-2.275 9.821h-0.001l6.928,1.922 2.038,-10.519 -6.623,-1.213" fill="#d1d1d1" fill-opacity="1.0"/>
    <path d="M299.429,106.203a5.359,5.359 0,1 1,-5.359 5.359,5.359 5.359,0 0,1 5.359,-5.359" fill="#aaaaaa" fill-opacity="1.0"/>
    <path d="M197.374,105.059l0.023,-0.004 0.043,-0.008a5.044,5.044 0,0 1,2.276 9.821l-6.928,1.922 -2.038,-10.519 6.623,-1.213" fill="#aaaaaa" fill-opacity="1.0"/>
    <path d="M191.604,106.203a5.359,5.359 0,1 1,-5.359 5.359,5.359 5.359,0 0,1 5.359,-5.359" fill="#aaaaaa" fill-opacity="1.0"/>
    <path d="M196.928,105.059l0.023,-0.004 0.043,-0.008a5.044,5.044 0,0 1,2.275 9.821h0.001l-6.928,1.922 -2.038,-10.519 6.623,-1.213" fill="#d1d1d1" fill-opacity="1.0"/>
    <path d="M191.158,106.203a5.359,5.359 0,1 1,-5.359 5.359,5.359 5.359,0 0,1 5.359,-5.359" fill="#aaaaaa" fill-opacity="1.0"/>
    <path d="M179.245,102.383h4.808a0.569,0.569 0,0 1,0.568 0.568v30.382h-5.376A1.246,1.246 0,0 1,178 132.087v-28.459a1.245,1.245 0,0 1,1.245 -1.245" fill="#d1d1d1" fill-opacity="1.0"/>
    <path d="M184.693,125.893H304.926a0.519,0.519 0,0 1,0.519 0.519v6.403a0.519,0.519 0,0 1,-0.519 0.519H184.693a0.518,0.518 0,0 1,-0.518 -0.519v-6.403a0.518,0.518 0,0 1,0.518 -0.519" fill="#aaaaaa" fill-opacity="1.0"/>
    <path d="M184.736,118.453H304.883a0.561,0.561 0,0 1,0.562 0.561v6.318a0.561,0.561 0,0 1,-0.562 0.561H184.736a0.561,0.561 0,0 1,-0.561 -0.561v-6.318a0.561,0.561 0,0 1,0.561 -0.561" fill="#d1d1d1" fill-opacity="1.0"/>
    <path d="M311.247,132.979a1.249,1.249 0,0 1,-0.862 0.354,1.241 1.241,0 0,0 0.862,-0.354m0.375,-0.876a1.246,1.246 0,0 1,-0.171 0.615,1.241 1.241,0 0,0 0.171,-0.615m0,-0.008 l-0,0.005 0,-0.005" fill="#e2a50c" fill-opacity="1.0"/>
    <path d="M311.622,103.614l0,0.006 -0,-0.006m-0.248,-0.732a1.245,1.245 0,0 1,0.248 0.731,1.239 1.239,0 0,0 -0.248,-0.731m-0.004,-0.005 l0.003,0.004 -0.003,-0.004m-0.004,-0.005 l0.001,0.001 -0.001,-0.001m-0.13,-0.144 l0,0 0,0m-0.843,-0.344a1.244,1.244 0,0 1,0.841 0.342,1.24 1.24,0 0,0 -0.841,-0.342m-0.008,-0 l0.006,0 -0.006,-0m-130.488,-0.356 l-0.004,0.002 0.004,-0.002m0.608,-0.198a3.171,3.171 0,0 0,-0.604 0.196,3.188 3.188,0 0,1 0.604,-0.196h0m127.951,-0.074h0" fill="#ffcc4a" fill-opacity="1.0"/>
    <path d="M195.063,99.247h-2.4a1.044,1.044 0,0 0,-0.408 0.084l-0.012,0.005h0l-11.69,2.48 -0.027,0.006 -0.021,0.005v0.001h0a3.188,3.188 0,0 0,-0.604 0.196l-0.003,0.002 -0.004,0.002a3.162,3.162 0,0 0,-0.608 0.354h4.768a0.569,0.569 0,0 1,0.568 0.568v1.618c0,-2.477 0.297,-2.186 2.168,-2.728l6.792,-1.699a2.87,2.87 0,0 1,1.481 0.006v-0.9m102.849,0h-1.72v0.933l6.64,1.661c1.871,0.542 2.169,0.251 2.169,2.728v-1.618a0.568,0.568 0,0 1,0.567 -0.568H310.332a3.165,3.165 0,0 0,-1.875 -0.628h-0.002l-0.015,0h0l-10.07,-2.398a1.036,1.036 0,0 0,-0.458 -0.109" fill="#ffe5a3" fill-opacity="1.0"/>
    <path d="M305.001,133.328a0.521,0.521 0,0 1,-0.075 0.005h0.075v-0.005M184.622,125.881v0.017l0.013,-0.002 -0.001,-0.013 -0.012,-0.002m120.379,-0.001 l-0.012,0.002 -0.001,0.014 0.013,0.002v-0.018M245.628,109.834a1.551,1.551 0,0 1,-0.888 1.402h1.777a1.551,1.551 0,0 1,-0.888 -1.402h0" fill="#9e7200" fill-opacity="1.0"/>
    <path d="M304.989,125.883a0.567,0.567 0,0 1,-0.106 0.01h0.043a0.523,0.523 0,0 1,0.062 0.004l0.001,-0.014m-8.797,-25.703v5.343l4.061,0.744a5.361,5.361 0,0 1,4.535 5.296h0a5.355,5.355 0,0 1,-2.428 4.487l2.547,1.976a0.239,0.239 0,0 1,-0.147 0.428h0.123a0.566,0.566 0,0 1,0.118 0.012V104.569c0,-2.477 -0.298,-2.186 -2.169,-2.728l-6.64,-1.661" fill="#e6a910" fill-opacity="1.0"/>
    <path d="M310.377,102.383h-4.809a0.568,0.568 0,0 0,-0.567 0.568V118.466a0.561,0.561 0,0 1,0.443 0.548v6.318a0.561,0.561 0,0 1,-0.443 0.548v0.018a0.519,0.519 0,0 1,0.443 0.513v6.403a0.519,0.519 0,0 1,-0.443 0.513v0.005h5.376l0.008,0a1.245,1.245 0,0 0,1.237 -1.23v-0.002l0,-0.005 0,-0.008v-28.459h0l0,-0.008 -0,-0.006v-0.002a1.245,1.245 0,0 0,-0.248 -0.731l-0.001,-0.001 -0.003,-0.004 -0.004,-0.005 -0.001,-0.001a1.252,1.252 0,0 0,-0.13 -0.144l0,0 -0.002,-0.002a1.244,1.244 0,0 0,-0.841 -0.342l-0.002,0 -0.006,-0 -0.008,0h0" fill="#ffd15b" fill-opacity="1.0"/>
    <path d="M184.633,125.883l0.001,0.013a0.523,0.523 0,0 1,0.059 -0.003h0.043a0.563,0.563 0,0 1,-0.102 -0.009m9.678,-25.836a2.87,2.87 0,0 0,-0.73 0.094L186.79,101.841c-1.871,0.542 -2.168,0.251 -2.168,2.728v13.896a0.563,0.563 0,0 1,0.114 -0.012h0.235a0.239,0.239 0,0 1,-0.133 -0.439l3.189,-2.101a5.353,5.353 0,0 1,-2.228 -4.35h0a5.361,5.361 0,0 1,4.535 -5.296l4.73,-0.866v-5.252a2.871,2.871 0,0 0,-0.752 -0.1" fill="#e6a910" fill-opacity="1.0"/>
    <path d="M246.306,92.396a1.545,1.545 0,0 1,-0.678 0.155h0V109.834h0a1.551,1.551 0,0 0,0.888 1.402h0.67a1.551,1.551 0,0 1,-0.888 -1.402V92.552q0,-0.079 0.008,-0.155m1.543,-1.396h-0.669q0,0.078 -0.008,0.155a1.544,1.544 0,0 1,0.677 -0.155" fill="#e6a910" fill-opacity="1.0"/>
    <path d="M244.95,92.396q0.008,0.077 0.008,0.156V109.834a1.551,1.551 0,0 1,-0.888 1.402h0.67a1.551,1.551 0,0 0,0.888 -1.402h0V92.552h0a1.544,1.544 0,0 1,-0.678 -0.156m-0.874,-1.396h-0.669a1.545,1.545 0,0 1,0.677 0.155q-0.008,-0.076 -0.008,-0.155h0" fill="#e6a910" fill-opacity="1.0"/>
    <path d="M294.641,91h-46.792a1.544,1.544 0,0 0,-0.677 0.155,1.553 1.553,0 0,1 -0.867,1.241q-0.008,0.077 -0.008,0.155V109.834a1.551,1.551 0,0 0,0.888 1.402h40.117a5.047,5.047 0,0 1,4.887 -6.281q0.111,0 0.223,0.005 0.111,-0.005 0.223,-0.005a5.068,5.068 0,0 1,0.957 0.091l0.043,0.008 0.023,0.004 2.533,0.464V92.552a1.552,1.552 0,0 0,-1.552 -1.552" fill="#ffd15b" fill-opacity="1.0"/>
    <path d="M243.407,91h-46.792a1.552,1.552 0,0 0,-1.552 1.552v12.848l1.864,-0.341 0.023,-0.004 0.043,-0.008a5.069,5.069 0,0 1,0.957 -0.091q0.112,0 0.223,0.005 0.112,-0.005 0.223,-0.005a5.047,5.047 0,0 1,4.887 6.281H244.07a1.551,1.551 0,0 0,0.888 -1.402V92.552q0,-0.079 -0.008,-0.156a1.554,1.554 0,0 1,-0.866 -1.241,1.545 1.545,0 0,0 -0.677,-0.155h0" fill="#ffd15b" fill-opacity="1.0"/>
    <path d="M287.303,111.236H203.284a5.044,5.044 0,0 1,-3.567 3.632l-6.419,1.781a5.356,5.356 0,0 1,-1.693 0.273q-0.112,0 -0.223,-0.005 -0.111,0.005 -0.223,0.005a5.335,5.335 0,0 1,-3.131 -1.009l-3.189,2.101a0.239,0.239 0,0 0,0.133 0.439H304.76a0.239,0.239 0,0 0,0.147 -0.428l-2.547,-1.976a5.335,5.335 0,0 1,-2.931 0.872q-0.112,0 -0.223,-0.005 -0.111,0.005 -0.223,0.005a5.354,5.354 0,0 1,-1.693 -0.273l-6.42,-1.781a5.044,5.044 0,0 1,-3.567 -3.632" fill="#ffe5a3" fill-opacity="1.0"/>
    <path d="M292.189,104.955a5.045,5.045 0,0 0,-1.319 9.913l6.42,1.781a5.329,5.329 0,0 1,-0.819 -0.351l-5.154,-1.43h0.001a5.045,5.045 0,0 1,1.095 -9.908q-0.112,-0.005 -0.223,-0.005" fill="#e6a910" fill-opacity="1.0"/>
    <path d="M296.471,116.298a5.333,5.333 0,0 0,2.512 0.624q0.112,0 0.223,-0.005a5.345,5.345 0,0 1,-1.47 -0.268l-1.265,-0.351" fill="#e6a910" fill-opacity="1.0"/>
    <path d="M292.636,104.955q-0.112,0 -0.223,0.005a5.045,5.045 0,0 0,-1.095 9.908h-0.001l5.154,1.43 1.265,0.351a5.362,5.362 0,0 1,-3.666 -5.086h0a5.364,5.364 0,0 1,6.184 -5.296l-4.061,-0.744 -2.533,-0.464 -0.023,-0.004 -0.043,-0.008a5.068,5.068 0,0 0,-0.957 -0.091" fill="#ffd15b" fill-opacity="1.0"/>
    <path d="M299.429,106.203a5.359,5.359 0,1 0,5.359 5.359,5.359 5.359,0 0,0 -5.359,-5.359" fill="#d49900" fill-opacity="1.0"/>
    <path d="M198.397,104.955q-0.111,0 -0.223,0.005a5.045,5.045 0,0 1,1.095 9.908h0.001l-5.154,1.43a5.326,5.326 0,0 1,-0.819 0.351l6.419,-1.781a5.045,5.045 0,0 0,-1.319 -9.913" fill="#e6a910" fill-opacity="1.0"/>
    <path d="M194.116,116.298l-1.265,0.351a5.345,5.345 0,0 1,-1.47 0.268q0.111,0.005 0.223,0.005a5.333,5.333 0,0 0,2.512 -0.624" fill="#e6a910" fill-opacity="1.0"/>
    <path d="M197.951,104.955a5.069,5.069 0,0 0,-0.957 0.091l-0.043,0.008 -0.023,0.004 -1.864,0.341 -4.73,0.866a5.364,5.364 0,0 1,6.184 5.296h0a5.362,5.362 0,0 1,-3.666 5.086l1.265,-0.351 5.154,-1.43h-0.001a5.045,5.045 0,0 0,-1.095 -9.908q-0.111,-0.005 -0.223,-0.005" fill="#ffd15b" fill-opacity="1.0"/>
    <path d="M191.158,106.203a5.359,5.359 0,1 0,5.359 5.359,5.359 5.359,0 0,0 -5.359,-5.359" fill="#d49900" fill-opacity="1.0"/>
    <path d="M184.622,133.328v0.005h0.072a0.52,0.52 0,0 1,-0.072 -0.005" fill="#9e7200" fill-opacity="1.0"/>
    <path d="M302.155,135.691l0.016,0.005 -0.016,-0.005m-2.784,-0.447h0a9.451,9.451 0,0 1,2.77 0.442,9.45 9.45,0 0,0 -2.77,-0.442" fill="#e2a50c" fill-opacity="1.0"/>
    <path d="M299.281,135.244h-0.001q-0.3,0 -0.6,0.019h-0l-0.04,0.003 0.702,5.103a0.726,0.726 0,0 0,0.719 0.627h0.789a0.724,0.724 0,0 0,0.719 -0.627L302.21,135.709l-0.039,-0.012 -0.016,-0.005 -0.014,-0.005a9.451,9.451 0,0 0,-2.77 -0.442l-0.082,-0h-0.008" fill="#e6a910" fill-opacity="1.0"/>
    <path d="M302.537,133.333H298.374l0.266,1.933 0.04,-0.003h0q0.3,-0.019 0.6,-0.019h0.009l0.082,0a9.45,9.45 0,0 1,2.77 0.442l0.014,0.005 0.016,0.005 0.039,0.012h0l0.327,-2.376" fill="#9e7200" fill-opacity="1.0"/>
    <path d="M287.272,133.333l0,0l0.055,0.403l0.001,0l-0.056,-0.403" fill="#e2a50c" fill-opacity="1.0"/>
    <path d="M287.327,133.736l0.075,0.544l-0.074,-0.544l-0.001,0" fill="#bf8a00" fill-opacity="1.0"/>
    <path d="M289.759,133.333H287.272l0.056,0.403 0.075,0.544a0.725,0.725 0,0 0,0.719 0.627h0.789a0.726,0.726 0,0 0,0.719 -0.627l0.13,-0.947" fill="#9e7200" fill-opacity="1.0"/>
    <path d="M200.05,133.333h-0.001l0.08,0.577 0,0 -0.079,-0.577m2.488,0h-0l-0.048,0.351 0,0 0.048,-0.351" fill="#e2a50c" fill-opacity="1.0"/>
    <path d="M200.13,133.91l-0,0 0.051,0.37 -0.051,-0.37m2.36,-0.226 l-0,0 -0.082,0.596 0.082,-0.596" fill="#bf8a00" fill-opacity="1.0"/>
    <path d="M202.538,133.333h-2.487l0.079,0.577 0.051,0.37a0.726,0.726 0,0 0,0.719 0.627h0.789a0.726,0.726 0,0 0,0.719 -0.627h0l0.082,-0.596 0.048,-0.351" fill="#9e7200" fill-opacity="1.0"/>
    <path d="M187.24,135.263h0m0.605,-0.019a9.456,9.456 0,0 1,1.419 0.108h0a9.455,9.455 0,0 0,-1.419 -0.108m-0.004,0h0m3.256,-1.911h-0l-0.241,1.749 0.001,-0 0.24,-1.749" fill="#e2a50c" fill-opacity="1.0"/>
    <path d="M190.715,135.691l0.016,0.005 -0.016,-0.005m-1.451,-0.34h0a9.448,9.448 0,0 1,1.436 0.335,9.448 9.448,0 0,0 -1.436,-0.335m1.593,-0.27 l-0.001,0 -0.086,0.627h0l-0.641,4.66 0.642,-4.66 0.086,-0.627" fill="#bf8a00" fill-opacity="1.0"/>
    <path d="M187.841,135.244h-0.001q-0.3,0 -0.6,0.019h-0l-0.04,0.003 0.703,5.103a0.726,0.726 0,0 0,0.719 0.627h0.789a0.726,0.726 0,0 0,0.719 -0.627h0l0.641,-4.66h0l-0.039,-0.012 -0.016,-0.005 -0.014,-0.005a9.452,9.452 0,0 0,-2.856 -0.443h-0.004" fill="#e6a910" fill-opacity="1.0"/>
    <path d="M191.097,133.333h-4.163l0.266,1.933 0.04,-0.003h0q0.3,-0.019 0.6,-0.019h0.005a9.451,9.451 0,0 1,2.856 0.443l0.014,0.005 0.016,0.005 0.039,0.012h0l0.086,-0.627 0.241,-1.749" fill="#9e7200" fill-opacity="1.0"/>
    <path d="M184.053,102.383h-4.808A1.245,1.245 0,0 0,178 103.628v28.459a1.246,1.246 0,0 0,1.245 1.246h5.376v-0.005a0.519,0.519 0,0 1,-0.446 -0.514v-6.403a0.519,0.519 0,0 1,0.446 -0.514v-0.017a0.561,0.561 0,0 1,-0.446 -0.549v-6.318a0.561,0.561 0,0 1,0.446 -0.549V102.951a0.569,0.569 0,0 0,-0.568 -0.568" fill="#ffd15b" fill-opacity="1.0"/>
    <path d="M304.926,125.893H184.693a0.523,0.523 0,0 0,-0.059 0.003l-0.013,0.002a0.519,0.519 0,0 0,-0.446 0.514v6.403a0.518,0.518 0,0 0,0.518 0.519H304.926a0.518,0.518 0,0 0,0.519 -0.519v-6.403a0.519,0.519 0,0 0,-0.443 -0.513l-0.013,-0.002a0.523,0.523 0,0 0,-0.062 -0.004" fill="#e6a910" fill-opacity="1.0"/>
    <path d="M304.883,118.453H184.736a0.56,0.56 0,0 0,-0.561 0.561v6.318a0.561,0.561 0,0 0,0.446 0.549l0.012,0.002a0.563,0.563 0,0 0,0.102 0.009H304.883a0.567,0.567 0,0 0,0.106 -0.01l0.012,-0.002a0.561,0.561 0,0 0,0.443 -0.548v-6.318a0.561,0.561 0,0 0,-0.443 -0.548h0a0.566,0.566 0,0 0,-0.118 -0.012" fill="#ffd15b" fill-opacity="1.0"/>
    <path d="M143.136,60.384a3.756,3.756 0,0 0,0.04 0.601c0.04,2.122 -0.2,8.008 -0.561,8.689 -1.241,2.322 -6.327,8.329 -6.967,9.25a12.439,12.439 0,0 0,-1.842 3.363,7.087 7.087,0 0,1 -0.48,2.883 11.835,11.835 0,0 1,-1.362 2.042c-0.2,0.24 -1.842,0.4 -1.962,0.481s-0.761,0.36 -0.761,0.36a4.379,4.379 0,0 1,-0.761 1.001,1.306 1.306,0 0,1 -0.961,0c-0.4,-0.12 -1.081,-0.28 -1.081,-0.28s-0.441,0.04 -0.521,-0.08a0.818,0.818 0,0 0,-0.681 -0.12c-0.12,0.08 -0.681,-0.2 -0.521,-0.681 0.08,-0.32 -0.521,-0.16 -0.721,-0.761 -0.16,-0.48 0.841,-2.082 0.601,-1.962a0.603,0.603 0,0 1,-0.761 -0.28c-0.12,-0.24 0.2,-0.561 0.521,-0.881 0.32,-0.32 0.44,-1.001 0.641,-1.241a4.242,4.242 0,0 1,1.281 -0.601c0.401,-0.2 1.362,-1.121 1.842,-1.361a13.445,13.445 0,0 1,2.843 -0.24,18.119 18.119,0 0,0 2.443,-3.364c1.682,-2.683 2.603,-7.007 3.203,-8.369a9.949,9.949 0,0 1,2.123 -2.723,8.145 8.145,0 0,0 0.08,-1.762c-0.04,-0.521 0.08,-2.923 0.12,-4.285 0.04,-0.561 0.04,-0.921 0.04,-0.921l3.043,-0.841a3.628,3.628 0,0 1,1.121 2.082" fill="#fcc490" fill-opacity="1.0"/>
    <path d="M128.795,82.867c-1.156,0 -2.485,1.101 -3.157,1.703a4.534,4.534 0,0 1,1.882 0.761c1.365,1.258 1.796,1.322 1.841,1.322 0.005,0 0.005,-0.001 0.001,-0.001l0.921,-0.481 0.521,0.08 0.4,-0.2c0.4,-0.16 0.4,-0.801 0.28,-1.361 -0.12,-0.601 -0.801,-1.362 -2.242,-1.762a1.595,1.595 0,0 0,-0.447 -0.061" fill="#e6b385" fill-opacity="1.0"/>
    <path d="M150.304,152.082v-1.282l5.485,-0.841s2.963,2.844 3.964,3.044a7.084,7.084 0,0 1,0.801 -0.04c-3.564,1.922 -7.127,1.001 -10.251,-0.881" fill="#727272" fill-opacity="1.0"/>
    <path d="M160.515,152.963a3.631,3.631 0,0 1,3.684 2.322s-1.081,1.521 -7.488,0.601c0,0 -6.407,-2.843 -6.407,-3.443v-0.32c3.123,1.842 6.687,2.763 10.21,0.841" fill="#aaaaaa" fill-opacity="1.0"/>
    <path d="M140.293,152.723a9.117,9.117 0,0 1,0.16 0.961s-7.087,1.441 -11.212,1.001 -6.887,-0.32 -7.087,-0.841c0,0 1.161,-2.003 4.965,-1.522a4.949,4.949 0,0 0,1.882 -0.12,27.216 27.216,0 0,0 2.883,0.961c2.803,0.681 5.646,0.04 8.409,-0.44" fill="#aaaaaa" fill-opacity="1.0"/>
    <path d="M134.327,148.598l5.486,2.122s0.32,1.121 0.481,2.003c-2.763,0.481 -5.606,1.121 -8.329,0.44a27.213,27.213 0,0 1,-2.883 -0.961c2.923,-0.682 5.246,-3.605 5.246,-3.605" fill="#727272" fill-opacity="1.0"/>
    <path d="M143.697,90.376c0.24,-0.2 0.521,-0.4 0.761,-0.641a8.517,8.517 0,0 1,-4.245 -1.281h0.04c0,-0.04 0.08,-0.4 0.2,-0.921 6.767,1.962 14.655,1.802 20.662,-1.762a32.636,32.636 0,0 1,-17.418 4.605" fill="#334351" fill-opacity="1.0"/>
    <path d="M144.858,95.422a16.336,16.336 0,0 0,2.442 -0.16,13.357 13.357,0 0,1 -4.965,-2.804h0.16c2.864,0.865 7.737,0.48 11.091,0.096 2.086,-0.239 3.583,-0.478 3.645,-0.417 -1.562,1.242 -3.044,2.764 -4.725,3.845 -0.08,-0.681 -0.16,-1.081 -0.16,-1.081s-2.282,0.801 -2.363,1.361c0,0.08 -0.12,0.44 -0.24,0.961 -1.081,-0.36 -2.162,-0.801 -3.203,-1.201a9.441,9.441 0,0 0,-1.682 -0.601" fill="#334351" fill-opacity="1.0"/>
    <path d="M140.454,87.533c-0.041,0.177 -0.077,0.336 -0.107,0.47q0.097,-0.222 0.191,-0.446l-0.084,-0.024" fill="#2e3842" fill-opacity="1.0"/>
    <path d="M143.991,89.415c0.126,0.077 0.242,0.146 0.347,0.201q0.349,0.005 0.696,0.005 -0.523,-0.09 -1.043,-0.206m-3.695,-1.183c-0.027,0.126 -0.042,0.205 -0.042,0.222h-0.04q0.034,0.026 0.069,0.052a2.543,2.543 0,0 1,0.389 -0.119q-0.189,-0.076 -0.376,-0.155" fill="#2e3842" fill-opacity="1.0"/>
    <path d="M157.162,92.168c-0.323,0 -1.715,0.213 -3.576,0.426a58.034,58.034 0,0 1,-6.381 0.426,17.158 17.158,0 0,1 -4.71,-0.522h-0.11a13.243,13.243 0,0 0,4.915 2.764h0l-0.099,0.014c0.033,0.009 0.066,0.018 0.099,0.026a16.352,16.352 0,0 1,-2.287 0.161,9.445 9.445,0 0,1 1.526,0.56c1.041,0.4 2.122,0.841 3.203,1.201 0.12,-0.521 0.24,-0.881 0.24,-0.961 0.081,-0.561 2.363,-1.361 2.363,-1.361s0.08,0.4 0.16,1.081a59.918,59.918 0,0 0,4.686 -3.814l-0.03,-0.001" fill="#2e3842" fill-opacity="1.0"/>
    <path d="M160.635,117.005c-0.641,1.882 -0.921,4.204 -2.803,4.965 -1.762,0.721 -3.844,0.841 -5.606,1.562a34.452,34.452 0,0 1,1.842 -9.05V113.36a11.792,11.792 0,0 0,2.683 4.245,2.763 2.763,0 0,0 3.884,-0.601" fill="#334351" fill-opacity="1.0"/>
    <path d="M140.494,116.203a5.45,5.45 0,0 0,5.406 -2.603c0.08,1.562 0.24,3.645 0.16,5.847a9.996,9.996 0,0 1,-5.566 -3.244" fill="#334351" fill-opacity="1.0"/>
    <path d="M154.068,113.36v1.121h0a34.452,34.452 0,0 0,-1.842 9.05l0.038,-0.015 0.002,-0.025c1.762,-0.761 3.844,-0.841 5.606,-1.562a2.867,2.867 0,0 0,1.072 -0.758c0.918,-1.052 1.2,-2.712 1.678,-4.13a2.41,2.41 0,0 1,-0.261 0.308,2.687 2.687,0 0,1 -1.96,0.797 2.617,2.617 0,0 1,-1.651 -0.541,11.792 11.792,0 0,1 -2.683,-4.245" fill="#2e3842" fill-opacity="1.0"/>
    <path d="M145.899,113.601a5.44,5.44 0,0 1,-5.358 2.654,9.959 9.959,0 0,0 5.518,3.193c0.015,-0.422 0.022,-0.839 0.022,-1.249 -0,-1.732 -0.117,-3.335 -0.182,-4.598" fill="#2e3842" fill-opacity="1.0"/>
    <path d="M152.266,147.276a7.753,7.753 0,0 0,4.445 1.562,5.368 5.368,0 0,1 0,1.161c-0.2,0.761 -3.764,2.644 -6.487,1.121 0,0 0.561,-2.603 1.001,-5.005a6.977,6.977 0,0 0,1.041 1.161" fill="#334351" fill-opacity="1.0"/>
    <path d="M140.774,142.552a73.419,73.419 0,0 0,-0.641 8.408s-4.885,-0.32 -6.207,-2.042a22.321,22.321 0,0 0,1.201 -3.043,22.126 22.126,0 0,0 3.363,-1.121 5.725,5.725 0,0 0,2.283 -2.202" fill="#334351" fill-opacity="1.0"/>
    <path d="M151.225,146.115c-0.44,2.402 -1.001,5.005 -1.001,5.005l0.022,0.012c1.455,0.073 2.852,0.168 4.174,0.282a3.806,3.806 0,0 0,2.292 -1.415,5.366 5.366,0 0,0 0,-1.161 7.753,7.753 0,0 1,-4.445 -1.562,6.977 6.977,0 0,1 -1.041,-1.161" fill="#2e3842" fill-opacity="1.0"/>
    <path d="M140.774,142.552a5.725,5.725 0,0 1,-2.283 2.202l-0.024,0.01 -0.056,0.03a25.473,25.473 0,0 1,-3.29 1.102,22.323 22.323,0 0,1 -1.195,3.022c1.321,1.722 6.207,2.042 6.207,2.042a73.419,73.419 0,0 1,0.641 -8.408" fill="#2e3842" fill-opacity="1.0"/>
    <path d="M136.97,132.581a50.777,50.777 0,0 1,2.363 -16.258,33.447 33.447,0 0,1 -0.32,-6.967c0.32,-2.683 -0.361,-16.458 1.201,-20.822 1.682,-0.721 3.283,0.641 4.124,1.081 6.127,0.08 11.572,-0.721 16.698,-3.924q0.661,-0.42 1.322,-0.841a11.847,11.847 0,0 1,1.842 7.127c-0.561,4.325 -3.003,14.736 -3.003,17.379 -0.08,6.286 0.48,10.932 -0.681,15.056 -1.201,4.125 -4.444,11.732 -4.444,17.299 0,1.361 0.521,5.125 0.641,7.087a7.571,7.571 0,0 1,-4.445 -1.562,5.9 5.9,0 0,1 -1.041,-1.201 27.24,27.24 0,0 0,0.521 -3.684,179.541 179.541,0 0,1 0.521,-18.86c1.762,-0.761 3.844,-0.841 5.606,-1.562 1.882,-0.761 2.162,-3.123 2.803,-4.965a2.813,2.813 0,0 1,-3.884 0.641,11.785 11.785,0 0,1 -2.683,-4.245c-0.08,-5.165 -1.522,-16.898 -1.602,-17.338 1.682,-1.121 3.164,-2.603 4.725,-3.845 -0.062,-0.061 -1.559,0.178 -3.645,0.417 -3.354,0.384 -8.227,0.768 -11.091,-0.096h-0.16a13.679,13.679 0,0 0,4.965 2.804,16.35 16.35,0 0,1 -2.442,0.16 7.206,7.206 0,0 1,1.682 0.641,30.946 30.946,0 0,0 3.203,1.201c-0.841,3.043 -3.443,12.293 -3.804,14.055a9.725,9.725 0,0 0,-0.08 2.282,5.417 5.417,0 0,1 -5.406,2.603 10.231,10.231 0,0 0,5.566 3.244,21.871 21.871,0 0,1 -0.761,5.525c-1.522,5.326 -3.083,11.012 -3.684,13.174 -0.36,1.361 -0.641,2.884 -0.881,4.405a5.75,5.75 0,0 1,-2.282 2.202,25.467 25.467,0 0,1 -3.364,1.121 37.724,37.724 0,0 0,1.922 -13.334" fill="#334351" fill-opacity="1.0"/>
    <path d="M151.74,88.746c0,0.001 0.05,1.283 0.12,2.701 0.071,1.422 0.159,2.963 0.243,3.537l0.283,-0.042 -0.08,-0.275a7.49,7.49 0,0 0,-2.124 0.999l0.161,0.237 0.191,-0.213 -0.013,-0.013c-0.174,-0.174 -1.919,-1.993 -2.255,-6.962l-0.571,0.038c0.362,5.433 2.405,7.319 2.456,7.361l0.167,0.15 0.185,-0.126a6.918,6.918 0,0 1,1.961 -0.923l0.24,-0.07 -0.037,-0.247c-0.076,-0.508 -0.168,-2.07 -0.237,-3.481 -0.07,-1.415 -0.12,-2.692 -0.12,-2.695l-0.572,0.022Z" fill="#616a9b" fill-opacity="1.0"/>
    <path d="M151.225,88.335v0.286a0.714,0.714 0,1 1,-0.714 0.714,0.716 0.716,0 0,1 0.714,-0.714v-0.572a1.286,1.286 0,1 0,1.286 1.286,1.286 1.286,0 0,0 -1.286,-1.286Z" fill="#616a9b" fill-opacity="1.0"/>
    <path d="M162.587,85.593l-0.008,0.013a6.88,6.88 0,0 1,-4.22 2.691l-0.301,0.08 0.105,0.293c0.001,0.002 0.461,1.284 0.969,2.576 0.254,0.646 0.519,1.294 0.746,1.789 0.114,0.248 0.218,0.457 0.312,0.616l0.141,0.207a0.413,0.413 0,0 0,0.272 0.165c0.355,0.039 2.637,0.32 2.64,0.32l0.227,0.028 0.077,-0.215c0,-0.001 0.221,-0.612 0.442,-1.256 0.111,-0.322 0.221,-0.651 0.305,-0.918 0.042,-0.134 0.077,-0.252 0.103,-0.348a1.097,1.097 0,0 0,0.048 -0.258h-0.49l-0.081,-0.012 -0,0.012h0.082l-0.081,-0.012a5.207,5.207 0,0 1,-0.148 0.521c-0.251,0.788 -0.715,2.075 -0.716,2.077l0.269,0.097 0.035,-0.284c-0.001,-0 -2.281,-0.28 -2.646,-0.321l-0.023,0.205 0.128,-0.166 -0.105,-0.04 -0.023,0.205 0.128,-0.166 -0.036,0.047 0.042,-0.042 -0.006,-0.005 -0.036,0.047 0.042,-0.042a1.595,1.595 0,0 1,-0.175 -0.285c-0.303,-0.575 -0.785,-1.771 -1.182,-2.808 -0.399,-1.04 -0.718,-1.927 -0.718,-1.929l-0.269,0.097 0.073,0.276a7.313,7.313 0,0 0,4.582 -2.981l-0.501,-0.276v-0" fill="#616a9b" fill-opacity="1.0"/>
    <path d="M164.359,61.706s1.281,8.889 1.562,9.97c0.04,0.16 0.12,0.44 0.12,0.44a4.062,4.062 0,0 1,-3.964 0.641v0.04L159.834,62.947" fill="#fcc490" fill-opacity="1.0"/>
    <path d="M163.718,88.174c0.32,-2.282 -1.081,-9.209 -1.762,-11.652a5.863,5.863 0,0 1,0.041 -3.844v-0.12a3.002,3.002 0,0 1,3.804 -0.881,19.458 19.458,0 0,1 1.201,3.644c0.36,2.402 -0.44,11.732 -0.48,12.053 0,0.12 0.04,0.521 0.08,1.041C165.68,89.735 164.359,89.335 163.718,88.174Z" fill="#fcc490" fill-opacity="1.0"/>
    <path d="M162.857,90.919a2.06,2.06 0,0 0,-0.741 0.138,2.826 2.826,0 0,0 -1.442,1.802v0.15l0.12,0.091v-0.04l0.2,-0.121a2.419,2.419 0,0 1,1.242 -1.562,1.439 1.439,0 0,1 1.161,0 0.261,0.261 0,0 0,0.079 0.012,0.266 0.266,0 0,0 0.201,-0.092l-0.08,-0.24a2.062,2.062 0,0 0,-0.741 -0.138" fill="#303c47" fill-opacity="1.0"/>
    <path d="M163.718,88.254v-0.08c0.04,-1.401 2.282,-2.162 2.923,0.24 0.08,0.881 0.24,2.082 0.28,2.963 0.04,1.401 -2.522,4.005 -3.804,4.245s-2.243,-2.162 -2.523,-3.765C160.274,90.296 163.718,88.254 163.718,88.254Z" fill="#fcc490" fill-opacity="1.0"/>
    <path d="M165.52,60.785a9.964,9.964 0,0 1,-2.282 1.842,17.396 17.396,0 0,1 -3.844,1.722l-0.32,-0.32a23.668,23.668 0,0 0,-0.4 2.683,41.95 41.95,0 0,0 -0.2,5.846c0.16,4.965 3.964,12.413 3.964,12.413a21.549,21.549 0,0 1,-22.184 3.243,34.615 34.615,0 0,0 2.763,-10.091c0.601,-4.685 -0.601,-14.095 -0.601,-14.095h-0.04a3.515,3.515 0,0 1,-1.281 -0.36c-0.16,-0.08 -0.32,-0.16 -0.521,-0.24a9.282,9.282 0,0 1,-2.603 -2.162s0.44,-1.081 0.921,-2.163c0.681,-1.602 0.601,-2.803 1.241,-4.805 0.481,-1.521 3.043,-2.362 4.525,-2.803a5.122,5.122 0,0 0,0.961 -0.32,6.846 6.846,0 0,1 2.923,-0.561l5.366,-0.16a4.662,4.662 0,0 1,2.082 0.4q0.948,0.308 1.922,0.521a13.605,13.605 0,0 1,2.723 0.881,7.137 7.137,0 0,1 2.763,3.884 35.589,35.589 0,0 0,2.122 4.645" fill="#00bf8f" fill-opacity="1.0"/>
    <path d="M147.661,50.614c0.521,-0.961 6.447,-0.16 6.447,-0.16 -0.441,1.722 -2.402,5.606 -3.403,5.606 -0.921,0 -3.284,-5.005 -3.043,-5.446" fill="#fcc490" fill-opacity="1.0"/>
    <path d="M143.016,58.863a20.257,20.257 0,0 0,-0.601 5.125,3.517 3.517,0 0,1 -1.281,-0.36A24.322,24.322 0,0 0,143.016 58.863Z" fill="#009b6f" fill-opacity="1.0"/>
    <path d="M159.113,64.028a23.67,23.67 0,0 0,-0.4 2.683,47.359 47.359,0 0,0 -1.441,-6.888Z" fill="#009b6f" fill-opacity="1.0"/>
    <path d="M155.87,62.147a0.375,0.375 0,0 1,-0.24 0.32,0.679 0.679,0 0,1 -0.4,0.12 0.662,0.662 0,0 1,-0.4 -0.08c-0.16,-0.08 -0.24,-0.16 -0.24,-0.32a0.376,0.376 0,0 1,0.24 -0.32,0.773 0.773,0 0,1 0.4,-0.12 1.17,1.17 0,0 1,0.4 0.08C155.79,61.906 155.87,61.986 155.87,62.147ZM155.91,58.382 L155.749,61.346 155.669,61.426 154.749,61.466 154.668,61.386 154.829,58.422 154.909,58.342 155.83,58.302Z" fill="#ffffff" fill-opacity="1.0"/>
    <path d="M148.222,62.587l-0.08,0.08l-1.081,0.08l-0.081,-0.04l-0.48,-1.642l-0.601,1.682l-0.08,0.04l-1.041,0l-0.04,-0.04l-0.2,-3.884l0.08,-0.08l0.881,-0.04l0.08,0.08l0.08,2.443l0.521,-2.083l0.08,-0.04l0.761,-0.04l0.08,0.04l0.36,2.043l0.28,-2.483l0.08,-0.08l0.881,0l0.04,0.08l-0.52,3.884z" fill="#ffffff" fill-opacity="1.0"/>
    <path d="M151.345,60.545c0,0.16 -0.08,0.801 -0.16,1.882l-0.04,0.2 -0.08,0.08 -0.681,0.04 -0.08,-0.08a1.642,1.642 0,0 1,0.04 -0.28,2.345 2.345,0 0,1 -0.721,0.16 1.205,1.205 0,0 1,-0.721 -0.16,0.801 0.801,0 0,1 -0.32,-0.681 0.853,0.853 0,0 1,0.561 -0.801,3.341 3.341,0 0,1 1.001,-0.24h0.321v-0.161a0.585,0.585 0,0 0,-0.08 -0.28,0.35 0.35,0 0,0 -0.24,-0.12 0.366,0.366 0,0 0,-0.321 0.16l-0.12,0.16 -0.801,0.161 -0.08,-0.081v-0.04a1.169,1.169 0,0 1,0.48 -0.721,1.156 1.156,0 0,1 0.801,-0.28C150.945,59.463 151.345,59.784 151.345,60.545ZM150.424,61.306h-0.16c-0.4,0 -0.561,0.12 -0.601,0.36 0,0.2 0.12,0.28 0.4,0.28a0.684,0.684 0,0 0,0.28 -0.04Z" fill="#ffffff" fill-opacity="1.0"/>
    <path d="M154.388,59.263q-0.06,1.321 -0.12,2.523a5.487,5.487 0,0 0,-0.04 0.601,2.424 2.424,0 0,1 -0.08,0.601 1.469,1.469 0,0 1,-0.48 0.841,1.427 1.427,0 0,1 -0.921,0.32 1.656,1.656 0,0 1,-0.48 -0.04l-0.04,-0.08 0.04,-0.881 0.08,-0.08h0.24c0.44,0 0.641,-0.2 0.681,-0.521v-0.4a1.455,1.455 0,0 1,-0.44 0.08,1.161 1.161,0 0,1 -0.961,-0.36 1.224,1.224 0,0 1,-0.32 -1.001,1.239 1.239,0 0,1 0.48,-1.041 1.628,1.628 0,0 1,1.081 -0.4h0.28v-0.2l0.08,-0.08 0.921,-0.04ZM153.267,61.466 L153.307,60.504c-0.4,0.041 -0.641,0.201 -0.641,0.561 0,0.28 0.16,0.44 0.48,0.4Z" fill="#ffffff" fill-opacity="1.0"/>
    <path d="M140.06,152.764l-0.026,0.005 0.026,-0.005m0.131,-0.023 l-0.089,0.016 0.089,-0.016m-9.345,-1.227c-2.192,0.214 -4.155,0.483 -5.817,0.796a7.041,7.041 0,0 1,0.955 -0.062,9.041 9.041,0 0,1 1.135,0.075 4.947,4.947 0,0 0,1.882 -0.12,27.216 27.216,0 0,0 2.883,0.961 11.103,11.103 0,0 0,2.634 0.296h0.012a10.574,10.574 0,0 1,-2.566 -0.296,27.213 27.213,0 0,1 -2.883,-0.961 7.153,7.153 0,0 0,1.765 -0.688m12.33,-0.554c-1.115,0 -2.213,0.012 -3.287,0.036 0.105,0.388 0.293,1.115 0.404,1.726h0a9.117,9.117 0,0 1,0.16 0.961,57.652 57.652,0 0,1 -9.439,1.085 16.889,16.889 0,0 1,-1.773 -0.084c-4.125,-0.44 -6.887,-0.32 -7.087,-0.841a3.581,3.581 0,0 1,2.192 -1.399c-3.204,0.661 -5.115,1.494 -5.115,2.4 0,2.145 10.721,3.884 23.945,3.884s23.945,-1.739 23.945,-3.884c0,-1.249 -3.636,-2.361 -9.284,-3.072a6.41,6.41 0,0 0,1.917 1.23,7.094 7.094,0 0,1 0.752,-0.04l0.049,0h0a3.616,3.616 0,0 1,3.644 2.322s-0.637,0.897 -3.832,0.897a25.922,25.922 0,0 1,-3.656 -0.296s-6.407,-2.843 -6.407,-3.443v-0.32a12.185,12.185 0,0 0,6.106 1.906q0.407,0 0.816,-0.039 -0.397,0.037 -0.792,0.037a12.024,12.024 0,0 1,-6.13 -1.944v-0.918l-0.059,-0.032c-2.235,-0.112 -4.608,-0.172 -7.069,-0.172" fill="#4eaed2" fill-opacity="1.0"/>
    <path d="M150.304,151.164v0.918a12.024,12.024 0,0 0,6.13 1.944q0.394,0 0.792,-0.037a8.514,8.514 0,0 0,3.288 -1.026l0.04,0 0,-0 -0.049,-0a7.094,7.094 0,0 0,-0.752 0.04,6.41 6.41,0 0,1 -1.917,-1.23c-1.071,-0.135 -2.213,-0.255 -3.418,-0.359a6.536,6.536 0,0 1,-1.862 0.284,4.76 4.76,0 0,1 -2.254,-0.534" fill="#666666" fill-opacity="1.0"/>
    <path d="M150.304,152.122v0.32c0,0.601 6.407,3.443 6.407,3.443a25.922,25.922 0,0 0,3.656 0.296c3.194,0 3.832,-0.897 3.832,-0.897a3.616,3.616 0,0 0,-3.644 -2.322l-0.04,-0a8.514,8.514 0,0 1,-3.288 1.026q-0.409,0.039 -0.816,0.039a12.185,12.185 0,0 1,-6.106 -1.906" fill="#999999" fill-opacity="1.0"/>
    <path d="M129.001,152.202a4.947,4.947 0,0 1,-1.882 0.12,9.041 9.041,0 0,0 -1.135,-0.075 7.041,7.041 0,0 0,-0.955 0.062q-0.351,0.066 -0.684,0.135a3.581,3.581 0,0 0,-2.192 1.399c0.2,0.521 2.963,0.4 7.087,0.841a16.889,16.889 0,0 0,1.773 0.084,57.652 57.652,0 0,0 9.439,-1.085 9.117,9.117 0,0 0,-0.16 -0.961h0l-0.103,0.018 -0.089,0.016 -0.042,0.007 -0.026,0.005a32.008,32.008 0,0 1,-5.49 0.691h-0.026a11.103,11.103 0,0 1,-2.634 -0.296,27.216 27.216,0 0,1 -2.883,-0.961" fill="#999999" fill-opacity="1.0"/>
    <path d="M139.889,150.996c-3.272,0.073 -6.332,0.253 -9.043,0.518a7.153,7.153 0,0 1,-1.765 0.688,27.213 27.213,0 0,0 2.883,0.961 10.574,10.574 0,0 0,2.566 0.296h0.014a32.008,32.008 0,0 0,5.49 -0.691l0.026,-0.005 0.042,-0.007 0.089,-0.016 0.103,-0.018h0c-0.111,-0.612 -0.299,-1.338 -0.404,-1.726" fill="#666666" fill-opacity="1.0"/>
    <path d="M150.246,151.132a4.743,4.743 0,0 0,2.312 0.566,6.536 6.536,0 0,0 1.862,-0.284c-1.322,-0.114 -2.719,-0.209 -4.174,-0.282" fill="#29323b" fill-opacity="1.0"/>
    <path d="M159.021,92.62a1,1 0,1 1,-0.986 1.015,1 1,0 0,1 0.986,-1.015" fill="#a8a8a8" fill-opacity="1.0"/>
    <path d="M160.074,89.415a1.169,1.169 0,0 0,-1.081 -0.881h-0.04a1.17,1.17 0,0 0,-1.081 0.881s0.04,3.283 0.08,3.403a1.082,1.082 0,0 0,0.521 0.521V93.46l0.08,0.04v0.16h1.041v-0.16l0.08,-0.04v-0.12a1.5,1.5 0,0 0,0.481 -0.561l-0.08,-3.363m-0.801,-0.24 l-0.2,0.32 -0.08,0.061 -0.08,-0.061 -0.2,-0.32 0.08,-0.16h0.4l0.08,0.16" fill="#e2e2de" fill-opacity="1.0"/>
    <path d="M158.753,86.853l0.08,2.242l0.08,0.08l0.12,0l0.08,-0.08l-0.08,-2.242l-0.08,-0.081l-0.12,0l-0.08,0.081z" fill="#c8cac9" fill-opacity="1.0"/>
    <path d="M159.794,92.738l-0.04,-2.562 -0.16,-0.16h-1.241l-0.16,0.16 0.04,2.562c0.04,0.522 1.562,0.522 1.562,0" fill="#ffffff" fill-opacity="1.0"/>
    <path d="M158.953,92.298l-0.029,-0.011l-0.011,-0.029l0,-0.12l-0.04,-0.16l0.08,0l0,0.16l-0.04,0.12l0.028,0.012l0.012,0.028z" fill="#000000" fill-opacity="1.0"/>
    <path d="M159.514,92.018l-0.08,0.08l0.04,0.08l0,0.12l0.04,0.04l0,-0.04l0.04,-0.08l0,-0.12l-0.04,-0.08z" fill="#000000" fill-opacity="1.0"/>
    <path d="M158.793,91.817l-0.08,-0.04l-0.04,-0.12l0,0.16l0.08,0.08l0.04,-0.08z" fill="#000000" fill-opacity="1.0"/>
    <path d="M159.233,91.697l-0.12,0.08l-0.28,0l-0.077,0.063l-0.003,0.098l0.08,0.16l0,0.16l0.011,0.029l0.029,0.011l0.04,0l-0.029,-0.011l-0.011,-0.029l0.04,-0.16l0,-0.12l0.04,0l0.2,0.16l0.08,0l0,0.12l0.08,0.08l-0.04,-0.08l0,-0.12l0.121,-0.04l0.12,-0.201l0,-0.24l-0.281,0.04z" fill="#2d2829" fill-opacity="1.0"/>
    <path d="M159.313,92.138l0.04,-0.08Z" fill="#000000" fill-opacity="1.0"/>
    <path d="M159.193,91.697l0,0l-0.08,0.08l0,-0.04l0.08,-0.04z" fill="#1f5644" fill-opacity="1.0"/>
    <path d="M159.434,91.697l0,0.04l0.04,0l-0.04,-0.04z" fill="#1f5644" fill-opacity="1.0"/>
    <path d="M159.394,92.178l0.08,-0.16 0.04,-0.08 0.08,-0.08 -0.04,-0.08 -0.16,0.16c-0.12,0 -0.24,-0.16 -0.28,-0.2l0.04,0.12v0.04l0.12,0.08 0.012,0.029 0.028,0.011Z" fill="#00bd8d" fill-opacity="1.0"/>
    <path d="M159.153,91.817l0.04,0.04l0.08,0.081l-0.08,-0.041l-0.04,-0.08l0,0.08l0,-0.08z" fill="#03916a" fill-opacity="1.0"/>
    <path d="M159.554,91.857l-0.04,0.04l-0.04,0.041l-0.08,0.04l0.16,-0.121z" fill="#03916a" fill-opacity="1.0"/>
    <path d="M159.273,91.417l-0.16,-0.2l-0.08,0.04l0.04,0.32l0.2,-0.16z" fill="#2d2829" fill-opacity="1.0"/>
    <path d="M159.273,91.417l-0.16,-0.2l-0.04,0.04l0.12,0.2l0.08,-0.04z" fill="#000000" fill-opacity="1.0"/>
    <path d="M159.394,91.377l0.04,-0.12c0.04,-0.04 0.08,-0.08 0.08,0.04v0.2Z" fill="#000000" fill-opacity="1.0"/>
    <path d="M159.394,91.897l0.08,-0.04l0.08,0l0.04,-0.04l0.04,0l0.04,-0.08l-0.04,-0.08l0,-0.08l-0.08,-0.08l-0.12,-0.04l-0.04,0l-0.121,0.12l0.04,0.32l0.081,0z" fill="#ffffff" fill-opacity="1.0"/>
    <path d="M159.474,91.577l0.08,0.04l0,0.04l0.04,0.08l0,0.08l-0.04,-0.04l-0.12,0.04l-0.121,0l0.121,-0.04l0.04,-0.04l0,-0.08l-0.04,-0.08l0.04,0z" fill="#808080" fill-opacity="1.0"/>
    <path d="M159.474,91.617l0.04,-0.04l0.04,0.04l-0.04,0.04z" fill="#000000" fill-opacity="1.0"/>
    <path d="M159.313,91.857l0,-0.12l0.041,-0.12l0.04,-0.04l0,-0.08l-0.04,-0.08l-0.081,0l-0.16,0.16l0.04,0.16l0.16,0.12z" fill="#000000" fill-opacity="1.0"/>
    <path d="M159.594,91.537l0,0.04l0,-0.04l-0.04,-0.04l0.04,0.04z" fill="#808080" fill-opacity="1.0"/>
    <path d="M159.394,91.577l-0.081,0.04l-0.066,-0.006l0,-0.067l0.066,-0.007l0.081,0.04z" fill="#808080" fill-opacity="1.0"/>
    <path d="M159.354,91.577l0,0l-0.041,0.018l-0.04,-0.018l0.081,0z" fill="#27160f" fill-opacity="1.0"/>
    <path d="M159.514,91.697l0.04,0.08l0,0.04l0,-0.04l-0.04,0l-0.08,0.04l-0.029,0.012l-0.011,0.028l0.028,-0.01l0.012,-0.03l0.04,-0.04l0.04,-0.08z" fill="#231f20" fill-opacity="1.0"/>
    <path d="M158.593,92.298l-0.12,0l0,-0.04l0.028,-0.011l0.012,-0.029l0.04,0l0,-0.04l0.16,0l-0.012,0.029l-0.028,0.011l-0.08,0.08" fill="#a57a44" fill-opacity="1.0"/>
    <path d="M158.713,92.258h0l-0.04,-0.04h-0.12v0.04h-0.08v0.04h0.12l0.12,-0.04m0,0h0l-0.12,0.04 -0.12,-0.04 0.011,-0.028 0.029,-0.012h0.04v-0.04h0.12l0.04,0.08" fill="#654723" fill-opacity="1.0"/>
    <path d="M158.873,92.778l-0.08,0l-0.04,-0.12l-0.04,0.12l-0.08,0l-0.04,-0.28l0.08,0l0,0.16l0.04,-0.16l0.04,0l0.04,0.16l0,-0.2l0.08,0l0,0.32z" fill="#00bd8d" fill-opacity="1.0"/>
    <path d="M159.113,92.658v0.12h-0.04v-0.04h-0.08l-0.04,-0.04 0.04,-0.04h0l0.04,-0.04 0.028,-0.011 0.012,-0.029ZM159.033,92.698h0l-0.04,0.04h0.08Z" fill="#00bd8d" fill-opacity="1.0"/>
    <path d="M159.354,92.578v0.28l-0.04,0.08 -0.08,0.04h-0.04v-0.08l0.04,-0.04v-0.04h-0.04l-0.08,-0.04 -0.04,-0.08 0.04,-0.08 0.08,-0.04h0.16ZM159.273,92.738v-0.08l-0.04,0.04 0.011,0.029Z" fill="#00bd8d" fill-opacity="1.0"/>
    <path d="M159.434,92.498v0.2h-0.08v-0.2ZM159.474,92.778h0l-0.04,0.04h-0.04v-0.08h0.04Z" fill="#00bd8d" fill-opacity="1.0"/>
    <path d="M158.5,90.324l-0.001,0.133 -0.002,0.002 -0.036,0.002 -0.002,-0.001 -0,-0.002 -0,-0.134 0.002,-0.002 0.038,-0.001Z" fill="#00bd8d" fill-opacity="1.0"/>
    <path d="M158.652,90.326l-0.001,0.076a0.052,0.052 0,0 1,-0.057 0.06,0.05 0.05,0 0,1 -0.057,-0.057l-0,-0.016 0.002,-0.002 0.038,0.004 0.002,0.002v0.009c0,0.016 0.005,0.022 0.015,0.022a0.013,0.013 0,0 0,0.013 -0.01,0.038 0.038,0 0,0 0.002,-0.017v-0.074l0.002,-0.002 0.038,0.002Z" fill="#00bd8d" fill-opacity="1.0"/>
    <path d="M158.765,90.456l-0.002,0.002 -0.031,0.001 -0.002,-0.002v-0.008a0.036,0.036 0,0 1,-0.026 0.012,0.035 0.035,0 0,1 -0.031,-0.017 0.067,0.067 0,0 1,-0.008 -0.037l0.001,-0.053 0.002,-0.003 0.031,0.001 0.002,0.003 0,0.052c0,0.014 0.004,0.021 0.011,0.021a0.016,0.016 0,0 0,0.017 -0.011l-0.002,-0.06 0.002,-0.002 0.032,-0.002 0.002,0.002Z" fill="#00bd8d" fill-opacity="1.0"/>
    <path d="M158.863,90.363l-0.018,0.022 -0.001,0.001 -0.01,-0.006a0.04,0.04 0,0 0,-0.019 -0.006c-0.005,0 -0.008,0.003 -0.008,0.006l0.015,0.008a0.134,0.134 0,0 1,0.027 0.013,0.03 0.03,0 0,1 0.015,0.025c0,0.022 -0.015,0.033 -0.046,0.033a0.068,0.068 0,0 1,-0.024 -0.004,0.053 0.053,0 0,1 -0.02,-0.015l-0,-0.001 0,-0.002L158.79,90.419l0.002,-0.001 0.01,0.006a0.053,0.053 0,0 0,0.018 0.005q0.009,0 0.009,-0.006 0,-0.004 -0.015,-0.009a0.104,0.104 0,0 1,-0.027 -0.01,0.031 0.031,0 0,1 -0.015,-0.027 0.028,0.028 0,0 1,0.016 -0.024,0.058 0.058,0 0,1 0.03,-0.01 0.054,0.054 0,0 1,0.024 0.005,0.057 0.057,0 0,1 0.02,0.015Z" fill="#00bd8d" fill-opacity="1.0"/>
    <path d="M158.938,90.361v0.025l-0.002,0.002 -0.019,-0.001 0.001,0.067 -0.001,0.002h-0.033l-0.002,-0.002 0.001,-0.071h-0.01l-0.002,-0.002 -0.002,-0.021 0.002,-0.003h0.012l-0.001,-0.029 0.001,-0.002h0.032l0.002,0.002 -0.001,0.029 0.021,0.001Z" fill="#00bd8d" fill-opacity="1.0"/>
    <path d="M159.127,90.363a0.051,0.051 0,0 1,-0.02 0.041,0.093 0.093,0 0,1 -0.045,0.016v0.029l-0.002,0.003 -0.039,0.002 -0.002,-0.002 -0.002,-0.144 0.002,-0.003a0.328,0.328 0,0 1,0.047 0.003,0.078 0.078,0 0,1 0.043,0.014A0.051,0.051 0,0 1,159.127 90.363ZM159.089,90.367a0.023,0.023 0,0 0,-0.008 -0.018,0.048 0.048,0 0,0 -0.019,-0.004v0.042C159.081,90.385 159.089,90.379 159.089,90.367Z" fill="#00bd8d" fill-opacity="1.0"/>
    <path d="M159.18,90.332a0.018,0.018 0,0 1,-0.007 0.015,0.022 0.022,0 0,1 -0.016,0.006 0.028,0.028 0,0 1,-0.016 -0.005,0.02 0.02,0 0,1 -0.001,-0.03 0.02,0.02 0,0 1,0.016 -0.007,0.025 0.025,0 0,1 0.016,0.006A0.026,0.026 0,0 1,159.18 90.332ZM159.178,90.365 L159.177,90.447 159.174,90.45 159.142,90.451 159.14,90.45 159.139,90.448 159.14,90.366 159.142,90.364 159.175,90.363Z" fill="#00bd8d" fill-opacity="1.0"/>
    <path d="M159.265,90.421l-0,0.022 -0.002,0.002 -0.015,0.002a0.075,0.075 0,0 1,-0.04 -0.011,0.039 0.039,0 0,1 -0.019,-0.035 0.06,0.06 0,0 1,0.013 -0.041,0.055 0.055,0 0,1 0.04,-0.017 0.042,0.042 0,0 1,0.018 0.003l0.002,0.002 0,0.033 -0.002,0.003 -0.005,-0.001H159.25c-0.017,0 -0.025,0.007 -0.025,0.019 0,0.012 0.008,0.018 0.024,0.018l0.006,-0.001 0.006,-0.001h0Z" fill="#00bd8d" fill-opacity="1.0"/>
    <path d="M158.575,90.53l-0.001,0.076a0.052,0.052 0,0 1,-0.057 0.06,0.05 0.05,0 0,1 -0.057,-0.056c-0,-0.001 -0,-0.026 -0,-0.078l0.002,-0.003 0.038,0.002 0.002,0.002 -0.001,0.073c0,0.016 0.005,0.022 0.015,0.022a0.013,0.013 0,0 0,0.013 -0.009,0.036 0.036,0 0,0 0.002,-0.017v-0.071l0.002,-0.002 0.039,-0.002 0.001,0.001Z" fill="#00bd8d" fill-opacity="1.0"/>
    <path d="M158.69,90.604a0.047,0.047 0,0 1,-0.012 0.035,0.043 0.043,0 0,1 -0.034,0.015 0.036,0.036 0,0 1,-0.018 -0.004l0.001,0.055 -0,0.001 -0.002,0.001h-0.03l-0.002,-0.002 -0.007,-0.152 0.002,-0.002 0.034,-0.001 0.002,0.002v0.004l0.01,-0.001a0.06,0.06 0,0 1,0.039 0.014A0.042,0.042 0,0 1,158.69 90.604ZM158.649,90.61a0.02,0.02 0,0 0,-0.007 -0.015,0.027 0.027,0 0,0 -0.016,-0.004L158.625,90.592l0,0.032 0.008,0.002A0.014,0.014 0,0 0,158.649 90.61Z" fill="#00bd8d" fill-opacity="1.0"/>
    <path d="M158.854,90.588a0.063,0.063 0,0 1,-0.036 0.061,0.15 0.15,0 0,1 -0.074,0.016l-0.002,-0.001 -0.002,-0.146 0.002,-0.004a0.177,0.177 0,0 1,0.074 0.014A0.065,0.065 0,0 1,158.854 90.588ZM158.811,90.588a0.039,0.039 0,0 0,-0.007 -0.021,0.024 0.024,0 0,0 -0.02,-0.011l0.001,0.066a0.024,0.024 0,0 0,0.02 -0.011A0.056,0.056 0,0 0,158.811 90.588Z" fill="#00bd8d" fill-opacity="1.0"/>
    <path d="M158.954,90.6a0.067,0.067 0,0 1,-0.009 0.038,0.039 0.039,0 0,1 -0.033,0.017 0.055,0.055 0,0 1,-0.037 -0.013,0.045 0.045,0 0,1 -0.014,-0.036 0.072,0.072 0,0 1,0.009 -0.04,0.039 0.039,0 0,1 0.034,-0.019 0.046,0.046 0,0 1,0.038 0.016A0.051,0.051 0,0 1,158.954 90.6ZM158.92,90.602 L158.917,90.591a0.013,0.013 0,0 0,-0.01 -0.005,0.013 0.013,0 0,0 -0.011,0.007 0.022,0.022 0,0 0,-0.003 0.014c0,0.01 0.005,0.016 0.014,0.016a0.013,0.013 0,0 0,0.011 -0.007A0.024,0.024 0,0 0,158.92 90.602Z" fill="#00bd8d" fill-opacity="1.0"/>
    <path d="M159.06,90.544c0.001,0.03 0.001,0.06 0,0.087l-0,0.021 -0.002,0.021a0.044,0.044 0,0 1,-0.017 0.029,0.056 0.056,0 0,1 -0.032,0.012 0.041,0.041 0,0 1,-0.018 -0.003l-0.002,-0.003 -0,-0.03 0.003,-0.002h0.005l0.005,0.001c0.015,-0.001 0.023,-0.007 0.022,-0.019v-0.014l-0.016,0.004a0.051,0.051 0,0 1,-0.036 -0.014,0.05 0.05,0 0,1 -0.014,-0.035 0.046,0.046 0,0 1,0.015 -0.036,0.066 0.066,0 0,1 0.038,-0.014l0.009,0.001L159.022,90.544l0.002,-0.003 0.033,0.001ZM159.024,90.619 L159.023,90.586c-0.015,0.001 -0.022,0.007 -0.021,0.02 0,0.01 0.006,0.015 0.017,0.014Z" fill="#00bd8d" fill-opacity="1.0"/>
    <path d="M159.25,90.561a0.049,0.049 0,0 1,-0.02 0.041,0.084 0.084,0 0,1 -0.045,0.016v0.029l-0.002,0.003 -0.039,0.003 -0.002,-0.002 -0.002,-0.144 0.002,-0.003a0.237,0.237 0,0 1,0.047 0.002,0.087 0.087,0 0,1 0.043,0.014A0.05,0.05 0,0 1,159.25 90.561ZM159.212,90.565a0.023,0.023 0,0 0,-0.008 -0.018,0.035 0.035,0 0,0 -0.019,-0.005v0.042C159.204,90.583 159.212,90.577 159.212,90.565Z" fill="#00bd8d" fill-opacity="1.0"/>
    <path d="M159.343,90.457a0.059,0.059 0,0 1,-0.01 0.037,0.038 0.038,0 0,1 -0.033,0.017 0.05,0.05 0,0 1,-0.037 -0.013,0.047 0.047,0 0,1 -0.015,-0.036 0.076,0.076 0,0 1,0.009 -0.04,0.041 0.041,0 0,1 0.034,-0.019 0.046,0.046 0,0 1,0.038 0.016A0.055,0.055 0,0 1,159.343 90.457ZM159.309,90.458 L159.305,90.447a0.013,0.013 0,0 0,-0.01 -0.005,0.013 0.013,0 0,0 -0.011,0.007 0.027,0.027 0,0 0,-0.003 0.015,0.013 0.013,0 0,0 0.014,0.015 0.013,0.013 0,0 0,0.011 -0.007A0.024,0.024 0,0 0,159.309 90.458Z" fill="#00bd8d" fill-opacity="1.0"/>
    <path d="M159.443,90.455a0.059,0.059 0,0 1,-0.01 0.037,0.039 0.039,0 0,1 -0.033,0.018 0.051,0.051 0,0 1,-0.037 -0.014,0.045 0.045,0 0,1 -0.015,-0.035 0.08,0.08 0,0 1,0.009 -0.041,0.038 0.038,0 0,1 0.034,-0.018 0.046,0.046 0,0 1,0.038 0.015A0.055,0.055 0,0 1,159.443 90.455ZM159.409,90.457 L159.405,90.446a0.013,0.013 0,0 0,-0.01 -0.005,0.013 0.013,0 0,0 -0.011,0.007 0.022,0.022 0,0 0,-0.003 0.014c0,0.01 0.005,0.016 0.014,0.016a0.013,0.013 0,0 0,0.011 -0.007A0.024,0.024 0,0 0,159.409 90.457Z" fill="#00bd8d" fill-opacity="1.0"/>
    <path d="M159.555,90.454a0.049,0.049 0,0 1,-0.012 0.036,0.046 0.046,0 0,1 -0.034,0.014 0.036,0.036 0,0 1,-0.018 -0.004l0.001,0.055 -0,0.001 -0.002,0.001h-0.03l-0.002,-0.002 -0.007,-0.152 0.002,-0.002 0.034,-0.001 0.002,0.002v0.004l0.01,-0.001a0.06,0.06 0,0 1,0.039 0.014A0.043,0.043 0,0 1,159.555 90.454ZM159.514,90.461a0.02,0.02 0,0 0,-0.007 -0.015,0.027 0.027,0 0,0 -0.016,-0.004h-0l0,0.032 0.008,0.002A0.014,0.014 0,0 0,159.514 90.461Z" fill="#00bd8d" fill-opacity="1.0"/>
    <path d="M158.433,95.021c0,0.08 0.28,0.12 0.601,0.12a1.087,1.087 0,0 0,0.601 -0.12V93.66c-0.04,0.04 -0.16,0.08 -0.601,0.08s-0.601,-0.04 -0.601,-0.08v1.361" fill="#c8cac9" fill-opacity="1.0"/>
    <path d="M159.674,94.381a0.433,0.433 0,0 1,-0.04 0.025v0.002a0.378,0.378 0,0 0,0.04 -0.028" fill="#d4d4d4" fill-opacity="1.0"/>
    <path d="M159.634,94.406a0.441,0.441 0,0 1,-0.215 0.056l-0.026,-0.001a0.396,0.396 0,0 0,0.042 0.002,0.385 0.385,0 0,0 0.199,-0.055v-0.002m-1.161,-0.025a0.384,0.384 0,0 0,0.238 0.082,0.395 0.395,0 0,0 0.042,-0.002h0l-0.28,-0.08" fill="#e4e5e4" fill-opacity="1.0"/>
    <path d="M159.674,94.461a0.378,0.378 0,0 1,-0.04 0.028h0a0.379,0.379 0,0 0,0.04 -0.028" fill="#99a1a8" fill-opacity="1.0"/>
    <path d="M159.434,94.543h0m0.003,0h0m-0.036,-0.001 l0.033,0.001 -0.033,-0.001m-0.008,-0.001h0l0.008,0.001 -0.008,-0.001m0.24,-0.052a0.385,0.385 0,0 1,-0.197 0.055,0.385 0.385,0 0,0 0.197,-0.055h0m-1.161,-0.028a0.384,0.384 0,0 0,0.238 0.082,0.395 0.395,0 0,0 0.042,-0.002h0l-0.28,-0.08" fill="#e4e5e4" fill-opacity="1.0"/>
    <path d="M158.473,94.541a0.384,0.384 0,0 0,0.239 0.082,0.394 0.394,0 0,0 0.042,-0.002h0l-0.28,-0.08" fill="#e4e5e4" fill-opacity="1.0"/>
    <path d="M159.434,94.623h0m0.005,0 l-0.004,0h0l0.004,0m-0.046,-0.002a0.396,0.396 0,0 0,0.041 0.002,0.396 0.396,0 0,1 -0.041,-0.002m0.24,-0.052a0.386,0.386 0,0 1,-0.195 0.055,0.386 0.386,0 0,0 0.195,-0.055h0" fill="#e4e5e4" fill-opacity="1.0"/>
    <path d="M159.674,94.661l-0.04,0.011v0.016a0.377,0.377 0,0 0,0.04 -0.028" fill="#99a1a8" fill-opacity="1.0"/>
    <path d="M158.473,94.661a0.384,0.384 0,0 0,0.238 0.082,0.395 0.395,0 0,0 0.042,-0.002h0.641a0.396,0.396 0,0 0,0.042 0.002,0.385 0.385,0 0,0 0.199,-0.055v-0.016l-0.24,0.069h-0.641l-0.28,-0.08" fill="#e4e5e4" fill-opacity="1.0"/>
    <path d="M159.674,94.741l-0.04,0.011v0.016a0.379,0.379 0,0 0,0.04 -0.028" fill="#99a1a8" fill-opacity="1.0"/>
    <path d="M158.473,94.741a0.384,0.384 0,0 0,0.239 0.082,0.394 0.394,0 0,0 0.042,-0.002h0.641a0.394,0.394 0,0 0,0.042 0.002,0.386 0.386,0 0,0 0.199,-0.055v-0.016l-0.24,0.069h-0.641l-0.28,-0.08" fill="#e4e5e4" fill-opacity="1.0"/>
    <path d="M158.473,93.38a1.274,1.274 0,0 0,0.456 0.084q0.052,0 0.105,-0.004 -0.046,0.003 -0.091,0.003a1.37,1.37 0,0 1,-0.469 -0.083m1.121,0c-0.2,0.04 -0.36,0.04 -0.561,0.08h0q0.052,0.004 0.105,0.004a1.273,1.273 0,0 0,0.456 -0.084" fill="#f1f1ef" fill-opacity="1.0"/>
    <path d="M158.433,93.54q0.059,0.022 0.12,0.038V93.571q-0.06,-0.014 -0.12,-0.031" fill="#d4d4d4" fill-opacity="1.0"/>
    <path d="M159.554,93.54a2.007,2.007 0,0 1,-1.001 0.031v0.007a1.369,1.369 0,0 0,0.35 0.045q0.045,0 0.091,-0.003 0.052,0.004 0.104,0.004a1.275,1.275 0,0 0,0.456 -0.084" fill="#f1f1ef" fill-opacity="1.0"/>
    <path d="M159.489,93.382a1.999,1.999 0,0 1,-0.911 0l-0.13,0.557a2.572,2.572 0,0 0,1.171 0l-0.13,-0.557Z" fill="#a8a8a8" fill-opacity="1.0"/>
    <path d="M144.738,28.751c-2.002,0.04 -4.325,3.444 -4.165,5.766a13.83,13.83 0,0 0,1.521 5.206l3.003,-8.729 -0.16,-1.481" fill="#5b3c27" fill-opacity="1.0"/>
    <path d="M147.181,50.534c-0.08,-0.16 -0.44,-3.043 -0.521,-3.284 -0.24,-0.961 5.606,0.32 6.687,-1.602 0,0.4 0.04,1.962 0.12,2.442 0.2,1.122 0.4,1.842 0.4,2.243 0,0.12 -0.721,0.721 -0.801,0.761a5.629,5.629 0,0 1,-5.079 0.735l-0.808,-1.295" fill="#fcc490" fill-opacity="1.0"/>
    <path d="M153.411,46.217l-0.053,0.051c0.008,0.282 0.019,0.612 0.035,0.92l0.034,-0.058q-0.025,-0.456 -0.016,-0.913" fill="#88b5cc" fill-opacity="1.0"/>
    <path d="M153.358,46.268a8.246,8.246 0,0 1,-4.216 2.103h-0.002a6.021,6.021 0,0 1,-2.391 -0.626c0.183,0.979 0.287,1.859 0.391,2.589a3.449,3.449 0,0 0,0.757 0.084q0.082,0 0.164,-0.004c0.032,0.001 0.063,0.001 0.095,0.001a6.218,6.218 0,0 0,5.236 -3.226c-0.016,-0.308 -0.027,-0.638 -0.035,-0.92" fill="#d1a37a" fill-opacity="1.0"/>
    <path d="M142.255,41.605c-0.36,-0.24 -0.721,0.16 -0.881,0.681 0.32,1.442 1.762,3.003 2.723,2.163 0,-0.16 -0.04,-0.28 -0.04,-0.4A5.513,5.513 0,0 0,142.255 41.605Z" fill="#d3a37f" fill-opacity="1.0"/>
    <path d="M142.255,41.605a5.612,5.612 0,0 1,1.802 2.403,8.06 8.06,0 0,0 -0.681,-2.443s-0.761,-2.162 -1.802,-0.721a1.737,1.737 0,0 0,-0.2 1.441C141.535,41.765 141.895,41.364 142.255,41.605Z" fill="#fcc490" fill-opacity="1.0"/>
    <path d="M142.215,40.924c0.881,4.525 3.364,6.367 7.248,5.806A7.095,7.095 0,0 0,147.501 32.675c-3.884,0.521 -6.166,3.604 -5.286,8.248" fill="#fcc490" fill-opacity="1.0"/>
    <path d="M148.502,39.683s-7.568,-3.404 -6.207,1.962c1.722,6.767 6.847,6.727 6.847,6.727a7.554,7.554 0,0 0,6.407 -7.848c-0.08,-7.408 -7.047,-0.841 -7.047,-0.841" fill="#fcc490" fill-opacity="1.0"/>
    <path d="M156.351,39.763c0.4,-0.32 1.041,-0.08 1.441,0.36 0.04,1.481 -1.401,3.444 -3.003,2.963a1.426,1.426 0,0 1,-0.08 -0.401A5.103,5.103 0,0 1,156.351 39.763Z" fill="#d3a37f" fill-opacity="1.0"/>
    <path d="M156.351,39.763a5.103,5.103 0,0 0,-1.642 2.923,5.837 5.837,0 0,1 0.12,-2.522s0.36,-2.322 2.203,-1.281a1.571,1.571 0,0 1,0.761 1.281C157.392,39.683 156.751,39.442 156.351,39.763Z" fill="#fcc490" fill-opacity="1.0"/>
    <path d="M151.172,37.713a1.866,1.866 0,0 0,-1.589 0.889,2.087 2.087,0 0,1 1.322,-0.761c0.021,-0.004 0.049,-0.009 0.084,-0.013 0.067,-0.039 0.135,-0.078 0.204,-0.115l-0.021,-0" fill="#bb8c61" fill-opacity="1.0"/>
    <path d="M151.193,37.713c-0.068,0.038 -0.136,0.076 -0.204,0.115a1.437,1.437 0,0 1,0.159 -0.009,2.223 2.223,0 0,1 1.638,0.822l0.08,0.04 0.04,-0.12a2.491,2.491 0,0 0,-1.562 -0.841q-0.077,-0.007 -0.153,-0.008" fill="#bb8c61" fill-opacity="1.0"/>
    <path d="M151.305,38.281a1.462,1.462 0,0 1,1.682 0.921l0.04,0.12a1.014,1.014 0,0 1,-0.08 0.48,1.784 1.784,0 0,1 -1.401,0.881 1.626,1.626 0,0 1,-1.602 -0.681l-0.08,-0.16 -0.04,-0.2C149.743,38.962 150.424,38.361 151.305,38.281Z" fill="#ffffff" fill-opacity="1.0"/>
    <path d="M150.865,38.562a1.081,1.081 0,1 1,-1.082 1.081A1.081,1.081 0,0 1,150.865 38.562Z" fill="#452d22" fill-opacity="1.0"/>
    <path d="M150.568,39.787m-0.75,0a0.75,0.75 0,1 1,1.5 0a0.75,0.75 0,1 1,-1.5 0" fill="#010101" fill-opacity="1.0"/>
    <path d="M150.313,39.57m-0.25,0a0.25,0.25 0,1 1,0.5 0a0.25,0.25 0,1 1,-0.5 0" fill="#ffffff" fill-opacity="1.0"/>
    <path d="M153.427,39.202a1.996,1.996 0,0 0,-1.602 -1.241,1.747 1.747,0 0,0 -2.002,1.521 1.678,1.678 0,0 1,1.722 -1.201c1.481,0.04 1.521,1.201 1.521,1.201Z" fill="#33211e" fill-opacity="1.0"/>
    <path d="M145.127,38.437a1.855,1.855 0,0 0,-0.669 0.125q-0.063,0.027 -0.124,0.057 0.142,0.001 0.288,0.011a2.136,2.136 0,0 1,0.276 -0.068,2.01 2.01,0 0,1 1.481,0.36 1.859,1.859 0,0 0,-1.253 -0.485" fill="#bb8c61" fill-opacity="1.0"/>
    <path d="M144.334,38.618a2.348,2.348 0,0 0,-1.118 1.184l0.08,0.12v-0.08a2.135,2.135 0,0 1,1.326 -1.214q-0.146,-0.009 -0.288,-0.011" fill="#bb8c61" fill-opacity="1.0"/>
    <path d="M144.698,39.122A1.456,1.456 0,0 1,146.5 40.003v0.2l-0.04,0.16a1.681,1.681 0,0 1,-1.361 1.121,1.77 1.77,0 0,1 -1.602,-0.44 0.642,0.642 0,0 1,-0.2 -0.44v-0.12A1.608,1.608 0,0 1,144.698 39.122Z" fill="#ffffff" fill-opacity="1.0"/>
    <path d="M145.419,40.163a1.108,1.108 0,0 1,-0.561 1.281,2.206 2.206,0 0,1 -1.402,-0.4l-0.12,-0.28a1.084,1.084 0,0 1,2.083 -0.601Z" fill="#452d22" fill-opacity="1.0"/>
    <path d="M144.217,40.043a0.703,0.703 0,1 1,-0.761 0.641,0.687 0.687,0 0,1 0.761,-0.641Z" fill="#010101" fill-opacity="1.0"/>
    <path d="M143.777,40.403a0.244,0.244 0,1 1,-0.2 0.28l0.029,-0.191Z" fill="#ffffff" fill-opacity="1.0"/>
    <path d="M142.936,40.604a2.047,2.047 0,0 1,1.201 -1.642,1.711 1.711,0 0,1 2.323,0.881 1.688,1.688 0,0 0,-2.002 -0.681c-1.402,0.44 -1.122,1.562 -1.122,1.562Z" fill="#33211e" fill-opacity="1.0"/>
    <path d="M146.1,37.28s-0.881,-0.521 -1.201,-0.441a3.237,3.237 0,0 0,-2.643 2.002,2.799 2.799,0 0,1 1.521,-1.161C144.658,37.561 146.1,37.28 146.1,37.28Z" fill="#6d482b" fill-opacity="1.0"/>
    <path d="M148.822,36.759s0.681,-0.721 1.041,-0.761a3.227,3.227 0,0 1,3.083 1.202,2.981 2.981,0 0,0 -1.802,-0.681C150.264,36.639 148.822,36.759 148.822,36.759Z" fill="#6d482b" fill-opacity="1.0"/>
    <path d="M146.54,40.043a4.719,4.719 0,0 1,-1.682 0.841,1.78 1.78,0 0,1 -1.562,-0.2l-0.32,0.601s-0.04,0.721 1.121,0.681a5.335,5.335 0,0 0,3.003 -1.441C147.181,40.323 146.54,40.043 146.54,40.043Z" fill="#fcc490" fill-opacity="1.0"/>
    <path d="M149.783,39.643a5.22,5.22 0,0 0,1.842 0.36,1.852 1.852,0 0,0 1.361,-0.4l0.561,0.28s0.24,0.681 -0.881,0.961a5.466,5.466 0,0 1,-3.284 -0.521C149.223,40.123 149.783,39.643 149.783,39.643Z" fill="#fcc490" fill-opacity="1.0"/>
    <path d="M149.185,41.979c-0.426,0 -0.923,0.026 -0.923,0.026a5.019,5.019 0,0 0,-1.001 0.36,3.797 3.797,0 0,0 1.321,0.881c0.28,0 1.201,-1.041 1.201,-1.202 0,-0.051 -0.279,-0.066 -0.599,-0.066" fill="#c29772" fill-opacity="1.0"/>
    <path d="M151.177,45.123q-0.063,0.068 -0.133,0.132l-0.006,0.021a3.907,3.907 0,0 1,-2.284 0.851c-0.193,0.008 -0.395,0.021 -0.599,0.023l-0.038,0 -0.037,-0a1.73,1.73 0,0 1,-1.362 -0.501l-0.007,-0.021c-0.137,-0.115 -0.281,-0.242 -0.391,-0.339a2.802,2.802 0,0 0,2.492 1.522q0.045,0 0.09,-0.001a2.924,2.924 0,0 0,2.275 -1.687m-1.794,-0.876a12.742,12.742 0,0 0,-1.922 0.32,2.38 2.38,0 0,0 -1.064,0.583c0.05,0.004 0.101,0.007 0.151,0.011h0l-0.006,-0.016 -0,-0.001 0,0q0.481,0.015 0.886,0.015a11.063,11.063 0,0 0,1.411 -0.071,17.332 17.332,0 0,0 2.434,-0.599h0q0.06,-0.026 0.119,-0.053a18.265,18.265 0,0 0,-2.011 -0.189" fill="#eba074" fill-opacity="1.0"/>
    <path d="M151.706,44.288a8.03,8.03 0,0 1,-3.044 0.841,13.271 13.271,0 0,1 -2.522,0s0.801,0.721 0.961,0.801c0.12,0.08 0.36,0.28 1.762,0.16a3.023,3.023 0,0 0,2.843 -1.802" fill="#51272f" fill-opacity="1.0"/>
    <path d="M151.294,44.483l0,0l0,0.001l0,-0.001" fill="#51272f" fill-opacity="1.0"/>
    <path d="M148.155,46.15h-0.075l0.037,0 0.038,-0m-1.612,-1.005 l0,0.001v-0.001l-0,0" fill="#eba074" fill-opacity="1.0"/>
    <g>
        <clip-path android:pathData="M146.543,44.483l4.751,0l0,1.667l-4.751,0l0,-1.667"/>
        <path d="M151.045,45.255a3.618,3.618 0,0 1,-2.182 0.834c-0.31,0.027 -0.563,0.037 -0.77,0.037 -0.731,0 -0.898,-0.135 -0.991,-0.198a3.325,3.325 0,0 1,-0.39 -0.301l0.007,0.021a1.73,1.73 0,0 0,1.362 0.501h0.075c0.204,-0.002 0.407,-0.015 0.599,-0.023a3.907,3.907 0,0 0,2.284 -0.851l0.006,-0.021m0.23,-0.765a17.332,17.332 0,0 1,-2.434 0.599,11.063 11.063,0 0,1 -1.411,0.071q-0.406,0 -0.886,-0.015v0.001l0.006,0.016q0.426,0.027 0.852,0.027 0.631,0 1.261,-0.06a8.032,8.032 0,0 0,2.613 -0.639" fill="#eba074" fill-opacity="1.0"/>
        <path d="M151.294,44.483l-0.02,0.006a8.032,8.032 0,0 1,-2.613 0.639q-0.629,0.06 -1.261,0.06 -0.426,0 -0.852,-0.027l0.162,0.467a3.325,3.325 0,0 0,0.39 0.301c0.094,0.062 0.26,0.198 0.991,0.198 0.208,0 0.461,-0.011 0.77,-0.037a3.618,3.618 0,0 0,2.182 -0.834c0.05,-0.185 0.245,-0.757 0.25,-0.771v-0" fill="#ffffff" fill-opacity="1.0"/>
    </g>
    <path d="M143.497,34.918s3.124,-1.882 5.846,-0.761c2.723,1.121 -1.842,-1.521 -1.842,-1.521l-2.402,-0.04 -2.123,2.322Z" fill="#eda672" fill-opacity="1.0"/>
    <path d="M141.495,38.281c1.121,4.685 -0.04,7.208 -0.04,7.208a3.078,3.078 0,0 0,1.001 -1.922,3.946 3.946,0 0,1 0.08,1.161 6.219,6.219 0,0 0,0.12 -3.364c-0.28,-1.762 -0.681,-4.164 -0.681,-4.164Z" fill="#6d482b" fill-opacity="1.0"/>
    <path d="M153.828,36.439a15.231,15.231 0,0 1,0.841 8.209,3.549 3.549,0 0,0 0.841,-2.403 11.809,11.809 0,0 1,0.32 1.642s0.881,-2.123 0.12,-6.527c-0.641,-3.724 -0.881,-3.404 -0.881,-3.404" fill="#5b3c27" fill-opacity="1.0"/>
    <path d="M144.778,33.476s-2.763,1.281 -2.763,5.846c0,1.121 -0.561,-5.286 -0.561,-5.286l2.723,-2.883 1.041,1.762Z" fill="#5b3c27" fill-opacity="1.0"/>
    <path d="M142.696,32.996c1.882,3.724 10.411,6.167 12.773,3.964 0.561,-0.521 1.802,-9.17 -6.607,-8.85C140.454,28.431 142.696,32.996 142.696,32.996Z" fill="#5b3c27" fill-opacity="1.0"/>
    <path d="M143.937,31.354c-1.361,-2.083 0.561,-5.926 3.524,-6.287 2.963,-0.4 3.524,1.122 3.524,1.122a2.419,2.419 0,0 1,2.202 1.602c0.561,1.602 0.601,3.924 -1.722,5.125" fill="#5b3c27" fill-opacity="1.0"/>
    <path d="M324.67,137.045c-5.876,0 -10.64,0.736 -10.64,1.645 0,0.908 4.764,1.645 10.64,1.645s10.64,-0.736 10.64,-1.645c0,-0.909 -4.764,-1.645 -10.64,-1.645" fill="#4eaed2" fill-opacity="1.0"/>
    <path d="M334.365,138.55a1.041,1.041 0,0 1,-0.35 -0.069l-10.115,-4.655V117.375a0.851,0.851 0,0 1,0.84 -0.84,1.608 1.608,0 0,1 1.19,0.84v15.33L334.75,136.905a0.861,0.861 0,0 1,-0.385 1.645Z" fill="#727272" fill-opacity="1.0"/>
    <path d="M322.641,140.02a0.91,0.91 0,0 1,-0.7 -0.35,1.072 1.072,0 0,1 -0.105,-0.805l1.436,-3.815 -6.16,3.36a0.894,0.894 0,0 1,-0.84 0,0.848 0.848,0 0,1 -0.385,-0.771 0.814,0.814 0,0 1,0.454 -0.734l8.19,-4.48a0.842,0.842 0,0 1,0.98 0.105,0.886 0.886,0 0,1 0.244,0.944L323.55,139.46A1.229,1.229 0,0 1,322.641 140.02Z" fill="#727272" fill-opacity="1.0"/>
    <path d="M334.33,138.165a1.019,1.019 0,0 1,-0.35 -0.07l-10.115,-4.654v-16.415a0.852,0.852 0,0 1,0.84 -0.841,0.771 0.771,0 0,1 0.595,0.245 0.818,0.818 0,0 1,0.245 0.596V132.355l9.17,4.199a0.892,0.892 0,0 1,0.49 0.945A0.839,0.839 0,0 1,334.33 138.165Z" fill="#d1d1d1" fill-opacity="1.0"/>
    <path d="M322.641,139.635a0.913,0.913 0,0 1,-0.7 -0.35,1.072 1.072,0 0,1 -0.105,-0.805l1.436,-3.815 -6.16,3.36a0.805,0.805 0,0 1,-0.84 -0.035,0.878 0.878,0 0,1 -0.42,-0.771 0.814,0.814 0,0 1,0.455 -0.734l8.189,-4.48a0.842,0.842 0,0 1,0.98 0.105,0.828 0.828,0 0,1 0.245,0.944l-2.205,5.985A1.011,1.011 0,0 1,322.641 139.635Z" fill="#d1d1d1" fill-opacity="1.0"/>
    <path d="M322.675,116.92h4.69v1.47h-4.69z" fill="#727272" fill-opacity="1.0"/>
    <path d="M322.605,116.92h3.675v1.47h-3.675z" fill="#aaaaaa" fill-opacity="1.0"/>
    <path d="M322.01,113.245h5.705v3.675h-5.705z" fill="#727272" fill-opacity="1.0"/>
    <path d="M333.875,111.565a82.626,82.626 0,0 0,-18.13 0h-3.57v1.119c0,0.91 5.635,1.646 12.635,1.646s12.671,-0.735 12.671,-1.646v-1.119H333.875" fill="#aaaaaa" fill-opacity="1.0"/>
    <path d="M324.81,109.955c6.979,0 12.636,0.736 12.636,1.645 0,0.909 -5.657,1.646 -12.636,1.646 -6.978,0 -12.635,-0.736 -12.635,-1.646 0,-0.908 5.657,-1.645 12.635,-1.645" fill="#7b5634" fill-opacity="1.0"/>
    <path d="M324.81,109.955c6.979,0 12.636,0.736 12.636,1.645 0,0.909 -5.657,1.646 -12.636,1.646 -6.978,0 -12.635,-0.736 -12.635,-1.646 0,-0.908 5.657,-1.645 12.635,-1.645" fill="#ededed" fill-opacity="1.0"/>
    <path d="M321.87,113.245h4.865v3.675h-4.865z" fill="#aaaaaa" fill-opacity="1.0"/>
    <path d="M325.169,110.649l-0.129,0h0.259l-0.129,-0" fill="#ededed" fill-opacity="1.0"/>
    <g>
        <clip-path android:pathData="M321.56,110.65l7.218,0l0,0.889l-7.218,0l0,-0.889"/>
        <path d="M325.298,110.65h-0.259c-1.933,0.008 -3.479,0.204 -3.479,0.444h0c0,0.246 1.615,0.444 3.608,0.444h0c1.993,0 3.609,-0.198 3.609,-0.444 0,-0.24 -1.547,-0.436 -3.48,-0.444" fill="#bebebe" fill-opacity="1.0"/>
    </g>
    <path d="M325.364,109.195h-0l0,0 0,-0m-1.093,-8.245c-0,0.068 -0,0.136 0,0.204v-0.204m6.997,-11.851 l-0.001,0h0.001v-0" fill="#a1daf7" fill-opacity="1.0"/>
    <g>
        <clip-path android:pathData="M324.271,89.1l6.998,0l0,20.095l-6.998,0l0,-20.095"/>
        <path d="M331.269,89.1h-0.001a11.175,11.175 0,0 0,-4.58 3.476l0.253,0.402 -0.683,0.19q-0.284,0.422 -0.541,0.895a14.875,14.875 0,0 0,-1.445 6.887v0.204a33.933,33.933 0,0 0,1.093 8.041h0a20.663,20.663 0,0 0,1.168 -3.008h-1.564a20.326,20.326 0,0 1,3.313 -7.838,25.925 25.925,0 0,1 0.593,-2.696l-0.607,-0.41 0.775,-0.186A46.4,46.4 0,0 1,331.268 89.1" fill="#095e46" fill-opacity="1.0"/>
    </g>
    <path d="M329.831,90.667s-3.942,3.16 -4.151,14.857c0,0 -1.299,-9.904 4.151,-14.857" fill="#009872" fill-opacity="1.0" fill-rule="evenOdd"/>
    <path d="M323.466,105.367s-2.9,-3.809 -7.179,-3.24a18.063,18.063 0,0 1,3.353 2.098,11.347 11.347,0 0,0 3.826,1.143" fill="#095e46" fill-opacity="1.0" fill-rule="evenOdd"/>
    <path d="M319.62,98.314a8.189,8.189 0,0 0,-5.17 -1.696,38.97 38.97,0 0,1 4.797,5.43 29.424,29.424 0,0 0,5.064 6.271s-1.008,-7.128 -4.691,-10.005" fill="#009872" fill-opacity="1.0" fill-rule="evenOdd"/>
    <path d="M326.708,106.171s1.318,-3.142 6.549,-4.503a12.504,12.504 0,0 1,-2.951 2.749c-1.182,0.535 -3.598,1.754 -3.598,1.754" fill="#095e46" fill-opacity="1.0" fill-rule="evenOdd"/>
    <path d="M322.735,95.222a10.492,10.492 0,0 0,-6.079 -3.435,43.751 43.751,0 0,1 3.089,4.741h1.105l-0.637,0.87a23.659,23.659 0,0 1,1.105 2.431C323.746,106.208 326.104,109 326.104,109s0.539,-9.229 -3.369,-13.778" fill="#28b78c" fill-opacity="1.0" fill-rule="evenOdd"/>
    <path d="M328.812,97.667a19.304,19.304 0,0 0,-3.844 8.52h3.844s0.76,-2.509 1.737,-4.779l-0.387,-0.41h0.568c0.668,-1.487 1.42,-2.794 2.094,-3.106a14.638,14.638 0,0 0,-4.013 -0.224" fill="#009872" fill-opacity="1.0" fill-rule="evenOdd"/>
    <path d="M335.922,100.393h-0.004l0.004,0 -0,-0M329.928,97.589l-0.088,0h0.177l-0.089,-0" fill="#a1daf7" fill-opacity="1.0"/>
    <g>
        <clip-path android:pathData="M328.812,97.589l7.11,0l0,2.804l-7.11,0l0,-2.804"/>
        <path d="M330.017,97.589h-0.177a6.933,6.933 0,0 0,-1.028 0.078h0a9.421,9.421 0,0 1,1.064 -0.049,16.83 16.83,0 0,1 2.948,0.273 3.067,3.067 0,0 0,-1.069 1.143,16.029 16.029,0 0,0 4.162,1.359h0.004a13.968,13.968 0,0 0,-3.097 -2.503,16.789 16.789,0 0,0 -2.808,-0.302" fill="#28b78c" fill-opacity="1.0"/>
        <path d="M329.877,97.618a9.421,9.421 0,0 0,-1.064 0.049s1.362,0.684 2.944,1.367a3.067,3.067 0,0 1,1.069 -1.143,16.83 16.83,0 0,0 -2.948,-0.273" fill="#28b78c" fill-opacity="1.0"/>
    </g>
    <path d="M319.286,93.639s4.795,4.031 5.691,12.109a23.337,23.337 0,0 0,-5.691 -12.109" fill="#009872" fill-opacity="1.0" fill-rule="evenOdd"/>
    <path d="M331.141,97.898a18.476,18.476 0,0 0,-3.461 6.745,11.742 11.742,0 0,1 3.461,-6.745" fill="#28b78c" fill-opacity="1.0" fill-rule="evenOdd"/>
    <path d="M316.514,97.589a16.032,16.032 0,0 1,6.397 7.605,11.755 11.755,0 0,0 -6.397,-7.605" fill="#28b78c" fill-opacity="1.0" fill-rule="evenOdd"/>
    <path d="M329.936,104.644h-0.767a5.943,5.943 0,0 1,-1.859 4.938,7.316 7.316,0 0,1 -3.001,1.625h3.463a5.752,5.752 0,0 0,2.426 -4.785,6.141 6.141,0 0,0 -0.262,-1.777" fill="#f5f5f5" fill-opacity="1.0" fill-rule="evenOdd"/>
    <path d="M329.169,104.644h-8.864a6.14,6.14 0,0 0,-0.262 1.777,5.756 5.756,0 0,0 2.424,4.785h1.842a7.316,7.316 0,0 0,3.001 -1.625,5.943 5.943,0 0,0 1.859,-4.938" fill="#ffffff" fill-opacity="1.0" fill-rule="evenOdd"/>
    <path d="M258.951,66.209a1.672,1.672 0,0 1,-0.519 -0.199,1.408 1.408,0 0,0 0.519,0.199" fill="#353f5b" fill-opacity="1.0"/>
    <path d="M197.63,16.431l96.01,0l0,58.345l-96.01,0l0,-58.345" fill="#57c2ea" fill-opacity="1.0"/>
    <path d="M294.438,73.382c0.017,-0.253 0.023,-0.502 0.018,-0.756v-0.043l-0.006,-0.026c-0.038,-0.171 -0.072,-0.342 -0.114,-0.512 -0.187,-0.752 -0.438,-1.488 -0.6,-2.247a4.513,4.513 0,0 1,0.595 -3.93,25.529 25.529,0 0,1 -0.31,-4.323 1.657,1.657 0,0 1,0.069 -0.442,17.737 17.737,0 0,0 -3.315,0.824c-4.535,1.512 -13.927,6.387 -17.065,6.185 -7.56,-0.486 -11.101,-7.453 -18.86,-6.848 -7.76,0.605 -7.635,11.788 -24.444,1.752 -11.705,-5.345 -32.702,6.734 -32.702,6.758v5.007l96.645,-0.194c0.03,-0.423 0.065,-0.831 0.091,-1.206" fill="#3798e4" fill-opacity="1.0"/>
    <path d="M278.189,79.492c-0.002,0.212 -0.011,0.423 -0.023,0.633 0.902,0.098 1.828,0.156 2.748,0.223 -0.03,-0.342 -0.051,-0.692 -0.06,-1.046 -0.118,-4.919 -0.106,-9.743 -0.095,-12.469 0.019,-4.236 5.013,-11.205 5.013,-11.205 -0.223,-0.038 -4.543,0.154 -5.33,0.127 -0.688,-0.024 -0.529,8.049 -1.349,8.032 -0.975,-0.021 -2.434,-6.972 -3.156,-6.985a5.249,5.249 0,0 0,-1.364 0.222s3.6,5.954 3.664,9.809C278.278,69.298 278.253,74.492 278.189,79.492Z" fill="#3daaf4" fill-opacity="1.0"/>
    <path d="M280.641,30.182c3.982,0 7.21,3.931 7.21,8.781 0,4.849 -3.228,8.781 -7.21,8.781s-7.21,-3.932 -7.21,-8.781c0,-4.85 3.228,-8.781 7.21,-8.781" fill="#3daaf4" fill-opacity="1.0"/>
    <path d="M280.427,46.244a7.21,8.781 0,1 0,14.42 0a7.21,8.781 0,1 0,-14.42 0z" fill="#3daaf4" fill-opacity="1.0"/>
    <path d="M273.217,35.179c3.981,0 7.21,3.931 7.21,8.781s-3.229,8.781 -7.21,8.781c-3.982,0 -7.211,-3.931 -7.211,-8.781s3.229,-8.781 7.211,-8.781" fill="#3daaf4" fill-opacity="1.0"/>
    <path d="M267.589,47.051c2.294,0 4.153,2.265 4.153,5.058 0,2.794 -1.859,5.058 -4.153,5.058 -2.293,0 -4.152,-2.264 -4.152,-5.058 0,-2.793 1.859,-5.058 4.152,-5.058" fill="#3daaf4" fill-opacity="1.0"/>
    <path d="M290.372,48.622a5.058,5.058 0,1 1,-5.072 5.058A5.064,5.064 0,0 1,290.372 48.622Z" fill="#3daaf4" fill-opacity="1.0"/>
    <path d="M273.375,52.895c2.496,0 4.52,1.327 4.52,2.965 0,1.637 -2.023,2.965 -4.52,2.965 -2.497,0 -4.521,-1.328 -4.521,-2.965C268.854,54.222 270.878,52.895 273.375,52.895Z" fill="#3daaf4" fill-opacity="1.0"/>
    <path d="M282.302,48.765c4.269,0 7.729,2.264 7.729,5.058s-3.46,5.058 -7.729,5.058c-4.268,0 -7.728,-2.264 -7.728,-5.058S278.034,48.765 282.302,48.765Z" fill="#3daaf4" fill-opacity="1.0"/>
    <path d="M280.355,45.745c1.774,0 3.212,1.15 3.212,2.57s-1.438,2.57 -3.212,2.57 -3.213,-1.151 -3.213,-2.57S278.581,45.745 280.355,45.745Z" fill="#3daaf4" fill-opacity="1.0"/>
    <path d="M273.123,50.416c2.728,0 4.939,0.879 4.939,1.963 0,1.083 -2.212,1.962 -4.939,1.962s-4.939,-0.879 -4.939,-1.962c0,-1.084 2.212,-1.963 4.939,-1.963" fill="#3daaf4" fill-opacity="1.0"/>
    <path d="M207.125,50.132a36.668,36.668 0,0 1,1.428 8.376c0.041,2.466 0.016,7.659 -0.048,12.66a18.425,18.425 0,0 1,-1.687 7.064l0.061,0.146 0.146,0.061h5.591l0.146,-0.061 0.061,-0.146a20.137,20.137 0,0 1,-1.652 -7.255c-0.118,-4.919 -0.107,-9.742 -0.095,-12.469a27.45,27.45 0,0 1,1.428 -8.138C211.631,50.223 207.3,50.162 207.125,50.132Z" fill="#3daaf4" fill-opacity="1.0"/>
    <path d="M220.531,46.436 L214.154,56.604c-1.718,2.29 -3.366,0.588 -3.366,0.588V60.043a7.041,7.041 0,0 0,3.353 -1.587c1.928,-1.813 6.606,-11.554 6.606,-11.554Z" fill="#3daaf4" fill-opacity="1.0"/>
    <path d="M204.345,57.132l-6.148,-9.803q0,0.326 0.001,0.652 0,1.152 -0.001,2.304c2.196,4.114 4.689,8.424 6.171,9.817a11.28,11.28 0,0 0,5.378 2.547V58.075S207.101,60.805 204.345,57.132Z" fill="#3daaf4" fill-opacity="1.0"/>
    <path d="M227.531,40.586a12.255,12.255 0,0 0,0.544 -3.6c0,-5.774 -3.916,-10.455 -8.745,-10.455 -0.17,0 -0.336,0.019 -0.504,0.031 -0.739,-4.24 -3.723,-6.608 -9.169,-6.756 -14.088,-0.38 -12.945,4.569 -12.564,10.471 0.036,1.094 -0.044,19.938 -0.083,23.53 0.003,-0.246 0.013,0.365 0.014,1.207a6.348,6.348 0,0 0,3.631 -5.164,3.089 3.089,0 0,0 0.565,0.053 2.647,2.647 0,0 0,2.675 -1.947,6.124 6.124,0 0,0 9.569,-0.52 3.051,3.051 0,0 0,0.697 0.088,2.893 2.893,0 0,0 2.019,-0.794 7.585,7.585 0,0 0,1.81 0.575c0.118,3.904 3.003,7.03 6.554,7.03 3.626,0 6.564,-3.258 6.564,-7.276a7.391,7.391 0,0 0,-3.576 -6.473" fill="#3daaf4" fill-opacity="1.0"/>
    <path d="M208.029,48.466a7.329,5.997 0,1 0,14.658 0a7.329,5.997 0,1 0,-14.658 0z" fill="#3daaf4" fill-opacity="1.0"/>
    <path d="M201.214,50.05a5.997,7.329 72.907,1 0,14.011 -4.309a5.997,7.329 72.907,1 0,-14.011 4.309z" fill="#3daaf4" fill-opacity="1.0"/>
    <path d="M196.895,52.921a3.982,3.259 0,1 0,7.965 0a3.982,3.259 0,1 0,-7.965 0z" fill="#3daaf4" fill-opacity="1.0"/>
    <path d="M257.51,74.776l-31.026,0l-0.832,1.566l31.05,0l0.808,-1.566" fill="#afe0f8" fill-opacity="1.0"/>
    <path d="M257.569,74.661l-31.057,0.062 -0.028,0.052H257.51l0.059,-0.115m29.65,-57.477H257.083L232.19,64.038c4.219,2.304 7.266,3.142 9.632,3.142 6.06,0 7.652,-5.497 13.028,-5.916 0.323,-0.025 0.637,-0.037 0.945,-0.037a14.313,14.313 0,0 1,7.47 2.393l3.395,-6.581a4.949,4.949 0,0 1,-3.223 -4.93,4.994 4.994,0 0,1 3.083,-4.888 10.446,10.446 0,0 1,-0.514 -3.261c0,-4.85 3.229,-8.781 7.211,-8.781a5.997,5.997 0,0 1,0.89 0.066c1.132,-2.947 3.569,-5.002 6.406,-5.062l6.706,-12.999" fill="#70cbed" fill-opacity="1.0"/>
    <path d="M255.795,61.227c-0.309,0 -0.623,0.012 -0.945,0.037 -5.376,0.419 -6.968,5.916 -13.028,5.916 -2.366,0 -5.413,-0.838 -9.632,-3.142L226.512,74.724l31.057,-0.062 5.696,-11.041a14.313,14.313 0,0 0,-7.47 -2.393" fill="#55a7e8" fill-opacity="1.0"/>
    <path d="M280.513,30.184c-2.837,0.06 -5.274,2.115 -6.406,5.062a6.433,6.433 0,0 1,3.081 1.384l3.325,-6.446" fill="#5ab7f6" fill-opacity="1.0"/>
    <path d="M273.217,35.179c-3.982,0 -7.211,3.931 -7.211,8.781a10.446,10.446 0,0 0,0.514 3.261,3.461 3.461,0 0,1 1.069,-0.169 3.924,3.924 0,0 1,3.244 1.898l6.355,-12.32a6.433,6.433 0,0 0,-3.081 -1.384,5.997 5.997,0 0,0 -0.89,-0.066" fill="#5ab7f6" fill-opacity="1.0"/>
    <path d="M267.589,47.051a3.461,3.461 0,0 0,-1.069 0.169,4.994 4.994,0 0,0 -3.083,4.888 4.949,4.949 0,0 0,3.223 4.93l1.979,-3.837a1.112,1.112 0,0 1,-0.455 -0.824c0,-0.579 0.63,-1.099 1.632,-1.458l1.017,-1.971a3.924,3.924 0,0 0,-3.244 -1.898" fill="#5ab7f6" fill-opacity="1.0"/>
    <path d="M269.816,50.921c-1.002,0.359 -1.632,0.879 -1.632,1.458a1.112,1.112 0,0 0,0.455 0.824l1.177,-2.282" fill="#5ab7f6" fill-opacity="1.0"/>
    <path d="M224.116,74.776l-9.558,0l-0.832,1.566l9.583,0l0.807,-1.566" fill="#afe0f8" fill-opacity="1.0"/>
    <path d="M224.141,74.728l-9.568,0.019 -0.015,0.028h9.559l0.025,-0.048m29.684,-57.544h-8.669l-14.477,27.249a7.383,7.383 0,0 1,0.429 2.627,7.075 7.075,0 0,1 -5.653,7.207l-3.958,7.449c0.609,-0.041 1.215,-0.063 1.813,-0.063a17.22,17.22 0,0 1,6.914 1.284l23.601,-45.752" fill="#70cbed" fill-opacity="1.0"/>
    <path d="M223.31,61.652c-0.598,0 -1.204,0.022 -1.813,0.063l-6.924,13.032 9.568,-0.019 6.083,-11.793a17.22,17.22 0,0 0,-6.914 -1.284" fill="#55a7e8" fill-opacity="1.0"/>
    <path d="M230.679,44.433l-5.225,9.833a7.075,7.075 0,0 0,5.653 -7.207,7.383 7.383,0 0,0 -0.429,-2.627" fill="#5ab7f6" fill-opacity="1.0"/>
    <path d="M251.074,16.431h5.416v58.716h-5.416z" fill="#ffffff" fill-opacity="1.0"/>
    <path d="M293.973,76.579L198.345,76.579a1.431,1.431 0,0 1,-1.431 -1.431L196.914,16.431A1.431,1.431 0,0 1,198.345 15h95.628a1.431,1.431 0,0 1,1.432 1.431L295.404,75.147A1.431,1.431 0,0 1,293.973 76.579ZM199.776,73.716L292.542,73.716v-55.854L199.776,17.862Z" fill="#727272" fill-opacity="1.0"/>
    <path d="M198.345,16.431h94.44v5.3h-94.44z" fill="#ffffff" fill-opacity="1.0"/>
    <path d="M198.345,15.859h94.44v2.65h-94.44z" fill="#d1d1d1" fill-opacity="1.0"/>
    <path d="M293.258,76.579L197.63,76.579a1.431,1.431 0,0 1,-1.432 -1.431L196.198,16.431A1.431,1.431 0,0 1,197.63 15h95.628a1.431,1.431 0,0 1,1.431 1.431L294.688,75.147A1.431,1.431 0,0 1,293.258 76.579ZM199.061,73.716h92.766v-55.854L199.061,17.862Z" fill="#ffffff" fill-opacity="1.0"/>
    <path d="M253.568,18.509h1v55.178h-1z" fill="#d1d1d1" fill-opacity="1.0"/>
    <path d="M255.185,50.199a0.286,0.286 0,0 1,-0.286 -0.286V46.098a0.286,0.286 0,1 1,0.572 0v3.815A0.286,0.286 0,0 1,255.185 50.199Z" fill="#d1d1d1" fill-opacity="1.0"/>
    <path d="M252.394,50.199a0.287,0.287 0,0 1,-0.286 -0.286V46.098a0.287,0.287 0,0 1,0.573 0v3.815A0.287,0.287 0,0 1,252.394 50.199Z" fill="#d1d1d1" fill-opacity="1.0"/>
    <path d="M196,73.687h99.395v7.28h-99.395z" fill="#ffffff" fill-opacity="1.0"/>
    <path d="M196,73.687h99.395v1.461h-99.395z" fill="#d1d1d1" fill-opacity="1.0"/>
    <path d="M52.351,124.855c-0.27,-1.193 -0.899,-2.927 -7.396,-3.925 -5.903,-0.906 -8.93,-3.886 -9.931,-7.534 0,0 -5.42,12.643 8.679,11.828C50.346,125.054 52.803,126.931 52.351,124.855Z" fill="#2f1e12" fill-opacity="1.0"/>
    <path d="M74.506,139.297c0.692,-4.003 3.825,-4.347 4.2,-6.133a15.643,15.643 0,0 1,2.219 -5.923c0.05,-0.087 7.611,3.667 7.31,4.269l0.009,0.016c-0.901,1.828 -7.288,14.1 -5.187,20.348 0.142,0.495 0.782,2.835 2.659,3.475 1.17,0.398 1.589,1.271 1.49,1.842 0,0 -0.564,1.306 -4.746,0.282a4.029,4.029 0,0 1,-1.301 -1.299c-0.257,-0.632 -7.653,-11.092 -6.654,-16.876" fill="#2f1e12" fill-opacity="1.0"/>
    <path d="M42.243,154.009a1.489,1.489 0,0 1,2.953 0.378l0.002,0.001c-0.071,2.521 1.738,1.787 1.832,2.981 0.095,1.194 -1.117,1.272 -2.369,1 -1.659,-0.359 -2.314,-0.904 -2.503,-1.94a12.012,12.012 0,0 1,0.08 -2.38l0.002,0.001 0.004,-0.041" fill="#2f1e12" fill-opacity="1.0"/>
    <path d="M43.635,145.073l0.001,0.001 0.001,-0.015a2.652,2.652 0,1 1,4.777 1.907l-0.122,0.152 -0.121,0.133c-0.833,0.918 -2.389,2.706 -2.986,7.275a1.499,1.499 0,0 1,-2.977 -0.344l-0.004,-0.002c0.28,-3.282 0.232,-1.902 1.431,-9.108" fill="#2f1e12" fill-opacity="1.0"/>
    <path d="M42.996,146.043a65.722,65.722 0,0 0,3.361 -5.799c1.394,-2.755 1.405,-6.804 3.196,-9.643l0.072,-0.076a7.125,7.125 0,1 1,11.656 7.863l-0.013,0.04s-7.968,8.181 -13.977,10.69a2.65,2.65 0,0 1,-4.296 -3.076" fill="#2f1e12" fill-opacity="1.0"/>
    <path d="M55.119,122.595c9.893,-1.405 19.164,0.502 27.511,-10.717 1.751,-3.953 13.616,4.689 10.477,11.857a28.569,28.569 0,0 0,-1.43 3.823c-3.64,9.922 -6.395,21.629 -21.058,16.574 -5.307,-1.829 -9.794,-5.918 -15.482,-6.952 -0.515,-0.094 -11.224,-2.694 -10.002,-6.805 1.983,-6.673 5.28,-7.112 9.984,-7.781" fill="#5b3c26" fill-opacity="1.0"/>
    <path d="M85.628,121.029c0.14,-1.01 0.32,-2.014 0.549,-3.008q0.078,-0.337 0.163,-0.672 0.051,-0.201 0.104,-0.401c-0.043,0.16 -0.086,0.319 -0.13,0.479a5.219,5.219 0,0 1,0.404 -1.322,37.942 37.942,0 0,1 1.443,-3.7c3.432,2.368 6.795,7.105 4.945,11.331a28.569,28.569 0,0 0,-1.43 3.823l-0.049,0.136c-0.609,-0.436 -1.211,-0.885 -1.799,-1.35 -1.02,-0.809 -1.983,-1.673 -2.927,-2.569l-0.001,-0.001 -0.161,-0.168q-0.343,-0.362 -0.673,-0.735c-0.247,-0.278 -0.487,-0.563 -0.724,-0.85a3.724,3.724 0,0 0,0.286 -0.992" fill="#2f1e12" fill-opacity="1.0"/>
    <path d="M79.345,145.122a11.741,11.741 0,0 1,-2.349 0.227q-0.228,0 -0.462,-0.008l-0,0c0.156,0.005 0.309,0.008 0.461,0.008a11.745,11.745 0,0 0,2.349 -0.227m0.024,-0.005 l-0.02,0.004 0.02,-0.004m0.022,-0.004 l-0.02,0.004 0.02,-0.004m0.02,-0.004 l-0.013,0.003 0.013,-0.003m0.025,-0.005 l-0.012,0.003 0.012,-0.003m0.018,-0.004 l-0.005,0.001 0.005,-0.001" fill="#634f43" fill-opacity="1.0"/>
    <path d="M52.434,136.419q0.331,0.109 0.663,0.21c-0.211,-0.065 -0.433,-0.135 -0.663,-0.21" fill="#634f43" fill-opacity="1.0"/>
    <path d="M88.774,135.376c-0.679,0.179 -1.363,0.33 -2.025,0.484q-0.318,0.073 -0.635,0.149a4.383,4.383 0,0 1,-0.547 0.152c-0.253,0.087 -0.496,0.192 -0.74,0.304 -1.17,0.535 -2.272,1.196 -3.398,1.817a17.024,17.024 0,0 1,-5.727 2.005q0.096,0.098 0.187,0.203a4.446,4.446 0,0 1,0.677 4.775l0.004,0.001 -0.034,0.074q0.233,0.008 0.462,0.008a11.741,11.741 0,0 0,2.349 -0.227l0.003,-0.001 0.02,-0.004 0.002,-0 0.02,-0.004 0.008,-0.002 0.013,-0.003 0.013,-0.003 0.012,-0.003 0.013,-0.003 0.005,-0.001c4.726,-1.015 7.322,-4.997 9.319,-9.723m-33.564,-0.261c-0.297,0.015 -0.595,0.033 -0.892,0.052 -1.497,0.096 -2.999,0.198 -4.501,0.265q1.288,0.55 2.618,0.987c0.23,0.076 0.452,0.146 0.663,0.21q1.01,0.309 2.04,0.552c4.765,0.866 8.688,3.877 12.955,5.906q0.01,-0.14 0.029,-0.28a4.446,4.446 0,0 1,1.467 -2.74,27.673 27.673,0 0,1 -4.711,-1.696 72.66,72.66 0,0 0,-6.836 -2.905l-0.138,-0.033q-0.38,-0.088 -0.765,-0.155c-0.294,-0.051 -0.591,-0.093 -0.888,-0.124q-0.11,0.003 -0.22,0.003c-0.274,0 -0.548,-0.014 -0.821,-0.041" fill="#795e4d" fill-opacity="1.0"/>
    <path d="M37.056,155.445a1.489,1.489 0,0 1,2.953 0.378l0.001,0.001c-0.07,2.521 1.738,1.787 1.833,2.981 0.094,1.194 -1.117,1.272 -2.37,1 -1.659,-0.359 -2.315,-0.904 -2.502,-1.94a11.968,11.968 0,0 1,0.08 -2.38l0.002,0.001 0.003,-0.041" fill="#5b3c26" fill-opacity="1.0"/>
    <path d="M38.449,146.51l0.001,0.001 0.001,-0.015a2.651,2.651 0,1 1,4.776 1.907l-0.122,0.152 -0.12,0.133c-0.834,0.918 -2.39,2.706 -2.986,7.275a1.499,1.499 0,0 1,-2.977 -0.344l-0.005,-0.002c0.281,-3.282 0.232,-1.902 1.432,-9.108" fill="#5b3c26" fill-opacity="1.0"/>
    <path d="M38.809,145.48a65.709,65.709 0,0 0,3.361 -5.799c1.394,-2.755 1.404,-6.804 3.196,-9.643l0.072,-0.077a7.125,7.125 0,1 1,11.656 7.864l-0.013,0.04s-7.968,8.181 -13.977,10.69a2.65,2.65 0,0 1,-4.296 -3.076Z" fill="#5b3c26" fill-opacity="1.0"/>
    <path d="M71.369,154.035a1.895,1.895 0,0 1,3.751 -0.042h0.001a5.011,5.011 0,0 0,2.047 3.242,1.857 1.857,0 0,1 1.214,2.035s-0.743,1.212 -4.738,-0.394a4.033,4.033 0,0 1,-1.103 -1.471c-0.052,-0.207 -0.257,-0.519 -0.991,-2.274a1.884,1.884 0,0 1,-0.181 -1.096" fill="#5b3c26" fill-opacity="1.0"/>
    <path d="M68.121,142.807a4.447,4.447 0,1 1,8.444 2.46l0.004,0.001a16.459,16.459 0,0 0,-1.428 8.819l-0.01,0.001a1.895,1.895 0,0 1,-3.656 0.873c-1.285,-3.093 -3.385,-8.011 -3.394,-11.471h0a4.51,4.51 0,0 1,0.039 -0.684" fill="#5b3c26" fill-opacity="1.0"/>
    <path d="M68.348,139.757c1.252,-3.865 4.402,-3.76 5.027,-5.475 0.224,-0.614 0.445,-1.16 0.662,-1.653a4.189,4.189 0,1 1,7.5 3.646l0.005,0.003a68.834,68.834 0,0 0,-4.936 8.896l-0.001,-0.001a4.447,4.447 0,0 1,-8.521 -1.603l-0.001,-0.001A11.297,11.297 0,0 1,68.348 139.757Z" fill="#5b3c26" fill-opacity="1.0"/>
    <path d="M77.039,117.244c0.503,1.427 5.482,5.632 13.463,6.912 1.091,0.175 3.063,-0.002 3.301,1.355 0.191,1.095 -1.051,1.32 -1.408,1.971 -0.569,1.037 0.649,2.074 -0.452,3.618 -2.052,1.878 -1.466,2.391 -2.385,3.606a4.109,4.109 0,0 1,-2.325 0.974c0.068,-3.596 -1.076,-3.587 -4.015,-5.106 -1.231,-0.637 -1.399,-2.265 -1.445,-3.533a10.055,10.055 0,0 0,-0.088 -1.443c-0.105,-0.438 -0.689,-0.857 -1.26,-1.172a9.689,9.689 0,0 0,-1.191 -0.548c-4.209,-2.159 -3.246,-5.3 -3.246,-5.3a1.06,1.06 0,0 1,1.05 -1.334" fill="#00bf8f" fill-opacity="1.0"/>
    <path d="M88.97,126.656a8.44,8.44 0,0 0,4.488 -0.134c-0.351,0.346 -0.856,0.581 -1.063,0.96l-0.085,0.191a12.088,12.088 0,0 1,-3.326 -0.76,5.263 5.263,0 0,1 -0.811,-0.538A6.197,6.197 0,0 0,88.97 126.656Z" fill="#009972" fill-opacity="1.0"/>
    <path d="M82.958,124.55c2.941,1.892 2.573,3.24 5.037,4.383 -0.009,0.022 -3.912,-0.444 -4.513,-2.636 -0.773,0.302 -0.999,3.366 3.688,5.683 2.763,1.366 2.049,2.887 2.05,2.975a3.953,3.953 0,0 1,-1.985 0.727c0.068,-3.596 -1.076,-3.587 -4.015,-5.106 -1.23,-0.637 -1.399,-2.265 -1.445,-3.533a10.12,10.12 0,0 0,-0.087 -1.443c-0.106,-0.438 -0.689,-0.857 -1.261,-1.172a9.694,9.694 0,0 0,-1.191 -0.548,5.748 5.748,0 0,1 -3.161,-3.32C78.073,123.408 81.353,123.466 82.958,124.55Z" fill="#009972" fill-opacity="1.0"/>
    <path d="M102.744,117.969s-2.827,2.332 -2.2,3.32a3.086,3.086 0,0 1,-1.026 1.186,8.023 8.023,0 0,1 2.497,-4.599l0.729,0.093" fill="#ab9990" fill-opacity="1.0"/>
    <path d="M93.223,116.787l9.081,1.156a8.024,8.024 0,0 0,-2.497 4.599c-2.49,1.689 -7.111,-0.614 -7.111,-0.614L91.227,118.735l1.996,-1.948" fill="#2d2d30" fill-opacity="1.0"/>
    <path d="M89.351,108.001c2.185,-0.031 4.894,1.052 5.467,1.705 0.863,0.985 0.568,1.725 1.865,2.645 0.691,0.489 6.157,1.405 6.934,1.867 0.777,0.463 -0.072,3.833 -0.401,4.103 -0.241,0.198 -0.393,-0.039 -0.458,-0.181 -2.011,2.182 -5.333,1.944 -7.587,0.963 -2.157,-0.938 -1.582,-1.791 -2.188,-1.875 -0.303,-0.042 -0.453,0.657 -0.385,1.157 0.085,0.614 0.687,1.628 3.208,2.617 2.826,1.107 4.263,0.882 4.598,0.739a0.815,0.815 0,0 0,0.428 -0.386,2.275 2.275,0 0,1 -0.121,1.057c-0.843,1.476 -3.795,1.269 -3.795,1.269s-4.116,-0.48 -4.538,-0.484c-0.626,-0.007 -1.228,0.021 -1.814,0.049 -2.03,0.097 -3.848,0.194 -5.677,-1.17a7.149,7.149 0,0 1,-3.11 -5.889c0.107,-1.074 -0.092,-8.281 7.571,-8.187" fill="#5b3c26" fill-opacity="1.0"/>
    <path d="M96.917,123.682h0m-0,-0 l0,0 -0,0m-0.002,-0h0m-2.868,-0.324 l0,0c0.258,0.028 0.527,0.057 0.792,0.087 -0.265,-0.03 -0.534,-0.059 -0.792,-0.087m6.786,-2.001a0.815,0.815 0,0 1,-0.428 0.386l-0.009,0.004 0.009,-0.004a0.815,0.815 0,0 0,0.428 -0.386,2.266 2.266,0 0,1 0.017,0.276 2.266,2.266 0,0 0,-0.017 -0.276" fill="#9cadb5" fill-opacity="1.0"/>
    <path d="M94.802,120.56l-0,0c0.295,0.147 0.629,0.296 1.005,0.443h0c-0.376,-0.148 -0.71,-0.296 -1.005,-0.443" fill="#625752" fill-opacity="1.0"/>
    <path d="M94.802,120.56a2.376,2.376 0,0 0,-0.788 1.343,3.556 3.556,0 0,0 0.033,1.455c0.258,0.028 0.527,0.058 0.792,0.087 1.036,0.115 2.015,0.23 2.076,0.237h0l0.002,0 0,0 0,0h0l0,0s0.142,0.01 0.372,0.01c0.821,0 2.765,-0.126 3.423,-1.278a2.274,2.274 0,0 0,0.121 -1.057,0.815 0.815,0 0,1 -0.428,0.386l-0.009,0.004a2.515,2.515 0,0 1,-0.871 0.117,10.497 10.497,0 0,1 -3.717,-0.86h0c-0.376,-0.148 -0.71,-0.296 -1.005,-0.443" fill="#795e4d" fill-opacity="1.0"/>
    <path d="M95.838,111.51c0.039,0.058 0.08,0.117 0.126,0.175q-0.066,-0.085 -0.126,-0.175" fill="#9cadb5" fill-opacity="1.0"/>
    <path d="M95.578,111.032a4.492,4.492 0,0 0,-0.06 1.152,2.665 2.665,0 0,0 0.756,1.443 4.642,4.642 0,0 1,0.361 5.251,1.377 1.377,0 0,1 -0.533,0.566 8.558,8.558 0,0 0,2.47 0.379,7.088 7.088,0 0,0 0.906,-0.057l-0.053,0.005a5.425,5.425 0,0 0,2.771 -2.893c-0.181,-0.381 -0.344,-0.79 -0.472,-1.038a1.99,1.99 0,0 1,-0.279 -1.162,0.965 0.965,0 0,1 0.243,-0.534 0.995,0.995 0,0 1,0.351 -0.411,40.115 40.115,0 0,1 -5.355,-1.384h0a3.001,3.001 0,0 1,-0.719 -0.665c-0.046,-0.059 -0.088,-0.117 -0.126,-0.175a2.993,2.993 0,0 1,-0.259 -0.478" fill="#795e4d" fill-opacity="1.0"/>
    <path d="M102.759,118.141a4.939,4.939 0,0 1,-1.2 0.953l-0,0a4.939,4.939 0,0 0,1.201 -0.953" fill="#9cadb5" fill-opacity="1.0"/>
    <path d="M101.558,119.094q-0.202,0.114 -0.412,0.209l-0.003,0.001q0.211,-0.096 0.414,-0.211l0,-0" fill="#a18c82" fill-opacity="1.0"/>
    <path d="M103.597,117.395h0a2.608,2.608 0,0 1,-0.381 0.926,0.282 0.282,0 0,1 -0.177,0.076c-0.14,0 -0.233,-0.154 -0.28,-0.256a5.288,5.288 0,0 1,-1.612 1.163q0.209,-0.095 0.412,-0.209a4.939,4.939 0,0 0,1.2 -0.953h0c0.047,0.103 0.14,0.256 0.28,0.256a0.282,0.282 0,0 0,0.177 -0.076,2.608 2.608,0 0,0 0.381,-0.926" fill="#795e4d" fill-opacity="1.0"/>
    <path d="M101.144,119.305c-0.027,0.012 -0.054,0.024 -0.081,0.036l-0.001,0.001q0.041,-0.018 0.082,-0.037" fill="#ab9990" fill-opacity="1.0"/>
    <path d="M101.063,119.34c-0.147,0.064 -0.297,0.121 -0.449,0.171a6.08,6.08 0,0 1,-1.132 0.255,5.285 5.285,0 0,0 1.58,-0.425l0.001,-0.001" fill="#6c6360" fill-opacity="1.0"/>
    <path d="M100.614,119.511a6.08,6.08 0,0 1,-1.137 0.256l0.005,-0.001a6.08,6.08 0,0 0,1.132 -0.255" fill="#836b5b" fill-opacity="1.0"/>
    <path d="M101.147,119.303c-0.028,0.013 -0.056,0.025 -0.084,0.037l0,0c0.027,-0.012 0.054,-0.024 0.081,-0.036l0.003,-0.001" fill="#a69389" fill-opacity="1.0"/>
    <path d="M101.063,119.34q-0.221,0.096 -0.449,0.171c0.152,-0.05 0.302,-0.107 0.449,-0.171l0,0" fill="#877871" fill-opacity="1.0"/>
    <path d="M102.195,116.88a5.425,5.425 0,0 1,-2.771 2.893l0.053,-0.005a6.08,6.08 0,0 0,1.137 -0.256q0.228,-0.076 0.449,-0.171c0.028,-0.012 0.056,-0.024 0.084,-0.037a5.288,5.288 0,0 0,1.612 -1.163c0.047,0.103 0.14,0.256 0.28,0.256a0.282,0.282 0,0 0,0.177 -0.076,2.608 2.608,0 0,0 0.381,-0.926 1.714,1.714 0,0 1,-0.553 0.392,0.24 0.24,0 0,1 -0.092,0.018c-0.263,0 -0.525,-0.44 -0.757,-0.926" fill="#927c6f" fill-opacity="1.0"/>
    <path d="M93.588,112.117c-1.407,0 -1.582,1.441 -2.219,1.983a0.748,0.748 0,0 1,0.146 -0.013,3.608 3.608,0 0,1 1.258,0.366 2.435,2.435 0,0 0,0.96 0.262,1.057 1.057,0 0,0 0.633,-0.201 2.491,2.491 0,0 1,0.881 -0.486c-0.305,-0.285 -0.555,-1.855 -1.542,-1.907 -0.039,-0.002 -0.078,-0.003 -0.116,-0.003" fill="#836b5b" fill-opacity="1.0"/>
    <path d="M92.777,112.795a0.964,0.964 0,1 0,0.631 -0.385A0.965,0.965 0,0 0,92.777 112.795Z" fill="#452d22" fill-opacity="1.0"/>
    <path d="M93.836,112.716a0.25,0.25 0,1 1,-0.168 0.311A0.25,0.25 0,0 1,93.836 112.716Z" fill="#ffffff" fill-opacity="1.0"/>
    <path d="M103.516,113.711c1.958,0.481 0.777,3.566 -0.472,4.076 -0.499,0.204 -1.009,-1.344 -1.32,-1.945a1.99,1.99 0,0 1,-0.279 -1.162c0.112,-0.895 1.305,-1.157 2.071,-0.969" fill="#33211e" fill-opacity="1.0"/>
    <path d="M102.595,113.565a0.995,0.995 0,0 0,-0.473 0.12q-0.043,0.023 -0.083,0.05 0.105,0.026 0.206,0.051a2.246,2.246 0,0 1,0.762 -0.132,1.005 1.005,0 0,0 -0.412,-0.089" fill="#d0edfb" fill-opacity="1.0"/>
    <path d="M102.038,113.735a0.995,0.995 0,0 0,-0.351 0.411,1.387 1.387,0 0,1 0.557,-0.36q-0.101,-0.025 -0.206,-0.051" fill="#bcafa6" fill-opacity="1.0"/>
    <path d="M103.007,113.653a2.246,2.246 0,0 0,-0.762 0.132h0a1.387,1.387 0,0 0,-0.557 0.36,1 1,0 1,0 1.319,-0.492" fill="#99908f" fill-opacity="1.0"/>
    <path d="M94.363,120.326c0.588,-0.603 1.975,-0.498 2.895,-0.314 3.154,0.628 5.402,1.809 5.209,4.179 -0.064,0.794 -0.564,1.537 -1.457,1.255a1.978,1.978 0,0 1,-0.916 -0.725c-0.497,-0.604 -1.044,-0.366 -1.666,-0.69 -0.784,-0.409 -0.509,-1.018 -1.946,-2.27A9.454,9.454 0,0 0,94.363 120.326Z" fill="#e3787c" fill-opacity="1.0"/>
    <path d="M97.258,120.012a14.57,14.57 0,0 1,2.337 0.647,1.006 1.006,0 0,0 0.253,0.913c0.668,0.655 1.482,0.887 1.611,1.94a4.63,4.63 0,0 1,-0.034 1.103,6.566 6.566,0 0,0 -1.707,-2.823c-0.861,-0.788 -2.085,-1.749 -3.349,-1.396a1.017,1.017 0,0 0,-0.783 0.654,11.456 11.456,0 0,0 -1.223,-0.725C94.952,119.724 96.338,119.828 97.258,120.012Z" fill="#b54a4e" fill-opacity="1.0"/>
    <path d="M89.727,112.792c0.578,0.396 0.509,4.492 0.556,5.937 0.047,1.443 0.315,6.98 -2.404,6.427 -2.169,-0.441 -6.959,-5.506 -6.947,-7.762 0.008,-1.354 2.643,-5.089 4.69,-5.597 1.036,-0.257 3.527,0.6 4.105,0.995" fill="#2f1e12" fill-opacity="1.0"/>
    <path d="M86.299,111.589a1.762,1.762 0,0 0,-0.417 0.043,3.174 3.174,0 0,0 -0.939,0.435 2.992,2.992 0,0 1,0.68 -0.271,1.932 1.932,0 0,1 0.457,-0.047 9.256,9.256 0,0 1,3.648 1.042,1.004 1.004,0 0,1 0.261,0.569c0.114,0.051 0.196,0.101 0.206,0.103a1.905,1.905 0,0 0,-0.49 -0.875,8.595 8.595,0 0,0 -3.405,-0.999" fill="#795e4d" fill-opacity="1.0"/>
    <path d="M86.079,111.75a1.932,1.932 0,0 0,-0.457 0.047,2.992 2.992,0 0,0 -0.68,0.271c-1.719,1.115 -3.527,3.842 -3.532,4.915 -0.012,2.118 4.486,6.874 6.523,7.289a1.368,1.368 0,0 0,0.273 0.029c1.49,0 2.102,-2.716 1.41,-7.223a16.417,16.417 0,0 1,-0.536 -3.185c0.021,-0.502 0.241,-0.641 0.479,-0.641a1.108,1.108 0,0 1,0.429 0.109,1.004 1.004,0 0,0 -0.261,-0.569 9.256,9.256 0,0 0,-3.648 -1.042" fill="#634f43" fill-opacity="1.0"/>
    <path d="M89.091,113.94a4.699,4.699 0,0 0,0.048 0.849c-0.166,0.235 -0.23,0.528 -0.375,0.773 -0.348,0.586 -0.915,0.44 -1.224,-0.194 -0.176,-0.361 -0.192,-0.744 -0.495,-1.039 -0.311,-0.303 -1.053,-0.265 -1.282,-0.559 -0.18,-0.231 0.005,-0.894 -0.145,-1.225 -0.1,-0.222 -0.357,-0.389 -0.43,-0.64a2.822,2.822 0,0 1,0.688 -0.284,7.476 7.476,0 0,1 3.804,0.951c0.118,0.08 0.575,0.61 0.521,0.94C90.161,113.506 89.138,112.83 89.091,113.94Z" fill="#5b3c26" fill-opacity="1.0"/>
    <path d="M67.058,153.969c-1.182,0 -2.391,0.01 -3.617,0.032a158.892,158.892 0,0 0,-18.178 1.244c0.322,1.5 1.685,1.092 1.767,2.124 0.067,0.843 -0.517,1.13 -1.307,1.13a5.13,5.13 0,0 1,-1.062 -0.13c-1.659,-0.359 -2.314,-0.904 -2.503,-1.94q-0.022,-0.337 -0.025,-0.675c-0.787,0.151 -1.495,0.308 -2.116,0.471 0.125,2.043 1.738,1.455 1.827,2.581a0.935,0.935 0,0 1,-0.312 0.865A119.573,119.573 0,0 0,59.942 160.821c1.182,0 2.39,-0.01 3.617,-0.032 14.633,-0.255 26.47,-1.981 26.437,-3.856 -0.013,-0.73 -1.822,-1.375 -4.891,-1.875a2.982,2.982 0,0 0,0.611 0.29c1.17,0.398 1.589,1.271 1.49,1.842 0,0 -0.291,0.674 -2.006,0.674a11.731,11.731 0,0 1,-2.74 -0.392,4.029 4.029,0 0,1 -1.301,-1.299c-0.057,-0.14 -0.464,-0.762 -1.053,-1.709 -1.523,-0.131 -3.185,-0.239 -4.958,-0.319a4.955,4.955 0,0 0,2.018 3.091,1.857 1.857,0 0,1 1.214,2.035s-0.269,0.438 -1.352,0.438A9.442,9.442 0,0 1,73.644 158.876a4.033,4.033 0,0 1,-1.103 -1.471c-0.052,-0.207 -0.257,-0.518 -0.988,-2.267a1.911,1.911 0,0 1,-0.078 -0.178c-0.125,-0.301 -0.258,-0.618 -0.395,-0.95 -1.302,-0.027 -2.645,-0.041 -4.022,-0.041" fill="#4fb0d4" fill-opacity="1.0"/>
    <path d="M80.107,154.464c0.589,0.947 0.996,1.569 1.053,1.709a4.029,4.029 0,0 0,1.301 1.299,11.731 11.731,0 0,0 2.74,0.392c1.714,0 2.006,-0.674 2.006,-0.674 0.099,-0.57 -0.32,-1.443 -1.49,-1.842a2.982,2.982 0,0 1,-0.611 -0.29c-1.416,-0.231 -3.099,-0.431 -4.998,-0.594" fill="#2b1b10" fill-opacity="1.0"/>
    <path d="M45.263,155.245q-0.222,0.031 -0.44,0.062a1.499,1.499 0,0 1,-1.119 0.503,1.515 1.515,0 0,1 -0.173,-0.01 1.494,1.494 0,0 1,-0.585 -0.195q-0.419,0.073 -0.813,0.149 0.003,0.338 0.025,0.675c0.188,1.036 0.844,1.581 2.503,1.94a5.13,5.13 0,0 0,1.062 0.13c0.79,0 1.374,-0.286 1.307,-1.13 -0.082,-1.033 -1.445,-0.624 -1.767,-2.124" fill="#2b1b10" fill-opacity="1.0"/>
    <path d="M44.822,155.307q-0.993,0.143 -1.877,0.298a1.494,1.494 0,0 0,0.585 0.195,1.515 1.515,0 0,0 0.173,0.01 1.499,1.499 0,0 0,1.119 -0.503" fill="#2b1b10" fill-opacity="1.0"/>
    <path d="M40.016,156.224l-0.087,0.023a1.5,1.5 0,0 1,-2.182 0.788c-0.49,0.268 -0.748,0.544 -0.743,0.823 0.012,0.7 1.68,1.323 4.526,1.814a0.935,0.935 0,0 0,0.312 -0.865c-0.089,-1.126 -1.702,-0.538 -1.827,-2.581" fill="#523622" fill-opacity="1.0"/>
    <path d="M39.929,156.247a10.306,10.306 0,0 0,-2.182 0.788,1.494 1.494,0 0,0 0.596,0.201 1.498,1.498 0,0 0,1.585 -0.989" fill="#523622" fill-opacity="1.0"/>
    <path d="M75.136,154.144a1.895,1.895 0,0 1,-3.584 0.995c0.731,1.749 0.936,2.06 0.988,2.267A4.033,4.033 0,0 0,73.644 158.876a9.442,9.442 0,0 0,3.386 0.833c1.083,0 1.352,-0.438 1.352,-0.438a1.857,1.857 0,0 0,-1.214 -2.035,4.955 4.955,0 0,1 -2.018,-3.091L75.136,154.144" fill="#523622" fill-opacity="1.0"/>
    <path d="M71.08,154.011c0.138,0.332 0.27,0.65 0.395,0.95a1.895,1.895 0,0 0,3.661 -0.817c-1.296,-0.059 -2.652,-0.104 -4.056,-0.133" fill="#523622" fill-opacity="1.0"/>
</svg>