<?xml version="1.0" encoding="utf-8" standalone="no"?><svg xmlns:android="http://schemas.android.com/apk/res/android" height="64.0" width="64.0" xmlns="http://www.w3.org/2000/svg">
    <path d="M21.5414,47.7041C21.5414,47.7041 23.5041,38.5759 24.0959,34.3595C24.834,29.1485 24.6318,20.8636 24.6318,20.8636C24.6318,20.8636 24.6959,17.7403 25.891,17.8866C26.7605,17.9885 27.109,19.5945 27.3803,20.9868C27.6515,22.3792 28.6247,29.926 28.0181,34.6751C27.5644,38.2373 24.3589,48.0559 24.3589,48.0559C24.3589,48.0559 23.5814,48.4142 22.8252,48.291C22.3552,48.205 21.9139,48.0033 21.5414,47.7041Z" fill="#616a9b" fill-opacity="1.0" fill-rule="nonZero" stroke="#00000000" stroke-width="1.0"/>
    <path d="M40.7134,47.7041C40.7134,47.7041 38.7507,38.5759 38.1556,34.3595C37.4175,29.1485 37.6197,20.8636 37.6197,20.8636C37.6197,20.8636 37.5556,17.7403 36.3605,17.8866C35.4893,17.9885 35.1425,19.5945 34.8712,20.9868C34.6,22.3792 33.6121,29.9622 34.2137,34.7112C34.669,38.2734 37.886,48.0559 37.886,48.0559C37.886,48.0559 38.6652,48.4142 39.4197,48.291C39.8934,48.207 40.3383,48.0052 40.7134,47.7041Z" fill="#616a9b" fill-opacity="1.0" fill-rule="nonZero" stroke="#00000000" stroke-width="1.0"/>
    <path d="M31.1397,15.5753C34.2416,15.6427 35.9364,18.1036 35.9364,18.1036L36.4296,17.9934C36.4296,17.9934 35.3907,13.703 31.2104,13.703C26.5501,13.703 25.771,17.9523 25.771,17.9523C25.771,17.9523 26.3447,18.5671 26.3858,18.5408C26.4268,18.5145 27.3671,15.4964 31.1397,15.5753Z" fill="#a5b3d7" fill-opacity="1.0" fill-rule="nonZero" stroke="#00000000" stroke-width="1.0"/>
    <path d="M11.8427,26.0367C11.8427,26.0367 14.9775,24.4701 17.3825,24.6164C19.7874,24.7627 23.2132,25.3447 23.2132,25.3447C23.2132,25.3447 27.3671,24.7627 30.9392,24.7627C34.5112,24.7627 36.7699,25.8559 36.7699,25.8559C36.7699,25.8559 42.2373,24.5408 44.7145,24.6888C47.1918,24.8367 50.874,26.0038 50.874,26.0038C50.874,26.0038 52.5868,33.2926 52.5868,34.4597C52.5868,35.6269 51.3112,48.817 51.3112,48.817C51.3112,48.817 51.2553,49.2 49.5803,49.2723C47.9052,49.3447 43.9123,48.7447 42.6005,48.7447L31.0937,48.7447C31.0937,48.7447 21.326,48.4537 20.08,48.5984C18.834,48.743 15.9984,49.6915 14.4663,49.6192C12.9342,49.5468 11.4548,48.9764 11.4055,48.8531C11.1868,48.3074 9.8751,36.2088 9.8751,36.2088L11.8427,26.0367Z" fill="#848ec1" fill-opacity="1.0" fill-rule="nonZero" stroke="#00000000" stroke-width="1.0"/>
    <path d="M36.8734,48.8137C36.8734,48.8137 37.3452,39.24 37.2564,34.8674C37.1479,29.4625 35.6126,21.0986 35.6126,21.0986C35.6126,21.0986 35.1753,17.9293 36.377,17.8734C37.2532,17.834 37.8564,19.4055 38.3496,20.7715C38.8427,22.1375 40.0411,29.8455 40.2055,34.7589C40.3288,38.4444 39.7123,48.7052 39.7123,48.7052C39.7123,48.7052 39.0005,49.1984 38.2329,49.1984C37.7544,49.1878 37.2865,49.0554 36.8734,48.8137Z" fill="#a5b3d7" fill-opacity="1.0" fill-rule="nonZero" stroke="#00000000" stroke-width="1.0"/>
    <path d="M25.0164,34.8674C25.1266,29.4625 26.6603,21.0986 26.6603,21.0986C26.6603,21.0986 27.0975,17.9293 25.8959,17.8734C25.0197,17.834 24.4164,19.4055 23.9233,20.7715C23.4301,22.1375 22.2301,29.8455 22.0658,34.7589C21.9425,38.4444 22.5392,48.577 22.5392,48.577C22.5392,48.577 23.2312,49.1063 23.9973,49.1063C24.4878,49.0926 24.9657,48.9479 25.3814,48.6871C25.3814,48.6871 24.9293,39.24 25.0164,34.8674Z" fill="#a5b3d7" fill-opacity="1.0" fill-rule="nonZero" stroke="#00000000" stroke-width="1.0"/>
    <path d="M11.8427,26.0367C11.8427,26.0367 8.8362,30.7742 8.8362,36.5326C8.8362,43.4614 11.3019,48.8499 11.3019,48.8499C11.3019,48.8499 11.3611,42.4915 11.3019,37.2986C11.2427,32.1058 11.8427,26.0367 11.8427,26.0367Z" fill="#6f76a8" fill-opacity="1.0" fill-rule="nonZero" stroke="#00000000" stroke-width="1.0"/>
    <path d="M50.874,26.0005C50.874,26.0005 53.8805,30.7381 53.8805,36.4964C53.8805,43.4236 51.4148,48.8137 51.4148,48.8137C51.4148,48.8137 51.2405,42.1151 51.2405,36.9337C51.2373,31.7951 50.874,26.0005 50.874,26.0005Z" fill="#6f76a8" fill-opacity="1.0" fill-rule="nonZero" stroke="#00000000" stroke-width="1.0"/>
    <path d="M16.0427,19.8707l2.2011,0.3781l0.6,2.2784l0.434,-2.2931l2.1616,-0.5359l-2.2323,-0.406l-0.5967,-2.1896l-0.3781,2.2027z" fill="#faab43" fill-opacity="1.0" fill-rule="nonZero" stroke="#00000000" stroke-width="1.0"/>
    <path d="M40.337,21.0279l1.7277,0.2959l0.4718,1.7885l0.3403,-1.8l1.6964,-0.4208l-1.7523,-0.3189l-0.4685,-1.7195l-0.2959,1.7293z" fill="#faab43" fill-opacity="1.0" fill-rule="nonZero" stroke="#00000000" stroke-width="1.0"/>
    <path d="M42.6301,16.7704l3.4044,0.5836l0.9271,3.5227l0.6707,-3.5458l3.3436,-0.8285l-3.4521,-0.6279l-0.9222,-3.3847l-0.5836,3.4044z" fill="#faab43" fill-opacity="1.0" fill-rule="nonZero" stroke="#00000000" stroke-width="1.0"/>
</svg>