<?xml version="1.0" encoding="utf-8" standalone="no"?><svg xmlns:android="http://schemas.android.com/apk/res/android" height="141.0" width="141.0" xmlns="http://www.w3.org/2000/svg">
    <path d="M70.5,70.5m-70.5,0a70.5,70.5 0,1 1,141 0a70.5,70.5 0,1 1,-141 0" fill="#8592be" fill-opacity="1.0" fill-rule="evenOdd" stroke="#00000000" stroke-width="1.0"/>
    <g>
        <clip-path android:pathData="M70.5,70.5m-70.5,0a70.5,70.5 0,1 1,141 0a70.5,70.5 0,1 1,-141 0"/>
        <path d="M113.808,95.217C115.168,93.176 117.402,92.461 118.789,93.603C120.184,94.749 120.204,97.328 118.845,99.364C117.482,101.398 115.25,102.123 113.86,100.975C112.467,99.829 112.444,97.252 113.808,95.217" fill="#ffffff" fill-opacity="1.0" fill-rule="evenOdd" stroke="#00000000" stroke-width="1.0"/>
        <path d="M108.439,88.846C110.355,89.064 111.661,91.441 111.342,94.162C111.027,96.879 109.213,98.902 107.294,98.684C105.372,98.468 104.075,96.086 104.386,93.368C104.707,90.655 106.522,88.628 108.439,88.846" fill="#ffffff" fill-opacity="1.0" fill-rule="evenOdd" stroke="#00000000" stroke-width="1.0"/>
        <path d="M97.337,96.187C97.653,93.474 99.471,91.448 101.39,91.666C103.308,91.884 104.613,94.264 104.291,96.982C103.979,99.697 102.165,101.722 100.247,101.504C98.327,101.289 97.023,98.912 97.337,96.187" fill="#ffffff" fill-opacity="1.0" fill-rule="evenOdd" stroke="#00000000" stroke-width="1.0"/>
        <path d="M109.729,120.623C109.651,120.592 109.581,120.567 109.506,120.537C107.777,119.845 107.296,118.997 106.803,118.242C106.324,117.519 105.88,116.821 104.085,116.102C102.289,115.384 101.494,115.585 100.656,115.781C99.753,115.996 98.796,116.296 96.914,115.491C92.455,113.584 92.72,111.104 93.542,109.002C94.73,105.958 96.607,105.933 98.415,105.903C99.517,105.887 100.66,105.868 101.805,105.218C103.043,104.511 103.82,103.51 104.569,102.548C105.852,100.899 107.064,99.342 110.018,100.525L110.284,100.632C113.233,101.812 113.071,103.789 112.89,105.88C112.787,107.101 112.677,108.373 113.103,109.742C113.5,111.009 114.321,111.816 115.111,112.588C116.413,113.864 117.76,115.179 116.571,118.223C115.749,120.325 114.269,122.317 109.729,120.623" fill="#ffffff" fill-opacity="1.0" fill-rule="evenOdd" stroke="#00000000" stroke-width="1.0"/>
        <path d="M123.076,106.413C121.71,108.454 119.478,109.171 118.088,108.023C116.699,106.88 116.674,104.302 118.035,102.269C119.395,100.229 121.629,99.509 123.019,100.654C124.411,101.799 124.437,104.381 123.076,106.413" fill="#ffffff" fill-opacity="1.0" fill-rule="evenOdd" stroke="#00000000" stroke-width="1.0"/>
        <path d="M70.5,36.739C70.756,30.171 72.095,23.267 76.898,18.2C77.434,17.635 78.073,17.065 78.902,16.944C80.067,16.774 81.119,17.539 81.913,18.301C84.622,20.903 86.499,24.079 88.159,27.285C89.677,30.216 91.045,33.22 91.923,36.346C93.26,41.108 93.429,46.126 92.371,50.947C92.053,52.392 91.596,53.875 90.503,54.997C89.411,56.118 87.525,56.772 85.989,56.173L70.5,36.739Z" fill="#000000" fill-opacity="1.0" fill-rule="evenOdd" stroke="#00000000" stroke-width="1.0"/>
        <path d="M77.851,18.33C81.821,19.161 88.957,34.243 87.125,46.481C86.026,46.782 79.182,45.561 78.401,46.301L70.514,35.588C70.27,33.333 73.165,18.965 77.851,18.33" fill="#e5e5e1" fill-opacity="1.0" fill-rule="evenOdd" stroke="#00000000" stroke-width="1.0"/>
        <path d="M54.983,34.211C56.648,27.914 57.362,20.973 54.186,14.724C53.832,14.026 53.378,13.293 52.611,12.928C51.533,12.415 50.29,12.821 49.3,13.303C45.918,14.948 43.176,17.389 40.634,19.923C38.31,22.24 36.11,24.671 34.349,27.366C31.667,31.472 30.042,36.172 29.663,41.057C29.549,42.522 29.561,44.064 30.292,45.456C31.023,46.849 32.659,48.037 34.321,47.934L54.983,34.211Z" fill="#000000" fill-opacity="1.0" fill-rule="evenOdd" stroke="#00000000" stroke-width="1.0"/>
        <path d="M52.18,15.518C48.222,15.148 37.124,27.572 35.25,39.902C36.191,40.515 42.95,41.357 43.463,42.3L53.982,34.306C54.872,32.206 56.377,17.511 52.18,15.518" fill="#e5e5e1" fill-opacity="1.0" fill-rule="evenOdd" stroke="#00000000" stroke-width="1.0"/>
        <path d="M13.252,71.151C13.252,71.151 17.173,73.273 18.918,73.876C16.057,69.966 15.875,63.264 15.875,63.264C15.875,63.264 18.902,65.522 23.244,65.924C21.503,65.148 19.68,62.999 17.47,60.383C24.962,57.326 26.353,40.815 50.01,30.5C55.418,28.142 59.435,31.154 62.749,31.695L62.75,31.692C62.806,31.701 62.861,31.71 62.916,31.72C62.972,31.728 63.028,31.735 63.084,31.741L63.083,31.745C66.41,32.208 70.216,30.393 74.695,34.227C95.805,52.291 91.781,66.021 98.031,71.151C95.145,72.998 92.765,74.513 90.872,74.739C95.139,75.637 98.7,74.374 98.7,74.374C98.7,74.374 96.539,80.722 92.645,83.614C94.491,83.552 98.29,80.551 98.29,80.551C98.29,80.551 94.787,89.291 92.087,91.453C92.087,91.453 94.343,90.317 96.472,91.325C94.039,92.258 84.117,100.274 75.024,106.3C66.972,111.636 66.218,115.219 58.39,113.956C39.941,111.15 16.189,82.99 12.69,80.72C15.4,80.896 17.125,81.53 17.125,81.53C15.188,78.668 13.252,71.151 13.252,71.151" fill="#29292c" fill-opacity="1.0" fill-rule="evenOdd" stroke="#00000000" stroke-width="1.0"/>
        <path d="M22.563,74.942C25.691,76.066 26.919,76.778 29.185,77.333C25.881,72.562 24.207,66.765 24.496,65.345C26.577,65.649 30.4,65.872 32.311,64.884C30.983,64.268 28.425,63.018 27.467,60.991C38.521,60.57 45.533,51.09 51.38,46.926C54.348,44.813 57.807,44.846 60.187,45.554C64.903,46.957 64.538,64.793 59.744,67.131C60.78,67.447 63.589,66.239 64.661,65.079C64.289,67.377 62.84,71.284 62.84,71.284C62.84,71.284 65.705,70.392 66.092,64.666C66.768,63.855 67.439,64.807 68.019,63.908C67.173,68.155 69.839,70.576 70.356,70.684C68.584,60.363 69.485,47.605 75.526,47.722C84.575,47.895 85.961,63.942 87.351,66.682C89.63,71.176 91.649,70.818 92.896,71.081C91.393,72.729 88.587,73.152 87.139,73.341C88.679,74.861 92.395,75.8 94.47,76.136C94.334,77.581 91.052,82.613 86.51,86.173C88.836,86.327 90.216,86.018 93.529,85.887C91.551,93.519 66.75,112.939 56.062,111.291C45.374,109.642 22.238,82.829 22.563,74.942" fill="#e5e5e1" fill-opacity="1.0" fill-rule="evenOdd" stroke="#00000000" stroke-width="1.0"/>
        <path d="M66.39,103.846C63.391,97.645 60.04,91.617 56.4,85.764C58.837,86.972 61.225,88.32 63.486,88.96C66.872,89.917 70.426,89.348 73.698,88.186C75.54,87.531 76.369,86.291 76.944,84.646C77.39,84.437 77.683,83.948 77.453,83.377C75.888,79.487 72.906,76.463 71.705,72.388C71.64,72.171 71.588,71.948 71.528,71.729C71.556,71.745 71.585,71.764 71.608,71.769C69.825,61.692 70.732,49.238 76.812,49.351C85.921,49.521 87.316,65.187 88.714,67.862C91.008,72.249 93.04,71.899 94.296,72.157C92.783,73.765 89.959,74.179 88.501,74.363C90.051,75.846 93.791,76.762 95.88,77.092C95.743,78.502 92.439,83.415 87.868,86.891C90.209,87.041 91.598,86.739 94.933,86.611C93.549,91.791 80.548,103.135 68.826,108.57C68.19,107.164 67.061,105.235 66.39,103.846" fill="#adadad" fill-opacity="1.0" fill-rule="evenOdd" stroke="#00000000" stroke-width="1.0"/>
        <path d="M66.889,59.164C68.578,55.703 67.396,50.016 67.901,43.71C68.208,55.56 69.81,56.205 68.708,57.849C67.953,58.976 67.27,61.545 68.601,61.878C68.882,61.948 69.055,62.35 69.052,62.676C69.044,63.562 68.571,64.132 68.333,64.974C67.788,66.896 68.021,69.05 68.527,70.967C68.786,71.951 67.524,72.31 67.266,71.333C66.791,69.536 66.892,67.736 66.765,65.859C66.619,63.702 67.729,63.536 67.487,63.162C67.246,62.787 65.299,62.422 66.889,59.164" fill="#e5e5e1" fill-opacity="1.0" fill-rule="evenOdd" stroke="#00000000" stroke-width="1.0"/>
        <path d="M59.389,81.965C61.718,88.016 63.72,94.181 65.559,100.393C66.305,102.912 66.996,105.455 67.68,108.003C65.398,108.913 64.554,109.555 62.278,109.98C62.352,109.099 61.293,108.562 60.788,107.814C60.129,106.838 57.038,105.447 56.761,105.318C48.657,101.286 46.553,93.241 46.43,92.46C45.823,88.604 44.69,84.29 45.29,80.37C49.667,82.079 54.673,82.253 59.389,81.965" fill="#adadad" fill-opacity="1.0" fill-rule="evenOdd" stroke="#00000000" stroke-width="1.0"/>
        <path d="M55.249,55.853C59.384,58.46 57.515,65.551 56.474,70.5C55.565,69.822 54.534,69.315 53.417,68.972C51.397,68.352 49.18,68.721 47.223,67.924C43.812,66.536 43.71,59.355 43.71,59.355C43.71,59.355 50.181,52.66 55.249,55.853" fill="#adadad" fill-opacity="1.0" fill-rule="evenOdd" stroke="#00000000" stroke-width="1.0"/>
        <path d="M73.153,96.226C75.034,108.251 60.466,106.118 56.343,104.442C51.963,102.662 48.866,97.855 47.7,94.757C46.053,90.377 42.739,80.784 43.984,76.274C44.229,75.385 47.127,79.227 47.722,78.518C48.314,77.809 52.779,79.655 53.705,79.715C54.534,79.768 55.266,80.253 55.925,80.756C57.895,82.259 72.379,91.269 73.153,96.226" fill="#2f2d34" fill-opacity="1.0" fill-rule="evenOdd" stroke="#00000000" stroke-width="1.0"/>
        <path d="M49.111,72.247C55.084,79.242 64.057,75.943 71.181,70.5C73.79,76.072 77.802,81.143 79.698,83.118C82.499,85.935 84.439,88.635 82.239,92.605C81.491,93.956 80.555,95.642 79.47,97.318C76.037,101.436 73.401,96.157 73.401,96.157C73.401,96.157 65.819,97.995 58.372,93.501C54.547,91.192 46.102,81.992 46.388,75.992C45.648,78.38 46.388,104.247 64.589,105.73C52.505,106.281 48.279,95.27 46.14,88.89C43.067,79.717 41.815,76.322 49.111,72.247" fill="#e5e5e1" fill-opacity="1.0" fill-rule="evenOdd" stroke="#00000000" stroke-width="1.0"/>
        <path d="M56.4,92.011C59.746,92.967 67.68,92.546 69.313,88.83C71.658,90.3 75.141,90.628 77.7,89.718C78.535,91.164 79.067,93.809 78.942,96.24C78.777,96.519 78.612,96.799 78.441,97.079C75.097,101.328 72.53,95.881 72.53,95.881C72.53,95.881 63.848,98.314 56.4,92.011" fill="#adadad" fill-opacity="1.0" fill-rule="evenOdd" stroke="#00000000" stroke-width="1.0"/>
        <path d="M77.422,59.484C73.744,60.819 73.76,66.697 73.32,71.74C74.153,71.346 75.035,71.151 75.94,71.137C77.577,71.112 79.117,72.092 80.751,71.88C83.597,71.51 84.6,64.33 84.6,64.33C84.6,64.33 81.926,57.85 77.422,59.484" fill="#000000" fill-opacity="1.0" fill-rule="evenOdd" stroke="#00000000" stroke-width="1.0"/>
        <path d="M73.397,64.982C72.956,67.688 74.457,70.143 76.752,70.465C79.045,70.788 81.263,68.855 81.703,66.149C82.144,63.442 80.643,60.987 78.348,60.665C76.055,60.342 73.838,62.275 73.397,64.982" fill="#7a9cbc" fill-opacity="1.0" fill-rule="evenOdd" stroke="#00000000" stroke-width="1.0"/>
        <path d="M73.371,65.148C73.077,67.081 74.078,68.834 75.608,69.065C77.137,69.295 78.615,67.915 78.909,65.982C79.203,64.049 78.202,62.295 76.673,62.065C75.143,61.835 73.665,63.215 73.371,65.148" fill="#000000" fill-opacity="1.0" fill-rule="evenOdd" stroke="#00000000" stroke-width="1.0"/>
        <path d="M74.746,64.648C74.63,65.418 75.159,66.137 75.929,66.254C76.699,66.37 77.418,65.84 77.534,65.071C77.651,64.3 77.12,63.582 76.351,63.466C75.581,63.349 74.862,63.879 74.746,64.648" fill="#ffffff" fill-opacity="1.0" fill-rule="evenOdd" stroke="#00000000" stroke-width="1.0"/>
        <path d="M54.929,66.27C54.929,66.27 52.565,60.497 45.12,61.649C45.12,61.649 55.892,57.395 54.929,66.27" fill="#000000" fill-opacity="1.0" fill-rule="evenOdd" stroke="#00000000" stroke-width="1.0"/>
        <path d="M78.249,108.864C77.491,107.492 76.566,106.224 75.797,104.86C75.059,103.554 74.583,102.12 73.845,100.816C72.394,98.247 70.018,96.796 67.137,97.976C66.022,98.432 65.146,98.958 64.135,98.086C62.841,96.969 61.702,96.108 59.947,95.944C59.323,95.887 54.513,95.295 53.651,99.237C53.095,101.78 55.936,103.106 57.655,104.421C60.16,106.337 61.506,109.276 61.654,112.425C61.805,115.624 61.298,118.898 62.26,122.014C63.144,124.871 65.113,127.241 68.042,128.009C70.85,128.743 73.765,128.116 76.073,126.343C81.471,122.195 81.289,114.378 78.249,108.864" fill="#e3787c" fill-opacity="1.0" fill-rule="evenOdd" stroke="#00000000" stroke-width="1.0"/>
        <path d="M73.319,112.915C73.309,111.784 73.006,110.423 72.545,108.988C72.544,108.987 72.544,108.987 72.544,108.986C72.357,108.465 72.169,107.945 71.984,107.424C71.791,106.88 71.601,106.334 71.424,105.785C71.042,104.592 70.664,103.305 70.714,102.037C70.767,100.725 71.337,99.524 72.237,98.702C70.878,97.584 69.167,97.189 67.225,97.981C66.101,98.439 65.22,98.965 64.203,98.091C62.9,96.971 61.754,96.109 59.987,95.944C59.36,95.887 54.519,95.293 53.651,99.245C53.427,100.269 53.755,101.097 54.339,101.805C55.082,100.859 56.093,100.143 57.296,99.826C59.152,99.338 60.977,99.913 62.611,100.801C65.279,102.249 67.503,104.689 69.19,107.189C71.208,110.184 72.379,113.546 72.873,117.03C73.196,115.704 73.334,114.662 73.319,112.915" fill="#b54a4e" fill-opacity="1.0" fill-rule="evenOdd" stroke="#00000000" stroke-width="1.0"/>
        <path d="M74.757,80.466C71.893,80.1 66.278,80.692 66.27,83.774C66.261,86.856 70.101,91.178 73.591,91.622C76.724,92.023 81.485,87.959 81.762,85.658C82.04,83.358 79.052,81.014 74.757,80.466" fill="#000000" fill-opacity="1.0" fill-rule="evenOdd" stroke="#00000000" stroke-width="1.0"/>
        <path d="M78.948,83.684C78.809,84.413 77.438,84.783 75.887,84.51C74.335,84.237 73.192,83.425 73.332,82.696C73.471,81.966 74.842,81.597 76.393,81.87C77.945,82.142 79.088,82.955 78.948,83.684" fill="#ffffff" fill-opacity="1.0" fill-rule="evenOdd" stroke="#00000000" stroke-width="1.0"/>
    </g>
</svg>