<?xml version="1.0" encoding="utf-8" standalone="no"?><svg xmlns:android="http://schemas.android.com/apk/res/android" height="64.0" width="64.0" xmlns="http://www.w3.org/2000/svg">
    <path d="M43.1807,41.5732C43.1807,41.5732 44.3559,46.6443 46.9414,46.9146C49.5269,47.1849 51.6893,46.9968 53.1701,48.0428C53.618,48.3386 54.005,48.7176 54.31,49.1593C54.31,49.1593 54.31,46.8088 52.8704,46.1624C51.4307,45.5161 48.6748,45.5748 48.3164,44.1234C47.958,42.672 47.4056,39.7692 47.6583,39.1699C47.9109,38.5705 42.6048,39.0935 43.1807,41.5732Z" fill="#000000" fill-opacity="1.0" fill-rule="nonZero" stroke="#00000000" stroke-width="1.0"/>
    <path d="M29.742,53.2608C29.742,53.2608 27.7794,53.537 26.992,52.7261C26.2046,51.9152 26.6394,50.0936 26.1576,48.9653C25.5112,47.4669 22.1265,44.0235 22.1265,44.0235L26.516,43.5711C27.1411,44.955 27.6923,46.3712 28.1672,47.8136C28.6138,49.3943 27.5796,50.5872 28.0262,51.6919C28.3731,52.4175 28.9883,52.98 29.742,53.2608L29.742,53.2608Z" fill="#000000" fill-opacity="1.0" fill-rule="nonZero" stroke="#00000000" stroke-width="1.0"/>
    <path d="M16.7323,37.031C16.7323,37.031 14.0645,36.8312 12.619,35.9204C11.0031,34.9156 9.2226,31.4251 9.2226,31.4251C9.2226,31.4251 9.7573,35.7911 11.3556,37.3013C12.9539,38.8114 15.6334,39.2991 15.6334,39.2991L16.7323,37.031Z" fill="#000000" fill-opacity="1.0" fill-rule="nonZero" stroke="#00000000" stroke-width="1.0"/>
    <path d="M39.0615,44.4701C38.2874,46.2386 37.3799,47.9457 36.3467,49.5765C38.3685,49.3797 40.3305,48.7803 42.1171,47.8136C40.8362,46.9707 39.786,45.8215 39.0615,44.4701Z" fill="#000000" fill-opacity="1.0" fill-rule="nonZero" stroke="#00000000" stroke-width="1.0"/>
    <path d="M47.9109,38.5764C47.8169,35.7441 46.389,28.7456 46.389,28.7456L34.0492,30.6142C34.0492,30.6142 32.0278,33.2937 29.2954,34.1399C26.563,34.9861 19.259,34.9802 17.3551,35.9027C15.7333,36.6725 13.377,39.6047 14.4171,42.7602C15.4572,45.9156 20.7515,45.5278 21.0571,44.8697C21.3156,44.3291 21.7093,44.2116 23.4075,44.7228C25.1057,45.234 31.2228,49.1769 32.921,49.5412C34.0461,49.725 35.1915,49.7487 36.3232,49.6117C37.3564,47.9809 38.2639,46.2739 39.038,44.5054C39.7593,45.8653 40.8098,47.0229 42.0936,47.8724C42.7338,47.5239 43.3414,47.1188 43.9093,46.6619C45.349,45.4984 48.005,41.4145 47.9109,38.5764Z" fill="#2e2829" fill-opacity="1.0" fill-rule="nonZero" stroke="#00000000" stroke-width="1.0"/>
    <path d="M22.2029,42.9365C22.2029,42.9365 21.298,50.0289 17.3728,50.1993C14.5934,50.311 13.8001,50.5813 13.0773,51.1513C12.3546,51.7212 12.3311,52.7261 9.9806,52.6673C9.9806,52.6673 10.7856,52.2501 11.5143,50.1935C12.2429,48.1368 12.9481,47.6667 14.0351,47.5433C15.1222,47.4199 14.4406,44.2116 14.2996,42.2548C14.1585,40.2981 21.1981,38.3178 22.2029,42.9365Z" fill="#2e2829" fill-opacity="1.0" fill-rule="nonZero" stroke="#00000000" stroke-width="1.0"/>
    <path d="M43.2394,43.5476C43.2394,43.5476 40.4365,50.5989 39.6315,52.7496C39.1535,53.9992 39.2975,55.4015 40.0193,56.5279C40.0193,56.5279 37.9744,56.2459 37.6689,53.4136C37.3633,50.5813 37.9039,49.2063 37.5572,46.8676C37.2105,44.5289 40.0017,39.8867 43.2394,43.5476Z" fill="#2e2829" fill-opacity="1.0" fill-rule="nonZero" stroke="#00000000" stroke-width="1.0"/>
    <path d="M48.795,35.419a1.7042,2.7267 120,1 0,4.7228 2.7267a1.7042,2.7267 120,1 0,-4.7228 -2.7267z" fill="#faab43" fill-opacity="1.0" fill-rule="evenOdd" stroke="#00000000" stroke-width="1.0"/>
    <path d="M32.973,31.6981C35.0122,33.3376 36.7788,34.4323 38.2728,34.9824C40.5138,35.8075 40.9748,35.9283 43.1369,35.893C44.5784,35.8695 46.0154,35.2568 47.448,34.0548L47.7993,36.4866C46.4847,37.7089 45.0548,38.3201 43.5096,38.3201C41.1917,38.3201 40.0639,38.2407 37.526,37.1187C34.9882,35.9967 32.0967,33.5749 31.5283,32.8439C32.0439,32.437 32.5255,32.0551 32.973,31.6981Z" fill="#7786b7" fill-opacity="1.0" fill-rule="evenOdd" stroke="#00000000" stroke-width="1.0"/>
    <path d="M34.6064,17.5032C34.6064,17.5032 29.8663,12.3139 26.3148,11.1124C22.7629,9.9108 23.5462,11.4956 23.8237,12.9759C24.1006,14.4572 27.8801,24.8032 29.1538,25.539C30.428,26.2744 34.6064,17.5032 34.6064,17.5032" fill="#2d2829" fill-opacity="1.0" fill-rule="evenOdd" stroke="#00000000" stroke-width="1.0"/>
    <path d="M34.6064,17.5032C34.6064,17.5032 29.8663,12.3139 26.3148,11.1124C22.7629,9.9108 23.831,11.9127 25.163,12.617C27.1143,13.6497 30.0801,16.6827 32.4639,19.9773C33.6797,18.6297 34.6064,17.5032 34.6064,17.5032" fill="#000000" fill-opacity="1.0" fill-rule="evenOdd" stroke="#00000000" stroke-width="1.0"/>
    <path d="M38.7871,15.646C38.7871,15.646 38.3806,11.9464 39.1004,9.7202C39.8192,7.4937 41.3877,5.7579 43.1341,9.5964C44.8802,13.4347 43.8683,15.4294 44.4729,16.345C45.0638,17.2396 45.7635,18.105 45.7635,18.105L38.7871,15.646Z" fill="#000000" fill-opacity="1.0" fill-rule="evenOdd" stroke="#00000000" stroke-width="1.0"/>
    <path d="M44.0171,35.4369C44.8962,35.1699 46.1545,33.3692 46.9055,33.048C47.6574,32.727 48.8331,32.6515 49.5134,32.2894C50.1941,31.9276 50.7115,30.7324 50.7115,30.7324C50.7115,30.7324 51.266,31.0239 51.9062,30.5784C52.5718,30.1148 52.6085,27.9916 52.0863,26.9353C51.5643,25.8789 50.0742,24.7824 49.8051,23.7782C49.5359,22.7735 49.3952,20.499 48.7538,19.7632C48.1134,19.028 46.3773,17.4593 44.2626,16.7105C42.1481,15.9608 39.7541,15.2868 38.638,15.5859C37.5221,15.8849 36.5404,16.3207 36.5404,16.3207L32.7105,22.2579L37.7151,34.0153L40.6332,35.142C40.6332,35.142 43.1384,35.7045 44.0171,35.4369" fill="#ffffff" fill-opacity="1.0" fill-rule="evenOdd" stroke="#00000000" stroke-width="1.0"/>
    <path d="M41.3995,35.1005C42.3087,33.9142 40.6454,31.4712 40.3001,30.2749C39.7862,28.4949 39.6144,26.4054 40.22,24.6207C40.4462,23.9533 41.1095,23.0332 41.1034,22.3231C41.0958,21.402 40.7864,20.3072 40.4717,19.4428C39.959,18.0344 38.8869,16.8648 37.7825,15.8267C36.3336,16.2213 35.0327,16.9174 34.3232,17.3398C33.2322,17.9908 29.425,22.7195 29.1819,24.9382C28.9392,27.1566 31.2713,29.1632 32.4792,30.9929C33.6872,32.8222 38.1257,35.1015 39.4431,35.1077C39.9338,35.1101 40.5975,35.1982 41.2809,35.2906C41.3127,35.2265 41.3519,35.1624 41.3995,35.1005" fill="#000000" fill-opacity="1.0" fill-rule="evenOdd" stroke="#00000000" stroke-width="1.0"/>
    <path d="M49.1952,19.8858C49.7653,20.8271 49.712,21.9027 49.0772,22.2864C48.4423,22.6704 47.4656,22.2187 46.8959,21.2768C46.3262,20.3346 46.3796,19.2596 47.0147,18.876C47.6499,18.4919 48.6261,18.9438 49.1952,19.8858" fill="#818080" fill-opacity="1.0" fill-rule="evenOdd" stroke="#00000000" stroke-width="1.0"/>
    <path d="M41.0059,22.6367C41.3652,23.9776 40.457,25.3858 38.9778,25.7822C37.4985,26.1786 36.0079,25.4131 35.6486,24.0722C35.2894,22.7314 36.1973,21.3224 37.6765,20.926C39.1558,20.5296 40.6466,21.2959 41.0059,22.6367" fill="#818080" fill-opacity="1.0" fill-rule="evenOdd" stroke="#00000000" stroke-width="1.0"/>
    <path d="M40.0363,23.038C40.2064,23.6726 39.6751,24.3647 38.85,24.5858C38.025,24.8069 37.2185,24.4732 37.0485,23.8386C36.8787,23.2051 37.41,22.5119 38.2351,22.2908C39.0601,22.0697 39.8666,22.4045 40.0363,23.038" fill="#000000" fill-opacity="1.0" fill-rule="evenOdd" stroke="#00000000" stroke-width="1.0"/>
    <path d="M39.4683,22.7559C39.5214,22.9542 39.3556,23.17 39.0977,23.2391C38.8403,23.3081 38.5883,23.2042 38.5352,23.0059C38.4822,22.8081 38.6485,22.5921 38.9059,22.5232C39.1638,22.4541 39.4153,22.5581 39.4683,22.7559" fill="#ffffff" fill-opacity="1.0" fill-rule="evenOdd" stroke="#00000000" stroke-width="1.0"/>
    <path d="M49.309,20.2881C49.4623,20.8602 49.1292,21.445 48.5657,21.596C48.0022,21.747 47.4213,21.407 47.268,20.835C47.1149,20.2637 47.4479,19.6783 48.0114,19.5273C48.5749,19.3763 49.1559,19.7168 49.309,20.2881" fill="#000000" fill-opacity="1.0" fill-rule="evenOdd" stroke="#00000000" stroke-width="1.0"/>
    <path d="M48.8205,20.0477C48.8606,20.1972 48.7355,20.3599 48.5411,20.412C48.3472,20.464 48.1571,20.3857 48.117,20.2362C48.0771,20.0871 48.2026,19.9243 48.3965,19.8724C48.5909,19.8203 48.7806,19.8986 48.8205,20.0477" fill="#ffffff" fill-opacity="1.0" fill-rule="evenOdd" stroke="#00000000" stroke-width="1.0"/>
    <path d="M44.864,21.6329C45.9933,21.2823 46.9617,21.8463 47.6427,22.4592C48.2771,23.0301 48.7446,24.0625 49.1472,24.6722C49.5501,25.2821 50.3885,25.9548 50.9212,26.8286C51.4545,27.7022 52.1574,30.5287 51.7439,30.7096C50.0551,31.4471 50.6187,29.2122 49.3931,29.387C48.8398,29.466 46.778,32.0471 45.6483,32.8474C44.6525,33.5529 41.1651,34.619 41.1651,34.619C41.1651,34.619 44.5717,33.1331 45.3543,32.0788C45.8701,31.3839 46.1639,30.5156 46.182,29.7648C46.2102,28.6188 45.8672,27.9245 44.8506,26.6778C43.8763,25.4834 42.9982,25.3314 42.7974,23.7422C42.713,23.0736 43.5429,22.0433 44.864,21.6329" fill="#818080" fill-opacity="1.0" fill-rule="evenOdd" stroke="#00000000" stroke-width="1.0"/>
    <path d="M47.5604,23.1575C47.6505,23.7249 46.881,24.3183 45.8406,24.4843C44.8014,24.6494 43.8847,24.3241 43.7943,23.7566C43.7042,23.1893 44.4741,22.5952 45.5137,22.4296C46.5537,22.2641 47.4701,22.5903 47.5604,23.1575" fill="#000000" fill-opacity="1.0" fill-rule="evenOdd" stroke="#00000000" stroke-width="1.0"/>
    <path d="M51.7803,29.5826C51.2119,29.1997 51.0211,29.3604 50.5179,27.8453C50.1866,28.2163 49.6436,27.7995 49.2419,28.055C48.7494,28.4133 48.3026,28.8305 47.9116,29.2974C47.941,29.299 47.5508,28.8843 47.5789,28.9093C48.5291,29.8653 48.542,30.8545 48.7657,31.1898C48.9045,31.4168 49.0965,31.6066 49.3251,31.7428C49.9673,32.0562 50.7161,32.0652 51.3657,31.7674C51.7415,31.5987 52.0534,31.3139 52.2556,30.9549C52.6013,30.42 52.3495,29.9478 51.7803,29.5826Z" fill="#ac676d" fill-opacity="1.0" fill-rule="nonZero" stroke="#00000000" stroke-width="1.0"/>
    <path android:fillAlpha="0.5" android:strokeAlpha="0.5" d="M50.1505,28.0084C49.8455,27.8402 49.4681,27.8791 49.2039,28.1059C48.6663,28.4838 48.1209,28.6729 49.0737,28.9053C50.0266,29.1376 51.0625,30.9277 51.0625,30.9277C50.6358,30.0836 50.3285,29.1842 50.1493,28.2555C50.117,27.636 50.1505,28.0084 50.1505,28.0084Z" fill="#322631" fill-opacity="1.0" fill-rule="nonZero" stroke="#00000000" stroke-width="1.0"/>
    <path d="M50.0385,27.1621C49.4043,26.8202 48.7212,26.563 48.0087,26.3978C48.0087,26.3978 48.8559,27.3184 48.37,28.231C48.1814,28.5754 47.1048,30.4633 46.9191,30.8794C46.4365,31.8146 45.5531,32.5178 44.4922,32.8112C45.6762,32.7264 46.719,32.0242 47.188,30.9959C47.763,29.9893 48.504,28.8404 49.2362,28.3905C49.8584,28.0095 50.4696,28.1172 50.656,28.3823C51.0766,27.9984 50.1187,27.2852 50.0385,27.1621Z" fill="#241f20" fill-opacity="1.0" fill-rule="nonZero" stroke="#00000000" stroke-width="1.0"/>
</svg>