<?xml version="1.0" encoding="UTF-8" standalone="no"?>
<!DOCTYPE svg PUBLIC "-//W3C//DTD SVG 1.1//EN" "http://www.w3.org/Graphics/SVG/1.1/DTD/svg11.dtd">
<svg width="100%" height="100%" viewBox="0 0 64 64" version="1.1" xmlns="http://www.w3.org/2000/svg" xmlns:xlink="http://www.w3.org/1999/xlink" xml:space="preserve" xmlns:serif="http://www.serif.com/" style="fill-rule:evenodd;clip-rule:evenodd;stroke-linejoin:round;stroke-miterlimit:2;">
    <path d="M21.541,47.704C21.541,47.704 23.504,38.576 24.096,34.359C24.834,29.148 24.632,20.864 24.632,20.864C24.632,20.864 24.696,17.74 25.891,17.887C26.761,17.988 27.109,19.595 27.38,20.987C27.651,22.379 28.625,29.926 28.018,34.675C27.564,38.237 24.359,48.056 24.359,48.056C24.359,48.056 23.581,48.414 22.825,48.291C22.355,48.205 21.914,48.003 21.541,47.704Z" style="fill:rgb(97,106,155);fill-rule:nonzero;"/>
    <path d="M40.713,47.704C40.713,47.704 38.751,38.576 38.156,34.359C37.417,29.148 37.62,20.864 37.62,20.864C37.62,20.864 37.556,17.74 36.361,17.887C35.489,17.988 35.143,19.595 34.871,20.987C34.6,22.379 33.612,29.962 34.214,34.711C34.669,38.273 37.886,48.056 37.886,48.056C37.886,48.056 38.665,48.414 39.42,48.291C39.893,48.207 40.338,48.005 40.713,47.704Z" style="fill:rgb(97,106,155);fill-rule:nonzero;"/>
    <path d="M31.14,15.575C34.242,15.643 35.936,18.104 35.936,18.104L36.43,17.993C36.43,17.993 35.391,13.703 31.21,13.703C26.55,13.703 25.771,17.952 25.771,17.952C25.771,17.952 26.345,18.567 26.386,18.541C26.427,18.515 27.367,15.496 31.14,15.575Z" style="fill:rgb(165,179,215);fill-rule:nonzero;"/>
    <path d="M11.843,26.037C11.843,26.037 14.977,24.47 17.383,24.616C19.787,24.763 23.213,25.345 23.213,25.345C23.213,25.345 27.367,24.763 30.939,24.763C34.511,24.763 36.77,25.856 36.77,25.856C36.77,25.856 42.237,24.541 44.715,24.689C47.192,24.837 50.874,26.004 50.874,26.004C50.874,26.004 52.587,33.293 52.587,34.46C52.587,35.627 51.311,48.817 51.311,48.817C51.311,48.817 51.255,49.2 49.58,49.272C47.905,49.345 43.912,48.745 42.6,48.745L31.094,48.745C31.094,48.745 21.326,48.454 20.08,48.598C18.834,48.743 15.998,49.692 14.466,49.619C12.934,49.547 11.455,48.976 11.406,48.853C11.187,48.307 9.875,36.209 9.875,36.209L11.843,26.037Z" style="fill:rgb(132,142,193);fill-rule:nonzero;"/>
    <path d="M36.873,48.814C36.873,48.814 37.345,39.24 37.256,34.867C37.148,29.462 35.613,21.099 35.613,21.099C35.613,21.099 35.175,17.929 36.377,17.873C37.253,17.834 37.856,19.406 38.35,20.772C38.843,22.138 40.041,29.846 40.206,34.759C40.329,38.444 39.712,48.705 39.712,48.705C39.712,48.705 39.001,49.198 38.233,49.198C37.754,49.188 37.286,49.055 36.873,48.814Z" style="fill:rgb(165,179,215);fill-rule:nonzero;"/>
    <path d="M25.016,34.867C25.127,29.462 26.66,21.099 26.66,21.099C26.66,21.099 27.098,17.929 25.896,17.873C25.02,17.834 24.416,19.406 23.923,20.772C23.43,22.138 22.23,29.846 22.066,34.759C21.943,38.444 22.539,48.577 22.539,48.577C22.539,48.577 23.231,49.106 23.997,49.106C24.488,49.093 24.966,48.948 25.381,48.687C25.381,48.687 24.929,39.24 25.016,34.867Z" style="fill:rgb(165,179,215);fill-rule:nonzero;"/>
    <path d="M11.843,26.037C11.843,26.037 8.836,30.774 8.836,36.533C8.836,43.461 11.302,48.85 11.302,48.85C11.302,48.85 11.361,42.492 11.302,37.299C11.243,32.106 11.843,26.037 11.843,26.037Z" style="fill:rgb(111,118,168);fill-rule:nonzero;"/>
    <path d="M50.874,26.001C50.874,26.001 53.881,30.738 53.881,36.496C53.881,43.424 51.415,48.814 51.415,48.814C51.415,48.814 51.24,42.115 51.24,36.934C51.237,31.795 50.874,26.001 50.874,26.001Z" style="fill:rgb(111,118,168);fill-rule:nonzero;"/>
    <path d="M16.043,19.871L18.244,20.249L18.844,22.527L19.278,20.234L21.439,19.698L19.207,19.292L18.61,17.103L18.232,19.305L16.043,19.871Z" style="fill:rgb(250,171,67);fill-rule:nonzero;"/>
    <path d="M40.337,21.028L42.065,21.324L42.537,23.112L42.877,21.312L44.573,20.891L42.821,20.573L42.352,18.853L42.057,20.582L40.337,21.028Z" style="fill:rgb(250,171,67);fill-rule:nonzero;"/>
    <path d="M42.63,16.77L46.035,17.354L46.962,20.877L47.632,17.331L50.976,16.502L47.524,15.875L46.602,12.49L46.018,15.894L42.63,16.77Z" style="fill:rgb(250,171,67);fill-rule:nonzero;"/>
</svg>
