<?xml version="1.0" encoding="UTF-8" standalone="no"?>
<!DOCTYPE svg PUBLIC "-//W3C//DTD SVG 1.1//EN" "http://www.w3.org/Graphics/SVG/1.1/DTD/svg11.dtd">
<svg width="100%" height="100%" viewBox="0 0 250 149" version="1.1" xmlns="http://www.w3.org/2000/svg" xmlns:xlink="http://www.w3.org/1999/xlink" xml:space="preserve" xmlns:serif="http://www.serif.com/" style="fill-rule:evenodd;clip-rule:evenodd;stroke-linejoin:round;stroke-miterlimit:2;">
    <path d="M129.81,140.95C152.85,140.95 191.05,146.25 208.87,140.95C244.45,130.35 250,101.76 250,74.35C250,47.95 235.65,24.39 200.28,14.15C180.52,8.44 170.8,14.15 146.05,14.15C121.51,14.15 86.28,-9.15 51.28,4.05C16.28,17.25 0,47.83 0,74.35C0,98.95 16.59,127.38 47.44,140.95C68.18,150.07 102.06,140.95 129.81,140.95Z" style="fill:rgb(237,237,237);fill-rule:nonzero;"/>
    <g>
        <path d="M249.17,49.01L234.74,48.91L227.64,48.86C227.13,48.86 226.63,48.86 226.11,48.84L225.75,48.81L225.66,48.8L225.46,48.75C225.35,48.72 225.24,48.69 225.13,48.65C225.23,48.67 225.02,48.55 224.93,48.51C224.84,48.41 224.63,48.18 224.77,48.37C224.29,47.75 223.94,47.17 223.31,46.71C221.69,45.54 219.83,46.13 218.19,46.88L217.65,47.12L217.5,47.19C217.14,47.33 216.79,47.49 216.42,47.59C216.27,47.64 216.11,47.67 215.95,47.7C216.46,47.6 215.93,47.67 215.79,47.67C215.76,47.66 215.73,47.65 215.7,47.64L215.65,47.63C215.61,47.59 215.56,47.57 215.51,47.54L215.49,47.54L215.46,47.5C215.41,47.44 215.36,47.38 215.32,47.31C215.17,47.03 215.02,46.76 214.89,46.47C214.86,46.41 214.84,46.36 214.82,46.3C214.76,46.12 214.69,45.93 214.62,45.74C214.49,45.36 214.37,44.98 214.23,44.6C213.52,42.65 212.49,40.95 210.53,40.27C208.38,39.52 205.79,40.39 204.26,42.14C203.71,42.78 203.26,43.5 202.92,44.29C202.2,43.85 201.35,43.7 200.53,43.85C198.91,44.16 197.86,45.44 196.99,46.84C196.9,46.97 196.82,47.1 196.74,47.24C196.73,47.25 196.54,47.52 196.54,47.54C196.45,47.65 196.36,47.76 196.26,47.86L196.21,47.91C196.11,47.96 196.01,48.02 195.91,48.09C195.83,48.12 195.74,48.14 195.66,48.16C195.66,48.15 195.33,48.17 195.3,48.17C195.27,48.17 194.91,48.14 194.94,48.15C193.58,47.91 192.37,47.16 191.06,46.75C189.75,46.33 188.15,46.12 186.81,46.65C185.11,47.32 183.67,49.07 184.06,51.13C184.47,53.32 186.58,53.73 188.32,53.57C190.05,53.41 191.81,53.18 193.57,53.17C195.27,53.15 196.57,53.42 198.26,53.76C200.08,54.13 201.8,54.29 203.62,53.92C205.19,53.6 206.45,53.05 207.87,53.13C207.86,53.13 208.24,53.19 208.25,53.19C208.38,53.22 208.51,53.25 208.63,53.28C209.01,53.39 209.39,53.52 209.76,53.66C210.5,53.94 211.23,54.27 211.98,54.53C213.68,55.09 215.39,55.09 217.13,54.83C218.8,54.57 220.43,54.12 222.1,53.85C223.68,53.62 225.27,53.48 226.86,53.44C234.47,53.17 242.07,54.29 249.65,52.97C250.56,52.81 251.1,51.67 250.99,50.77C250.87,49.78 250.1,49.03 249.17,49.01ZM215.9,47.69C215.87,47.69 215.84,47.69 215.82,47.68C215.87,47.68 215.91,47.68 215.9,47.69Z" style="fill:white;fill-rule:nonzero;"/>
    </g>
    <g>
        <path d="M103.17,26.01L88.74,25.91L81.64,25.86C81.13,25.86 80.63,25.86 80.11,25.84L79.75,25.81L79.66,25.8L79.46,25.75C79.35,25.72 79.24,25.69 79.13,25.65C79.23,25.67 79.02,25.55 78.93,25.51C78.84,25.41 78.63,25.18 78.77,25.37C78.29,24.75 77.94,24.17 77.31,23.71C75.69,22.54 73.83,23.13 72.19,23.88L71.65,24.12L71.5,24.19C71.14,24.33 70.79,24.49 70.42,24.59C70.27,24.64 70.11,24.67 69.95,24.7C70.46,24.6 69.93,24.67 69.79,24.67C69.76,24.66 69.73,24.65 69.7,24.64L69.65,24.63C69.61,24.59 69.56,24.57 69.51,24.54L69.49,24.54L69.46,24.5C69.41,24.44 69.36,24.38 69.32,24.31C69.17,24.03 69.02,23.76 68.89,23.47C68.86,23.41 68.84,23.36 68.82,23.3C68.76,23.12 68.69,22.93 68.62,22.74C68.49,22.36 68.37,21.98 68.23,21.6C67.52,19.65 66.49,17.95 64.53,17.27C62.38,16.52 59.79,17.39 58.26,19.14C57.71,19.78 57.26,20.5 56.92,21.29C56.2,20.85 55.35,20.7 54.53,20.85C52.91,21.16 51.86,22.44 50.99,23.84C50.9,23.97 50.82,24.1 50.74,24.24C50.73,24.25 50.54,24.52 50.54,24.54C50.45,24.65 50.36,24.76 50.26,24.86L50.21,24.91C50.11,24.96 50.01,25.02 49.91,25.09C49.83,25.12 49.74,25.14 49.66,25.16C49.66,25.15 49.33,25.17 49.3,25.17C49.27,25.17 48.91,25.14 48.94,25.15C47.58,24.91 46.37,24.16 45.06,23.75C43.75,23.33 42.15,23.12 40.81,23.65C39.11,24.32 37.67,26.07 38.06,28.13C38.47,30.32 40.58,30.73 42.32,30.57C44.05,30.41 45.81,30.18 47.57,30.17C49.27,30.15 50.57,30.42 52.26,30.76C54.08,31.13 55.8,31.29 57.62,30.92C59.19,30.6 60.45,30.05 61.87,30.13C61.86,30.13 62.24,30.19 62.25,30.19C62.38,30.22 62.51,30.25 62.63,30.28C63.01,30.39 63.39,30.52 63.76,30.66C64.5,30.94 65.23,31.27 65.98,31.53C67.68,32.09 69.39,32.09 71.13,31.83C72.8,31.57 74.43,31.12 76.1,30.85C77.68,30.62 79.27,30.48 80.86,30.44C88.47,30.17 96.07,31.29 103.65,29.97C104.56,29.81 105.1,28.67 104.99,27.77C104.87,26.78 104.1,26.03 103.17,26.01ZM69.9,24.69C69.87,24.69 69.84,24.69 69.82,24.68C69.87,24.68 69.91,24.68 69.9,24.69Z" style="fill:white;fill-rule:nonzero;"/>
    </g>
    <g>
        <path d="M183.68,83.93L183.68,92.13L187.38,92.13L187.38,83.93L183.68,83.93ZM186.72,91.42L184.34,91.42L184.34,88.38L186.72,88.38L186.72,91.42ZM186.72,84.63L186.72,87.67L184.34,87.67L184.34,84.62L186.72,84.63Z" style="fill:rgb(166,234,255);fill-rule:nonzero;"/>
        <path d="M183.68,95.7L183.68,103.91L187.38,103.91L187.38,95.7L183.68,95.7ZM186.72,103.2L184.34,103.2L184.34,100.16L186.72,100.16L186.72,103.2ZM186.72,96.4L186.72,99.44L184.34,99.44L184.34,96.4L186.72,96.4Z" style="fill:rgb(166,234,255);fill-rule:nonzero;"/>
        <path d="M183.68,107.47L183.68,115.68L187.38,115.68L187.38,107.47L183.68,107.47ZM186.72,114.97L184.34,114.97L184.34,111.93L186.72,111.93L186.72,114.97ZM186.72,108.18L186.72,111.22L184.34,111.22L184.34,108.18L186.72,108.18Z" style="fill:rgb(166,234,255);fill-rule:nonzero;"/>
        <path d="M183.68,119.25L183.68,127.46L187.38,127.46L187.38,119.25L183.68,119.25ZM186.72,126.75L184.34,126.75L184.34,123.71L186.72,123.71L186.72,126.75ZM186.72,119.95L186.72,122.99L184.34,122.99L184.34,119.95L186.72,119.95Z" style="fill:rgb(166,234,255);fill-rule:nonzero;"/>
        <path d="M183.68,131.02L183.68,139.23L187.38,139.23L187.38,131.02L183.68,131.02ZM186.72,138.52L184.34,138.52L184.34,135.48L186.72,135.48L186.72,138.52ZM186.72,131.73L186.72,134.77L184.34,134.77L184.34,131.73L186.72,131.73Z" style="fill:rgb(166,234,255);fill-rule:nonzero;"/>
        <path d="M183.68,142.8L183.68,151.01L187.38,151.01L187.38,142.8L183.68,142.8ZM186.72,150.29L184.34,150.29L184.34,147.25L186.72,147.25L186.72,150.29ZM186.72,143.5L186.72,146.54L184.34,146.54L184.34,143.5L186.72,143.5Z" style="fill:rgb(166,234,255);fill-rule:nonzero;"/>
        <path d="M123.07,76.3L123.07,74.11L101.3,74.11L101.3,76.3L97.38,76.3L97.38,74.11L97.99,74.11L97.99,73.16L96.28,73.16L96.28,71.32L95.92,71.32L95.92,73.16L95.28,73.16L95.28,71.32L94.92,71.32L94.92,73.16L91.86,73.16L91.86,74.11L92.52,74.11L92.52,76.3L86.06,76.3L86.06,79.44L87.05,79.44L87.05,159.26L127.06,159.26L127.06,79.44L128.61,79.44L128.61,76.3L123.07,76.3Z" style="fill:rgb(170,170,170);fill-rule:nonzero;"/>
        <path d="M123.07,76.3L123.07,74.11L111.76,74.11L111.76,159.26L127.07,159.26L127.07,79.44L128.62,79.44L128.62,76.3L123.07,76.3Z" style="fill:rgb(209,209,209);fill-rule:nonzero;"/>
        <rect x="86.07" y="78.32" width="42.55" height="1" style="fill:rgb(237,237,237);fill-rule:nonzero;"/>
        <rect x="86.07" y="77.31" width="42.55" height="1" style="fill:rgb(237,237,237);fill-rule:nonzero;"/>
        <path d="M90.32,83.93L90.32,92.13L94.02,92.13L94.02,83.93L90.32,83.93ZM93.35,91.42L90.98,91.42L90.98,88.38L93.35,88.38L93.35,91.42ZM93.35,84.63L93.35,87.67L90.98,87.67L90.98,84.62L93.35,84.63Z" style="fill:rgb(237,237,237);fill-rule:nonzero;"/>
        <path d="M96.94,83.93L96.94,92.13L100.64,92.13L100.64,83.93L96.94,83.93ZM99.98,91.42L97.61,91.42L97.61,88.38L99.98,88.38L99.98,91.42ZM99.98,84.63L99.98,87.67L97.61,87.67L97.61,84.62L99.98,84.63Z" style="fill:rgb(237,237,237);fill-rule:nonzero;"/>
        <path d="M103.56,83.93L103.56,92.13L107.26,92.13L107.26,83.93L103.56,83.93ZM106.6,91.42L104.22,91.42L104.22,88.38L106.6,88.38L106.6,91.42ZM106.6,84.63L106.6,87.67L104.22,87.67L104.22,84.62L106.6,84.63Z" style="fill:rgb(237,237,237);fill-rule:nonzero;"/>
        <path d="M117.91,83.92L114.21,83.92L114.21,92.13L117.91,92.13L117.91,83.92ZM117.25,84.63L117.25,87.67L114.87,87.67L114.87,84.62L117.25,84.63ZM117.25,91.42L114.87,91.42L114.87,88.38L117.25,88.38L117.25,91.42Z" style="fill:rgb(237,237,237);fill-rule:nonzero;"/>
        <path d="M121.22,83.92L121.22,92.13L124.92,92.13L124.92,83.92L121.22,83.92ZM124.26,84.62L124.26,87.66L121.88,87.66L121.88,84.62L124.26,84.62ZM121.88,91.41L121.88,88.38L124.26,88.38L124.26,91.42L121.88,91.41Z" style="fill:rgb(237,237,237);fill-rule:nonzero;"/>
        <path d="M90.32,95.7L90.32,103.91L94.02,103.91L94.02,95.7L90.32,95.7ZM93.35,103.2L90.98,103.2L90.98,100.16L93.35,100.16L93.35,103.2ZM93.35,96.41L93.35,99.45L90.98,99.45L90.98,96.4L93.35,96.41Z" style="fill:rgb(237,237,237);fill-rule:nonzero;"/>
        <path d="M96.94,95.7L96.94,103.91L100.64,103.91L100.64,95.7L96.94,95.7ZM99.98,103.2L97.61,103.2L97.61,100.16L99.98,100.16L99.98,103.2ZM99.98,96.41L99.98,99.45L97.61,99.45L97.61,96.4L99.98,96.41Z" style="fill:rgb(237,237,237);fill-rule:nonzero;"/>
        <path d="M103.56,95.7L103.56,103.91L107.26,103.91L107.26,95.7L103.56,95.7ZM106.6,103.2L104.22,103.2L104.22,100.16L106.6,100.16L106.6,103.2ZM106.6,96.41L106.6,99.45L104.22,99.45L104.22,96.4L106.6,96.41Z" style="fill:rgb(237,237,237);fill-rule:nonzero;"/>
        <path d="M117.91,95.69L114.21,95.69L114.21,103.9L117.91,103.9L117.91,95.69ZM117.25,96.4L117.25,99.44L114.87,99.44L114.87,96.4L117.25,96.4ZM117.25,103.2L114.87,103.2L114.87,100.16L117.25,100.16L117.25,103.2Z" style="fill:rgb(237,237,237);fill-rule:nonzero;"/>
        <path d="M121.22,95.69L121.22,103.9L124.92,103.9L124.92,95.69L121.22,95.69ZM124.26,96.4L124.26,99.44L121.88,99.44L121.88,96.4L124.26,96.4ZM121.88,103.2L121.88,100.16L124.26,100.16L124.26,103.2L121.88,103.2Z" style="fill:rgb(237,237,237);fill-rule:nonzero;"/>
        <path d="M90.32,107.47L90.32,115.68L94.02,115.68L94.02,107.47L90.32,107.47ZM93.35,114.97L90.98,114.97L90.98,111.93L93.35,111.93L93.35,114.97ZM93.35,108.18L93.35,111.22L90.98,111.22L90.98,108.18L93.35,108.18Z" style="fill:rgb(237,237,237);fill-rule:nonzero;"/>
        <path d="M96.94,107.47L96.94,115.68L100.64,115.68L100.64,107.47L96.94,107.47ZM99.98,114.97L97.61,114.97L97.61,111.93L99.98,111.93L99.98,114.97ZM99.98,108.18L99.98,111.22L97.61,111.22L97.61,108.18L99.98,108.18Z" style="fill:rgb(237,237,237);fill-rule:nonzero;"/>
        <path d="M103.56,107.47L103.56,115.68L107.26,115.68L107.26,107.47L103.56,107.47ZM106.6,114.97L104.22,114.97L104.22,111.93L106.6,111.93L106.6,114.97ZM106.6,108.18L106.6,111.22L104.22,111.22L104.22,108.18L106.6,108.18Z" style="fill:rgb(237,237,237);fill-rule:nonzero;"/>
        <path d="M117.91,107.47L114.21,107.47L114.21,115.67L117.91,115.67L117.91,107.47ZM117.25,108.18L117.25,111.22L114.87,111.22L114.87,108.18L117.25,108.18ZM117.25,114.97L114.87,114.97L114.87,111.93L117.25,111.93L117.25,114.97Z" style="fill:rgb(237,237,237);fill-rule:nonzero;"/>
        <path d="M121.22,107.47L121.22,115.67L124.92,115.67L124.92,107.47L121.22,107.47ZM124.26,108.18L124.26,111.22L121.88,111.22L121.88,108.18L124.26,108.18ZM121.88,114.97L121.88,111.93L124.26,111.93L124.26,114.97L121.88,114.97Z" style="fill:rgb(237,237,237);fill-rule:nonzero;"/>
        <path d="M90.32,119.25L90.32,127.46L94.02,127.46L94.02,119.25L90.32,119.25ZM93.35,126.75L90.98,126.75L90.98,123.71L93.35,123.71L93.35,126.75ZM93.35,119.95L93.35,122.99L90.98,122.99L90.98,119.95L93.35,119.95Z" style="fill:rgb(237,237,237);fill-rule:nonzero;"/>
        <path d="M96.94,119.25L96.94,127.46L100.64,127.46L100.64,119.25L96.94,119.25ZM99.98,126.75L97.61,126.75L97.61,123.71L99.98,123.71L99.98,126.75ZM99.98,119.95L99.98,122.99L97.61,122.99L97.61,119.95L99.98,119.95Z" style="fill:rgb(237,237,237);fill-rule:nonzero;"/>
        <path d="M103.56,119.25L103.56,127.46L107.26,127.46L107.26,119.25L103.56,119.25ZM106.6,126.75L104.22,126.75L104.22,123.71L106.6,123.71L106.6,126.75ZM106.6,119.95L106.6,122.99L104.22,122.99L104.22,119.95L106.6,119.95Z" style="fill:rgb(237,237,237);fill-rule:nonzero;"/>
        <path d="M117.91,119.24L114.21,119.24L114.21,127.45L117.91,127.45L117.91,119.24ZM117.25,119.95L117.25,122.99L114.87,122.99L114.87,119.95L117.25,119.95ZM117.25,126.75L114.87,126.75L114.87,123.71L117.25,123.71L117.25,126.75Z" style="fill:rgb(237,237,237);fill-rule:nonzero;"/>
        <path d="M121.22,119.24L121.22,127.45L124.92,127.45L124.92,119.24L121.22,119.24ZM124.26,119.95L124.26,122.99L121.88,122.99L121.88,119.95L124.26,119.95ZM121.88,126.75L121.88,123.71L124.26,123.71L124.26,126.75L121.88,126.75Z" style="fill:rgb(237,237,237);fill-rule:nonzero;"/>
        <path d="M90.32,131.02L90.32,139.23L94.02,139.23L94.02,131.02L90.32,131.02ZM93.35,138.52L90.98,138.52L90.98,135.48L93.35,135.48L93.35,138.52ZM93.35,131.73L93.35,134.77L90.98,134.77L90.98,131.73L93.35,131.73Z" style="fill:rgb(237,237,237);fill-rule:nonzero;"/>
        <path d="M96.94,131.02L96.94,139.23L100.64,139.23L100.64,131.02L96.94,131.02ZM99.98,138.52L97.61,138.52L97.61,135.48L99.98,135.48L99.98,138.52ZM99.98,131.73L99.98,134.77L97.61,134.77L97.61,131.73L99.98,131.73Z" style="fill:rgb(237,237,237);fill-rule:nonzero;"/>
        <path d="M103.56,131.02L103.56,139.23L107.26,139.23L107.26,131.02L103.56,131.02ZM106.6,138.52L104.22,138.52L104.22,135.48L106.6,135.48L106.6,138.52ZM106.6,131.73L106.6,134.77L104.22,134.77L104.22,131.73L106.6,131.73Z" style="fill:rgb(237,237,237);fill-rule:nonzero;"/>
        <path d="M117.91,131.02L114.21,131.02L114.21,139.22L117.91,139.22L117.91,131.02ZM117.25,131.73L117.25,134.77L114.87,134.77L114.87,131.73L117.25,131.73ZM117.25,138.52L114.87,138.52L114.87,135.48L117.25,135.48L117.25,138.52Z" style="fill:rgb(237,237,237);fill-rule:nonzero;"/>
        <path d="M121.22,131.02L121.22,139.22L124.92,139.22L124.92,131.02L121.22,131.02ZM124.26,131.73L124.26,134.77L121.88,134.77L121.88,131.73L124.26,131.73ZM121.88,138.52L121.88,135.48L124.26,135.48L124.26,138.52L121.88,138.52Z" style="fill:rgb(237,237,237);fill-rule:nonzero;"/>
        <path d="M90.32,142.8L90.32,151.01L94.02,151.01L94.02,142.8L90.32,142.8ZM93.35,150.29L90.98,150.29L90.98,147.25L93.35,147.25L93.35,150.29ZM93.35,143.5L93.35,146.54L90.98,146.54L90.98,143.5L93.35,143.5Z" style="fill:rgb(237,237,237);fill-rule:nonzero;"/>
        <path d="M96.94,142.8L96.94,151.01L100.64,151.01L100.64,142.8L96.94,142.8ZM99.98,150.29L97.61,150.29L97.61,147.25L99.98,147.25L99.98,150.29ZM99.98,143.5L99.98,146.54L97.61,146.54L97.61,143.5L99.98,143.5Z" style="fill:rgb(237,237,237);fill-rule:nonzero;"/>
        <path d="M103.56,142.8L103.56,151.01L107.26,151.01L107.26,142.8L103.56,142.8ZM106.6,150.29L104.22,150.29L104.22,147.25L106.6,147.25L106.6,150.29ZM106.6,143.5L106.6,146.54L104.22,146.54L104.22,143.5L106.6,143.5Z" style="fill:rgb(237,237,237);fill-rule:nonzero;"/>
        <path d="M117.91,142.79L114.21,142.79L114.21,151L117.91,151L117.91,142.79ZM117.25,143.5L117.25,146.54L114.87,146.54L114.87,143.5L117.25,143.5ZM117.25,150.29L114.87,150.29L114.87,147.25L117.25,147.25L117.25,150.29Z" style="fill:rgb(237,237,237);fill-rule:nonzero;"/>
        <path d="M121.22,142.79L121.22,151L124.92,151L124.92,142.79L121.22,142.79ZM124.26,143.5L124.26,146.54L121.88,146.54L121.88,143.5L124.26,143.5ZM121.88,150.29L121.88,147.25L124.26,147.25L124.26,150.29L121.88,150.29Z" style="fill:rgb(237,237,237);fill-rule:nonzero;"/>
        <path d="M226.07,76.3L226.07,74.11L204.3,74.11L204.3,76.3L200.38,76.3L200.38,74.11L200.99,74.11L200.99,73.16L199.28,73.16L199.28,71.32L198.92,71.32L198.92,73.16L198.28,73.16L198.28,71.32L197.92,71.32L197.92,73.16L194.86,73.16L194.86,74.11L195.52,74.11L195.52,76.3L189.06,76.3L189.06,79.44L190.05,79.44L190.05,159.26L230.06,159.26L230.06,79.44L231.61,79.44L231.61,76.3L226.07,76.3Z" style="fill:rgb(170,170,170);fill-rule:nonzero;"/>
        <path d="M226.07,76.3L226.07,74.11L214.76,74.11L214.76,159.26L230.07,159.26L230.07,79.44L231.62,79.44L231.62,76.3L226.07,76.3Z" style="fill:rgb(209,209,209);fill-rule:nonzero;"/>
        <rect x="189.07" y="78.32" width="42.55" height="1" style="fill:rgb(237,237,237);fill-rule:nonzero;"/>
        <rect x="189.07" y="77.31" width="42.55" height="1" style="fill:rgb(237,237,237);fill-rule:nonzero;"/>
        <path d="M193.32,83.93L193.32,92.13L197.02,92.13L197.02,83.93L193.32,83.93ZM196.35,91.42L193.98,91.42L193.98,88.38L196.35,88.38L196.35,91.42ZM196.35,84.63L196.35,87.67L193.98,87.67L193.98,84.62L196.35,84.63Z" style="fill:rgb(237,237,237);fill-rule:nonzero;"/>
        <path d="M199.94,83.93L199.94,92.13L203.64,92.13L203.64,83.93L199.94,83.93ZM202.98,91.42L200.61,91.42L200.61,88.38L202.98,88.38L202.98,91.42ZM202.98,84.63L202.98,87.67L200.61,87.67L200.61,84.62L202.98,84.63Z" style="fill:rgb(237,237,237);fill-rule:nonzero;"/>
        <path d="M206.56,83.93L206.56,92.13L210.26,92.13L210.26,83.93L206.56,83.93ZM209.6,91.42L207.22,91.42L207.22,88.38L209.6,88.38L209.6,91.42ZM209.6,84.63L209.6,87.67L207.22,87.67L207.22,84.62L209.6,84.63Z" style="fill:rgb(237,237,237);fill-rule:nonzero;"/>
        <path d="M220.91,83.92L217.21,83.92L217.21,92.13L220.91,92.13L220.91,83.92ZM220.25,84.63L220.25,87.67L217.87,87.67L217.87,84.62L220.25,84.63ZM220.25,91.42L217.87,91.42L217.87,88.38L220.25,88.38L220.25,91.42Z" style="fill:rgb(237,237,237);fill-rule:nonzero;"/>
        <path d="M224.22,83.92L224.22,92.13L227.92,92.13L227.92,83.92L224.22,83.92ZM227.26,84.62L227.26,87.66L224.88,87.66L224.88,84.62L227.26,84.62ZM224.88,91.41L224.88,88.38L227.26,88.38L227.26,91.42L224.88,91.41Z" style="fill:rgb(237,237,237);fill-rule:nonzero;"/>
        <path d="M193.32,95.7L193.32,103.91L197.02,103.91L197.02,95.7L193.32,95.7ZM196.35,103.2L193.98,103.2L193.98,100.16L196.35,100.16L196.35,103.2ZM196.35,96.41L196.35,99.45L193.98,99.45L193.98,96.4L196.35,96.41Z" style="fill:rgb(237,237,237);fill-rule:nonzero;"/>
        <path d="M199.94,95.7L199.94,103.91L203.64,103.91L203.64,95.7L199.94,95.7ZM202.98,103.2L200.61,103.2L200.61,100.16L202.98,100.16L202.98,103.2ZM202.98,96.41L202.98,99.45L200.61,99.45L200.61,96.4L202.98,96.41Z" style="fill:rgb(237,237,237);fill-rule:nonzero;"/>
        <path d="M206.56,95.7L206.56,103.91L210.26,103.91L210.26,95.7L206.56,95.7ZM209.6,103.2L207.22,103.2L207.22,100.16L209.6,100.16L209.6,103.2ZM209.6,96.41L209.6,99.45L207.22,99.45L207.22,96.4L209.6,96.41Z" style="fill:rgb(237,237,237);fill-rule:nonzero;"/>
        <path d="M220.91,95.69L217.21,95.69L217.21,103.9L220.91,103.9L220.91,95.69ZM220.25,96.4L220.25,99.44L217.87,99.44L217.87,96.4L220.25,96.4ZM220.25,103.2L217.87,103.2L217.87,100.16L220.25,100.16L220.25,103.2Z" style="fill:rgb(237,237,237);fill-rule:nonzero;"/>
        <path d="M224.22,95.69L224.22,103.9L227.92,103.9L227.92,95.69L224.22,95.69ZM227.26,96.4L227.26,99.44L224.88,99.44L224.88,96.4L227.26,96.4ZM224.88,103.2L224.88,100.16L227.26,100.16L227.26,103.2L224.88,103.2Z" style="fill:rgb(237,237,237);fill-rule:nonzero;"/>
        <path d="M193.32,107.47L193.32,115.68L197.02,115.68L197.02,107.47L193.32,107.47ZM196.35,114.97L193.98,114.97L193.98,111.93L196.35,111.93L196.35,114.97ZM196.35,108.18L196.35,111.22L193.98,111.22L193.98,108.18L196.35,108.18Z" style="fill:rgb(237,237,237);fill-rule:nonzero;"/>
        <path d="M199.94,107.47L199.94,115.68L203.64,115.68L203.64,107.47L199.94,107.47ZM202.98,114.97L200.61,114.97L200.61,111.93L202.98,111.93L202.98,114.97ZM202.98,108.18L202.98,111.22L200.61,111.22L200.61,108.18L202.98,108.18Z" style="fill:rgb(237,237,237);fill-rule:nonzero;"/>
        <path d="M206.56,107.47L206.56,115.68L210.26,115.68L210.26,107.47L206.56,107.47ZM209.6,114.97L207.22,114.97L207.22,111.93L209.6,111.93L209.6,114.97ZM209.6,108.18L209.6,111.22L207.22,111.22L207.22,108.18L209.6,108.18Z" style="fill:rgb(237,237,237);fill-rule:nonzero;"/>
        <path d="M220.91,107.47L217.21,107.47L217.21,115.67L220.91,115.67L220.91,107.47ZM220.25,108.18L220.25,111.22L217.87,111.22L217.87,108.18L220.25,108.18ZM220.25,114.97L217.87,114.97L217.87,111.93L220.25,111.93L220.25,114.97Z" style="fill:rgb(237,237,237);fill-rule:nonzero;"/>
        <path d="M224.22,107.47L224.22,115.67L227.92,115.67L227.92,107.47L224.22,107.47ZM227.26,108.18L227.26,111.22L224.88,111.22L224.88,108.18L227.26,108.18ZM224.88,114.97L224.88,111.93L227.26,111.93L227.26,114.97L224.88,114.97Z" style="fill:rgb(237,237,237);fill-rule:nonzero;"/>
        <path d="M193.32,119.25L193.32,127.46L197.02,127.46L197.02,119.25L193.32,119.25ZM196.35,126.75L193.98,126.75L193.98,123.71L196.35,123.71L196.35,126.75ZM196.35,119.95L196.35,122.99L193.98,122.99L193.98,119.95L196.35,119.95Z" style="fill:rgb(237,237,237);fill-rule:nonzero;"/>
        <path d="M199.94,119.25L199.94,127.46L203.64,127.46L203.64,119.25L199.94,119.25ZM202.98,126.75L200.61,126.75L200.61,123.71L202.98,123.71L202.98,126.75ZM202.98,119.95L202.98,122.99L200.61,122.99L200.61,119.95L202.98,119.95Z" style="fill:rgb(237,237,237);fill-rule:nonzero;"/>
        <path d="M206.56,119.25L206.56,127.46L210.26,127.46L210.26,119.25L206.56,119.25ZM209.6,126.75L207.22,126.75L207.22,123.71L209.6,123.71L209.6,126.75ZM209.6,119.95L209.6,122.99L207.22,122.99L207.22,119.95L209.6,119.95Z" style="fill:rgb(237,237,237);fill-rule:nonzero;"/>
        <path d="M220.91,119.24L217.21,119.24L217.21,127.45L220.91,127.45L220.91,119.24ZM220.25,119.95L220.25,122.99L217.87,122.99L217.87,119.95L220.25,119.95ZM220.25,126.75L217.87,126.75L217.87,123.71L220.25,123.71L220.25,126.75Z" style="fill:rgb(237,237,237);fill-rule:nonzero;"/>
        <path d="M224.22,119.24L224.22,127.45L227.92,127.45L227.92,119.24L224.22,119.24ZM227.26,119.95L227.26,122.99L224.88,122.99L224.88,119.95L227.26,119.95ZM224.88,126.75L224.88,123.71L227.26,123.71L227.26,126.75L224.88,126.75Z" style="fill:rgb(237,237,237);fill-rule:nonzero;"/>
        <path d="M193.32,131.02L193.32,139.23L197.02,139.23L197.02,131.02L193.32,131.02ZM196.35,138.52L193.98,138.52L193.98,135.48L196.35,135.48L196.35,138.52ZM196.35,131.73L196.35,134.77L193.98,134.77L193.98,131.73L196.35,131.73Z" style="fill:rgb(237,237,237);fill-rule:nonzero;"/>
        <path d="M199.94,131.02L199.94,139.23L203.64,139.23L203.64,131.02L199.94,131.02ZM202.98,138.52L200.61,138.52L200.61,135.48L202.98,135.48L202.98,138.52ZM202.98,131.73L202.98,134.77L200.61,134.77L200.61,131.73L202.98,131.73Z" style="fill:rgb(237,237,237);fill-rule:nonzero;"/>
        <path d="M206.56,131.02L206.56,139.23L210.26,139.23L210.26,131.02L206.56,131.02ZM209.6,138.52L207.22,138.52L207.22,135.48L209.6,135.48L209.6,138.52ZM209.6,131.73L209.6,134.77L207.22,134.77L207.22,131.73L209.6,131.73Z" style="fill:rgb(237,237,237);fill-rule:nonzero;"/>
        <path d="M220.91,131.02L217.21,131.02L217.21,139.22L220.91,139.22L220.91,131.02ZM220.25,131.73L220.25,134.77L217.87,134.77L217.87,131.73L220.25,131.73ZM220.25,138.52L217.87,138.52L217.87,135.48L220.25,135.48L220.25,138.52Z" style="fill:rgb(237,237,237);fill-rule:nonzero;"/>
        <path d="M224.22,131.02L224.22,139.22L227.92,139.22L227.92,131.02L224.22,131.02ZM227.26,131.73L227.26,134.77L224.88,134.77L224.88,131.73L227.26,131.73ZM224.88,138.52L224.88,135.48L227.26,135.48L227.26,138.52L224.88,138.52Z" style="fill:rgb(237,237,237);fill-rule:nonzero;"/>
        <path d="M193.32,142.8L193.32,151.01L197.02,151.01L197.02,142.8L193.32,142.8ZM196.35,150.29L193.98,150.29L193.98,147.25L196.35,147.25L196.35,150.29ZM196.35,143.5L196.35,146.54L193.98,146.54L193.98,143.5L196.35,143.5Z" style="fill:rgb(237,237,237);fill-rule:nonzero;"/>
        <path d="M199.94,142.8L199.94,151.01L203.64,151.01L203.64,142.8L199.94,142.8ZM202.98,150.29L200.61,150.29L200.61,147.25L202.98,147.25L202.98,150.29ZM202.98,143.5L202.98,146.54L200.61,146.54L200.61,143.5L202.98,143.5Z" style="fill:rgb(237,237,237);fill-rule:nonzero;"/>
        <path d="M206.56,142.8L206.56,151.01L210.26,151.01L210.26,142.8L206.56,142.8ZM209.6,150.29L207.22,150.29L207.22,147.25L209.6,147.25L209.6,150.29ZM209.6,143.5L209.6,146.54L207.22,146.54L207.22,143.5L209.6,143.5Z" style="fill:rgb(237,237,237);fill-rule:nonzero;"/>
        <path d="M220.91,142.79L217.21,142.79L217.21,151L220.91,151L220.91,142.79ZM220.25,143.5L220.25,146.54L217.87,146.54L217.87,143.5L220.25,143.5ZM220.25,150.29L217.87,150.29L217.87,147.25L220.25,147.25L220.25,150.29Z" style="fill:rgb(237,237,237);fill-rule:nonzero;"/>
        <path d="M224.22,142.79L224.22,151L227.92,151L227.92,142.79L224.22,142.79ZM227.26,143.5L227.26,146.54L224.88,146.54L224.88,143.5L227.26,143.5ZM224.88,150.29L224.88,147.25L227.26,147.25L227.26,150.29L224.88,150.29Z" style="fill:rgb(237,237,237);fill-rule:nonzero;"/>
        <path d="M175.28,54.37L175.28,51.49L165.93,51.49L165.93,50.05L156.52,39.76L147.11,50.05L147.11,51.49L137.9,51.49L137.9,54.37L135.86,54.37L135.86,159.13L177.52,159.13L177.52,54.37L175.28,54.37Z" style="fill:rgb(170,170,170);fill-rule:nonzero;"/>
        <path d="M175.28,54.37L175.28,51.49L165.93,51.49L165.93,50.05L156.52,39.76L156.52,159.13L177.53,159.13L177.53,54.37L175.28,54.37Z" style="fill:rgb(209,209,209);fill-rule:nonzero;"/>
        <rect x="138.17" y="64.27" width="1.49" height="90.46" style="fill:rgb(237,237,237);fill-rule:nonzero;"/>
        <rect x="141.14" y="64.27" width="1.49" height="90.46" style="fill:rgb(237,237,237);fill-rule:nonzero;"/>
        <rect x="144.11" y="64.27" width="1.49" height="90.46" style="fill:rgb(237,237,237);fill-rule:nonzero;"/>
        <rect x="147.08" y="64.27" width="1.49" height="90.46" style="fill:rgb(237,237,237);fill-rule:nonzero;"/>
        <rect x="150.05" y="64.27" width="1.49" height="90.46" style="fill:rgb(237,237,237);fill-rule:nonzero;"/>
        <rect x="153.02" y="64.27" width="1.49" height="90.46" style="fill:rgb(237,237,237);fill-rule:nonzero;"/>
        <rect x="158.95" y="64.27" width="1.49" height="90.46" style="fill:rgb(237,237,237);fill-rule:nonzero;"/>
        <rect x="161.92" y="64.27" width="1.49" height="90.46" style="fill:rgb(237,237,237);fill-rule:nonzero;"/>
        <rect x="164.89" y="64.27" width="1.49" height="90.46" style="fill:rgb(237,237,237);fill-rule:nonzero;"/>
        <rect x="167.86" y="64.27" width="1.49" height="90.46" style="fill:rgb(237,237,237);fill-rule:nonzero;"/>
        <rect x="170.83" y="64.27" width="1.49" height="90.46" style="fill:rgb(237,237,237);fill-rule:nonzero;"/>
        <rect x="173.8" y="64.27" width="1.49" height="90.46" style="fill:rgb(237,237,237);fill-rule:nonzero;"/>
        <rect x="135.87" y="62.02" width="41.66" height="1" style="fill:rgb(237,237,237);fill-rule:nonzero;"/>
        <rect x="135.87" y="59.89" width="41.66" height="1" style="fill:rgb(237,237,237);fill-rule:nonzero;"/>
        <rect x="135.87" y="58.14" width="41.66" height="1" style="fill:rgb(237,237,237);fill-rule:nonzero;"/>
        <path d="M103.92,54.37L103.92,51.49L94.57,51.49L94.57,50.05L85.16,39.76L75.75,50.05L75.75,51.49L66.54,51.49L66.54,54.37L64.51,54.37L64.51,159.13L106.17,159.13L106.17,54.37L103.92,54.37Z" style="fill:rgb(170,170,170);fill-rule:nonzero;"/>
        <path d="M103.92,54.37L103.92,51.49L94.57,51.49L94.57,50.05L85.16,39.76L85.16,159.13L106.17,159.13L106.17,54.37L103.92,54.37Z" style="fill:rgb(209,209,209);fill-rule:nonzero;"/>
        <rect x="66.81" y="64.27" width="1.49" height="90.46" style="fill:rgb(237,237,237);fill-rule:nonzero;"/>
        <rect x="69.78" y="64.27" width="1.49" height="90.46" style="fill:rgb(237,237,237);fill-rule:nonzero;"/>
        <rect x="72.75" y="64.27" width="1.49" height="90.46" style="fill:rgb(237,237,237);fill-rule:nonzero;"/>
        <rect x="75.72" y="64.27" width="1.49" height="90.46" style="fill:rgb(237,237,237);fill-rule:nonzero;"/>
        <rect x="78.69" y="64.27" width="1.49" height="90.46" style="fill:rgb(237,237,237);fill-rule:nonzero;"/>
        <rect x="81.66" y="64.27" width="1.49" height="90.46" style="fill:rgb(237,237,237);fill-rule:nonzero;"/>
        <rect x="87.59" y="64.27" width="1.49" height="90.46" style="fill:rgb(237,237,237);fill-rule:nonzero;"/>
        <rect x="90.56" y="64.27" width="1.49" height="90.46" style="fill:rgb(237,237,237);fill-rule:nonzero;"/>
        <rect x="93.53" y="64.27" width="1.49" height="90.46" style="fill:rgb(237,237,237);fill-rule:nonzero;"/>
        <rect x="96.5" y="64.27" width="1.49" height="90.46" style="fill:rgb(237,237,237);fill-rule:nonzero;"/>
        <rect x="99.47" y="64.27" width="1.49" height="90.46" style="fill:rgb(237,237,237);fill-rule:nonzero;"/>
        <rect x="102.44" y="64.27" width="1.49" height="90.46" style="fill:rgb(237,237,237);fill-rule:nonzero;"/>
        <rect x="64.51" y="62.02" width="41.66" height="1" style="fill:rgb(237,237,237);fill-rule:nonzero;"/>
        <rect x="64.51" y="59.89" width="41.66" height="1" style="fill:rgb(237,237,237);fill-rule:nonzero;"/>
        <rect x="64.51" y="58.14" width="41.66" height="1" style="fill:rgb(237,237,237);fill-rule:nonzero;"/>
        <path d="M17.77,41.86L17.77,38.63L28.27,38.63L28.27,37.01L49.43,37.01L49.43,38.63L59.78,38.63L59.78,41.86L62.07,41.86L62.07,159.61L15.24,159.61L15.24,41.86L17.77,41.86Z" style="fill:rgb(209,209,209);fill-rule:nonzero;"/>
        <path d="M17.77,41.86L17.77,38.63L28.27,38.63L28.27,37.01L38.65,37.01L38.65,159.61L15.23,159.61L15.23,41.86L17.77,41.86Z" style="fill:rgb(170,170,170);fill-rule:nonzero;"/>
        <rect x="57.82" y="52.99" width="1.67" height="4.66" style="fill:rgb(237,237,237);fill-rule:nonzero;"/>
        <rect x="54.48" y="52.99" width="1.67" height="4.66" style="fill:rgb(237,237,237);fill-rule:nonzero;"/>
        <rect x="51.14" y="52.99" width="1.67" height="4.66" style="fill:rgb(237,237,237);fill-rule:nonzero;"/>
        <rect x="47.8" y="52.99" width="1.67" height="4.66" style="fill:rgb(237,237,237);fill-rule:nonzero;"/>
        <rect x="44.46" y="52.99" width="1.67" height="4.66" style="fill:rgb(237,237,237);fill-rule:nonzero;"/>
        <rect x="41.12" y="52.99" width="1.67" height="4.66" style="fill:rgb(237,237,237);fill-rule:nonzero;"/>
        <rect x="57.82" y="61.53" width="1.67" height="4.66" style="fill:rgb(237,237,237);fill-rule:nonzero;"/>
        <rect x="54.48" y="61.53" width="1.67" height="4.66" style="fill:rgb(237,237,237);fill-rule:nonzero;"/>
        <rect x="51.14" y="61.53" width="1.67" height="4.66" style="fill:rgb(237,237,237);fill-rule:nonzero;"/>
        <rect x="47.8" y="61.53" width="1.67" height="4.66" style="fill:rgb(237,237,237);fill-rule:nonzero;"/>
        <rect x="44.46" y="61.53" width="1.67" height="4.66" style="fill:rgb(237,237,237);fill-rule:nonzero;"/>
        <rect x="41.12" y="61.53" width="1.67" height="4.66" style="fill:rgb(237,237,237);fill-rule:nonzero;"/>
        <rect x="57.82" y="70.07" width="1.67" height="4.66" style="fill:rgb(237,237,237);fill-rule:nonzero;"/>
        <rect x="54.48" y="70.07" width="1.67" height="4.66" style="fill:rgb(237,237,237);fill-rule:nonzero;"/>
        <rect x="51.14" y="70.07" width="1.67" height="4.66" style="fill:rgb(237,237,237);fill-rule:nonzero;"/>
        <rect x="47.8" y="70.07" width="1.67" height="4.66" style="fill:rgb(237,237,237);fill-rule:nonzero;"/>
        <rect x="44.46" y="70.07" width="1.67" height="4.66" style="fill:rgb(237,237,237);fill-rule:nonzero;"/>
        <rect x="41.12" y="70.07" width="1.67" height="4.66" style="fill:rgb(237,237,237);fill-rule:nonzero;"/>
        <rect x="57.82" y="78.61" width="1.67" height="4.66" style="fill:rgb(237,237,237);fill-rule:nonzero;"/>
        <rect x="54.48" y="78.61" width="1.67" height="4.66" style="fill:rgb(237,237,237);fill-rule:nonzero;"/>
        <rect x="51.14" y="78.61" width="1.67" height="4.66" style="fill:rgb(237,237,237);fill-rule:nonzero;"/>
        <rect x="47.8" y="78.61" width="1.67" height="4.66" style="fill:rgb(237,237,237);fill-rule:nonzero;"/>
        <rect x="44.46" y="78.61" width="1.67" height="4.66" style="fill:rgb(237,237,237);fill-rule:nonzero;"/>
        <rect x="41.12" y="78.61" width="1.67" height="4.66" style="fill:rgb(237,237,237);fill-rule:nonzero;"/>
        <rect x="57.82" y="87.15" width="1.67" height="4.66" style="fill:rgb(237,237,237);fill-rule:nonzero;"/>
        <rect x="54.48" y="87.15" width="1.67" height="4.66" style="fill:rgb(237,237,237);fill-rule:nonzero;"/>
        <rect x="51.14" y="87.15" width="1.67" height="4.66" style="fill:rgb(237,237,237);fill-rule:nonzero;"/>
        <rect x="47.8" y="87.15" width="1.67" height="4.66" style="fill:rgb(237,237,237);fill-rule:nonzero;"/>
        <rect x="44.46" y="87.15" width="1.67" height="4.66" style="fill:rgb(237,237,237);fill-rule:nonzero;"/>
        <rect x="41.12" y="87.15" width="1.67" height="4.66" style="fill:rgb(237,237,237);fill-rule:nonzero;"/>
        <rect x="57.82" y="95.69" width="1.67" height="4.66" style="fill:rgb(237,237,237);fill-rule:nonzero;"/>
        <rect x="54.48" y="95.69" width="1.67" height="4.66" style="fill:rgb(237,237,237);fill-rule:nonzero;"/>
        <rect x="51.14" y="95.69" width="1.67" height="4.66" style="fill:rgb(237,237,237);fill-rule:nonzero;"/>
        <rect x="47.8" y="95.69" width="1.67" height="4.66" style="fill:rgb(237,237,237);fill-rule:nonzero;"/>
        <rect x="44.46" y="95.69" width="1.67" height="4.66" style="fill:rgb(237,237,237);fill-rule:nonzero;"/>
        <rect x="41.12" y="95.69" width="1.67" height="4.66" style="fill:rgb(237,237,237);fill-rule:nonzero;"/>
        <rect x="57.82" y="104.23" width="1.67" height="4.66" style="fill:rgb(237,237,237);fill-rule:nonzero;"/>
        <rect x="54.48" y="104.23" width="1.67" height="4.66" style="fill:rgb(237,237,237);fill-rule:nonzero;"/>
        <rect x="51.14" y="104.23" width="1.67" height="4.66" style="fill:rgb(237,237,237);fill-rule:nonzero;"/>
        <rect x="47.8" y="104.23" width="1.67" height="4.66" style="fill:rgb(237,237,237);fill-rule:nonzero;"/>
        <rect x="44.46" y="104.23" width="1.67" height="4.66" style="fill:rgb(237,237,237);fill-rule:nonzero;"/>
        <rect x="41.12" y="104.23" width="1.67" height="4.66" style="fill:rgb(237,237,237);fill-rule:nonzero;"/>
        <rect x="57.82" y="112.77" width="1.67" height="4.66" style="fill:rgb(237,237,237);fill-rule:nonzero;"/>
        <rect x="54.48" y="112.77" width="1.67" height="4.66" style="fill:rgb(237,237,237);fill-rule:nonzero;"/>
        <rect x="51.14" y="112.77" width="1.67" height="4.66" style="fill:rgb(237,237,237);fill-rule:nonzero;"/>
        <rect x="47.8" y="112.77" width="1.67" height="4.66" style="fill:rgb(237,237,237);fill-rule:nonzero;"/>
        <rect x="44.46" y="112.77" width="1.67" height="4.66" style="fill:rgb(237,237,237);fill-rule:nonzero;"/>
        <rect x="41.12" y="112.77" width="1.67" height="4.66" style="fill:rgb(237,237,237);fill-rule:nonzero;"/>
        <rect x="57.82" y="121.31" width="1.67" height="4.66" style="fill:rgb(237,237,237);fill-rule:nonzero;"/>
        <rect x="54.48" y="121.31" width="1.67" height="4.66" style="fill:rgb(237,237,237);fill-rule:nonzero;"/>
        <rect x="51.14" y="121.31" width="1.67" height="4.66" style="fill:rgb(237,237,237);fill-rule:nonzero;"/>
        <rect x="47.8" y="121.31" width="1.67" height="4.66" style="fill:rgb(237,237,237);fill-rule:nonzero;"/>
        <rect x="44.46" y="121.31" width="1.67" height="4.66" style="fill:rgb(237,237,237);fill-rule:nonzero;"/>
        <rect x="41.12" y="121.31" width="1.67" height="4.66" style="fill:rgb(237,237,237);fill-rule:nonzero;"/>
        <rect x="57.82" y="129.85" width="1.67" height="4.66" style="fill:rgb(237,237,237);fill-rule:nonzero;"/>
        <rect x="54.48" y="129.85" width="1.67" height="4.66" style="fill:rgb(237,237,237);fill-rule:nonzero;"/>
        <rect x="51.14" y="129.85" width="1.67" height="4.66" style="fill:rgb(237,237,237);fill-rule:nonzero;"/>
        <rect x="47.8" y="129.85" width="1.67" height="4.66" style="fill:rgb(237,237,237);fill-rule:nonzero;"/>
        <rect x="44.46" y="129.85" width="1.67" height="4.66" style="fill:rgb(237,237,237);fill-rule:nonzero;"/>
        <rect x="41.12" y="129.85" width="1.67" height="4.66" style="fill:rgb(237,237,237);fill-rule:nonzero;"/>
        <rect x="57.82" y="138.39" width="1.67" height="4.66" style="fill:rgb(237,237,237);fill-rule:nonzero;"/>
        <rect x="54.48" y="138.39" width="1.67" height="4.66" style="fill:rgb(237,237,237);fill-rule:nonzero;"/>
        <rect x="51.14" y="138.39" width="1.67" height="4.66" style="fill:rgb(237,237,237);fill-rule:nonzero;"/>
        <rect x="47.8" y="138.39" width="1.67" height="4.66" style="fill:rgb(237,237,237);fill-rule:nonzero;"/>
        <rect x="44.46" y="138.39" width="1.67" height="4.66" style="fill:rgb(237,237,237);fill-rule:nonzero;"/>
        <rect x="41.12" y="138.39" width="1.67" height="4.66" style="fill:rgb(237,237,237);fill-rule:nonzero;"/>
        <rect x="57.82" y="146.93" width="1.67" height="4.66" style="fill:rgb(237,237,237);fill-rule:nonzero;"/>
        <rect x="54.48" y="146.93" width="1.67" height="4.66" style="fill:rgb(237,237,237);fill-rule:nonzero;"/>
        <rect x="51.14" y="146.93" width="1.67" height="4.66" style="fill:rgb(237,237,237);fill-rule:nonzero;"/>
        <rect x="47.8" y="146.93" width="1.67" height="4.66" style="fill:rgb(237,237,237);fill-rule:nonzero;"/>
        <rect x="44.46" y="146.93" width="1.67" height="4.66" style="fill:rgb(237,237,237);fill-rule:nonzero;"/>
        <rect x="41.12" y="146.93" width="1.67" height="4.66" style="fill:rgb(237,237,237);fill-rule:nonzero;"/>
        <rect x="34.46" y="52.99" width="1.67" height="4.66" style="fill:rgb(237,237,237);fill-rule:nonzero;"/>
        <rect x="31.12" y="52.99" width="1.67" height="4.66" style="fill:rgb(237,237,237);fill-rule:nonzero;"/>
        <rect x="27.78" y="52.99" width="1.67" height="4.66" style="fill:rgb(237,237,237);fill-rule:nonzero;"/>
        <rect x="24.45" y="52.99" width="1.67" height="4.66" style="fill:rgb(237,237,237);fill-rule:nonzero;"/>
        <rect x="21.11" y="52.99" width="1.67" height="4.66" style="fill:rgb(237,237,237);fill-rule:nonzero;"/>
        <rect x="17.77" y="52.99" width="1.67" height="4.66" style="fill:rgb(237,237,237);fill-rule:nonzero;"/>
        <rect x="34.46" y="61.53" width="1.67" height="4.66" style="fill:rgb(237,237,237);fill-rule:nonzero;"/>
        <rect x="31.12" y="61.53" width="1.67" height="4.66" style="fill:rgb(237,237,237);fill-rule:nonzero;"/>
        <rect x="27.78" y="61.53" width="1.67" height="4.66" style="fill:rgb(237,237,237);fill-rule:nonzero;"/>
        <rect x="24.45" y="61.53" width="1.67" height="4.66" style="fill:rgb(237,237,237);fill-rule:nonzero;"/>
        <rect x="21.11" y="61.53" width="1.67" height="4.66" style="fill:rgb(237,237,237);fill-rule:nonzero;"/>
        <rect x="17.77" y="61.53" width="1.67" height="4.66" style="fill:rgb(237,237,237);fill-rule:nonzero;"/>
        <rect x="34.46" y="70.07" width="1.67" height="4.66" style="fill:rgb(237,237,237);fill-rule:nonzero;"/>
        <rect x="31.12" y="70.07" width="1.67" height="4.66" style="fill:rgb(237,237,237);fill-rule:nonzero;"/>
        <rect x="27.78" y="70.07" width="1.67" height="4.66" style="fill:rgb(237,237,237);fill-rule:nonzero;"/>
        <rect x="24.45" y="70.07" width="1.67" height="4.66" style="fill:rgb(237,237,237);fill-rule:nonzero;"/>
        <rect x="21.11" y="70.07" width="1.67" height="4.66" style="fill:rgb(237,237,237);fill-rule:nonzero;"/>
        <rect x="17.77" y="70.07" width="1.67" height="4.66" style="fill:rgb(237,237,237);fill-rule:nonzero;"/>
        <rect x="34.46" y="78.61" width="1.67" height="4.66" style="fill:rgb(237,237,237);fill-rule:nonzero;"/>
        <rect x="31.12" y="78.61" width="1.67" height="4.66" style="fill:rgb(237,237,237);fill-rule:nonzero;"/>
        <rect x="27.78" y="78.61" width="1.67" height="4.66" style="fill:rgb(237,237,237);fill-rule:nonzero;"/>
        <rect x="24.45" y="78.61" width="1.67" height="4.66" style="fill:rgb(237,237,237);fill-rule:nonzero;"/>
        <rect x="21.11" y="78.61" width="1.67" height="4.66" style="fill:rgb(237,237,237);fill-rule:nonzero;"/>
        <rect x="17.77" y="78.61" width="1.67" height="4.66" style="fill:rgb(237,237,237);fill-rule:nonzero;"/>
        <rect x="34.46" y="87.15" width="1.67" height="4.66" style="fill:rgb(237,237,237);fill-rule:nonzero;"/>
        <rect x="31.12" y="87.15" width="1.67" height="4.66" style="fill:rgb(237,237,237);fill-rule:nonzero;"/>
        <rect x="27.78" y="87.15" width="1.67" height="4.66" style="fill:rgb(237,237,237);fill-rule:nonzero;"/>
        <rect x="24.45" y="87.15" width="1.67" height="4.66" style="fill:rgb(237,237,237);fill-rule:nonzero;"/>
        <rect x="21.11" y="87.15" width="1.67" height="4.66" style="fill:rgb(237,237,237);fill-rule:nonzero;"/>
        <rect x="17.77" y="87.15" width="1.67" height="4.66" style="fill:rgb(237,237,237);fill-rule:nonzero;"/>
        <rect x="34.46" y="95.69" width="1.67" height="4.66" style="fill:rgb(237,237,237);fill-rule:nonzero;"/>
        <rect x="31.12" y="95.69" width="1.67" height="4.66" style="fill:rgb(237,237,237);fill-rule:nonzero;"/>
        <rect x="27.78" y="95.69" width="1.67" height="4.66" style="fill:rgb(237,237,237);fill-rule:nonzero;"/>
        <rect x="24.45" y="95.69" width="1.67" height="4.66" style="fill:rgb(237,237,237);fill-rule:nonzero;"/>
        <rect x="21.11" y="95.69" width="1.67" height="4.66" style="fill:rgb(237,237,237);fill-rule:nonzero;"/>
        <rect x="17.77" y="95.69" width="1.67" height="4.66" style="fill:rgb(237,237,237);fill-rule:nonzero;"/>
        <rect x="34.46" y="104.23" width="1.67" height="4.66" style="fill:rgb(237,237,237);fill-rule:nonzero;"/>
        <rect x="31.12" y="104.23" width="1.67" height="4.66" style="fill:rgb(237,237,237);fill-rule:nonzero;"/>
        <rect x="27.78" y="104.23" width="1.67" height="4.66" style="fill:rgb(237,237,237);fill-rule:nonzero;"/>
        <rect x="24.45" y="104.23" width="1.67" height="4.66" style="fill:rgb(237,237,237);fill-rule:nonzero;"/>
        <rect x="21.11" y="104.23" width="1.67" height="4.66" style="fill:rgb(237,237,237);fill-rule:nonzero;"/>
        <rect x="17.77" y="104.23" width="1.67" height="4.66" style="fill:rgb(237,237,237);fill-rule:nonzero;"/>
        <rect x="34.46" y="112.77" width="1.67" height="4.66" style="fill:rgb(237,237,237);fill-rule:nonzero;"/>
        <rect x="31.12" y="112.77" width="1.67" height="4.66" style="fill:rgb(237,237,237);fill-rule:nonzero;"/>
        <rect x="27.78" y="112.77" width="1.67" height="4.66" style="fill:rgb(237,237,237);fill-rule:nonzero;"/>
        <rect x="24.45" y="112.77" width="1.67" height="4.66" style="fill:rgb(237,237,237);fill-rule:nonzero;"/>
        <rect x="21.11" y="112.77" width="1.67" height="4.66" style="fill:rgb(237,237,237);fill-rule:nonzero;"/>
        <rect x="17.77" y="112.77" width="1.67" height="4.66" style="fill:rgb(237,237,237);fill-rule:nonzero;"/>
        <rect x="34.46" y="121.31" width="1.67" height="4.66" style="fill:rgb(237,237,237);fill-rule:nonzero;"/>
        <rect x="31.12" y="121.31" width="1.67" height="4.66" style="fill:rgb(237,237,237);fill-rule:nonzero;"/>
        <rect x="27.78" y="121.31" width="1.67" height="4.66" style="fill:rgb(237,237,237);fill-rule:nonzero;"/>
        <rect x="24.45" y="121.31" width="1.67" height="4.66" style="fill:rgb(237,237,237);fill-rule:nonzero;"/>
        <rect x="21.11" y="121.31" width="1.67" height="4.66" style="fill:rgb(237,237,237);fill-rule:nonzero;"/>
        <rect x="17.77" y="121.31" width="1.67" height="4.66" style="fill:rgb(237,237,237);fill-rule:nonzero;"/>
        <rect x="34.46" y="129.85" width="1.67" height="4.66" style="fill:rgb(237,237,237);fill-rule:nonzero;"/>
        <rect x="31.12" y="129.85" width="1.67" height="4.66" style="fill:rgb(237,237,237);fill-rule:nonzero;"/>
        <rect x="27.78" y="129.85" width="1.67" height="4.66" style="fill:rgb(237,237,237);fill-rule:nonzero;"/>
        <rect x="24.45" y="129.85" width="1.67" height="4.66" style="fill:rgb(237,237,237);fill-rule:nonzero;"/>
        <rect x="21.11" y="129.85" width="1.67" height="4.66" style="fill:rgb(237,237,237);fill-rule:nonzero;"/>
        <rect x="17.77" y="129.85" width="1.67" height="4.66" style="fill:rgb(237,237,237);fill-rule:nonzero;"/>
        <rect x="34.46" y="138.39" width="1.67" height="4.66" style="fill:rgb(237,237,237);fill-rule:nonzero;"/>
        <rect x="31.12" y="138.39" width="1.67" height="4.66" style="fill:rgb(237,237,237);fill-rule:nonzero;"/>
        <rect x="27.78" y="138.39" width="1.67" height="4.66" style="fill:rgb(237,237,237);fill-rule:nonzero;"/>
        <rect x="24.45" y="138.39" width="1.67" height="4.66" style="fill:rgb(237,237,237);fill-rule:nonzero;"/>
        <rect x="21.11" y="138.39" width="1.67" height="4.66" style="fill:rgb(237,237,237);fill-rule:nonzero;"/>
        <rect x="17.77" y="138.39" width="1.67" height="4.66" style="fill:rgb(237,237,237);fill-rule:nonzero;"/>
        <rect x="34.46" y="146.93" width="1.67" height="4.66" style="fill:rgb(237,237,237);fill-rule:nonzero;"/>
        <rect x="31.12" y="146.93" width="1.67" height="4.66" style="fill:rgb(237,237,237);fill-rule:nonzero;"/>
        <rect x="27.78" y="146.93" width="1.67" height="4.66" style="fill:rgb(237,237,237);fill-rule:nonzero;"/>
        <rect x="24.45" y="146.93" width="1.67" height="4.66" style="fill:rgb(237,237,237);fill-rule:nonzero;"/>
        <rect x="21.11" y="146.93" width="1.67" height="4.66" style="fill:rgb(237,237,237);fill-rule:nonzero;"/>
        <rect x="17.77" y="146.93" width="1.67" height="4.66" style="fill:rgb(237,237,237);fill-rule:nonzero;"/>
        <rect x="15.24" y="50.48" width="46.83" height="1" style="fill:rgb(237,237,237);fill-rule:nonzero;"/>
        <rect x="15.24" y="48.09" width="46.83" height="1" style="fill:rgb(237,237,237);fill-rule:nonzero;"/>
        <rect x="15.24" y="46.11" width="46.83" height="1" style="fill:rgb(237,237,237);fill-rule:nonzero;"/>
    </g>
    <g>
        <path d="M161.05,140.87C156.68,136.9 135.87,127.93 128.39,125.04C120.82,122.12 120.51,119.28 120.51,119.28L120.3,119.21L120.3,119.15C120.16,116.43 123.94,113.02 129.29,112.63C132.77,113.68 137.69,114.83 141.28,116.34C145.42,118.09 166.69,135.24 167.39,135.81C167.65,136.02 168.66,136.57 170,137.29C170.19,140.62 165.5,141.84 161.05,140.87Z" style="fill:rgb(207,145,108);fill-rule:nonzero;"/>
        <path d="M161.39,140.76C161.32,140.72 161.24,140.69 161.16,140.66C156.9,139.21 159.06,134.4 167.66,135.71C170.56,136.44 174.66,137.43 177.44,138.25C181.86,139.56 184.97,146.78 183.11,149.34C181.24,151.9 171.88,151.12 166.37,150.05C160.86,148.97 161.39,140.76 161.39,140.76Z" style="fill:rgb(207,145,108);fill-rule:nonzero;"/>
        <path d="M169.9,150.48C169.66,150.51 169.42,150.47 169.21,150.36C167.03,148.97 166.15,147.61 166.59,146.32C167.14,144.74 169.47,143.86 169.57,143.83C169.9,143.7 170.27,143.73 170.57,143.9C170.79,144.07 170.69,144.3 170.35,144.43C170.33,144.43 168.44,145.15 168.02,146.4C167.66,147.48 168.45,148.64 170.37,149.86C170.61,150.02 170.55,150.25 170.23,150.39C170.12,150.44 170.01,150.47 169.9,150.48Z" style="fill:rgb(35,31,32);fill-rule:nonzero;"/>
        <path d="M146.02,141.45L115.87,153.55L101.31,113.7C101.31,113.7 101.44,92.97 122.2,94.6C131.7,95.35 146.02,141.45 146.02,141.45Z" style="fill:rgb(0,153,114);fill-rule:nonzero;"/>
        <path d="M63.98,168.14C64.02,168.13 64.06,168.21 64.06,168.21L74.89,131.44C70.89,120.7 53.85,128.26 53.85,128.26C53.85,128.26 46.16,164.43 47.68,165.24C49.19,166.05 48.06,166.94 48.06,166.94C48.06,166.94 52.09,171.74 63.98,168.14Z" style="fill:rgb(207,145,108);fill-rule:nonzero;"/>
        <path d="M132.83,130.47C132.6,163.22 125.04,215.28 125.04,215.28C86.82,214.08 69.64,205.54 69.64,205.54C69.64,205.54 71.95,188.74 72.39,160.33C72.5,153.48 71.92,141.09 71.92,141.09L70.31,150.31L47.79,139.65C47.79,139.65 57.36,103.51 61.18,101.04C65.01,98.57 68.28,97.35 75.75,96.14C85.17,94.62 96.31,93.01 98.43,93.56C101.06,93.53 103.68,91.22 106.6,93.1C110.36,93.43 115.07,94.1 117.49,94.42C127.08,95.7 132.93,114.61 132.83,130.47Z" style="fill:rgb(0,191,143);fill-rule:nonzero;"/>
        <path d="M85.77,76.78L85.23,95.64C95.49,101.04 109.47,102.58 111.25,95.64L110.8,80.02L85.77,76.78Z" style="fill:rgb(207,145,108);fill-rule:nonzero;"/>
        <path d="M85.77,76.79C85.77,76.79 85.69,80.32 85.75,85.02C92.89,91 101.94,94.21 111.25,94.08L110.8,80.03L85.77,76.79Z" style="fill:rgb(35,31,32);fill-rule:nonzero;"/>
        <path d="M84.78,31.28C84.78,31.28 84.65,27.68 90.37,27.08C96.08,26.49 110.37,27.25 114.46,29.41C118.55,31.56 121.74,39.23 121.64,40.66C102.18,31.27 90.87,38.75 90.87,38.75L85.98,42.02L83.59,59.38L80.1,57.26C80.1,57.26 76.2,29.19 84.78,31.28Z" style="fill:rgb(25,16,14);fill-rule:nonzero;"/>
        <path d="M121.92,58.27C117.43,79.78 112.17,84.17 100.84,83.42C89.51,82.67 82.55,70.99 83.51,56.44C84.47,41.9 85.78,29.49 102.04,30.57C118.3,31.64 126.07,38.39 121.92,58.27Z" style="fill:rgb(207,145,108);fill-rule:nonzero;"/>
        <path d="M103.12,60.32C103.12,60.32 112.99,45.12 121.49,60.93C124.16,65.88 115.69,80.08 115.69,80.08C115.69,80.08 112.1,87.22 110.24,87.79C107.53,88.46 104.69,88.39 102.01,87.61C94.43,85.49 84.3,75.63 84.08,74.6C83.16,69.58 82.99,64.45 83.59,59.38C83.98,56.59 84.13,53.78 84.03,50.96L103.12,60.32Z" style="fill:rgb(207,145,108);fill-rule:nonzero;"/>
        <path d="M112.57,49.32C112.57,49.32 114.16,47.02 115.07,47.09C116.24,47.5 117.47,47.72 118.71,47.76C118.71,47.76 121.44,47.85 121.74,47.94C122.03,48.02 123.5,48.45 122.89,52.38C122.89,52.38 122.84,50.5 122.09,50.38C121.34,50.26 118.89,50.58 117.89,50.38C116.89,50.18 113.9,49.55 112.57,49.32Z" style="fill:rgb(1,1,1);fill-rule:nonzero;"/>
        <path d="M105.98,48.12C105.98,48.12 104.69,45.13 104.1,45.08C103.2,45.13 102.29,45.23 101.39,45.38C100.99,45.41 95.17,44.17 94.3,44.18C93.44,44.2 91.46,46.3 90.97,47.51C91.82,46.93 92.81,46.6 93.83,46.54C95.23,46.59 101.03,48 101.81,48.12C102.59,48.24 105.98,48.12 105.98,48.12Z" style="fill:rgb(1,1,1);fill-rule:nonzero;"/>
        <path d="M93.72,54.19C93.68,54.18 93.64,54.16 93.6,54.13C93.51,54.05 93.48,54.2 93.54,54.1C94.07,53.12 96.71,52.11 98.58,52.19C101.28,52.31 103.15,53.75 103.68,54.93C102.77,53.71 101.42,52.89 99.92,52.67C97.81,52.25 95.62,52.79 93.95,54.14C93.88,54.19 93.8,54.2 93.72,54.19Z" style="fill:rgb(123,85,51);fill-rule:nonzero;"/>
        <path d="M98.59,53.69C96.1,53.25 93.77,54.05 93.16,55.49C93.11,55.6 93.07,55.71 93.05,55.82C92.95,56.24 92.99,56.68 93.17,57.07C94.02,58.53 95.52,59.49 97.2,59.65C99.37,60.03 101.42,59.48 102.32,58.38C102.42,58.25 102.5,58.12 102.58,57.99C102.65,57.84 102.71,57.68 102.75,57.52C103.13,55.87 101.27,54.16 98.59,53.69Z" style="fill:white;fill-rule:nonzero;"/>
        <path d="M99.52,59.94C101.085,60.162 102.547,59.12 102.759,57.631C102.97,56.142 101.857,54.733 100.291,54.51C100.291,54.51 100.29,54.51 100.29,54.51C98.725,54.288 97.263,55.33 97.051,56.819C96.84,58.308 97.953,59.717 99.519,59.94C99.519,59.94 99.52,59.94 99.52,59.94Z" style="fill:rgb(40,26,21);fill-rule:nonzero;"/>
        <path d="M99.58,58.75C99.611,58.756 99.642,58.761 99.673,58.766C100.683,58.909 101.627,58.237 101.764,57.275C101.901,56.314 101.182,55.405 100.172,55.261C100.141,55.257 100.111,55.253 100.08,55.25C100.049,55.244 100.018,55.239 99.987,55.234C98.977,55.091 98.033,55.763 97.896,56.725C97.759,57.686 98.478,58.595 99.488,58.739C99.519,58.743 99.549,58.747 99.58,58.75Z" style="fill:rgb(1,1,1);fill-rule:nonzero;"/>
        <path d="M100.55,57.9C100.825,57.944 101.107,57.871 101.326,57.698C101.757,57.359 101.832,56.725 101.493,56.294C101.33,56.087 101.091,55.952 100.83,55.92C100.555,55.876 100.273,55.949 100.054,56.122C99.623,56.461 99.548,57.095 99.887,57.526C100.05,57.733 100.289,57.868 100.55,57.9Z" style="fill:white;fill-rule:nonzero;"/>
        <path d="M96.64,52.79C102.85,52.65 102.8,57.1 102.8,57.1C102.8,57.1 102.31,53.96 97.9,53.59C93.4,53.22 92.94,56.16 92.94,56.16C92.94,56.16 92.62,52.87 96.64,52.79Z" style="fill:rgb(1,1,1);fill-rule:nonzero;"/>
        <path d="M102.79,57.51C100.9,57.92 98.95,58.03 97.02,57.84C93.96,57.52 92.99,56.42 92.99,56.42L91.2,56.99C91.2,56.99 90.24,58.57 93.56,59.69C96.87,60.81 103.18,59.77 103.72,59.3C104.26,58.83 102.79,57.51 102.79,57.51Z" style="fill:rgb(207,145,108);fill-rule:nonzero;"/>
        <path d="M120.85,58.36C120.9,58.36 120.94,58.35 120.98,58.34C121.08,58.28 121.07,58.44 121.04,58.32C120.82,57.27 118.74,55.65 117.07,55.25C115.24,54.69 113.24,55.16 111.85,56.49C112.95,55.6 114.36,55.18 115.76,55.35C117.76,55.51 119.57,56.58 120.67,58.26C120.71,58.32 120.78,58.36 120.85,58.36Z" style="fill:rgb(123,85,51);fill-rule:nonzero;"/>
        <path d="M117.19,56.32C119.15,56.54 120.7,58.05 120.98,60C120.99,60.11 120.99,60.22 120.98,60.34C120.93,60.75 120.76,61.14 120.48,61.45C119.32,62.51 117.71,62.94 116.17,62.58C114.16,62.26 112.55,61.12 112.1,59.84C112.05,59.69 112.02,59.55 112,59.4C111.98,59.24 111.97,59.08 111.99,58.92C112.16,57.29 114.71,55.93 117.19,56.32Z" style="fill:white;fill-rule:nonzero;"/>
        <path d="M118.65,62.72C118.677,62.723 118.705,62.725 118.733,62.726C119.949,62.785 121.008,61.635 121.079,60.177C121.15,58.72 120.208,57.471 118.991,57.412C118.964,57.411 118.937,57.41 118.91,57.41C118.883,57.407 118.855,57.405 118.827,57.404C117.611,57.345 116.552,58.495 116.481,59.953C116.41,61.41 117.352,62.659 118.569,62.718C118.596,62.719 118.623,62.72 118.65,62.72Z" style="fill:rgb(40,26,21);fill-rule:nonzero;"/>
        <path d="M118.65,61.56C118.651,61.56 118.651,61.56 118.652,61.56C119.436,61.598 120.119,60.858 120.165,59.92C120.211,58.982 119.604,58.179 118.82,58.14C118.819,58.14 118.819,58.14 118.818,58.14C118.034,58.102 117.351,58.842 117.305,59.78C117.259,60.718 117.866,61.521 118.65,61.56Z" style="fill:rgb(1,1,1);fill-rule:nonzero;"/>
        <path d="M119.23,61.14C119.249,61.141 119.268,61.141 119.287,61.141C119.836,61.137 120.285,60.682 120.281,60.133C120.277,59.605 119.857,59.166 119.33,59.14C119.311,59.139 119.292,59.139 119.273,59.139C118.724,59.143 118.275,59.598 118.279,60.147C118.283,60.675 118.703,61.114 119.23,61.14Z" style="fill:white;fill-rule:nonzero;"/>
        <path d="M111.98,59.14C113.54,60 115.24,60.61 117,60.93C119.79,61.42 120.93,60.64 120.93,60.64L120.62,62.49C120.62,62.49 121,63.2 119.59,63.55C116.46,64.32 111.06,61.15 110.7,60.57C110.34,59.99 111.98,59.14 111.98,59.14Z" style="fill:rgb(207,145,108);fill-rule:nonzero;"/>
        <path d="M118.63,56.3C113.17,54.58 111.96,58.59 111.96,58.59C111.96,58.59 113.32,55.94 117.31,56.73C121.38,57.54 121.04,60.41 121.04,60.41C121.04,60.41 122.17,57.41 118.63,56.3Z" style="fill:rgb(1,1,1);fill-rule:nonzero;"/>
        <path d="M107.98,71.27C107.02,71.29 103.72,67.7 103.67,67.23C103.62,66.75 108.98,67.01 108.98,67.01C108.98,67.01 112.52,67.9 112.52,68.14C112.53,68.38 108.95,71.25 107.98,71.27Z" style="fill:rgb(35,31,32);fill-rule:nonzero;"/>
        <path d="M95.49,70.91C95.49,70.91 99.47,73.26 106.84,74.02C108.3,74.17 114.11,74.46 116.18,73.98C116.18,73.98 113.14,76.59 112.6,76.93C112.13,77.23 111.26,78.02 106.11,77.56C99.89,77.01 96.97,74.55 95.49,70.91Z" style="fill:rgb(81,39,47);fill-rule:nonzero;"/>
        <g>
            <path d="M114.69,73.95L96.97,71.51C96.97,71.51 97.44,74.83 97.56,75.45C102.52,77.74 108.05,78.51 113.44,77.66L114.69,73.95Z" style="fill:white;fill-rule:nonzero;"/>
        </g>
        <path d="M98.86,76.86C98.86,76.86 105.24,81.74 111.73,78.2C111.73,78.2 105.68,84.34 98.86,76.86Z" style="fill:rgb(35,31,32);fill-rule:nonzero;"/>
        <path d="M91.78,39.95C91.78,39.95 85.72,44.01 86.83,50.85C87.67,56.02 85.42,55.7 86.84,61.73C86.84,61.73 81.95,58.35 82.51,50.61C82.8,46.73 87.15,32.94 87.15,32.94C89.07,35.01 90.63,37.38 91.78,39.95Z" style="fill:rgb(25,16,14);fill-rule:nonzero;"/>
        <path d="M81.07,54.8C80.16,53.51 78.11,53.74 76.54,54.72C75.22,59.02 78,65.92 83.07,65.73C83.28,65.35 83.47,64.97 83.64,64.59C83.57,61.11 83.35,57.67 81.07,54.8Z" style="fill:rgb(207,145,108);fill-rule:nonzero;"/>
        <path d="M81.07,54.8C80.16,53.51 78.11,53.74 76.54,54.72C75.22,59.02 78,65.92 83.07,65.73C83.28,65.35 83.47,64.97 83.64,64.59C83.57,61.11 83.35,57.67 81.07,54.8Z" style="fill:rgb(35,31,32);fill-rule:nonzero;"/>
        <path d="M81.07,54.8C83.36,57.67 83.57,61.11 83.64,64.59C84.7,62.22 85.23,59.64 85.2,57.03C85.2,57.03 85.99,50.01 79.74,51.51C78.16,51.91 76.93,53.14 76.54,54.72C78.11,53.74 80.16,53.51 81.07,54.8Z" style="fill:rgb(207,145,108);fill-rule:nonzero;"/>
        <path d="M84.1,31.3C84.68,28.26 87.01,26.68 89.86,25.92C92.12,25.14 94.24,24 96.13,22.55L95.66,24.91C95.66,24.91 97.42,22.5 98.9,22.1C100.9,21.56 102.64,21.39 103.93,20.72C105.08,19.98 106.12,19.06 106.99,18C106.99,18 107.11,20.83 105.96,22.24C107.84,20.92 109.34,19.13 110.32,17.06C110.32,17.06 112.65,18.5 112.67,22.48L114.76,19.36C114.76,19.36 116.49,23.64 116.54,25.59L118.74,22.81C120.51,25.33 121.19,28.45 120.65,31.48L123.31,28.76C123.31,28.76 124.6,33.95 123.88,37.1L125.64,35.39C125.64,35.39 126.01,39.83 123.43,43.02C122.64,43.99 122.47,44.2 122.47,44.2C122.47,44.2 120.74,38.62 116.85,39.35C112.38,40.19 105.56,38.97 99.47,37.33C97.11,36.69 94.58,37.43 92.94,39.25" style="fill:rgb(25,16,14);fill-rule:nonzero;"/>
    </g>
    <g transform="matrix(1,0,0,1,-3.45112,6.79163)">
        <path d="M138.45,104.1C134.75,110.19 132.85,114.2 132.76,116.13C132.66,118.05 133.63,116.87 135.66,112.59L130.71,125.36L133.35,123.27L126.08,134.39L130.06,132.21L124,144.25L182.31,142.67L177.78,133.93L181.15,136.16L176.87,128.6L179.43,128.1L174.46,116.13L176.11,116.13L170.97,106.85" style="fill:rgb(2,5,5);fill-rule:nonzero;"/>
        <path d="M144.87,112.22L140.37,122.58L143.02,122L141.26,127.63L143.44,127.38L138.46,141.94L174.46,142.72L169.87,133.41L172.35,134.35L169.24,125.38L171.75,123.93L168.48,109.74L144.87,112.22Z" style="fill:rgb(130,78,47);fill-rule:nonzero;"/>
        <path d="M144.87,71.98C144.87,71.98 139.96,74.09 137.69,76C136.7,76.82 136.05,77.92 135.28,78.93C134.41,80.07 133.94,80.8 133.26,81.83C132.5,82.98 131.68,84.27 130.91,85.33C129.96,86.64 129.41,88.18 128.86,89.7C129.48,89.31 130.16,89.02 130.87,88.85C130.23,89.84 129.72,90.92 129.35,92.04C130.11,91.27 129.88,91.47 130.57,90.83C130.29,91.6 130.43,91.94 130.84,92.99C131,93.42 131.24,93.84 131.23,94.3C131.23,94.81 130.92,95.27 130.62,95.69C129.5,97.29 128.38,98.89 127.26,100.5C128.3,99.83 129.33,99.17 130.37,98.51C129.43,100.13 128.84,102.01 127.54,103.36C126.45,104.52 124.94,106.17 126.58,108.57C126.25,107.57 127.23,104.67 128.2,104.53C127.4,105.93 127.91,106.5 128.09,107.75C128.2,108.47 128.56,109.96 127.79,110.9C128.95,109.76 129.47,108 129.11,106.42C130.6,108.32 129.17,111.28 130.23,113.44C130.71,112.28 131.26,111.14 131.88,110.04C131.97,110.73 132.06,111.39 132.06,111.44C132.08,111.55 133.28,109.47 133.28,109.47L133.95,111.86L134.86,109.75C134.86,109.75 134.91,109.57 135.09,110.25C135.7,109.9 137.09,107.33 137.29,106.98L137.3,106.96C137.58,106.48 137.83,105.95 138.04,105.35C138.44,104.23 138.61,103.17 138.73,102.49C138.77,102.28 138.84,101.91 138.9,101.5C139,101.12 139.08,100.75 139.15,100.37C139.42,98.77 139.47,97.14 139.77,95.54C140.01,94.2 140.44,92.88 140.49,91.51C140.55,89.83 140.04,88.18 139.68,86.54C138.89,82.89 144.21,75.65 144.87,71.98" style="fill:rgb(2,5,5);fill-rule:nonzero;"/>
        <g>
            <path d="M168.02,72.95C168.02,72.95 171.05,74.81 172.22,75.89C173.16,76.75 173.78,77.86 174.53,78.9C175.36,80.07 175.8,80.81 176.44,81.86C177.17,83.04 177.94,84.36 178.67,85.45C179.57,86.79 180.08,88.35 180.57,89.88C179.97,89.47 179.29,89.16 178.59,88.97C179.2,89.98 179.67,91.07 180,92.21C179.27,91.41 179.49,91.62 178.82,90.95C179.08,91.74 178.93,92.07 178.48,93.11C178.3,93.53 178.05,93.94 178.04,94.4C178.03,94.91 178.32,95.38 178.6,95.81C179.67,97.45 180.74,99.09 181.8,100.73C180.79,100.03 179.77,99.33 178.76,98.64C179.65,100.28 180.17,102.19 181.42,103.58C182.48,104.77 183.93,106.48 182.2,108.82C182.56,107.83 181.68,104.9 180.72,104.72C181.48,106.16 180.94,106.71 180.72,107.95C180.59,108.67 180.18,110.14 180.92,111.1C179.79,109.93 179.33,108.16 179.75,106.58C178.2,108.43 179.52,111.44 178.39,113.57C177.95,112.38 177.44,111.23 176.86,110.11C176.74,110.79 176.64,111.45 176.63,111.5C176.61,111.61 175.47,109.49 175.47,109.49L174.72,111.86L173.89,109.71C173.89,109.71 173.84,109.54 173.64,110.21C173.05,109.84 171.74,107.22 171.55,106.87L171.54,106.84C171.28,106.35 171.04,105.81 170.86,105.21C170.5,104.08 170.36,103.01 170.26,102.33C170.23,102.12 170.18,101.74 170.13,101.33C170.05,100.95 169.98,100.58 169.93,100.2C169.7,98.59 169.71,96.95 169.47,95.35C169.27,94 168.89,92.66 168.89,91.3C168.88,89.61 169.45,87.99 169.86,86.35C170.78,82.74 168.56,76.64 168.02,72.95" style="fill:rgb(2,5,5);fill-rule:nonzero;"/>
        </g>
        <g>
            <path d="M157.88,68.94C156.9,68.97 155.76,68.72 154.6,68.47C152.96,68.12 151.3,67.76 150.03,68.21C147.87,68.97 137.34,76.98 136.7,83.21C136.07,89.44 136.45,100.75 138.22,103.55C140,106.34 142.71,109.99 146.26,111.75C148.96,113.08 163.32,113.9 166.24,112.11C169.03,110.39 170.23,110.15 171.86,104.44C172.84,101.03 174.47,86.85 173.77,83.34C173.01,79.52 167.8,71.51 165.39,69.86C162.98,68.21 160.27,68.87 157.88,68.94" style="fill:rgb(45,45,48);fill-rule:nonzero;"/>
        </g>
        <path d="M142.84,109.32C143.3,109.77 143.81,110.19 144.34,110.57C143.82,110.19 143.32,109.77 142.84,109.32M167.79,111.17C167.44,111.39 167.06,111.61 166.64,111.86C167.02,111.67 167.38,111.45 167.72,111.21C167.75,111.2 167.77,111.18 167.79,111.17" style="fill:rgb(183,131,99);fill-rule:nonzero;"/>
        <path d="M149.54,87.8C149.16,88.12 148.86,88.43 148.68,88.76C145.38,94.69 140.96,95.29 139.88,100.45C139.17,103.83 140.44,106.99 142.84,109.32C143.32,109.77 143.82,110.19 144.34,110.57C144.41,110.62 144.47,110.66 144.53,110.7C145.09,111.08 145.64,111.41 146.21,111.69C144.49,109.26 143.02,106.51 142.59,104.18C142.32,102.73 142.16,100.74 143.36,99.88C143.45,99.81 143.57,99.74 143.69,99.74C143.98,99.75 144.12,100.09 144.2,100.37C144.72,102.31 145.16,104.45 146.33,105.93C145.89,104.78 145.49,103.39 145.3,101.86C144.99,99.37 146.14,92.48 148.57,89.09C148.87,88.68 149.19,88.24 149.54,87.8M169.53,96.04C169.94,98.53 170,101.1 169.56,102.99C169.03,105.24 168.63,106.64 168.01,107.72C167.95,108.58 167.52,109.69 167.23,110.28C166.95,110.83 166.61,111.44 166.27,112.05C166.39,111.99 166.52,111.93 166.64,111.86C167.06,111.61 167.44,111.39 167.79,111.17C171.87,108.25 171.44,101.02 169.75,96.55C169.69,96.39 169.62,96.22 169.53,96.04" style="fill:rgb(130,78,47);fill-rule:nonzero;"/>
        <path d="M165.52,113.33C164.67,114.78 164.03,115.74 162.73,116.81C160.35,118.76 158.84,119.01 154.94,118.59C152.66,118.34 150.03,116.33 148.51,114.6C145.95,111.69 143.21,107.51 142.59,104.18C142.32,102.73 142.16,100.74 143.36,99.88C143.45,99.81 143.57,99.74 143.69,99.74C143.98,99.75 144.12,100.09 144.2,100.37C144.91,103.01 145.47,106.03 147.92,107.23C148.96,107.74 150.83,107.72 152.39,107.69C153.01,107.69 153.58,107.68 154.03,107.7C155.84,107.79 157.64,107.88 159.45,107.98C160.7,108.04 161.94,108.11 163.18,107.98C164.29,107.88 167.71,105.63 167.99,107.23C168.13,108.09 167.58,109.57 167.22,110.28C166.75,111.23 166.06,112.41 165.52,113.33" style="fill:rgb(45,45,48);fill-rule:nonzero;"/>
        <path d="M149.38,107.61C149.38,107.61 149.77,115.77 150.97,117C152.72,118.8 154.3,119.29 157.34,119.29C160.42,119.29 161.53,118.52 162.38,117.65C163.92,116.07 164.96,108.15 164.96,108.15L159.43,104.57L149.38,107.61Z" style="fill:rgb(85,85,86);fill-rule:nonzero;"/>
        <path d="M150.02,99.76C150.02,99.76 150.41,107.92 151.61,109.15C153.36,110.95 154.93,111.44 157.98,111.44C161.06,111.44 162.17,110.67 163.02,109.79C164.55,108.22 165.6,100.3 165.6,100.3L160.06,96.71L150.02,99.76Z" style="fill-rule:nonzero;"/>
        <path d="M162.68,139.63C162.68,139.63 162.78,138.78 163.3,137.46C163.81,136.14 166.8,131.28 167.46,130.17C168.12,129.05 168.5,128.45 168.94,127.22C169.33,126.15 169.25,123.41 169.14,122.96C169.02,122.52 167.7,120.96 167.7,120.96C167.7,120.96 168.31,122.28 167.72,124.72C167.13,127.16 166.07,128.73 164.76,130.47C163.44,132.2 161.17,135.1 160.97,136.42C160.76,137.73 161.16,138.58 161.35,138.9C161.75,139.58 162.68,139.63 162.68,139.63" style="fill:rgb(0,153,114);fill-rule:nonzero;"/>
        <path d="M151.95,109.49C151.86,109.69 151.8,109.85 151.76,109.96C151.85,109.89 151.99,109.78 152.15,109.67C152.08,109.61 152.02,109.55 151.95,109.49" style="fill:rgb(64,64,64);fill-rule:nonzero;"/>
        <path d="M157.52,105.47C156.46,106.02 154.47,107.04 152.79,107.91C152.42,108.5 152.13,109.08 151.95,109.49C152.02,109.55 152.08,109.61 152.15,109.67C152.49,109.43 152.91,109.14 153.12,109.05C153.51,108.89 154.18,108.77 155.02,108.77C156.34,108.77 158.09,109.06 159.86,109.91C160.02,109.26 160.73,109.04 161.55,109.04C162.07,109.04 162.63,109.13 163.13,109.27C162.8,108.85 162.47,108.48 162.15,108.15L159.99,106.44C159.1,105.92 158.25,105.62 157.52,105.47" style="fill-rule:nonzero;"/>
        <path d="M149.22,123.28L149.26,123.27C149.33,122.02 152.05,108.41 159.42,108.02C161.27,107.92 163.4,108.81 164.88,111.39C166.15,113.6 167.06,115.99 167.49,119.01C167.83,121.48 167.99,125.15 167.99,125.15C167.99,125.15 168.26,124.43 168.37,123.06C168.49,121.68 168.58,118.65 168.12,116.2C167.67,113.75 166.49,109.63 164.69,107.54C162.89,105.45 160.53,104.18 158.49,104.6C155.58,105.19 152.15,108.48 150.49,112.38C149.17,115.48 148.78,118.35 148.82,119.44C148.87,120.6 149.12,122.58 149.22,123.28" style="fill:rgb(0,153,114);fill-rule:nonzero;"/>
        <path d="M165.53,116.13C165.53,116.13 165.18,120.31 164.03,123.13C163,125.63 160.26,129.48 157.16,129.65C154.18,129.81 152.64,128.08 151.43,126.81C149.68,124.98 148.81,119.38 148.81,119.38L148.92,125.15C148.92,125.15 149.14,128.72 150.45,130.85C151.52,132.6 154.01,134.02 156.08,134.23C158.13,134.45 162.51,132.83 164.96,125.87C165.56,124.16 165.48,123.27 165.48,123.27L165.53,116.13Z" style="fill:rgb(0,191,143);fill-rule:nonzero;"/>
        <path d="M151.81,147.41C151.1,147.75 150.04,146.99 149.44,145.71C148.84,144.44 148.93,143.13 149.64,142.8C150.36,142.46 151.42,143.22 152.02,144.5C152.62,145.77 152.52,147.08 151.81,147.41M153.07,143.91C152.07,141.79 150.22,140.56 148.92,141.17C147.63,141.78 147.39,143.99 148.38,146.11C149.37,148.23 151.23,149.45 152.52,148.84C153.82,148.23 154.06,146.02 153.07,143.91" style="fill:rgb(35,31,32);fill-rule:nonzero;"/>
        <path d="M141.18,132.59C140.94,132.13 141.1,131.71 141.53,131.65L145.79,131.08C146.22,131.02 146.77,131.35 147.01,131.81L147.35,132.35C147.59,132.81 147.44,133.23 147.01,133.29L142.75,133.86C142.32,133.92 141.8,133.76 141.56,133.3L141.18,132.59ZM142.29,135.04L144.66,134.72L148.18,141.69C148.42,142.15 148.97,142.48 149.4,142.42C149.84,142.36 149.99,141.94 149.75,141.48L146.23,134.51L148.55,134.2C148.99,134.14 149.14,133.72 148.9,133.26L147.47,130.63C147.23,130.17 146.68,129.84 146.25,129.9L139.98,130.74C139.55,130.8 139.39,131.22 139.63,131.68L141.07,134.31C141.31,134.77 141.86,135.1 142.29,135.04Z" style="fill:rgb(35,31,32);fill-rule:nonzero;"/>
        <path d="M146.37,133.34C146.42,133.81 145.82,134.27 145.01,134.37C144.2,134.47 143.5,134.18 143.44,133.72C143.38,133.26 143.99,132.8 144.8,132.69C145.6,132.59 146.31,132.88 146.37,133.34" style="fill:rgb(35,31,32);fill-rule:nonzero;"/>
        <path d="M149.6,139.45C149.05,139.74 148.2,139.2 147.7,138.25C147.19,137.3 147.22,136.29 147.77,136C148.31,135.71 149.16,136.25 149.67,137.2C150.17,138.16 150.14,139.16 149.6,139.45" style="fill:rgb(35,31,32);fill-rule:nonzero;"/>
        <path d="M152,146.95C151.29,147.29 150.23,146.53 149.63,145.25C149.03,143.98 149.12,142.67 149.83,142.33C150.54,142 151.61,142.76 152.21,144.04C152.8,145.31 152.71,146.62 152,146.95M153.25,143.45C152.26,141.33 150.4,140.1 149.11,140.71C147.82,141.32 147.57,143.53 148.57,145.65C149.56,147.77 151.42,148.99 152.71,148.38C154.01,147.77 154.25,145.56 153.25,143.45" style="fill:rgb(170,170,170);fill-rule:nonzero;"/>
        <path d="M141.37,132.13C141.13,131.67 141.29,131.25 141.72,131.19L145.98,130.62C146.41,130.56 146.96,130.89 147.2,131.35L147.54,131.89C147.78,132.35 147.63,132.77 147.19,132.83L142.94,133.4C142.51,133.46 141.99,133.3 141.75,132.84L141.37,132.13ZM142.48,134.58L144.84,134.26L148.51,141.57C148.75,142.04 149.3,142.37 149.74,142.31C150.17,142.25 150.33,141.82 150.09,141.36L146.42,134.05L148.74,133.74C149.18,133.68 149.33,133.26 149.09,132.8L147.66,130.17C147.42,129.71 146.87,129.38 146.44,129.44L140.17,130.28C139.74,130.34 139.58,130.76 139.82,131.22L141.26,133.85C141.5,134.31 142.05,134.64 142.48,134.58Z" style="fill:rgb(170,170,170);fill-rule:nonzero;"/>
        <path d="M146.55,132.88C146.61,133.35 146.01,133.81 145.2,133.91C144.39,134.01 143.69,133.72 143.63,133.26C143.57,132.8 144.18,132.34 144.98,132.24C145.79,132.13 146.49,132.42 146.55,132.88" style="fill:rgb(170,170,170);fill-rule:nonzero;"/>
        <path d="M149.78,138.99C149.24,139.28 148.39,138.74 147.89,137.79C147.38,136.84 147.41,135.83 147.96,135.54C148.5,135.25 149.35,135.79 149.86,136.74C150.36,137.7 150.33,138.7 149.78,138.99" style="fill:rgb(170,170,170);fill-rule:nonzero;"/>
        <path d="M164.39,111.21C161.23,105.88 157.75,105.21 155.95,105.38C155.02,105.46 153.67,105.2 151.56,106.82C150.71,107.47 142.21,112.96 142.28,123.23C142.32,127.75 142.64,129.3 142.19,128.83C142.26,129.43 142.64,130.89 142.82,131.28L143.03,131.76L145.21,131.28C145.21,131.28 143.9,125.9 144.26,123.11C145.05,117.04 151.55,109.69 153.12,109.05C154.81,108.36 158.87,108.99 160.82,110.51C162.72,111.99 163.69,113.49 164.25,114.89C165.01,116.81 165.17,119.23 165.17,119.23C165.17,119.23 165.51,118.38 165.53,116.79C165.55,115.2 165.23,112.63 164.39,111.21" style="fill:rgb(0,153,114);fill-rule:nonzero;"/>
        <path d="M161.16,138.5C161.16,138.5 161.77,140.02 163.31,139.53C164.84,139.05 167.42,137.68 168.92,133.91C170.92,128.88 169.01,124.44 169.01,124.44L167.49,119.01C167.49,119.01 168.8,121.76 169.78,123.42C170.39,124.45 170.74,125.57 171.12,127.04C171.49,128.43 171.44,130.65 171.11,132.77C170.95,133.79 169.6,139.21 167.69,141.03C166.63,142.03 165.35,142.7 164.62,142.67C163.89,142.65 162.97,142.3 162.97,142.3L161.16,138.5Z" style="fill:rgb(0,191,143);fill-rule:nonzero;"/>
        <path d="M155.68,68.7C156.39,68.84 157.09,68.94 157.72,68.94L157.88,68.94C158.52,68.92 159.18,68.86 159.86,68.81C159.55,68.83 158.62,68.89 157.89,68.92C157.83,68.93 157.76,68.93 157.69,68.93C156.82,68.93 155.68,68.7 155.68,68.7" style="fill:white;fill-rule:nonzero;"/>
        <path d="M155.68,68.7C155.7,68.72 156.26,69.22 156.45,69.8C156.9,71.15 157.26,73.61 157.03,77.51C156.9,79.83 155.83,81.41 154.98,82.31C156.05,81.54 157.07,81.05 157.93,81.02C157.96,81.01 157.99,81.01 158.01,81.01C159.07,81.01 160.53,81.89 162.01,83.15C161.41,82.49 159.38,80.1 159.09,77.61C158.86,75.63 158.72,70.9 159.29,69.72C159.6,69.05 159.96,68.81 159.96,68.81L159.86,68.81C159.18,68.86 158.52,68.92 157.88,68.94L157.72,68.94C157.09,68.94 156.39,68.84 155.68,68.7" style="fill:rgb(202,202,203);fill-rule:nonzero;"/>
        <path d="M167.7,89.94C169.41,93.32 170.4,99.38 169.56,102.99C168.78,106.33 168.26,107.8 166.91,109.15C165.58,110.48 164.48,110 164.48,110L158.27,105.08C158.27,105.08 151.16,108.76 150.04,109.32C148.91,109.89 148.33,109.48 147.72,108.64C146.99,107.63 145.69,105.03 145.3,101.86C144.99,99.37 146.14,92.48 148.57,89.09C150.99,85.71 155.23,81.13 157.93,81.02C160.64,80.9 166.11,86.83 167.7,89.94" style="fill:white;fill-rule:nonzero;"/>
        <path d="M164.96,92.77C164.96,95.42 161.09,100.46 158.32,100.46C155.38,100.46 151.16,95.42 151.16,92.77C151.16,90.11 154.25,89.47 158.06,89.47C161.87,89.47 164.96,90.11 164.96,92.77" style="fill-rule:nonzero;"/>
        <path d="M166.3,92.95C166.3,96.2 162.75,98.83 158.36,98.83C153.97,98.83 150.41,96.2 150.41,92.95C150.41,89.71 153.97,87.08 158.36,87.08C162.75,87.08 166.3,89.71 166.3,92.95" style="fill:rgb(85,75,70);fill-rule:nonzero;"/>
        <path d="M166.63,93.61C166.63,96.85 162.06,101.02 158.48,101.2C155.22,101.36 150.65,96.85 150.65,93.61C150.65,90.36 154.23,87.73 158.64,87.73C163.05,87.73 166.63,90.36 166.63,93.61" style="fill:rgb(45,45,48);fill-rule:nonzero;"/>
        <path d="M154.88,91.84C154.71,91.84 154.58,91.94 154.43,92.22C154.15,92.75 154.15,93.08 154.02,93.57C153.9,94.06 153.86,94.59 153.41,94.91C153.18,95.08 152.96,95.15 152.71,95.15C152.49,95.15 152.24,95.09 151.95,94.99C151.33,94.79 151.13,94.42 151.13,94.42C151.13,94.42 151.76,95.58 152.23,95.89C152.59,96.13 152.98,96.31 153.48,96.31C153.82,96.31 154.21,96.22 154.68,96.01C155.94,95.44 156.18,94.79 156.23,94.14C156.27,93.48 156.06,92.22 155.49,92.02C155.22,91.92 155.03,91.84 154.88,91.84" style="fill:rgb(87,87,88);fill-rule:nonzero;"/>
        <path d="M165.28,95.88C164.47,96.39 163.42,96.6 162.11,96.06C160.41,95.37 160.1,94.52 160.05,93.7C159.99,92.88 160.26,91.29 161.02,91.04C161.78,90.78 162.05,90.63 162.43,91.29C162.81,91.96 162.81,92.37 162.97,92.99C163.14,93.6 163.19,94.27 163.79,94.68C164.38,95.09 164.73,95.02 165.54,94.76C166.36,94.51 166.61,93.89 166.61,93.89C166.61,93.89 165.91,95.48 165.28,95.88" style="fill:rgb(85,75,70);fill-rule:nonzero;"/>
        <path d="M152.03,95.92C152.84,96.43 154.08,96.5 155.13,96.06C156.81,95.35 157.13,94.52 157.19,93.7C157.24,92.88 156.97,91.29 156.21,91.04C155.45,90.78 155.18,90.63 154.8,91.29C154.42,91.96 154.42,92.37 154.26,92.99C154.1,93.6 154.04,94.27 153.45,94.68C152.85,95.09 152.62,94.96 151.81,94.71C151,94.45 150.52,93.78 150.52,93.78C150.52,93.78 151.4,95.52 152.03,95.92" style="fill:rgb(85,75,70);fill-rule:nonzero;"/>
        <path d="M165.36,95.45C164.55,95.96 163.61,96.24 162.11,95.6C160.43,94.88 160.1,94.06 160.05,93.24C159.99,92.42 160.22,90.99 161.02,90.58C161.48,90.34 162.05,90.17 162.43,90.83C162.81,91.5 162.81,91.91 162.97,92.53C163.14,93.14 163.19,93.81 163.79,94.22C164.38,94.63 164.93,94.58 165.74,94.32C166.55,94.06 166.61,93.86 166.61,93.86C166.61,93.86 165.99,95.05 165.36,95.45" style="fill-rule:nonzero;"/>
        <path d="M151.87,95.45C152.69,95.96 153.62,96.24 155.13,95.6C156.81,94.88 157.13,94.06 157.19,93.24C157.24,92.42 156.93,90.93 156.21,90.58C155.78,90.37 155.12,90.23 154.8,90.83C154.44,91.51 154.42,91.91 154.26,92.53C154.1,93.14 154.04,93.81 153.45,94.22C152.85,94.63 152.31,94.58 151.49,94.32C150.68,94.06 150.41,93.6 150.41,93.6C150.41,93.6 151.25,95.05 151.87,95.45" style="fill-rule:nonzero;"/>
        <path d="M163.9,72.42C163.25,72.42 162.65,72.88 162.48,73.58C162.27,74.39 162.73,75.21 163.5,75.4C163.84,75.49 164.42,75.57 164.99,75.57C165.69,75.57 166.37,75.44 166.48,74.98C166.68,74.17 165.01,72.65 164.24,72.46C164.13,72.43 164.02,72.42 163.9,72.42" style="fill:rgb(130,78,47);fill-rule:nonzero;"/>
        <path d="M149.25,71.88C149.18,71.88 149.11,71.89 149.04,71.9C148.26,72.02 146.14,73.44 146.27,74.27C146.36,74.83 147.44,74.97 148.37,74.97C148.83,74.97 149.25,74.94 149.5,74.9C150.28,74.78 150.81,74.01 150.69,73.18C150.57,72.43 149.95,71.88 149.25,71.88" style="fill:rgb(130,78,47);fill-rule:nonzero;"/>
        <path d="M163.8,78.81C162.87,80.22 163.62,82.34 165.46,83.55C167.3,84.76 169.54,84.6 170.46,83.19C171.38,81.78 170.64,79.65 168.8,78.45C166.96,77.24 164.72,77.4 163.8,78.81" style="fill:white;fill-rule:nonzero;"/>
        <path d="M163.42,79.43C162.89,81.06 164,82.88 165.9,83.5C167.8,84.12 169.77,83.3 170.3,81.67C170.83,80.04 169.72,78.21 167.82,77.59C165.92,76.97 163.95,77.79 163.42,79.43" style="fill:rgb(109,73,44);fill-rule:nonzero;"/>
        <path d="M163.87,79.01C163.45,80.28 164.15,81.64 165.41,82.05C166.68,82.47 168.04,81.77 168.45,80.5C168.87,79.24 168.17,77.87 166.91,77.46C165.64,77.05 164.28,77.74 163.87,79.01" style="fill:rgb(1,1,1);fill-rule:nonzero;"/>
        <path d="M166.31,78.85C166.04,78.76 165.76,78.91 165.67,79.17C165.59,79.44 165.73,79.73 166,79.81C166.26,79.9 166.55,79.75 166.64,79.49C166.72,79.22 166.58,78.93 166.31,78.85" style="fill:white;fill-rule:nonzero;"/>
        <path d="M150.4,79.26C150.84,80.89 149.47,82.67 147.34,83.24C145.22,83.81 143.14,82.95 142.71,81.33C142.27,79.7 143.64,77.92 145.77,77.35C147.89,76.78 149.97,77.63 150.4,79.26" style="fill:white;fill-rule:nonzero;"/>
        <path d="M150.53,79.84C150.52,81.56 148.9,82.94 146.9,82.94C144.9,82.93 143.29,81.53 143.29,79.81C143.3,78.1 144.93,76.71 146.93,76.72C148.92,76.73 150.54,78.13 150.53,79.84" style="fill:rgb(109,73,44);fill-rule:nonzero;"/>
        <path d="M150.24,79.31C150.23,80.64 149.15,81.72 147.82,81.71C146.49,81.71 145.41,80.62 145.42,79.29C145.42,77.95 146.51,76.88 147.84,76.88C149.17,76.89 150.25,77.97 150.24,79.31" style="fill:rgb(1,1,1);fill-rule:nonzero;"/>
        <path d="M147.83,78.42C148.11,78.42 148.34,78.65 148.34,78.93C148.33,79.21 148.11,79.44 147.83,79.44C147.55,79.44 147.32,79.21 147.32,78.93C147.33,78.65 147.55,78.42 147.83,78.42" style="fill:white;fill-rule:nonzero;"/>
    </g>
    <path d="M152.48,109.97C152.39,110.17 152.33,110.33 152.3,110.43C152.39,110.36 152.53,110.26 152.68,110.15C152.62,110.09 152.55,110.03 152.48,109.97" style="fill:rgb(64,64,64);fill-rule:nonzero;"/>
    <path d="M150.31,139.11C149.76,139.4 148.91,138.87 148.4,137.93C147.89,136.98 147.93,135.99 148.47,135.7C149.02,135.42 149.87,135.95 150.38,136.89C150.89,137.83 150.86,138.83 150.31,139.11" style="fill:rgb(170,170,170);fill-rule:nonzero;"/>
</svg>
