<?xml version="1.0" encoding="utf-8" standalone="no"?><svg xmlns:android="http://schemas.android.com/apk/res/android" height="248.0" width="369.0" xmlns="http://www.w3.org/2000/svg">
    <path d="M269.869,20.002C269.244,20.192 268.748,20.662 268.536,21.268C268.168,22.353 268.839,23.551 270.055,23.943C270.885,24.254 271.823,23.924 272.26,23.167L281.651,26.288C281.539,27.151 282.092,27.964 282.948,28.199C284.163,28.591 285.439,28.03 285.81,26.942C286.003,26.334 285.89,25.672 285.506,25.159C286.133,24.969 286.629,24.499 286.843,23.893C287.211,22.808 286.539,21.607 285.324,21.217C284.422,20.886 283.411,21.298 283.018,22.16L273.703,19.063C273.912,18.143 273.353,17.222 272.427,16.961C271.212,16.569 269.936,17.131 269.568,18.216C269.374,18.824 269.486,19.486 269.869,20.002" fill="#e3ded1" fill-opacity="1.0" fill-rule="evenOdd" stroke="#00000000" stroke-width="1.0"/>
    <path d="M210.733,66.941L206.493,67.008C205.688,67.018 205.023,67.672 204.957,68.518L204.575,73.331C204.536,73.797 204.688,74.259 204.992,74.601C205.296,74.942 205.724,75.13 206.169,75.119L210.84,75.012C211.698,74.993 212.381,74.248 212.371,73.342L212.313,68.57C212.301,67.661 211.595,66.933 210.733,66.941" fill="#f37850" fill-opacity="1.0" fill-rule="evenOdd" stroke="#00000000" stroke-width="1.0"/>
    <path d="M265.755,57.623C266.882,57.921 267.927,58.332 268.001,60.005C255.935,68.806 245.375,82.12 242.382,97.185C242.078,98.674 242.163,99.4 241.524,100.529C240.671,101.091 237.563,101.074 236,100.847C235.305,99.975 237.197,89.003 241.861,80.67C245.565,73.998 250.627,68.139 256.736,63.453L265.755,57.623Z" fill="#f9cd47" fill-opacity="1.0" fill-rule="evenOdd" stroke="#00000000" stroke-width="1.0"/>
    <path d="M219.595,13.869L218.002,16.882C217.81,17.246 217.949,17.689 218.321,17.894L226.642,22.475C226.838,22.583 227.073,22.609 227.289,22.546C227.507,22.484 227.686,22.339 227.785,22.146L229.539,18.705C229.723,18.331 229.566,17.886 229.179,17.694L220.696,13.537C220.504,13.442 220.279,13.423 220.073,13.485C219.866,13.548 219.694,13.686 219.595,13.869" fill="#f9cd47" fill-opacity="1.0" fill-rule="evenOdd" stroke="#00000000" stroke-width="1.0"/>
    <path d="M303.026,91.91L299.14,94.999C298.674,95.368 298.586,96.04 298.94,96.517L308.906,109.874C309.084,110.113 309.352,110.269 309.647,110.307C309.943,110.345 310.241,110.261 310.473,110.074L312.467,108.48C312.886,108.149 313.008,107.566 312.757,107.095L304.675,92.249C304.52,91.964 304.247,91.762 303.929,91.697C303.611,91.631 303.281,91.709 303.026,91.91" fill="#22ade2" fill-opacity="1.0" fill-rule="evenOdd" stroke="#00000000" stroke-width="1.0"/>
    <path d="M217.479,134.177L214.85,135.846C214.452,136.1 214.29,136.615 214.467,137.063L215.799,140.451C215.897,140.7 216.09,140.896 216.331,140.995C216.572,141.093 216.84,141.085 217.076,140.973L220.884,139.144C221.15,139.017 221.344,138.769 221.411,138.473C221.478,138.177 221.409,137.865 221.225,137.629L218.716,134.397C218.417,134.01 217.887,133.915 217.479,134.177" fill="#7786b7" fill-opacity="1.0" fill-rule="evenOdd" stroke="#00000000" stroke-width="1.0"/>
    <path d="M171.733,105.169L171.36,105.169C167.882,105.026 164.837,102.889 163.644,99.755C162.452,96.62 163.348,93.106 165.914,90.852C168.48,88.597 172.211,88.046 175.365,89.457C178.521,90.866 180.478,93.959 180.325,97.293C180.114,101.695 176.332,105.163 171.733,105.169L171.733,105.169ZM171.733,92.851C169.41,92.853 167.519,94.643 167.488,96.868C167.458,99.094 169.298,100.932 171.62,100.993C173.942,101.054 175.885,99.316 175.982,97.092C176.08,94.847 174.262,92.949 171.92,92.851L171.733,92.851Z" fill="#7786b7" fill-opacity="1.0" fill-rule="evenOdd" stroke="#00000000" stroke-width="1.0"/>
    <path d="M326.908,20.548C323.877,20.995 318.149,25.095 318.152,31.593C318.152,34.594 321.61,38.401 324.441,39.585C327.272,40.769 330.397,40.985 333.422,41.501C334.028,41.601 334.919,41.953 334.688,42.498C333.661,44.923 329.89,45.68 327.699,47.004C325.508,48.327 323.495,50.538 323.798,53.033C324.126,55.727 327.041,57.456 329.803,57.77C332.564,58.084 335.334,57.421 338.114,57.423C340.026,57.423 342.141,57.873 343.248,59.395C344.536,61.171 343.942,63.64 342.966,65.59C341.873,67.772 340.379,69.738 338.559,71.392C338.026,71.878 337.45,72.355 337.146,73.003C336.844,73.651 336.919,74.533 337.519,74.933C338.429,76.395 344.839,68.912 346.706,64.667C347.918,61.884 348.337,58.308 346.152,56.159C340.602,50.704 328.754,55.567 327.935,52.58C327.272,50.147 331.552,48.759 333.367,47.746C336.574,45.97 341.229,42.282 340.838,39.973C340.447,37.664 337.116,36.992 336.465,36.809C334.088,36.155 331.674,35.636 329.236,35.255C327.375,34.959 325.214,34.568 324.341,32.937C323.534,31.436 324.235,29.594 325.116,28.135C326.632,25.64 330.172,24.5 330.23,22.694C330.272,21.374 329.099,20.232 326.908,20.548" fill="#f9cd47" fill-opacity="1.0" fill-rule="evenOdd" stroke="#00000000" stroke-width="1.0"/>
    <path d="M160.326,29.375L168.641,27.948C168.902,27.903 169.112,27.711 169.179,27.456L171.534,18.517C171.717,17.823 172.713,17.858 172.846,18.563L174.539,27.53C174.589,27.789 174.784,27.996 175.039,28.059L183.196,30.081C183.9,30.255 183.868,31.267 183.155,31.396L174.661,32.941C174.406,32.988 174.2,33.177 174.132,33.427L171.838,41.85C171.649,42.545 170.647,42.497 170.525,41.786L169.082,33.38C169.037,33.119 168.844,32.908 168.587,32.842L160.271,30.69C159.569,30.508 159.611,29.498 160.326,29.375" fill="#7786b7" fill-opacity="1.0" fill-rule="evenOdd" stroke="#00000000" stroke-width="1.0"/>
    <path d="M109.28,55.233L109.322,55.226C110.382,55.044 111.238,54.26 111.511,53.22L111.884,51.806C112.629,48.977 116.692,49.122 117.234,51.996L117.48,53.294C117.678,54.348 118.474,55.19 119.516,55.448C122.386,56.16 122.256,60.283 119.346,60.812L119.051,60.865C118.011,61.055 117.172,61.824 116.894,62.844L116.713,63.512C115.941,66.346 111.857,66.15 111.36,63.255L111.289,62.843C111.107,61.778 110.317,60.92 109.272,60.65L109.057,60.594C106.195,59.854 106.366,55.733 109.28,55.233" fill="#f9cd47" fill-opacity="1.0" fill-rule="evenOdd" stroke="#00000000" stroke-width="1.0"/>
    <g>
        <clip-path android:pathData="M363.671,57.76l14.6,0l0,15.775l-14.6,0z"/>
        <path d="M365.951,63.233L365.993,63.226C367.054,63.044 367.909,62.26 368.183,61.22L368.555,59.806C369.301,56.977 373.363,57.122 373.906,59.996L374.151,61.294C374.35,62.348 375.145,63.19 376.187,63.448C379.057,64.16 378.928,68.283 376.018,68.812L375.722,68.865C374.682,69.055 373.844,69.824 373.566,70.844L373.384,71.512C372.612,74.346 368.528,74.15 368.031,71.255L367.961,70.843C367.778,69.778 366.989,68.92 365.943,68.65L365.728,68.594C362.866,67.854 363.038,63.733 365.951,63.233" fill="#f9cd47" fill-opacity="1.0" fill-rule="evenOdd" stroke="#00000000" stroke-width="1.0"/>
    </g>
    <path d="M236.596,174.105L236.625,174.105L239.72,175.771L239.777,179.082C239.796,179.943 240.34,180.134 240.985,179.506L243.749,176.812L247.747,177.216C248.682,177.31 248.962,176.841 248.384,176.172L246.138,173.609L247.331,170.496L247.331,170.466C247.665,169.657 247.213,169.24 246.332,169.54L243.52,170.489L241.144,168.355C240.489,167.742 239.891,167.944 239.818,168.803L239.5,171.847L236.692,172.797C235.811,173.099 235.763,173.688 236.596,174.105" fill="#f37850" fill-opacity="1.0" fill-rule="evenOdd" stroke="#00000000" stroke-width="1.0"/>
    <path d="M30.755,-1.377C31.882,-1.079 32.927,-0.668 33.001,1.005C20.935,9.806 10.375,23.12 7.382,38.185C7.078,39.674 7.163,40.4 6.524,41.529C5.671,42.091 2.563,42.074 1,41.847C0.305,40.975 2.197,30.003 6.861,21.67C10.565,14.998 15.627,9.139 21.736,4.453L30.755,-1.377Z" fill="#f9cd47" fill-opacity="1.0" fill-rule="evenOdd" stroke="#00000000" stroke-width="1.0"/>
    <path d="M68.026,32.91L64.14,35.999C63.674,36.368 63.586,37.04 63.94,37.517L73.906,50.874C74.084,51.113 74.352,51.269 74.647,51.307C74.943,51.345 75.241,51.261 75.473,51.074L77.467,49.48C77.886,49.149 78.008,48.566 77.757,48.095L69.675,33.249C69.52,32.964 69.247,32.762 68.929,32.697C68.611,32.631 68.281,32.709 68.026,32.91" fill="#22ade2" fill-opacity="1.0" fill-rule="evenOdd" stroke="#00000000" stroke-width="1.0"/>
    <path d="M91.908,-38.452C88.877,-38.005 83.149,-33.905 83.152,-27.407C83.152,-24.406 86.61,-20.599 89.441,-19.415C92.272,-18.231 95.397,-18.015 98.422,-17.499C99.028,-17.399 99.919,-17.047 99.688,-16.502C98.661,-14.077 94.89,-13.32 92.699,-11.996C90.508,-10.673 88.495,-8.462 88.798,-5.967C89.126,-3.273 92.041,-1.544 94.803,-1.23C97.564,-0.916 100.334,-1.579 103.114,-1.577C105.026,-1.577 107.141,-1.127 108.248,0.395C109.536,2.171 108.942,4.64 107.966,6.59C106.873,8.772 105.379,10.738 103.559,12.392C103.026,12.878 102.45,13.355 102.146,14.003C101.844,14.651 101.919,15.533 102.519,15.933C103.429,17.395 109.839,9.912 111.706,5.667C112.918,2.884 113.337,-0.692 111.152,-2.841C105.602,-8.296 93.754,-3.433 92.935,-6.42C92.272,-8.853 96.552,-10.241 98.367,-11.254C101.574,-13.03 106.229,-16.718 105.838,-19.027C105.447,-21.336 102.116,-22.008 101.465,-22.191C99.088,-22.845 96.674,-23.364 94.236,-23.745C92.375,-24.041 90.214,-24.432 89.341,-26.063C88.534,-27.564 89.235,-29.406 90.116,-30.865C91.632,-33.36 95.172,-34.5 95.23,-36.306C95.272,-37.626 94.099,-38.768 91.908,-38.452" fill="#f9cd47" fill-opacity="1.0" fill-rule="evenOdd" stroke="#00000000" stroke-width="1.0"/>
    <g>
        <clip-path android:pathData="M136.671,-9.24l14.6,0l0,15.775l-14.6,0z"/>
        <path d="M138.951,-3.767L138.993,-3.774C140.054,-3.956 140.909,-4.74 141.183,-5.78L141.555,-7.194C142.301,-10.023 146.363,-9.878 146.906,-7.004L147.151,-5.706C147.35,-4.652 148.145,-3.81 149.187,-3.552C152.057,-2.84 151.928,1.283 149.018,1.812L148.722,1.865C147.682,2.055 146.844,2.824 146.566,3.844L146.384,4.512C145.612,7.346 141.528,7.15 141.031,4.255L140.961,3.843C140.778,2.778 139.989,1.92 138.943,1.65L138.728,1.594C135.866,0.854 136.038,-3.267 138.951,-3.767" fill="#f9cd47" fill-opacity="1.0" fill-rule="evenOdd" stroke="#00000000" stroke-width="1.0"/>
    </g>
    <path d="M1.456,103.865L1.485,103.865L4.58,105.531L4.637,108.842C4.656,109.703 5.2,109.894 5.845,109.266L8.609,106.572L12.607,106.976C13.542,107.07 13.822,106.601 13.244,105.932L10.998,103.369L12.191,100.256L12.191,100.226C12.525,99.417 12.073,99 11.192,99.3L8.38,100.249L6.004,98.115C5.349,97.502 4.751,97.704 4.678,98.563L4.36,101.607L1.552,102.557C0.671,102.859 0.623,103.448 1.456,103.865" fill="#f37850" fill-opacity="1.0" fill-rule="evenOdd" stroke="#00000000" stroke-width="1.0"/>
    <g>
        <clip-path android:pathData="M367.86,120l12.684,0l0,11.875l-12.684,0z"/>
        <path d="M368.456,126.104L368.485,126.104L371.58,127.771L371.637,131.081C371.656,131.943 372.2,132.133 372.845,131.506L375.609,128.812L379.607,129.215C380.542,129.31 380.822,128.84 380.244,128.172L377.998,125.609L379.191,122.494L379.191,122.465C379.525,121.657 379.073,121.24 378.192,121.538L375.38,122.489L373.004,120.354C372.349,119.742 371.751,119.944 371.678,120.802L371.36,123.847L368.552,124.797C367.671,125.099 367.623,125.688 368.456,126.104" fill="#f37850" fill-opacity="1.0" fill-rule="evenOdd" stroke="#00000000" stroke-width="1.0"/>
    </g>
    <path d="M350.733,208.941L346.493,209.008C345.688,209.018 345.023,209.672 344.957,210.518L344.575,215.331C344.536,215.797 344.688,216.259 344.992,216.601C345.296,216.942 345.724,217.13 346.169,217.119L350.84,217.012C351.698,216.993 352.381,216.248 352.371,215.342L352.313,210.57C352.301,209.661 351.595,208.933 350.733,208.941" fill="#f37850" fill-opacity="1.0" fill-rule="evenOdd" stroke="#00000000" stroke-width="1.0"/>
    <path d="M359.595,155.869L358.002,158.882C357.81,159.246 357.949,159.689 358.321,159.894L366.642,164.475C366.838,164.583 367.073,164.609 367.289,164.546C367.507,164.484 367.686,164.339 367.785,164.146L369.539,160.705C369.723,160.331 369.566,159.886 369.179,159.694L360.696,155.537C360.504,155.442 360.279,155.423 360.073,155.485C359.866,155.548 359.694,155.686 359.595,155.869" fill="#f9cd47" fill-opacity="1.0" fill-rule="evenOdd" stroke="#00000000" stroke-width="1.0"/>
    <path d="M366.303,-2.764L362.417,0.325C361.951,0.694 361.863,1.366 362.217,1.843L372.183,15.2C372.361,15.439 372.629,15.595 372.924,15.633C373.22,15.671 373.518,15.587 373.75,15.4L375.744,13.806C376.163,13.475 376.285,12.892 376.034,12.421L367.952,-2.425C367.797,-2.71 367.524,-2.912 367.206,-2.977C366.888,-3.043 366.558,-2.965 366.303,-2.764" fill="#22ade2" fill-opacity="1.0" fill-rule="evenOdd" stroke="#00000000" stroke-width="1.0"/>
    <path d="M311.733,247.169L311.36,247.169C307.882,247.026 304.837,244.889 303.644,241.755C302.452,238.62 303.348,235.106 305.914,232.852C308.48,230.597 312.211,230.046 315.365,231.457C318.521,232.866 320.478,235.959 320.325,239.293C320.114,243.695 316.332,247.163 311.733,247.169L311.733,247.169ZM311.733,234.851C309.41,234.853 307.519,236.643 307.488,238.868C307.458,241.094 309.298,242.932 311.62,242.993C313.942,243.054 315.885,241.316 315.982,239.092C316.08,236.847 314.262,234.949 311.92,234.851L311.733,234.851Z" fill="#7786b7" fill-opacity="1.0" fill-rule="evenOdd" stroke="#00000000" stroke-width="1.0"/>
    <path d="M300.326,171.375L308.641,169.948C308.902,169.903 309.112,169.711 309.179,169.456L311.534,160.517C311.717,159.823 312.713,159.858 312.846,160.563L314.539,169.53C314.589,169.789 314.784,169.996 315.039,170.059L323.196,172.081C323.9,172.255 323.868,173.267 323.155,173.396L314.661,174.941C314.406,174.988 314.2,175.177 314.132,175.427L311.838,183.85C311.649,184.545 310.647,184.497 310.525,183.786L309.082,175.38C309.037,175.119 308.844,174.908 308.587,174.842L300.271,172.69C299.569,172.508 299.611,171.498 300.326,171.375" fill="#7786b7" fill-opacity="1.0" fill-rule="evenOdd" stroke="#00000000" stroke-width="1.0"/>
</svg>