<?xml version="1.0" encoding="UTF-8" standalone="no"?>
<!DOCTYPE svg PUBLIC "-//W3C//DTD SVG 1.1//EN" "http://www.w3.org/Graphics/SVG/1.1/DTD/svg11.dtd">
<svg width="100%" height="100%" viewBox="0 0 34 34" version="1.1" xmlns="http://www.w3.org/2000/svg" xmlns:xlink="http://www.w3.org/1999/xlink" xml:space="preserve" xmlns:serif="http://www.serif.com/" style="fill-rule:evenodd;clip-rule:evenodd;">
    <g transform="matrix(0.934072,0,0,0.979328,-8.44037,0.352796)">
        <g>
            <path d="M29.947,20.646C26.349,20.804 22.837,20.557 19.412,19.904C14.274,18.926 12.785,15.317 11.682,9.272C10.975,5.395 10.703,3.672 10.038,-0.439" style="fill-opacity:0;fill-rule:nonzero;stroke:black;stroke-width:1px;"/>
        </g>
    </g>
    <g transform="matrix(0.934072,0,0,0.979328,-8.44037,0.352796)">
        <path d="M35.662,25.446C35.662,25.446 36.351,28.281 37.792,28.42C39.233,28.558 40.449,28.446 41.285,29.026C41.285,29.026 41.667,29.26 41.928,29.647C41.928,29.647 41.921,28.321 41.11,27.975C40.3,27.628 38.758,27.655 38.55,26.851C38.343,26.047 38.022,24.415 38.161,24.081C38.3,23.747 35.331,24.057 35.662,25.446" style="fill:rgb(121,70,37);fill-rule:nonzero;"/>
    </g>
    <g transform="matrix(0.934072,0,0,0.979328,-8.44037,0.352796)">
        <path d="M28.183,32.044C28.183,32.044 27.086,32.209 26.641,31.759C26.195,31.309 26.434,30.283 26.158,29.656C25.79,28.819 23.881,26.901 23.881,26.901L26.338,26.631C26.338,26.631 27.021,28.121 27.279,29.002C27.537,29.884 26.971,30.556 27.215,31.175C27.459,31.794 28.183,32.044 28.183,32.044" style="fill:rgb(121,70,37);fill-rule:nonzero;"/>
    </g>
    <g transform="matrix(0.934072,0,0,0.979328,-8.44037,0.352796)">
        <path d="M20.83,23.009C20.83,23.009 19.337,22.91 18.508,22.404C17.6,21.849 16.587,19.901 16.587,19.901C16.587,19.901 16.904,22.343 17.808,23.174C18.711,24.006 20.213,24.278 20.213,24.278L20.83,23.009Z" style="fill:rgb(206,142,81);fill-rule:nonzero;"/>
    </g>
    <g transform="matrix(0.934072,0,0,0.979328,-8.44037,0.352796)">
        <path d="M33.367,27.085C32.912,28.077 32.453,29.068 31.868,29.956C32.837,29.851 33.998,29.569 35.091,28.958C34.406,28.519 33.832,27.907 33.367,27.085" style="fill:rgb(206,142,81);fill-rule:nonzero;"/>
    </g>
    <g transform="matrix(0.934072,0,0,0.979328,-8.44037,0.352796)">
        <path d="M38.3,23.748C38.235,22.161 37.408,18.248 37.408,18.248L30.51,19.345C30.51,19.345 29.387,20.854 27.861,21.33C26.334,21.806 22.246,21.842 21.181,22.356C20.277,22.793 18.967,24.446 19.561,26.207C20.156,27.969 23.118,27.73 23.29,27.363C23.431,27.059 23.65,26.99 24.615,27.269C25.58,27.547 29.01,29.733 29.963,29.929C30.34,30.007 31.033,30.046 31.868,29.956C32.454,29.068 32.912,28.077 33.367,27.085C33.832,27.907 34.406,28.519 35.091,28.958C35.439,28.764 35.781,28.537 36.106,28.271C36.892,27.629 38.364,25.335 38.3,23.748" style="fill:rgb(206,142,81);fill-rule:nonzero;"/>
    </g>
    <g transform="matrix(0.934072,0,0,0.979328,-8.44037,0.352796)">
        <path d="M23.919,26.295C23.919,26.295 23.43,30.272 21.244,30.374C19.687,30.448 19.245,30.603 18.842,30.925C18.478,31.216 18.429,31.811 17.112,31.787C17.112,31.787 17.562,31.55 17.962,30.395C18.361,29.239 18.756,28.975 19.362,28.9C19.969,28.826 19.576,27.035 19.488,25.949C19.401,24.863 23.337,23.712 23.919,26.295" style="fill:rgb(206,142,81);fill-rule:nonzero;"/>
    </g>
    <g transform="matrix(0.934072,0,0,0.979328,-8.44037,0.352796)">
        <path d="M35.705,26.55C35.705,26.55 34.162,30.523 33.719,31.72C33.277,32.917 33.953,33.833 33.953,33.833C33.953,33.833 32.807,33.682 32.613,32.1C32.419,30.517 32.73,29.742 32.526,28.431C32.322,27.121 33.876,24.514 35.705,26.55" style="fill:rgb(206,142,81);fill-rule:nonzero;"/>
    </g>
    <g transform="matrix(0.934072,0,0,0.979328,-8.44037,0.352796)">
        <path d="M30.753,19.163L30.797,19.667C30.797,19.667 30.062,20.32 29.654,20.646C29.308,20.647 28.772,19.968 29.089,19.738C29.404,19.51 30.753,19.163 30.753,19.163" style="fill:rgb(54,63,91);fill-rule:nonzero;"/>
    </g>
    <g transform="matrix(0.934072,0,0,0.979328,-8.44037,0.352796)">
        <path d="M37.022,27.569C37.022,27.569 37.871,24.675 38.127,23.98C38.383,23.285 38.344,22.396 38.709,21.658C39.302,20.459 39.594,19.853 39.725,19.61C40.247,18.64 39.01,18.934 38.83,17.775C38.746,17.233 37.698,22.121 35.919,22.587C33.633,23.187 29.758,20.209 28.748,19.044C28.013,19.318 30.038,21.542 30.038,21.542C30.038,21.542 29.415,22.433 29.957,22.886C30.205,23.093 33.23,24.202 33.578,24.366C33.925,24.53 33.995,25.213 34.633,25.521C35.252,25.819 37.022,27.569 37.022,27.569" style="fill:rgb(98,106,155);fill-rule:nonzero;"/>
    </g>
    <g transform="matrix(0.934072,0,0,0.979328,-8.44037,0.352796)">
        <path d="M30.027,21.496C30.796,21.886 30.513,21.874 31.483,22.228C32.452,22.582 33.892,23.708 33.892,23.708C33.892,23.708 32.792,23.368 31.94,22.882C31.563,22.667 30.584,22.205 30.273,22.28C29.965,22.354 30.487,23.168 30.487,23.168C30.487,23.168 29.283,22.875 29.868,21.851C30.05,21.532 30.027,21.496 30.027,21.496" style="fill:rgb(54,63,91);fill-rule:nonzero;"/>
    </g>
    <g transform="matrix(0.934072,0,0,0.979328,-8.44037,0.352796)">
        <path d="M39.208,19.706C39.208,19.706 38.971,20.915 38.913,21.169C38.832,21.529 38.586,21.961 38.407,22.529C38.148,23.355 36.949,23.942 36.949,23.942L39.208,19.706Z" style="fill:rgb(54,63,91);fill-rule:nonzero;"/>
    </g>
    <g transform="matrix(0.934072,0,0,0.979328,-8.44037,0.352796)">
        <path d="M35.709,20.728C35.709,20.728 35.771,20.724 35.873,20.705C35.797,20.707 35.74,20.71 35.709,20.728" style="fill:rgb(36,31,32);fill-rule:nonzero;"/>
    </g>
    <g transform="matrix(0.934072,0,0,0.979328,-8.44037,0.352796)">
        <path d="M39.592,12.994C39.587,12.934 40.37,7.064 38.603,6.228C38.603,6.228 37.438,5.949 36.741,7.79C36.044,9.631 35.085,11.426 34.856,11.845C34.628,12.264 35.588,13.967 35.8,14.093C36.013,14.219 39.592,12.994 39.592,12.994" style="fill:rgb(206,142,81);fill-rule:nonzero;"/>
    </g>
    <g transform="matrix(0.934072,0,0,0.979328,-8.44037,0.352796)">
        <path d="M39.592,12.994C39.587,12.934 40.37,7.064 38.603,6.228C38.603,6.228 37.438,5.949 36.741,7.79C36.044,9.631 35.085,11.426 34.856,11.845C34.628,12.264 35.588,13.967 35.8,14.093C36.013,14.219 39.592,12.994 39.592,12.994" style="fill:rgb(121,70,37);fill-rule:nonzero;"/>
    </g>
    <g transform="matrix(0.934072,0,0,0.979328,-8.44037,0.352796)">
        <path d="M30.865,16.947C29.901,18.197 27.866,18.51 26.518,17.146C26.509,17.136 26.407,17.572 26.397,17.561C26.395,17.555 26.393,17.55 26.391,17.544C26.193,16.98 25.923,15.13 26.232,14.618C26.65,13.925 27.565,13.653 28.361,13.796C28.459,13.813 28.564,13.835 28.654,13.793C28.757,13.746 28.808,13.631 28.854,13.526C29.427,12.217 30.58,11.173 31.94,10.732C33.3,10.291 34.846,10.46 36.079,11.185C36.079,11.185 40.117,12.63 40.283,15.847C40.481,19.654 36.747,20.805 36.747,20.805C35.162,21.723 33.156,21.734 31.438,21.103C29.763,20.489 28.588,20.447 27.433,19.153C28.294,19.546 30.516,18.763 30.865,16.947" style="fill:rgb(206,142,81);fill-rule:nonzero;"/>
    </g>
    <g transform="matrix(0.934072,0,0,0.979328,-8.44037,0.352796)">
        <path d="M30.865,16.947C29.901,18.197 27.866,18.51 26.518,17.146C26.509,17.136 26.407,17.572 26.397,17.561C26.395,17.555 26.393,17.55 26.391,17.544C26.193,16.98 25.923,15.13 26.232,14.618C26.65,13.925 27.565,13.653 28.361,13.796C28.459,13.813 28.564,13.835 28.654,13.793C28.757,13.746 28.808,13.631 28.854,13.526C29.427,12.217 30.58,11.173 31.94,10.732C33.3,10.291 34.846,10.46 36.079,11.185C36.079,11.185 40.117,12.63 40.283,15.847C40.481,19.654 36.747,20.805 36.747,20.805C35.162,21.723 33.156,21.734 31.438,21.103C29.763,20.489 28.588,20.447 27.433,19.153C28.294,19.546 30.516,18.763 30.865,16.947" style="fill:rgb(206,142,81);fill-rule:nonzero;"/>
    </g>
    <g transform="matrix(0.934072,0,0,0.979328,-8.44037,0.352796)">
        <path d="M36.321,12.824C36.383,12.774 41.299,6.693 43.705,7.628C43.705,7.628 45.03,8.491 43.899,10.831C42.768,13.171 41.916,15.721 41.722,16.32C41.529,16.92 39.024,17.546 38.711,17.457C38.397,17.368 36.321,12.824 36.321,12.824" style="fill:rgb(206,142,81);fill-rule:nonzero;"/>
    </g>
    <g transform="matrix(0.934072,0,0,0.979328,-8.44037,0.352796)">
        <path d="M36.321,12.824C36.383,12.774 41.299,6.693 43.705,7.628C43.705,7.628 45.03,8.491 43.899,10.831C42.768,13.171 41.916,15.721 41.722,16.32C41.529,16.92 39.024,17.546 38.711,17.457C38.397,17.368 36.321,12.824 36.321,12.824" style="fill:rgb(121,70,37);fill-rule:nonzero;"/>
    </g>
    <g transform="matrix(0.934072,0,0,0.979328,-8.44037,0.352796)">
        <path d="M39.05,17.442C40.219,13.091 37.791,11.601 42.051,7.791C39.664,8.715 36.372,12.783 36.321,12.824C36.321,12.824 38.397,17.368 38.71,17.457C38.765,17.473 38.886,17.466 39.05,17.442" style="fill:rgb(206,142,81);fill-rule:nonzero;"/>
    </g>
    <g transform="matrix(0.934072,0,0,0.979328,-8.44037,0.352796)">
        <path d="M31.688,12.445C32.508,12.65 33.746,14.668 33.761,15.373L33.759,15.372C33.783,15.605 33.755,15.846 33.665,16.08C33.359,16.871 32.47,17.265 31.679,16.959C30.887,16.653 30.965,15.615 30.528,14.868C30.529,14.867 30.529,14.867 30.53,14.866C30.448,14.729 30.408,14.52 30.441,14.222C30.503,13.666 30.708,12.201 31.688,12.445" style="fill:rgb(135,84,45);fill-rule:nonzero;"/>
    </g>
    <g transform="matrix(0.934072,0,0,0.979328,-8.44037,0.352796)">
        <path d="M30.763,11.983C30.763,11.983 31.037,11.193 31.671,11.247C32.304,11.3 32.874,11.708 32.874,11.708C32.874,11.708 31.577,11.391 30.763,11.983" style="fill:rgb(135,84,45);fill-rule:nonzero;"/>
    </g>
    <g transform="matrix(0.934072,0,0,0.979328,-8.44037,0.352796)">
        <path d="M27.608,19.337C27.574,19.302 27.54,19.266 27.506,19.23C27.484,19.206 27.461,19.18 27.438,19.155C28.304,19.543 30.517,18.759 30.865,16.947C29.901,18.197 27.866,18.51 26.519,17.146C26.509,17.137 26.412,17.548 26.398,17.558C26.397,17.553 26.395,17.548 26.392,17.543C26.195,16.978 25.925,15.129 26.234,14.616C26.286,14.53 26.346,14.45 26.412,14.377C26.879,13.863 27.665,13.671 28.361,13.795C28.459,13.813 28.564,13.835 28.654,13.793C28.678,13.783 28.698,13.767 28.717,13.75C28.781,13.786 28.842,13.831 28.901,13.879C29.139,13.85 29.279,13.8 29.301,13.531C29.309,13.423 29.277,13.331 29.317,13.225C29.43,12.923 29.801,13.025 29.986,12.496C30.11,12.722 30.091,12.875 29.951,13.003C29.865,13.081 29.685,13.154 29.674,13.282C29.659,13.46 29.755,13.61 29.75,13.697C29.729,14.014 29.51,14.171 29.249,14.251C30.938,15.507 30.5,17.364 32.912,18.724C33.745,19.193 34.123,20.837 33.463,21.526C32.773,21.485 32.086,21.339 31.44,21.102C30.583,20.787 29.857,20.623 29.197,20.365C29.189,20.362 29.181,20.358 29.172,20.355C29.102,20.327 29.033,20.299 28.964,20.268C28.94,20.258 28.916,20.246 28.891,20.235C28.838,20.21 28.786,20.185 28.733,20.159C28.701,20.143 28.669,20.126 28.638,20.109C28.593,20.085 28.549,20.061 28.504,20.035C28.469,20.015 28.433,19.993 28.398,19.971C28.358,19.946 28.318,19.921 28.278,19.894C28.241,19.87 28.205,19.843 28.169,19.817C28.13,19.79 28.091,19.762 28.053,19.732C28.017,19.705 27.98,19.674 27.944,19.644C27.906,19.613 27.868,19.581 27.83,19.548C27.795,19.517 27.759,19.483 27.724,19.45C27.685,19.413 27.646,19.376 27.608,19.337" style="fill:rgb(135,84,45);fill-rule:nonzero;"/>
    </g>
    <g transform="matrix(0.934072,0,0,0.979328,-8.44037,0.352796)">
        <path d="M27.447,19.158C27.882,19.348 28.646,19.247 29.348,18.874C29.196,19.662 28.86,19.896 28.591,20.083C28.38,19.967 28.174,19.831 27.971,19.666C27.966,19.662 27.962,19.659 27.957,19.655C27.786,19.515 27.616,19.347 27.447,19.158" style="fill:rgb(43,35,36);fill-rule:nonzero;"/>
    </g>
    <g transform="matrix(0.934072,0,0,0.979328,-8.44037,0.352796)">
        <path d="M28.344,18.02C27.7,17.962 27.055,17.689 26.519,17.146C26.51,17.137 26.423,17.504 26.401,17.552C26.401,17.55 26.4,17.549 26.4,17.547C26.202,16.984 25.934,15.142 26.239,14.624C26.321,15.35 27.163,16.957 28.344,18.02" style="fill:rgb(43,35,36);fill-rule:nonzero;"/>
    </g>
    <g transform="matrix(0.934072,0,0,0.979328,-8.44037,0.352796)">
        <path d="M27.875,15.55C27.985,15.065 27.608,14.433 27.034,14.138C26.459,13.843 25.904,13.996 25.794,14.48C25.683,14.965 26.121,16.31 26.495,16.521C26.884,16.739 27.765,16.034 27.875,15.55" style="fill-rule:nonzero;"/>
    </g>
    <g transform="matrix(0.934072,0,0,0.979328,-8.44037,0.352796)">
        <path d="M27.1,14.747C27.122,14.582 26.931,14.391 26.674,14.322C26.416,14.253 26.19,14.33 26.168,14.496C26.147,14.662 26.337,14.852 26.594,14.921C26.851,14.991 27.078,14.913 27.1,14.747" style="fill:white;fill-rule:nonzero;"/>
    </g>
    <g transform="matrix(0.934072,0,0,0.979328,-8.44037,0.352796)">
        <path d="M32.957,14.294C32.957,14.294 31.808,13.698 31.016,15.233C31.016,15.233 32.102,15.335 32.578,15.629C32.578,15.629 31.946,15.058 31.496,15C31.496,15 32.21,14.318 32.957,14.294" style="fill:rgb(51,33,30);fill-rule:nonzero;"/>
    </g>
</svg>
