<svg width="50" height="50" xmlns="http://www.w3.org/2000/svg">
 <g>
  <title>Layer 1</title>
  <path stroke="null" d="m35.95722,33.86225c-0.00307,1.44697 -0.03692,2.85949 0.17467,4.26137c0.09091,0.60193 0.1592,1.20036 0.13381,1.80185c-0.02247,0.53904 -0.18969,1.06844 -0.79221,1.18664c-0.61944,0.12127 -1.27535,0.23654 -1.82446,-0.24661c-0.26514,-0.23304 -0.32351,-0.61317 -0.07632,-0.80053c1.07618,-0.81454 0.73574,-1.87232 0.41019,-2.81338c-0.43471,-1.25771 -1.05662,-2.44172 -2.13689,-3.30864c-0.79863,-0.64104 -1.4725,-1.44653 -2.25129,-2.08859c-1.0448,-0.8624 -2.16884,-1.71006 -3.7537,-1.03444c-1.36233,0.58062 -2.80389,0.99169 -4.30091,1.12827c-0.32847,0.02947 -0.64745,0.16956 -1.00482,0.26748c-0.5046,1.47089 -0.46213,2.99111 -0.58398,4.47966c-0.0664,0.8141 -0.00248,1.63944 0.00642,2.4601c0.01459,1.26894 -0.19467,2.47791 -0.74479,3.63871c-0.49963,1.05619 -1.2364,1.58968 -2.39239,1.42974c-0.50868,-0.07048 -1.23698,0.07412 -1.42566,-0.60748c-0.18619,-0.67153 0.41135,-0.95112 0.89056,-1.24151c0.61185,-0.37152 0.80563,-0.99373 0.82607,-1.65621c0.07281,-2.37065 0.17073,-4.75779 -0.31942,-7.08744c-0.22327,-1.06276 -0.44536,-2.33578 -1.92589,-2.54941c-0.89947,3.65287 -0.72129,7.45283 -1.72304,10.91338c-1.10069,0.67109 -2.06012,0.35284 -3.00862,0.19291c-0.25798,-0.04421 -0.47614,-0.20093 -0.51802,-0.49789c-0.04145,-0.29389 0.1182,-0.52181 0.34641,-0.64001c1.64775,-0.85584 1.74655,-2.29565 1.65227,-3.958c-0.17525,-3.10464 -0.68949,-6.17849 -1.19904,-9.21265c-0.56603,-3.37007 -0.67592,-6.86914 -2.03211,-10.09621c-0.32497,-0.77455 -0.36291,-1.67402 -0.5297,-2.50329c-0.46024,-0.38275 -0.99636,-0.19845 -1.48899,-0.26339c-1.17759,-0.15585 -2.37854,-0.22997 -3.26661,-1.20649c-0.40974,-0.45076 -0.72479,-0.95317 -0.92296,-1.53233c-0.31388,-0.91814 -0.25798,-1.06684 0.58501,-1.52722c0.26164,-0.14315 0.52313,-0.28936 0.79469,-0.41063c0.92646,-0.41311 1.59697,-0.86036 2.03022,-2.01693c0.45615,-1.21815 1.53437,-2.16432 3.19117,-2.29477c1.58428,-0.12477 2.9256,0.15643 4.22649,0.96994c0.97082,0.6066 1.48301,1.47702 1.97565,2.55655c1.45718,3.19263 3.25159,6.13136 6.79822,7.47983c1.99315,0.75778 4.03431,0.92894 6.09386,1.1573c1.3063,0.14461 2.63215,0.22181 3.90809,0.51409c1.88983,0.43295 3.54256,1.40144 4.95275,2.76668c0.39837,0.38582 0.81716,0.76346 1.14753,1.20547c1.31534,1.75923 3.27114,2.22006 5.21438,2.6895c0.61389,0.14884 1.2593,0.18488 1.89378,0.21888c0.96498,0.05122 1.80754,0.45061 2.63521,0.89071c0.33884,0.17962 0.63636,0.44258 0.54356,0.91158c-2.09355,1.05006 -5.5627,0.8227 -9.54069,-0.67605c0.89699,2.06363 1.06772,4.23203 2.0791,6.13836c0.29199,0.54969 0.63097,1.03036 1.13659,1.3613c0.67694,0.442 0.97535,1.10332 1.0003,1.85555c0.04698,1.43646 0.44127,2.80783 0.66089,4.21073c0.20677,1.31709 -0.43864,2.149 -1.76595,2.22517c-0.29608,0.01664 -0.59405,0.01065 -0.89056,-0.00161c-0.29695,-0.01168 -0.61652,-0.01372 -0.76478,-0.34671c-0.16124,-0.36028 -0.02641,-0.6638 0.21874,-0.93945c0.3473,-0.39078 1.05925,-0.48621 0.96732,-1.23333c-0.12024,-0.9806 -0.18313,-1.98761 -0.69138,-2.85803c-0.57756,-0.98979 -3.27595,-2.88401 -4.61873,-3.26253l-0.00003,0z" fill="#1b1f23" fill-rule="evenOdd" id="svg_1"/>
 </g>

</svg>