<svg width="50" height="50" xmlns="http://www.w3.org/2000/svg">

 <g>
  <title>Layer 1</title>
  <path stroke="null" id="svg_1" fill-rule="evenOdd" fill="#1b1f23" d="m49.15154,46.87316c-0.59949,-2.99815 -0.73793,-6.08918 -2.48713,-8.81645c-0.76512,-1.19262 -0.88043,-2.80214 -1.32311,-4.2109c-0.49954,-1.59752 -0.65123,-3.21163 -0.47959,-4.88508c0.11372,-1.09109 0.55287,-2.20319 0,-3.30398c-0.62156,-1.23765 -1.12729,-2.54946 -2.19824,-3.49752c-0.49442,-0.43951 -0.61626,-0.9085 -0.37082,-1.55584c0.34733,-0.92334 0.57795,-1.89011 0.50414,-2.89238c-0.03638,-0.53292 -0.01642,-1.11475 -0.87372,-0.9553c-0.52568,0.09747 -0.76494,-0.21366 -0.8603,-0.763c-0.187,-1.06619 -0.77006,-1.78434 -1.93584,-1.89364c-0.28835,-0.02684 -0.60302,-0.14603 -0.8331,-0.32138c-0.4192,-0.31572 -0.95865,-0.60726 -0.77218,-1.29645c0.05527,-0.20218 0.76494,0.16828 0.40066,-0.43368c-0.20642,-0.34521 -0.51438,-0.32508 -0.80803,-0.12484c-0.41602,0.28624 -0.85217,0.10471 -1.28462,0.12272c-0.78137,0.03196 -1.615,0.07063 -2.30154,0.38335c-0.22249,0.10259 -0.42944,0.62933 -0.88043,0.88466c-1.98087,1.12499 -2.31196,1.98652 -1.75397,4.27111c0.11531,0.47924 0.02666,0.76812 -0.40419,0.7517c-2.50214,-0.09606 -5.10086,0.58695 -7.43136,-0.93005c-0.64664,-0.41902 -1.36143,-0.66606 -2.14633,-0.64893c-1.16878,0.02525 -2.04921,-0.47465 -2.66035,-1.4785c-1.06742,-1.75344 -2.16487,-3.49081 -3.20916,-5.25961c-1.10892,-1.87722 -2.43539,-3.53354 -4.31949,-4.6783c-0.55446,-0.33585 -1.31287,-0.75311 -1.72024,-0.27388c-0.852,1.00015 -1.45661,0.34309 -2.16328,-0.04909c-0.54616,-0.30213 -1.08226,-0.63392 -1.6519,-0.88255c-0.70508,-0.30954 -1.30669,-0.03514 -1.05259,0.7381c0.49089,1.50693 -0.11725,2.72268 -0.52921,4.0933c-0.46635,1.54401 -1.19138,2.65876 -2.63122,3.32623c-0.85006,0.3936 -0.84176,0.98019 -0.45593,1.76739c0.68954,1.4061 1.89894,1.90865 3.30028,2.22173c0.77995,0.17481 1.79546,0.1847 1.80058,1.38862c0.01183,2.83728 1.425,5.32724 1.94609,8.04674c0.52162,2.71085 1.45678,5.33907 2.00754,8.04692c0.53645,2.62821 0.77536,5.31735 1.22935,7.96516c0.18329,1.08173 0.15362,2.12072 0.06339,3.20351c-0.11725,1.45007 -1.18556,1.74249 -2.20937,2.17794c-0.34751,0.14797 -0.56629,0.45381 -0.51967,0.85941c0.04679,0.41885 1.98405,1.11316 2.62044,1.30969c2.82122,0.87442 4.59372,-0.02843 5.44731,-2.83146c0.95671,-3.138 1.1257,-6.41567 1.61041,-9.63561c0.27017,-1.80288 0.34892,-1.89523 2.10148,-1.81948c2.91145,0.1259 5.59016,-0.71126 8.27153,-1.73896c0.92846,-0.35493 1.87952,-1.26784 3.00168,-0.67418c1.48433,0.78454 2.81609,1.7688 3.58263,3.36332c0.74817,1.55743 1.97893,2.72727 3.14365,3.96545c1.07908,1.14865 1.93214,2.44298 1.95421,4.15722c0.01783,1.41599 -0.56011,2.36105 -1.7688,3.04141c-0.38936,0.22072 -0.61997,0.83769 -0.1123,1.1287c0.97878,0.56029 2.07993,0.39713 3.13023,0.16139c0.83328,-0.18823 1.10892,-0.88149 1.12887,-1.63619c0.07999,-2.9533 0.85518,-6.00707 -1.14565,-8.68596c-0.07028,-0.09394 -0.06357,-0.25021 -0.1199,-0.50449c0.51085,-0.00671 0.87672,0.20695 1.04217,0.4637c1.1656,1.79158 2.91957,3.11946 3.81995,5.13953c0.77006,1.72695 1.10203,3.30911 -0.33568,4.82928c-0.44728,0.47571 -0.57441,1.05083 0.12343,1.27932c0.97101,0.31784 2.07481,0.43898 2.97961,-0.08405c0.85518,-0.49266 0.7102,-1.47268 0.53963,-2.32591zm-35.43073,-6.26858c-0.03991,2.57612 -0.31414,4.70144 -0.62509,5.30852c0,0 0.58766,-2.88567 0.06198,-6.12573c-0.52621,-3.23847 0.4494,-4.98626 0.4494,-4.98626c0,0 0.15168,3.22576 0.11372,5.80347z"/>
 </g>
</svg>