<?xml version="1.0" encoding="UTF-8" standalone="no"?>
<!DOCTYPE svg PUBLIC "-//W3C//DTD SVG 1.1//EN" "http://www.w3.org/Graphics/SVG/1.1/DTD/svg11.dtd">
<svg width="100%" height="100%" viewBox="0 0 64 64" version="1.1" xmlns="http://www.w3.org/2000/svg" xmlns:xlink="http://www.w3.org/1999/xlink" xml:space="preserve" xmlns:serif="http://www.serif.com/" style="fill-rule:evenodd;clip-rule:evenodd;stroke-linejoin:round;stroke-miterlimit:2;">
    <path d="M43.181,41.573C43.181,41.573 44.356,46.644 46.941,46.915C49.527,47.185 51.689,46.997 53.17,48.043C53.618,48.339 54.005,48.718 54.31,49.159C54.31,49.159 54.31,46.809 52.87,46.162C51.431,45.516 48.675,45.575 48.316,44.123C47.958,42.672 47.406,39.769 47.658,39.17C47.911,38.571 42.605,39.094 43.181,41.573Z" style="fill-rule:nonzero;"/>
    <path d="M29.742,53.261C29.742,53.261 27.779,53.537 26.992,52.726C26.205,51.915 26.639,50.094 26.158,48.965C25.511,47.467 22.127,44.024 22.127,44.024L26.516,43.571C27.141,44.955 27.692,46.371 28.167,47.814C28.614,49.394 27.58,50.587 28.026,51.692C28.373,52.417 28.988,52.98 29.742,53.261Z" style="fill-rule:nonzero;"/>
    <path d="M16.732,37.031C16.732,37.031 14.065,36.831 12.619,35.92C11.003,34.916 9.223,31.425 9.223,31.425C9.223,31.425 9.757,35.791 11.356,37.301C12.954,38.811 15.633,39.299 15.633,39.299L16.732,37.031Z" style="fill-rule:nonzero;"/>
    <path d="M39.062,44.47C38.287,46.239 37.38,47.946 36.347,49.577C38.369,49.38 40.331,48.78 42.117,47.814C40.836,46.971 39.786,45.822 39.062,44.47Z" style="fill-rule:nonzero;"/>
    <path d="M47.911,38.576C47.817,35.744 46.389,28.746 46.389,28.746L34.049,30.614C34.049,30.614 32.028,33.294 29.295,34.14C26.563,34.986 19.259,34.98 17.355,35.903C15.733,36.673 13.377,39.605 14.417,42.76C15.457,45.916 20.752,45.528 21.057,44.87C21.316,44.329 21.709,44.212 23.408,44.723C25.106,45.234 31.223,49.177 32.921,49.541C34.046,49.725 35.192,49.749 36.323,49.612C37.356,47.981 38.264,46.274 39.038,44.505C39.759,45.865 40.81,47.023 42.094,47.872C42.734,47.524 43.341,47.119 43.909,46.662C45.349,45.498 48.005,41.414 47.911,38.576Z" style="fill:rgb(46,40,41);fill-rule:nonzero;"/>
    <path d="M22.203,42.937C22.203,42.937 21.298,50.029 17.373,50.199C14.593,50.311 13.8,50.581 13.077,51.151C12.355,51.721 12.331,52.726 9.981,52.667C9.981,52.667 10.786,52.25 11.514,50.194C12.243,48.137 12.948,47.667 14.035,47.543C15.122,47.42 14.441,44.212 14.3,42.255C14.159,40.298 21.198,38.318 22.203,42.937Z" style="fill:rgb(46,40,41);fill-rule:nonzero;"/>
    <path d="M43.239,43.548C43.239,43.548 40.437,50.599 39.632,52.75C39.154,53.999 39.298,55.402 40.019,56.528C40.019,56.528 37.974,56.246 37.669,53.414C37.363,50.581 37.904,49.206 37.557,46.868C37.211,44.529 40.002,39.887 43.239,43.548Z" style="fill:rgb(46,40,41);fill-rule:nonzero;"/>
    <g transform="matrix(1,0,0,1,-1.14458,-0.517548)">
        <path d="M48.795,35.419C48.328,36.229 49.009,37.51 50.304,38.258C51.6,39.006 53.05,38.955 53.518,38.146C53.518,38.146 53.518,38.146 53.518,38.146C53.985,37.336 53.304,36.054 52.009,35.306C50.713,34.559 49.262,34.609 48.795,35.419C48.795,35.419 48.795,35.419 48.795,35.419Z" style="fill:rgb(250,171,67);fill-rule:nonzero;"/>
    </g>
    <path d="M32.973,31.698C35.012,33.338 36.779,34.432 38.273,34.982C40.514,35.808 40.975,35.928 43.137,35.893C44.578,35.87 46.015,35.257 47.448,34.055L47.799,36.487C46.485,37.709 45.055,38.32 43.51,38.32C41.192,38.32 40.064,38.241 37.526,37.119C34.988,35.997 32.097,33.575 31.528,32.844C32.044,32.437 32.526,32.055 32.973,31.698Z" style="fill:rgb(119,134,183);fill-rule:nonzero;"/>
    <path d="M34.606,17.503C34.606,17.503 29.866,12.314 26.315,11.112C22.763,9.911 23.546,11.496 23.824,12.976C24.101,14.457 27.88,24.803 29.154,25.539C30.428,26.274 34.606,17.503 34.606,17.503" style="fill:rgb(45,40,41);fill-rule:nonzero;"/>
    <path d="M34.606,17.503C34.606,17.503 29.866,12.314 26.315,11.112C22.763,9.911 23.831,11.913 25.163,12.617C27.114,13.65 30.08,16.683 32.464,19.977C33.68,18.63 34.606,17.503 34.606,17.503" style="fill-rule:nonzero;"/>
    <path d="M38.787,15.646C38.787,15.646 38.381,11.946 39.1,9.72C39.819,7.494 41.388,5.758 43.134,9.596C44.88,13.435 43.868,15.429 44.473,16.345C45.064,17.24 45.764,18.105 45.764,18.105L38.787,15.646Z" style="fill-rule:nonzero;"/>
    <path d="M44.017,35.437C44.896,35.17 46.155,33.369 46.906,33.048C47.657,32.727 48.833,32.651 49.513,32.289C50.194,31.928 50.712,30.732 50.712,30.732C50.712,30.732 51.266,31.024 51.906,30.578C52.572,30.115 52.609,27.992 52.086,26.935C51.564,25.879 50.074,24.782 49.805,23.778C49.536,22.773 49.395,20.499 48.754,19.763C48.113,19.028 46.377,17.459 44.263,16.711C42.148,15.961 39.754,15.287 38.638,15.586C37.522,15.885 36.54,16.321 36.54,16.321L32.711,22.258L37.715,34.015L40.633,35.142C40.633,35.142 43.138,35.705 44.017,35.437" style="fill:white;fill-rule:nonzero;"/>
    <path d="M41.4,35.1C42.309,33.914 40.645,31.471 40.3,30.275C39.786,28.495 39.614,26.405 40.22,24.621C40.446,23.953 41.109,23.033 41.103,22.323C41.096,21.402 40.786,20.307 40.472,19.443C39.959,18.034 38.887,16.865 37.783,15.827C36.334,16.221 35.033,16.917 34.323,17.34C33.232,17.991 29.425,22.72 29.182,24.938C28.939,27.157 31.271,29.163 32.479,30.993C33.687,32.822 38.126,35.102 39.443,35.108C39.934,35.11 40.597,35.198 41.281,35.291C41.313,35.227 41.352,35.162 41.4,35.1" style="fill-rule:nonzero;"/>
    <path d="M49.195,19.886C49.765,20.827 49.712,21.903 49.077,22.286C48.442,22.67 47.466,22.219 46.896,21.277C46.326,20.335 46.38,19.26 47.015,18.876C47.65,18.492 48.626,18.944 49.195,19.886" style="fill:rgb(129,128,128);fill-rule:nonzero;"/>
    <path d="M41.006,22.637C41.365,23.978 40.457,25.386 38.978,25.782C37.499,26.179 36.008,25.413 35.649,24.072C35.289,22.731 36.197,21.322 37.677,20.926C39.156,20.53 40.647,21.296 41.006,22.637" style="fill:rgb(129,128,128);fill-rule:nonzero;"/>
    <path d="M40.036,23.038C40.206,23.673 39.675,24.365 38.85,24.586C38.025,24.807 37.219,24.473 37.048,23.839C36.879,23.205 37.41,22.512 38.235,22.291C39.06,22.07 39.867,22.405 40.036,23.038" style="fill-rule:nonzero;"/>
    <path d="M39.468,22.756C39.521,22.954 39.356,23.17 39.098,23.239C38.84,23.308 38.588,23.204 38.535,23.006C38.482,22.808 38.649,22.592 38.906,22.523C39.164,22.454 39.415,22.558 39.468,22.756" style="fill:white;fill-rule:nonzero;"/>
    <path d="M49.309,20.288C49.462,20.86 49.129,21.445 48.566,21.596C48.002,21.747 47.421,21.407 47.268,20.835C47.115,20.264 47.448,19.678 48.011,19.527C48.575,19.376 49.156,19.717 49.309,20.288" style="fill-rule:nonzero;"/>
    <path d="M48.821,20.048C48.861,20.197 48.736,20.36 48.541,20.412C48.347,20.464 48.157,20.386 48.117,20.236C48.077,20.087 48.203,19.924 48.397,19.872C48.591,19.82 48.781,19.899 48.821,20.048" style="fill:white;fill-rule:nonzero;"/>
    <path d="M44.864,21.633C45.993,21.282 46.962,21.846 47.643,22.459C48.277,23.03 48.745,24.063 49.147,24.672C49.55,25.282 50.389,25.955 50.921,26.829C51.455,27.702 52.157,30.529 51.744,30.71C50.055,31.447 50.619,29.212 49.393,29.387C48.84,29.466 46.778,32.047 45.648,32.847C44.653,33.553 41.165,34.619 41.165,34.619C41.165,34.619 44.572,33.133 45.354,32.079C45.87,31.384 46.164,30.516 46.182,29.765C46.21,28.619 45.867,27.924 44.851,26.678C43.876,25.483 42.998,25.331 42.797,23.742C42.713,23.074 43.543,22.043 44.864,21.633" style="fill:rgb(129,128,128);fill-rule:nonzero;"/>
    <path d="M47.56,23.158C47.651,23.725 46.881,24.318 45.841,24.484C44.801,24.649 43.885,24.324 43.794,23.757C43.704,23.189 44.474,22.595 45.514,22.43C46.554,22.264 47.47,22.59 47.56,23.158" style="fill-rule:nonzero;"/>
    <path d="M51.78,29.583C51.212,29.2 51.021,29.36 50.518,27.845C50.187,28.216 49.644,27.799 49.242,28.055C48.749,28.413 48.303,28.831 47.912,29.297C47.941,29.299 47.551,28.884 47.579,28.909C48.529,29.865 48.542,30.855 48.766,31.19C48.905,31.417 49.097,31.607 49.325,31.743C49.967,32.056 50.716,32.065 51.366,31.767C51.742,31.599 52.053,31.314 52.256,30.955C52.601,30.42 52.35,29.948 51.78,29.583Z" style="fill:rgb(172,103,109);fill-rule:nonzero;"/>
    <path d="M50.151,28.008C49.846,27.84 49.468,27.879 49.204,28.106C48.666,28.484 48.121,28.673 49.074,28.905C50.027,29.138 51.063,30.928 51.063,30.928C50.636,30.084 50.329,29.184 50.149,28.256C50.117,27.636 50.151,28.008 50.151,28.008Z" style="fill:rgb(50,38,49);fill-rule:nonzero;"/>
    <path d="M50.039,27.162C49.404,26.82 48.721,26.563 48.009,26.398C48.009,26.398 48.856,27.318 48.37,28.231C48.181,28.575 47.105,30.463 46.919,30.879C46.437,31.815 45.553,32.518 44.492,32.811C45.676,32.726 46.719,32.024 47.188,30.996C47.763,29.989 48.504,28.84 49.236,28.391C49.858,28.01 50.47,28.117 50.656,28.382C51.077,27.998 50.119,27.285 50.039,27.162Z" style="fill:rgb(36,31,32);fill-rule:nonzero;"/>
</svg>
