<svg width="50" height="50" xmlns="http://www.w3.org/2000/svg" xmlns:undefined="http://sodipodi.sourceforge.net/DTD/sodipodi-0.dtd" xmlns:undefined="http://www.inkscape.org/namespaces/inkscape" version="1.1">

 <metadata>image/svg+xmlOpenclipartXolo silhouette2012-06-20T13:56:00https://openclipart.org/detail/170813/xolo-silhouette-by-dear_theophilus-170813dear_theophilusanimalblackchiwawadogdrawingpuppysilhouettewhitexolo</metadata>
 <g>
  <title>Layer 1</title>
  <rect height="86.873" x="-165.409" width="123.24" y="-741.57003" id="rect5213"/>rhetorical raptorrhetorical raptorR
  <path stroke="null" fill="#000000"  d="m16.45792,37.90624c-0.3381,-0.07858 -0.3686,-0.24435 -0.09824,-0.53426c0.2392,-0.2565 0.18034,-0.37555 -0.22167,-0.44835c-0.24031,-0.04352 -0.37322,-0.12577 -0.37322,-0.23093c0,-0.27026 0.72536,-0.85678 1.05959,-0.85678c0.49947,0 0.81517,-0.33797 1.08132,-1.15758c0.213,-0.65593 0.23984,-0.93499 0.22036,-2.29106c-0.02468,-1.71699 -0.30296,-3.36793 -0.70405,-4.17678c-0.1284,-0.25893 -0.49399,-0.76852 -0.81243,-1.1324c-1.01571,-1.16066 -1.23828,-1.5843 -1.30307,-2.48039c-0.03511,-0.4854 -0.14655,-0.98088 -0.28944,-1.28682c-0.30569,-0.65455 -0.63262,-1.58439 -0.63591,-1.80869c-0.00152,-0.10289 -0.31975,-0.97562 -0.51922,-1.05656c-1.07779,-0.06961 -1.39249,-0.23703 -1.81225,-0.72027c-0.24262,-0.27931 -0.37672,-0.63236 -0.2421,-1.06829c0.1123,-0.36362 0.57203,-0.84564 0.48084,-1.22515c-0.09116,-0.37948 -0.22204,-0.72453 -0.29083,-0.76678c-0.06878,-0.04224 -0.30721,-0.07751 -0.52981,-0.07837c-0.39532,-0.00147 -0.92824,-0.35175 -0.92824,-0.61001c0,-0.05668 -0.18941,-0.36409 -0.42092,-0.6831c-0.47844,-0.65934 -1.0179,-1.92803 -0.92221,-2.16878c0.05035,-0.12668 0.16003,-0.14644 0.51691,-0.09312c0.75415,0.11268 1.14545,0.25665 2.44305,0.89888l1.24357,0.61553l0.9062,-0.17359c0.7533,-0.1443 1.00767,-0.15326 1.50751,-0.05309l0.6013,0.12051l0.50139,-0.39356c0.27577,-0.21646 0.79438,-0.65519 1.15251,-0.97494c0.58943,-0.52627 1.45796,-1.0159 1.80206,-1.0159c0.32167,0 0.38774,0.27469 0.21811,0.90663c-0.09091,0.33867 -0.16529,0.74986 -0.16529,0.91372c0,0.16387 -0.09597,0.47967 -0.21327,0.70179c-0.1173,0.22211 -0.21328,0.48044 -0.21328,0.57407c0,0.31182 -0.42317,0.69509 -0.95612,0.86597c-0.29843,0.09569 -0.54783,0.24415 -0.57525,0.3424c-0.22064,0.79084 -0.21262,0.81717 0.63305,2.07917c0.51533,0.76901 0.61947,0.82528 1.89966,1.02642c0.30086,0.04727 1.06854,0.1903 1.706,0.31784c1.08577,0.21725 1.23393,0.22377 2.34499,0.10307c0.65231,-0.07086 1.47394,-0.17063 1.82583,-0.22171c1.58889,-0.23062 4.20612,-0.02256 5.97165,0.47474c1.0606,0.29872 2.21877,0.93322 2.84701,1.55977c0.71808,0.71613 0.93612,1.36107 1.08872,3.22044c0.12487,1.52137 0.15834,1.68123 0.44746,2.13669c0.595,0.93737 1.40601,1.09664 3.06359,0.60157c0.51797,-0.1547 0.96957,-0.25444 1.00353,-0.22165c0.11022,0.10641 -0.31482,0.46892 -0.92376,0.78785c-1.31217,0.68725 -2.25971,0.66677 -3.31072,-0.07157c-0.36434,-0.25593 -0.6822,-0.44624 -0.70637,-0.42291c-0.09237,0.08917 0.26942,1.02254 0.65304,1.68479c0.37794,0.6524 1.055,1.39403 1.83608,2.01109c0.31269,0.24703 0.34647,0.32757 0.34556,0.82357c-0.00122,0.66454 0.18824,2.35664 0.36799,3.28595c0.07205,0.37258 0.09508,0.77116 0.05117,0.88574c-0.12897,0.33659 -0.81794,0.61879 -1.4845,0.6081c-0.52354,-0.0084 -0.59016,-0.03429 -0.6206,-0.24104c-0.02292,-0.15579 0.0207,-0.23163 0.1333,-0.23163c0.09205,0 0.16737,-0.07112 0.16737,-0.15804c0,-0.08692 0.07506,-0.26864 0.16681,-0.40381c0.406,-0.59819 0.26663,-2.36257 -0.25652,-3.24717c-0.38735,-0.6549 -1.19783,-1.54417 -1.40737,-1.54417c-0.21706,0 -0.35828,0.32175 -1.01659,2.31627c-0.64063,1.9409 -0.70725,2.01321 -1.83827,1.99508c-1.08069,-0.01733 -1.19326,-0.05129 -1.19326,-0.36015c0,-0.19445 0.08856,-0.29141 0.36982,-0.40484c0.2034,-0.08204 0.48294,-0.14917 0.62124,-0.14917c0.13829,0 0.35216,-0.10423 0.4753,-0.23163c0.321,-0.33212 0.66643,-1.24601 0.66643,-1.76317c0,-0.57225 -0.54138,-1.63266 -0.99547,-1.94986c-0.18563,-0.12967 -0.66665,-0.46489 -1.06894,-0.74492c-0.40229,-0.28003 -0.91643,-0.6636 -1.1425,-0.85234c-0.43422,-0.36253 -1.05862,-1.43746 -1.05862,-1.82249c0,-0.42482 -0.22689,-0.48487 -1.02828,-0.27214c-0.4022,0.10677 -1.28311,0.27547 -1.95761,0.37487c-1.83276,0.27015 -2.52723,0.41656 -3.43824,0.72494c-0.78772,0.26667 -0.83051,0.29757 -0.936,0.6757c-0.06079,0.21794 -0.15342,0.42185 -0.20584,0.45311c-0.11599,0.0692 -0.6637,1.65464 -0.96229,2.7856c-0.12,0.45449 -0.31047,1.44225 -0.42326,2.19501c-0.1841,1.22859 -0.39696,1.86818 -0.62191,1.86874c-0.13237,0.00024 -0.6377,0.85707 -0.7154,1.2129c-0.12281,0.56247 -0.54829,0.71489 -1.76149,0.63095c-0.08798,-0.00608 -0.30392,0.01275 -0.47987,0.04184c-0.17595,0.02909 -0.46389,0.01945 -0.63983,-0.02145l0.00002,0.0001z"  id="path9267"/></g>
</svg>