<?xml version="1.0" encoding="UTF-8" standalone="no"?>
<!DOCTYPE svg PUBLIC "-//W3C//DTD SVG 1.1//EN" "http://www.w3.org/Graphics/SVG/1.1/DTD/svg11.dtd">
<svg width="100%" height="100%" viewBox="0 0 64 64" version="1.1" xmlns="http://www.w3.org/2000/svg" xmlns:xlink="http://www.w3.org/1999/xlink" xml:space="preserve" xmlns:serif="http://www.serif.com/" style="fill-rule:evenodd;clip-rule:evenodd;stroke-linejoin:round;stroke-miterlimit:2;">
    <path d="M5.802,29.549C5.802,41.919 16.202,52.098 28.841,52.098C41.48,52.098 51.881,41.919 51.881,29.549C51.881,17.179 41.48,7 28.841,7C16.202,7 5.802,17.179 5.802,29.549Z" style="fill:rgb(219,237,92);fill-rule:nonzero;"/>
    <path d="M17.219,25.105C16.855,26.095 16.392,27.091 15.903,28.122C14.709,30.676 13.474,33.306 13.665,36.158C13.969,40.715 17.491,45.02 22.254,46.595C23.63,47.017 25.067,47.219 26.508,47.194C31.19,47.194 36.968,45.491 40.228,42.197C44.971,37.418 48.737,25.667 48.939,18.814C48.346,17.642 47.648,16.526 46.851,15.477C47.45,21.615 43.941,35.656 38.796,40.84C34.666,45 26.494,45.948 22.89,44.751C18.946,43.431 15.9,39.77 15.66,36.045C15.504,33.689 16.583,31.388 17.722,28.95C18.205,27.917 18.706,26.847 19.102,25.78C20.643,21.589 21.433,19.197 21.092,14.353C21.013,12.924 20.498,10.11 19.628,8.961C18.978,9.205 18.341,9.474 17.722,9.775C18.547,10.68 19.036,13.274 19.093,14.486C19.408,18.93 18.706,21.07 17.219,25.105Z" style="fill:rgb(162,194,63);fill-rule:nonzero;"/>
    <path d="M47.213,41.38C48.254,39.984 49.727,37.888 50.815,37.273C52.144,36.523 53.676,35.905 55.17,37.022C56.346,37.888 57.478,39.666 57.037,41.092C56.343,43.342 54.467,44.606 54.558,45.867C54.649,47.127 56.487,49 57.037,50.228C57.684,51.666 58.375,53.735 56.819,54.983C55.264,56.232 53.45,56.376 51.929,55.596C50.891,55.057 49.336,53.631 48.31,52.927C47.96,52.685 33.629,52.431 33.141,52.945C32.606,53.496 29.683,56.526 28.404,56.814C27.125,57.101 25.522,57.224 24.076,55.895C22.629,54.567 22.329,52.385 22.9,51.706C23.47,51.026 25.578,48.676 25.39,47.44C25.202,46.203 23.479,45.453 22.491,43.887C21.503,42.32 21.059,39.975 22.032,38.874C23.006,37.772 25.14,36.802 26.687,37.261C27.51,37.509 29.789,40.095 30.539,40.985C31.088,41.637 47.081,41.561 47.213,41.38Z" style="fill:rgb(206,142,81);fill-rule:nonzero;"/>
    <path d="M45.998,48.667C45.998,47.86 46.662,47.196 47.469,47.196C48.276,47.196 48.939,47.86 48.939,48.667C48.939,49.473 48.276,50.137 47.469,50.137C46.662,50.137 45.998,49.473 45.998,48.667" style="fill:rgb(163,106,59);fill-rule:nonzero;"/>
    <path d="M38.155,48.667C38.155,47.86 38.819,47.196 39.626,47.196C40.432,47.196 41.096,47.86 41.096,48.667C41.096,49.473 40.432,50.137 39.626,50.137C38.819,50.137 38.155,49.473 38.155,48.667" style="fill:rgb(163,106,59);fill-rule:nonzero;"/>
    <path d="M31.292,47.686C31.292,46.88 31.956,46.216 32.763,46.216C33.57,46.216 34.234,46.88 34.234,47.686C34.234,48.493 33.57,49.157 32.763,49.157C31.956,49.157 31.292,48.493 31.292,47.686" style="fill:rgb(163,106,59);fill-rule:nonzero;"/>
</svg>
