<?xml version="1.0" encoding="UTF-8" standalone="no"?>
<!-- Created with Inkscape (http://www.inkscape.org/) -->
<svg
   xmlns:svg="http://www.w3.org/2000/svg"
   xmlns="http://www.w3.org/2000/svg"
   version="1.0"
   width="199.28589"
   height="199.28589"
   id="svg18922">
  <defs
     id="defs18924" />
  <g
     transform="translate(-346.07134,-524.14781)"
     id="layer1">
    <path
       d="M 500.35723,527.14781 L 492.35723,541.14781 L 512.35723,541.14781 L 475.35723,578.14781 C 442.16843,553.34987 395.46057,558.40359 368.34396,589.72649 C 341.22735,621.04938 342.91483,667.99953 372.21017,697.29487 C 401.50551,726.59021 448.45566,728.27769 479.77855,701.16108 C 511.10145,674.04447 516.15517,627.33661 491.35723,594.14781 L 528.35723,557.14781 L 528.35723,577.14781 L 542.35723,569.14781 L 542.35723,527.14781 L 500.35723,527.14781 z M 428.35723,584.14781 C 459.83746,584.14781 485.35723,609.66758 485.35723,641.14781 C 485.35723,672.62804 459.83746,698.14781 428.35723,698.14781 C 396.877,698.14781 371.35723,672.62804 371.35723,641.14781 C 371.35723,609.66758 396.877,584.14781 428.35723,584.14781 L 428.35723,584.14781 z"
       id="path18999"
       style="fill:#4169e2;fill-opacity:1;stroke:#4169e2;stroke-width:6;stroke-linejoin:round;stroke-miterlimit:4;stroke-opacity:1" />
  </g>
</svg>
