<?xml version="1.0" encoding="UTF-8" standalone="no"?>
<!DOCTYPE svg PUBLIC "-//W3C//DTD SVG 1.1//EN" "http://www.w3.org/Graphics/SVG/1.1/DTD/svg11.dtd">
<svg width="100%" height="100%" viewBox="0 0 24 24" version="1.1" xmlns="http://www.w3.org/2000/svg" xmlns:xlink="http://www.w3.org/1999/xlink" xml:space="preserve" xmlns:serif="http://www.serif.com/" style="fill-rule:evenodd;clip-rule:evenodd;stroke-linejoin:round;stroke-miterlimit:2;">
    <path d="M12,0C18.627,0 24,5.373 24,12C24,18.627 18.627,24 12,24C5.373,24 0,18.627 0,12C0,5.373 5.373,0 12,0ZM16.655,6.254L9.421,13.7L7.578,11.611C7.257,11.322 6.789,11.283 6.425,11.551C5.984,11.876 5.867,12.533 6.166,13.015L8.81,17.296C8.901,17.444 9.021,17.582 9.16,17.693C9.812,18.213 10.725,18.056 11.201,17.343L11.26,17.253L17.849,7.367C18.075,7.029 18.048,6.554 17.767,6.249C17.459,5.915 16.961,5.917 16.655,6.254Z" style="fill:rgb(0,191,143);fill-rule:nonzero;"/>
</svg>
