<?xml version="1.0" encoding="UTF-8" standalone="no"?>
<!DOCTYPE svg PUBLIC "-//W3C//DTD SVG 1.1//EN" "http://www.w3.org/Graphics/SVG/1.1/DTD/svg11.dtd">
<svg width="100%" height="100%" viewBox="0 0 50 50" version="1.1" xmlns="http://www.w3.org/2000/svg" xmlns:xlink="http://www.w3.org/1999/xlink" xml:space="preserve" xmlns:serif="http://www.serif.com/" style="fill-rule:evenodd;clip-rule:evenodd;stroke-linejoin:round;stroke-miterlimit:2;">
    <g>
        <path d="M3.743,39.765C3.743,39.765 2.429,49.913 2.139,51.155C2.1,51.319 2,51.675 2,51.675C2,51.675 3.687,53.257 6.624,52.317C6.634,52.314 6.645,52.339 6.645,52.339L9.024,41.069" style="fill:rgb(246,190,138);fill-rule:nonzero;"/>
        <path d="M12.31,12.064C12.31,12.064 11.572,7.488 15.34,6.723C19.108,5.959 28.604,12.816 28.604,12.816L28.049,35.317L23.325,39.318C23.325,39.318 14.18,37.851 12.682,34.646C11.184,31.44 11.78,29.898 11.78,29.898L13.296,25.675L10.642,16.908L12.31,12.064Z" style="fill:rgb(242,223,160);fill-rule:nonzero;"/>
        <path d="M12.31,12.064C12.31,12.064 11.572,7.488 15.34,6.723C19.108,5.959 28.604,12.816 28.604,12.816L28.049,35.317L23.325,39.318C23.325,39.318 14.18,37.851 12.682,34.646C11.184,31.44 11.78,29.898 11.78,29.898L13.296,25.675L10.642,16.908L12.31,12.064Z" style="fill:rgb(51,33,30);fill-rule:nonzero;"/>
        <path d="M27.628,69.888C25.854,69.14 25.346,66.646 26.614,65.15C27.824,63.958 29.517,63.086 31.307,63.157C34.049,64.322 35.357,67.768 35.357,67.768C35.357,67.768 36.226,66.467 37.891,62.655C39.961,57.917 40.679,55.422 40.679,55.422C40.679,55.422 36.94,49.374 33.963,44.449C33.553,43.867 33.081,43.524 32.709,43.309C32.803,40.287 33.417,36.469 35.69,34.723C36.448,35.269 37.14,36.06 37.637,37.217C37.999,38.056 37.887,39.165 38.778,40.957C42.003,45.815 46,54.112 46,56.545C46,59.828 41.481,64.401 36.877,70.013C35.983,70.189 35.204,70.199 34.626,70.161C34.401,70.124 34.173,70.1 33.943,70.085C33.713,70.047 33.583,70.013 33.583,70.013C33.583,70.013 33.601,70.036 33.626,70.069C31.683,70.007 29.609,70.488 27.628,69.888" style="fill:rgb(246,190,138);fill-rule:nonzero;"/>
        <path d="M13.691,11.629C13.691,11.629 12.45,8.889 11.517,9.591C10.155,10.616 9.562,12.59 9.562,12.59C9.562,12.59 8.35,15.378 8.509,18.468C8.669,21.557 12.395,23.749 12.26,25.663C12.126,27.578 9.471,29.843 9.507,32.253C9.581,37.15 13.41,37.27 13.41,37.27C13.41,37.27 11.716,36.076 11.382,34.142C11.382,34.142 12.02,35.423 12.887,35.654C12.887,35.654 11.926,33.728 12.307,31.867C12.687,30.006 15.246,28.969 15.256,25.981C15.265,22.992 11.581,13.27 13.691,11.629" style="fill:rgb(69,45,34);fill-rule:nonzero;"/>
        <path d="M7.69,43.595C8.685,41.651 9.632,39.821 9.964,37.69C9.964,39.803 10.163,42.112 9.602,44.181C9.596,44.034 9.588,43.886 9.581,43.739C8.934,43.735 8.298,43.681 7.69,43.595" style="fill:rgb(250,188,68);fill-rule:nonzero;"/>
        <path d="M30.247,59.195L30.219,58.99C30.214,58.947 30.208,58.904 30.203,58.861L30.22,58.99C30.046,57.595 30.11,56.463 30.145,55.391L30.157,54.956C30.16,54.812 30.162,54.669 30.162,54.526L30.163,54.499C30.167,54.432 30.179,54.265 30.198,54.01C30.228,53.759 30.277,53.477 30.339,53.173C30.392,52.921 30.452,52.655 30.52,52.374C30.989,50.446 31.785,47.894 32.064,45.647L32.119,45.134L32.801,46.278C35.591,45.952 37.358,45.03 38.466,44.092C38.704,43.89 38.914,43.687 39.094,43.489C40.008,42.492 40.234,41.622 40.234,41.622C39.242,40.42 37.924,37.795 37.678,37.299L37.638,37.217C37.166,36.07 36.484,35.214 35.717,34.67C35.724,34.665 35.601,34.585 35.607,34.58C34.976,34.127 34.383,33.987 33.732,33.805C32.951,33.57 32.38,33.542 32.38,33.542C32.13,33.512 31.895,33.49 31.682,33.474C31.051,33.427 30.071,32.994 28.899,32.479C27.992,32.08 26.969,31.631 25.904,31.273C23.334,31.317 20.371,31.485 17.989,30.613C17.397,30.751 16.649,30.812 15.877,30.829L15.913,30.687C15.134,30.514 14.036,30.642 12.64,30.704C12.045,30.653 11.662,30.606 11.662,30.606C11.226,30.606 10.815,30.623 10.429,30.653L10.051,30.687C9.751,30.718 9.465,30.757 9.196,30.803C9.195,30.803 4.196,31.064 3.8,35.22C3.717,36.094 3.626,36.908 3.533,37.651L3.477,38.088L3.43,38.443C3.32,39.258 3.213,39.963 3.119,40.535L3.08,40.772L3.05,40.949C2.914,41.753 2.821,42.204 2.821,42.204C2.821,42.204 4.977,43.212 7.69,43.595C8.685,41.651 9.632,39.821 9.964,37.69C9.964,39.63 10.13,41.734 9.723,43.668C9.687,43.84 9.648,44.011 9.602,44.181C9.65,45.164 9.7,46.154 9.771,47.152C9.81,47.697 9.853,48.243 9.909,48.792C10.029,49.52 10.229,50.414 10.436,51.343C10.561,51.905 10.688,52.477 10.803,53.033C10.964,53.808 11.099,54.55 11.166,55.176C11.563,58.914 9.842,70.641 8.993,74.55C12.143,75.451 15.491,75.965 18.824,75.998L19.324,76C23.821,75.979 28.269,75.071 32.139,73.039C31.194,72.994 30.255,72.877 29.34,72.62C27.891,72.085 26.261,71.372 25.718,69.768C25.421,68.598 25.248,67.31 25.995,66.392C26.099,65.945 26.303,65.517 26.614,65.149C27.825,63.958 29.517,63.087 31.307,63.156C30.712,61.6 30.402,60.313 30.247,59.195Z" style="fill:rgb(250,231,168);fill-rule:nonzero;"/>
        <path d="M24.823,24.867C24.823,24.867 24.743,25.524 24.705,26.459C24.684,26.951 24.675,27.521 24.696,28.111C24.746,29.58 24.978,31.179 25.665,32.052C25.665,32.052 20.302,36.561 16.545,32.265C16.545,32.265 16.968,30.803 16.985,30.148C16.989,29.998 16.965,29.842 16.953,29.681C16.879,28.677 16.753,27.474 16.545,26.112C17.245,26.299 23.705,26.132 24.823,24.867" style="fill:rgb(246,190,138);fill-rule:nonzero;"/>
        <path d="M17.99,29.9C17.625,29.872 17.281,29.796 16.954,29.682C16.879,28.677 16.753,27.474 16.545,26.112C17.246,26.3 23.704,26.131 24.823,24.867C24.823,24.867 24.743,25.524 24.705,26.459C23.206,28.644 20.749,30.156 17.99,29.9" style="fill:rgb(34,31,31);fill-rule:nonzero;"/>
        <path d="M11.739,19C11.343,18.7 10.87,19.13 10.616,19.738C10.869,21.477 12.479,23.437 13.699,22.508C13.699,22.339 13.694,22.174 13.685,22.012C13.201,20.798 12.686,19.623 11.739,19" style="fill:rgb(246,190,138);fill-rule:nonzero;"/>
        <path d="M11.739,19C11.343,18.7 10.87,19.13 10.616,19.738C10.869,21.477 12.479,23.437 13.699,22.508C13.699,22.339 13.694,22.174 13.685,22.012C13.201,20.798 12.686,19.623 11.739,19" style="fill:rgb(246,190,138);fill-rule:nonzero;"/>
        <path d="M11.739,19C12.686,19.623 13.201,20.798 13.685,22.012C13.59,20.326 13.055,19.088 13.055,19.088C13.055,19.088 12.305,16.482 10.971,18.068C10.613,18.494 10.524,19.101 10.616,19.738C10.87,19.13 11.343,18.7 11.739,19" style="fill:rgb(246,190,138);fill-rule:nonzero;"/>
        <path d="M28.842,17.99C29.348,17.626 30.091,17.971 30.555,18.528C30.502,20.289 28.573,22.497 26.689,21.786C26.66,21.62 26.638,21.456 26.622,21.295C27.092,20.013 27.614,18.765 28.842,17.99" style="fill:rgb(246,190,138);fill-rule:nonzero;"/>
        <path d="M28.842,17.99C29.348,17.626 30.091,17.971 30.555,18.528C30.502,20.289 28.573,22.497 26.689,21.786C26.66,21.62 26.638,21.456 26.622,21.295C27.092,20.013 27.614,18.765 28.842,17.99" style="fill:rgb(246,190,138);fill-rule:nonzero;"/>
        <path d="M28.842,17.99C27.614,18.765 27.092,20.013 26.622,21.295C26.461,19.612 27.001,18.298 27.001,18.298C27.001,18.298 27.602,15.599 29.762,16.939C30.342,17.299 30.574,17.883 30.555,18.528C30.091,17.971 29.348,17.626 28.842,17.99" style="fill:rgb(246,190,138);fill-rule:nonzero;"/>
        <path d="M11.769,18.169C12.466,23.619 15.307,25.966 20.022,25.635C24.738,25.305 28.287,21.274 27.952,16.634C27.616,11.993 23.52,8.5 18.805,8.83C14.09,9.161 11.058,12.62 11.769,18.169" style="fill:rgb(246,190,138);fill-rule:nonzero;"/>
        <path d="M19.401,17.234C19.401,17.234 10.588,12.577 11.795,19.033C13.32,27.189 19.113,28.488 19.113,28.488C19.113,28.488 27.302,27.09 27.812,18.804C28.353,10.012 19.401,17.234 19.401,17.234" style="fill:rgb(246,190,138);fill-rule:nonzero;"/>
        <path d="M24.744,16.39C24.761,16.389 24.779,16.382 24.795,16.371C24.837,16.34 24.842,16.283 24.814,16.239C24.521,15.786 23.748,15.213 23.021,15.119C21.965,14.983 21.129,15.519 20.833,16.027C20.806,16.072 21.309,15.325 22.467,15.245C22.729,15.226 23.739,15.185 24.66,16.352C24.68,16.379 24.713,16.392 24.744,16.39" style="fill:rgb(123,85,51);fill-rule:nonzero;"/>
        <path d="M22.898,15.814C23.898,15.787 24.735,16.323 24.86,17.036C24.87,17.088 24.876,17.142 24.878,17.196C24.883,17.398 24.83,17.592 24.732,17.769C24.446,18.285 23.769,18.658 22.97,18.68C22.1,18.702 21.354,18.3 21.091,17.725C21.062,17.661 21.038,17.594 21.021,17.525C21.003,17.451 20.992,17.375 20.99,17.297C20.971,16.506 21.825,15.842 22.898,15.814" style="fill:white;fill-rule:nonzero;"/>
        <path d="M24.576,17.202C24.469,17.907 23.801,18.393 23.084,18.287C22.368,18.18 21.874,17.523 21.982,16.819C22.089,16.114 22.757,15.628 23.474,15.734C24.19,15.839 24.684,16.497 24.576,17.202" style="fill:rgb(69,45,34);fill-rule:nonzero;"/>
        <path d="M24.164,17.035C24.095,17.489 23.665,17.802 23.203,17.734C22.741,17.666 22.423,17.242 22.492,16.788C22.562,16.332 22.992,16.02 23.454,16.087C23.916,16.156 24.234,16.58 24.164,17.035" style="fill:rgb(1,1,1);fill-rule:nonzero;"/>
        <path d="M23.251,16.625C23.263,16.785 23.404,16.906 23.567,16.895C23.73,16.883 23.853,16.744 23.841,16.583C23.829,16.423 23.687,16.302 23.525,16.314C23.362,16.325 23.239,16.464 23.251,16.625" style="fill:white;fill-rule:nonzero;"/>
        <path d="M25.362,17.076C25.362,17.076 24.906,15.671 23.526,15.481C21.328,15.178 21.004,17.098 21.004,17.098C21.004,17.098 21.439,15.675 23.174,15.818C24.943,15.963 24.89,17.362 24.89,17.362L25.362,17.076Z" style="fill:rgb(51,33,30);fill-rule:nonzero;"/>
        <path d="M13.148,17.109C13.131,17.109 13.112,17.106 13.095,17.097C13.049,17.072 13.035,17.016 13.057,16.969C13.281,16.48 13.963,15.804 14.669,15.611C15.695,15.328 16.601,15.742 16.967,16.203C17,16.244 16.394,15.576 15.238,15.657C14.974,15.675 13.969,15.775 13.225,17.06C13.209,17.089 13.179,17.106 13.148,17.109" style="fill:rgb(123,85,51);fill-rule:nonzero;"/>
        <path d="M14.892,16.281C15.958,16.158 16.9,16.696 16.994,17.483C17.003,17.561 17.003,17.638 16.996,17.713C16.99,17.783 16.976,17.853 16.956,17.921C16.78,18.526 16.098,19.029 15.234,19.127C14.44,19.218 13.716,18.943 13.358,18.472C13.236,18.31 13.156,18.126 13.132,17.925C13.125,17.871 13.124,17.817 13.125,17.764C13.148,17.041 13.898,16.394 14.892,16.281" style="fill:white;fill-rule:nonzero;"/>
        <path d="M15.455,16.161C16.019,16.366 16.67,16.354 16.814,17.274C16.83,17.393 16.831,17.517 16.812,17.642C16.705,18.347 16.037,18.833 15.32,18.727C14.604,18.622 14.11,17.964 14.218,17.259C14.313,16.639 14.841,16.189 15.455,16.161Z" style="fill:rgb(69,45,34);fill-rule:nonzero;"/>
        <path d="M15.69,16.529C16.152,16.597 16.47,17.02 16.401,17.476C16.331,17.929 15.901,18.242 15.439,18.174C14.978,18.106 14.66,17.682 14.729,17.228C14.798,16.773 15.229,16.46 15.69,16.529" style="fill:rgb(1,1,1);fill-rule:nonzero;"/>
        <path d="M15.653,16.739C15.816,16.727 15.958,16.848 15.969,17.009C15.981,17.169 15.858,17.308 15.695,17.32C15.532,17.331 15.391,17.21 15.379,17.05C15.368,16.89 15.49,16.751 15.653,16.739" style="fill:white;fill-rule:nonzero;"/>
        <path d="M12.634,17.874C12.634,17.874 12.884,16.419 14.222,16.038C16.355,15.432 16.952,17.287 16.952,17.287C16.952,17.287 16.316,15.94 14.619,16.323C12.889,16.714 13.143,18.091 13.143,18.091L12.634,17.874Z" style="fill:rgb(51,33,30);fill-rule:nonzero;"/>
        <path d="M16.778,13.304C16.778,13.304 15.776,12.624 15.356,12.685C12.799,13.058 12.173,14.512 12.029,14.854C12.029,14.854 12.903,13.729 13.963,13.612C15.021,13.496 16.778,13.304 16.778,13.304" style="fill:rgb(109,73,44);fill-rule:nonzero;"/>
        <path d="M20.09,12.916C20.09,12.916 20.984,12.103 21.409,12.105C23.994,12.117 24.822,13.469 25.014,13.787C25.014,13.787 23.986,12.795 22.922,12.828C21.857,12.861 20.09,12.916 20.09,12.916" style="fill:rgb(109,73,44);fill-rule:nonzero;"/>
        <path d="M17.012,17.502C17.012,17.502 16.1,18.135 14.913,18.375C13.725,18.615 13.204,18.244 13.204,18.244L12.621,18.722C12.621,18.722 12.495,19.552 13.892,19.637C15.288,19.721 17.484,18.464 17.618,18.185C17.753,17.907 17.012,17.502 17.012,17.502" style="fill:rgb(246,190,138);fill-rule:nonzero;"/>
        <path d="M20.974,17.291C20.974,17.291 21.97,17.787 23.181,17.854C24.391,17.921 24.852,17.48 24.852,17.48L25.5,17.869C25.5,17.869 25.746,18.672 24.377,18.956C23.008,19.24 20.65,18.31 20.477,18.054C20.302,17.797 20.974,17.291 20.974,17.291" style="fill:rgb(246,190,138);fill-rule:nonzero;"/>
        <path d="M18.942,22.29C19.276,22.314 20.483,21.146 20.509,20.983C20.534,20.821 18.669,20.818 18.669,20.818C18.669,20.818 17.428,21.061 17.422,21.142C17.416,21.224 18.607,22.267 18.942,22.29" style="fill:rgb(34,31,31);fill-rule:nonzero;"/>
        <path d="M19.333,25.807C18.143,25.807 16.807,24.981 16.223,23.667C16.223,23.667 16.97,23.003 17.717,22.908C18.611,22.794 19.389,22.701 20.149,22.66C20.648,22.634 22.732,23.058 22.732,23.058C22.732,23.058 21.725,25.786 19.333,25.807" style="fill:rgb(189,77,52);fill-rule:nonzero;"/>
        <path d="M22.998,22.946C22.998,22.946 21.614,23.629 19.136,23.713C18.645,23.729 16.694,23.695 16.015,23.488C16.015,23.488 16.972,24.418 17.142,24.541C17.293,24.651 17.568,24.929 19.298,24.894C21.388,24.853 22.419,24.108 22.998,22.946" style="fill:rgb(81,39,47);fill-rule:nonzero;"/>
        <g>
            <path d="M16.515,23.511L22.49,23.108C22.49,23.108 22.257,24.189 22.202,24.392C22.202,24.392 19.768,25.441 16.847,24.762L16.515,23.511Z" style="fill:white;fill-rule:nonzero;"/>
        </g>
        <g>
            <path d="M16.515,23.511L22.49,23.108C22.49,23.108 22.257,24.189 22.202,24.392C22.202,24.392 19.768,25.441 16.847,24.762L16.515,23.511Z" style="fill:white;fill-rule:nonzero;"/>
        </g>
        <path d="M13.877,8.034C15.542,7.162 18.414,8.245 20.871,11.344C23.328,14.444 27.451,13.729 27.836,19.144C28.027,21.849 26.062,25.012 25.517,28.488C25.249,30.202 25.094,31.488 25.91,32.063C25.91,32.063 26.774,32.858 27.903,33.341C28.021,33.391 27.779,32.044 27.903,32.106C28.083,32.194 28.215,33.032 28.839,33.65C29.427,34.232 30.072,34.268 30.711,34.268C31.959,34.268 32.271,33.65 32.583,33.032C32.583,33.032 30.711,32.723 30.711,31.179C30.711,29.944 30.711,29.017 31.117,27.977C31.22,26.832 33.442,25.321 32.197,19.657C32.014,18.826 32.066,17.756 31.978,16.501C32.583,16.045 32.924,14.75 32.895,14.501C32.868,14.264 32.271,15.427 31.806,15.047C31.535,13.498 30.915,11.741 29.418,9.853C28.21,8.331 23.347,-1.39 12.395,8.123C12.211,10.682 13.509,11.237 13.509,11.237C13.509,11.237 12.226,8.898 13.877,8.034Z" style="fill:rgb(69,45,34);fill-rule:nonzero;"/>
    </g>
    <g>
        <path d="M20.976,57.011C21.167,56.408 22.221,55.082 22.726,54.826L21.858,54.998C22.363,54.749 22.418,53.976 22.345,53.986L21.268,53.926C22.083,53.05 22.648,51.435 22.781,50.64L22.766,50.61C22.335,50.488 21.81,50.536 21.286,50.331L22.461,49.335C22.462,49.326 22.462,49.317 22.461,49.308C22.179,49.37 21.91,49.477 21.664,49.626C21.985,49.27 22.333,48.937 22.703,48.63C22.741,48.593 22.778,48.554 22.812,48.513C23.43,47.267 24.476,45.757 25.112,45.523C24.872,45.474 24.63,45.441 24.385,45.426C25.248,44.696 25.535,44.429 26.453,44.066C26.453,43.956 25.785,44.001 25.672,44.101C26.101,43.398 26.893,42.991 27.722,43.047C29.929,43.204 32.766,42.481 33.162,42.581C34.676,42.947 36.222,42.763 37.745,42.661C42.386,42.349 44.408,44.676 44.862,45.446C45.251,46.104 45.909,47.058 46.166,48.039C46.222,48.261 46.341,48.461 46.509,48.617C46.879,48.925 47.226,49.258 47.548,49.614C47.291,49.461 47.01,49.35 46.716,49.285L47.934,50.309C47.402,50.516 46.87,50.463 46.436,50.593C46.567,51.37 47.135,53.02 47.949,53.904L46.87,53.964C46.799,53.964 46.857,54.711 47.357,54.975L46.489,54.803C46.994,55.053 48.048,56.385 48.255,56.988C47.246,56.368 46.764,56.378 46.764,56.378L47.584,58.423L21.636,58.423L22.459,56.378C22.459,56.378 21.977,56.39 20.976,57.011Z" style="fill:rgb(45,45,48);fill-rule:nonzero;"/>
        <path d="M34.555,27C34.432,27.271 34.348,27.557 34.302,27.85C34.302,27.85 31.409,26.387 28.918,27.698C27.301,28.537 26.337,28.595 25.73,28.898C25.568,28.981 24.191,30.201 24.282,31.923C24.282,31.923 24.817,31.063 25.187,30.867C25.124,32.207 24.498,33.46 23.46,34.325C24.1,34.531 24.993,34.215 24.993,34.215C24.993,34.215 24.915,34.945 23.48,35.553C25.428,36.377 27.685,35.986 29.233,34.556C30.738,33.213 32.449,29.148 35.76,28.884C35.208,28.445 34.718,27.466 34.555,27Z" style="fill-rule:nonzero;"/>
        <path d="M43.405,44.838C43.465,44.731 44.088,44.589 44.872,44.444C44.872,44.444 44.754,44.412 44.368,43.722C43.062,41.318 43.125,34.315 43.034,33.124C42.943,31.933 41.848,30.485 40.958,29.885C40.141,29.324 38.575,29.332 37.932,29.292C37.832,29.285 37.734,29.262 37.642,29.225C37.034,28.976 35.624,28.298 34.645,28.45C33.573,28.614 31.947,29.447 31.339,30.478C30.731,31.509 27.692,37.837 25.455,39.447C24.812,39.905 24.698,39.883 24.698,39.883C25.339,40.356 25.838,40.75 25.846,40.879C25.609,40.812 25.365,40.767 25.119,40.747C25.372,40.879 26.423,42.852 27.422,44.048C27.351,43.731 27.351,43.402 27.422,43.084C27.884,41.091 31.124,40.134 34.658,40.937C38.191,41.739 40.683,44.003 40.207,45.989C39.997,46.703 39.494,47.298 38.819,47.628C39.268,47.509 39.709,47.365 40.141,47.197C41.5,46.652 43.795,45.04 44.116,45.027C43.886,44.939 43.648,44.876 43.405,44.838Z" style="fill:rgb(45,45,48);fill-rule:nonzero;"/>
        <path d="M31.225,40.685C30.892,40.247 30.469,39.865 29.919,39.825C29.856,39.821 29.802,39.78 29.783,39.721C29.052,39.515 28.333,39.271 27.629,38.988C27.629,39.487 27.924,40.585 27.853,40.605C27.098,40.83 26.423,41.262 25.906,41.851C26.366,42.606 26.871,43.332 27.42,44.026C27.349,43.707 27.349,43.378 27.42,43.059C27.722,41.759 29.225,40.902 31.225,40.685Z" style="fill:rgb(109,72,43);fill-rule:nonzero;"/>
        <path d="M40.603,48.353C40.456,48.289 41.225,48.353 41.69,48.104C40.696,47.96 39.621,46.841 38.754,46.383C37.848,46.383 37.004,46.699 37.546,47.297C39.112,48.196 38.708,49.539 38.378,50.396C37.936,51.403 37.205,52.26 36.275,52.86C36.865,52.673 39.639,52.138 40.149,51.918C40.348,51.831 40.565,51.727 40.787,51.609C41.843,51.059 42.199,49.905 41.495,49.016C41.256,48.727 40.95,48.5 40.603,48.353Z" style="fill:rgb(109,72,43);fill-rule:nonzero;"/>
        <path d="M25.828,45.306C26.239,45.152 26.413,45.244 26.3,45.291C25.493,45.633 25.624,47.638 26.047,48.348C26.282,48.749 26.928,49.442 27.402,49.507C26.469,48.421 26.938,46.323 27.654,44.9C28.118,44.402 27.856,44.083 27.495,43.687C26.9,43.931 26.274,44.751 25.828,45.306Z" style="fill:rgb(109,72,43);fill-rule:nonzero;"/>
        <path d="M26.229,45.884C26.481,45.282 27.238,44.098 27.715,43.993L32.9,45.685L37.541,47.379C39.132,47.297 39.432,48.376 39.619,48.625C39.383,48.508 39.126,48.439 38.862,48.423L39.644,49.25L38.686,49.001C39.932,52.262 32.421,56.134 28.554,57.235C28.537,56.56 28.57,56.164 28.57,56.164C28.57,56.164 28.222,56.164 27.906,56.948C27.43,56.286 24.744,49.405 26.688,46.682C26.797,46.53 26.332,46.741 26.332,46.741C26.431,46.393 26.557,45.937 27.006,45.715C26.74,45.732 26.478,45.789 26.229,45.884Z" style="fill:rgb(229,224,211);fill-rule:nonzero;"/>
        <path d="M40.948,44.001C40.847,43.931 41.748,43.44 42.121,43.254C41.209,42.937 40.35,42.489 39.571,41.923C38.898,41.871 38.234,42.085 38.562,42.67C39.606,43.595 40.456,44.95 40.222,45.964C40.06,46.657 39.558,47.225 38.827,47.636C39.276,47.517 39.718,47.373 40.151,47.205C40.665,46.984 41.163,46.729 41.642,46.442C41.816,45.501 41.748,44.562 40.948,44.001Z" style="fill:rgb(109,72,43);fill-rule:nonzero;"/>
        <path d="M34.65,40.902C31.119,40.1 27.876,41.061 27.414,43.049C27.344,43.367 27.344,43.696 27.414,44.013C27.525,44.145 27.631,44.263 27.727,44.377C28.776,45.526 31.258,48.304 31.563,49.111C31.702,48.723 31.886,48.354 32.113,48.01C32.147,48.418 32.147,48.829 32.113,49.238C32.731,48.642 35.228,48.49 35.896,48.306C36.381,48.174 37.614,47.96 38.809,47.633C39.493,47.296 40,46.687 40.202,45.959C40.676,43.971 38.186,41.709 34.65,40.902Z" style="fill:rgb(229,224,211);fill-rule:nonzero;"/>
        <path d="M39.654,38.196C38.078,37.239 36.905,38.196 36.532,38.388C36.159,38.58 33.962,39.905 33.591,40.114L33.591,40.092L33.591,40.127L33.553,40.157L33.538,40.132L33.526,40.109L33.526,40.077L33.508,40.077C33.301,39.678 32.247,37.665 32.073,37.374C31.899,37.083 31.409,35.722 29.876,35.976C29.457,36.044 27.003,36.891 28.501,40.461C29.301,42.369 29.904,44.233 31.644,44.661C35.225,45.548 36.792,43.807 38.706,42.563C42.514,40.077 40.088,38.46 39.654,38.196Z" style="fill:rgb(123,85,51);fill-rule:nonzero;"/>
        <path d="M37.674,42.71C37.522,42.412 37.316,42.143 37.067,41.918C36.474,41.487 36.038,42.202 35.553,42.416C35.266,42.539 34.421,42.362 33.954,42.698C33.842,42.776 33.763,42.892 33.732,43.024C33.689,43.273 33.874,43.56 33.969,43.772C34.143,44.112 34.247,44.483 34.277,44.863C34.267,45.114 34.237,45.364 34.189,45.61C34.201,45.824 34.24,46.036 34.305,46.241C34.428,46.577 34.627,46.881 34.887,47.13C35.563,47.733 36.602,47.877 37.46,47.681C37.981,47.551 38.443,47.253 38.772,46.834C39.294,46.203 39.329,45.169 38.963,44.414C38.693,43.847 38.108,43.542 37.674,42.71Z" style="fill:rgb(227,120,124);fill-rule:nonzero;"/>
        <path d="M36.988,46.116C37.034,46.228 37.087,46.34 37.137,46.452C37.069,45.833 36.945,45.22 36.769,44.621C36.517,43.802 36.138,42.421 37.273,42.17L37.301,42.17C37.23,42.075 37.145,41.991 37.049,41.921C36.459,41.487 36.022,42.202 35.536,42.419C35.248,42.541 34.403,42.362 33.934,42.695C33.822,42.775 33.743,42.892 33.712,43.024C33.699,43.163 33.724,43.302 33.785,43.428C34.57,43.032 35.659,43.523 36.189,44.345C36.51,44.91 36.778,45.503 36.988,46.116Z" style="fill:rgb(181,74,78);fill-rule:nonzero;"/>
        <path d="M38.951,38.49C38.655,38.376 37.964,40.924 35.319,41.928L31.389,40.787C30.711,39.945 29.677,41.036 29.457,40.144C29.399,39.915 28.701,37.372 28.676,37.947C28.567,39.556 28.234,39.517 29.157,41.074C29.503,41.657 30.073,41.617 31.117,41.094C33.107,43.293 34.262,43.393 35.841,42.7C37.859,41.801 40.403,39.053 38.951,38.49Z" style="fill-rule:nonzero;"/>
        <path d="M42.126,28.602C42.116,28.897 42.067,29.189 41.98,29.471C41.98,29.471 43.223,29.324 44.925,31.547C46.028,32.987 46.875,33.44 47.291,33.971C47.402,34.113 48.068,34.942 47.246,36.462C47.246,36.462 47.13,35.466 46.88,35.129C46.88,35.129 45.453,38.311 46.421,40.289C45.753,40.209 45.082,39.541 45.082,39.541C45.082,39.541 44.9,41.554 45.929,42.705C43.551,42.553 42.59,41.667 41.806,39.83C41.021,37.994 43.112,31.425 40.227,29.793C40.915,29.628 41.78,28.943 42.126,28.602Z" style="fill-rule:nonzero;"/>
        <path d="M42.413,31.098C42.691,31.793 42.355,32.573 42.161,33.241C42.032,33.674 41.917,34.109 41.818,34.544C41.864,32.611 41.649,30.732 40.386,29.89C41.195,30.025 42.096,30.311 42.413,31.098Z" style="fill:rgb(81,81,81);fill-rule:nonzero;"/>
        <path d="M39.42,33.63C39.147,33.953 38.159,33.318 37.846,33.064C37.538,32.791 37.503,32.326 37.767,32.011C38.031,31.695 38.5,31.642 38.83,31.891C39.14,32.145 39.692,33.303 39.42,33.63Z" style="fill:rgb(123,85,51);fill-rule:nonzero;"/>
        <path d="M32.65,31.945C32.713,32.349 33.725,32.194 34.065,32.097C34.432,31.953 34.644,31.571 34.57,31.188C34.563,31.013 34.477,30.849 34.337,30.742C34.196,30.635 34.014,30.595 33.841,30.632C33.5,30.732 32.587,31.539 32.65,31.945Z" style="fill:rgb(123,85,51);fill-rule:nonzero;"/>
        <path d="M33.589,33.326C33.084,32.284 32.214,32.299 31.601,32.695C30.792,33.194 30.711,34.369 30.817,34.741C30.842,34.127 31.1,33.545 31.541,33.111C31.701,32.966 31.899,32.866 32.113,32.825C31.551,33.148 31.25,33.781 31.357,34.414C31.47,35.149 32.093,35.59 32.746,35.398C33.432,35.141 33.836,34.438 33.71,33.724C33.69,33.586 33.649,33.451 33.589,33.326Z" style="fill:rgb(81,81,81);fill-rule:nonzero;"/>
        <path d="M32.215,35.243L32.233,35.247C32.784,35.389 33.374,34.975 33.541,34.329C33.707,33.683 33.39,33.035 32.839,32.893L32.821,32.888C32.27,32.746 31.679,33.161 31.513,33.807C31.347,34.453 31.664,35.101 32.215,35.243Z" style="fill-rule:nonzero;"/>
        <g transform="matrix(0.408693,0,0,0.408693,19.5173,19.7951)">
            <path d="M32.579,34.763C32.524,34.749 32.47,34.731 32.418,34.708C31.916,34.486 31.687,33.89 31.909,33.388C32.107,32.942 32.605,32.702 33.077,32.826C33.132,32.84 33.186,32.859 33.238,32.882C33.739,33.104 33.969,33.699 33.747,34.201C33.549,34.648 33.051,34.887 32.579,34.763" style="fill:white;fill-rule:nonzero;"/>
        </g>
        <path d="M36.633,36.26C35.942,34.805 35.414,32.954 34.09,34.175C33.739,34.524 33.359,34.843 32.953,35.129C32.486,35.468 30.363,36.056 29.553,36.686C27.462,38.313 28.968,41.019 29.634,41.315C30.106,41.527 30.973,40.787 31.082,40.79C31.19,40.792 32.953,42.461 33.894,42.621C35.71,42.87 38.085,40.971 38.497,39.414C38.908,37.857 37.114,37.279 36.633,36.26Z" style="fill:white;fill-rule:nonzero;"/>
        <path d="M29.546,37.775C29.351,38.637 30.209,39.372 31.399,39.629C32.59,39.885 33.692,39.569 33.879,38.707C34.131,37.543 33.283,36.761 32.093,36.505C30.903,36.248 29.77,36.789 29.546,37.775Z" style="fill:rgb(41,41,44);fill-rule:nonzero;"/>
        <path d="M29.583,37.678C29.351,38.53 30.257,40.087 31.15,40.256C31.995,40.416 33.634,39.661 33.866,38.809C34.098,37.957 33.326,37.013 32.143,36.699C30.961,36.385 29.816,36.823 29.583,37.678Z" style="fill-rule:nonzero;"/>
        <path d="M29.785,38.792C29.988,38.948 30.259,38.987 30.499,38.896C30.892,38.774 30.983,38.587 31.003,38.398C31.023,38.209 31.003,37.845 30.839,37.773C30.676,37.7 30.615,37.658 30.514,37.803C30.443,37.919 30.39,38.045 30.358,38.176C30.307,38.313 30.282,38.463 30.141,38.545C30,38.627 29.919,38.602 29.742,38.527C29.642,38.492 29.567,38.41 29.541,38.308C29.585,38.485 29.669,38.65 29.785,38.792Z" style="fill:rgb(85,75,70);fill-rule:nonzero;"/>
        <path d="M33.331,39.477C33.052,39.608 32.728,39.608 32.449,39.477C31.977,39.265 31.894,39.036 31.889,38.811C31.884,38.587 31.979,38.161 32.196,38.096C32.413,38.032 32.494,37.997 32.595,38.184C32.667,38.334 32.713,38.495 32.731,38.66C32.769,38.829 32.776,39.011 32.943,39.13C33.109,39.25 33.175,39.218 33.41,39.16C33.556,39.119 33.688,39.037 33.788,38.924C33.668,39.132 33.514,39.319 33.331,39.477Z" style="fill:rgb(85,75,70);fill-rule:nonzero;"/>
        <path d="M29.778,38.692C29.981,38.86 30.264,38.9 30.507,38.794C30.9,38.664 30.991,38.483 31.011,38.296C31.031,38.109 31.011,37.78 30.845,37.67C30.746,37.608 30.622,37.556 30.522,37.7C30.45,37.816 30.397,37.942 30.365,38.074C30.315,38.211 30.29,38.361 30.146,38.443C30.006,38.514 29.838,38.508 29.705,38.425C29.525,38.35 29.538,38.303 29.538,38.303C29.587,38.449 29.669,38.582 29.778,38.692Z" style="fill:rgb(41,41,44);fill-rule:nonzero;"/>
        <path d="M33.382,39.35C33.095,39.515 32.74,39.515 32.454,39.35C31.982,39.135 31.899,38.909 31.894,38.684C31.889,38.46 31.995,38.057 32.204,37.972C32.33,37.92 32.517,37.892 32.602,38.059C32.671,38.207 32.716,38.364 32.736,38.525C32.776,38.694 32.784,38.876 32.948,38.996C33.112,39.105 33.321,39.124 33.503,39.048C33.627,39.025 33.739,38.961 33.821,38.866C33.703,39.05 33.554,39.214 33.382,39.35Z" style="fill:rgb(41,41,44);fill-rule:nonzero;"/>
        <path d="M31.649,38.187C31.902,38.234 32.165,38.181 32.381,38.039C32.839,37.738 32.968,37.113 32.667,36.654C32.517,36.427 32.281,36.27 32.014,36.22C31.76,36.173 31.498,36.226 31.282,36.368C30.823,36.669 30.694,37.295 30.996,37.753C31.145,37.98 31.381,38.137 31.649,38.187Z" style="fill:white;fill-rule:nonzero;"/>
        <path d="M37.463,34.272C38.524,33.674 39.382,34.133 39.79,34.771C40.343,35.595 39.79,36.617 39.498,36.871C39.797,36.344 39.846,35.714 39.632,35.149C39.54,34.937 39.394,34.752 39.208,34.614C39.646,35.176 39.565,35.977 39.023,36.443C38.481,36.908 37.666,36.876 37.163,36.369C36.661,35.863 36.645,35.057 37.127,34.531C37.224,34.427 37.337,34.34 37.463,34.272Z" style="fill:rgb(81,81,81);fill-rule:nonzero;"/>
        <path d="M36.948,35.436C36.948,36.079 37.484,36.609 38.136,36.609C38.788,36.609 39.324,36.079 39.324,35.436C39.324,34.792 38.788,34.262 38.136,34.262C37.484,34.262 36.948,34.792 36.948,35.436Z" style="fill-rule:nonzero;"/>
        <g transform="matrix(0.501944,0,0,0.501944,19.0858,17.3264)">
            <path d="M37.534,35.216C37.534,35.765 37.986,36.216 38.534,36.216C39.083,36.216 39.534,35.765 39.534,35.216C39.534,34.668 39.083,34.216 38.534,34.216C37.986,34.216 37.534,34.668 37.534,35.216Z" style="fill:white;fill-rule:nonzero;"/>
        </g>
    </g>
</svg>
