<?xml version="1.0" encoding="utf-8" standalone="no"?><svg xmlns:android="http://schemas.android.com/apk/res/android" height="36.0" width="36.0" xmlns="http://www.w3.org/2000/svg">
    <path d="M4.5,16.7316a11.9717,11.6691 0,1 0,23.9434 0a11.9717,11.6691 0,1 0,-23.9434 0z" fill="#dbed5c" fill-opacity="1.0" fill-rule="nonZero" stroke="#00000000" stroke-width="1.0"/>
    <path d="M10.4325,14.4318C10.2432,14.9443 10.0027,15.4598 9.7488,15.9929C9.1282,17.3146 8.4865,18.6759 8.5857,20.1517C8.7435,22.5102 10.5738,24.738 13.0488,25.553C13.7639,25.7715 14.5102,25.8761 15.2593,25.8629C17.6922,25.8629 20.6947,24.9817 22.3883,23.2768C24.8528,20.8038 26.8099,14.7226 26.9151,11.1761C26.6069,10.57 26.2438,9.992 25.8301,9.4492C26.1412,12.6256 24.3178,19.8918 21.6444,22.5748C19.4985,24.7277 15.2518,25.2182 13.3794,24.5985C11.3297,23.9156 9.7473,22.0212 9.6226,20.093C9.5414,18.8741 10.1019,17.6832 10.694,16.4217C10.945,15.8871 11.2049,15.3335 11.4108,14.7813C12.2118,12.6123 12.622,11.3744 12.4447,8.8676C12.4038,8.1279 12.1364,6.6718 11.6843,6.0772C11.3462,6.2035 11.0156,6.343 10.694,6.4987C11.1223,6.9667 11.3767,8.3094 11.4063,8.9366C11.5701,11.2363 11.2049,12.3436 10.4325,14.4318Z" fill="#a2c23f" fill-opacity="1.0" fill-rule="nonZero" stroke="#00000000" stroke-width="1.0"/>
    <path d="M26.0181,22.8542C26.5589,22.132 27.3244,21.0471 27.8897,20.7288C28.5803,20.3408 29.3763,20.0209 30.1524,20.5989C30.7636,21.0471 31.3518,21.9673 31.1226,22.7053C30.762,23.8694 29.7873,24.5234 29.8346,25.1759C29.882,25.8284 30.8369,26.7977 31.1226,27.4328C31.4587,28.1771 31.8178,29.2478 31.0095,29.8939C30.2013,30.5401 29.2586,30.6145 28.4687,30.2107C27.9294,29.9319 27.1212,29.1939 26.5879,28.8296C26.4061,28.7045 18.9594,28.5731 18.7057,28.8391C18.4277,29.1242 16.909,30.6921 16.2444,30.841C15.5798,30.9899 14.7471,31.0532 13.9954,30.3659C13.2437,29.6785 13.0878,28.5493 13.3842,28.1977C13.6806,27.8461 14.7761,26.6298 14.6783,25.99C14.5805,25.3502 13.6852,24.9621 13.1719,24.1513C12.6585,23.3404 12.4278,22.1272 12.9335,21.5571C13.4392,20.9869 14.5485,20.4849 15.3521,20.7225C15.7799,20.8507 16.964,22.189 17.3536,22.6499C17.6393,22.9872 25.9493,22.9476 26.0181,22.8542Z" fill="#ce8e51" fill-opacity="1.0" fill-rule="nonZero" stroke="#00000000" stroke-width="1.0"/>
    <path d="M25.1509,26.625a1,1 0,1 0,2 0a1,1 0,1 0,-2 0z" fill="#a36a3b" fill-opacity="1.0" fill-rule="nonZero" stroke="#00000000" stroke-width="1.0"/>
    <path d="M21.0755,26.625a1,1 0,1 0,2 0a1,1 0,1 0,-2 0z" fill="#a36a3b" fill-opacity="1.0" fill-rule="nonZero" stroke="#00000000" stroke-width="1.0"/>
    <path d="M17.5094,26.1176a1,1 0,1 0,2 0a1,1 0,1 0,-2 0z" fill="#a36a3b" fill-opacity="1.0" fill-rule="nonZero" stroke="#00000000" stroke-width="1.0"/>
</svg>