<?xml version="1.0" encoding="utf-8" standalone="no"?><svg xmlns:android="http://schemas.android.com/apk/res/android" height="60.0" width="60.0" xmlns="http://www.w3.org/2000/svg">
    <path d="M32.4325,13.7615C33.442,9.8462 36.6561,7.3322 39.5611,8.1565C42.466,8.9808 44.0731,12.793 43.0635,16.7083C42.054,20.6235 38.84,23.1376 35.9144,22.3133C32.9888,21.489 31.4024,17.6768 32.4119,13.7615L32.4325,13.7615ZM21.4306,8.1565C24.3562,7.3322 27.6115,9.8462 28.5798,13.7615C29.5481,17.6768 28.0235,21.489 25.0979,22.3133C22.1723,23.1376 18.9171,20.6235 17.9488,16.7083C16.9804,12.793 18.505,8.9602 21.4306,8.1565ZM8.3067,26.3522C7.2971,22.4369 8.8629,18.6041 11.7885,17.8004C14.7141,16.9968 17.9694,19.4696 18.9377,23.3848C19.906,27.3001 18.3814,31.133 15.4558,31.916C12.5302,32.6991 9.3368,30.2675 8.3067,26.3522ZM41.1681,52.976L40.7972,52.976C38.9059,53.061 37.0497,52.4446 35.5847,51.2451C34.113,50.1237 32.2779,49.5877 30.434,49.7408C28.5898,49.5837 26.7533,50.1201 25.2833,51.2451C23.7114,52.5138 21.7138,53.1331 19.7,52.976C12.3242,52.7906 11.2116,49.0814 11.2116,45.6194C11.2116,40.5914 13.9312,39.4374 16.5272,38.4071C18.2541,37.8408 19.8026,36.8319 21.0186,35.481C22.2254,33.8697 23.0816,32.0236 23.5321,30.0614C24.4592,26.991 25.3245,24.0649 30.2692,24.0649L30.7225,24.0649C35.6671,24.0649 36.5325,26.991 37.4596,30.0614C37.9039,32.0219 38.753,33.8679 39.9525,35.481C41.176,36.8327 42.7314,37.8414 44.4645,38.4071C47.0811,39.4581 49.7594,40.5914 49.7594,45.6194C49.7594,49.0814 48.7499,52.7906 41.1681,52.976ZM52.685,26.3522C51.6549,30.2675 48.4615,32.7609 45.5359,31.9572C42.6103,31.1536 41.0445,27.3207 42.0334,23.3848C43.0223,19.449 46.1539,16.9762 49.1826,17.8004C52.2112,18.6247 53.6946,22.4369 52.685,26.3522Z" fill="#353f5b" fill-opacity="1.0" fill-rule="nonZero" stroke="#00000000" stroke-width="1.0"/>
    <path d="M32.9675,31.38L32.967,35.492L37.08,35.4925L37.08,40.4275L32.967,40.427L32.9675,44.54L28.0325,44.54L28.032,40.427L23.92,40.4275L23.92,35.4925L28.032,35.492L28.0325,31.38L32.9675,31.38Z" fill="#ffffff" fill-opacity="1.0" fill-rule="evenOdd" stroke="#00000000" stroke-width="1.0"/>
</svg>