<?xml version="1.0" encoding="UTF-8" standalone="no"?>
<!DOCTYPE svg PUBLIC "-//W3C//DTD SVG 1.1//EN" "http://www.w3.org/Graphics/SVG/1.1/DTD/svg11.dtd">
<svg width="100%" height="100%" viewBox="0 0 60 60" version="1.1" xmlns="http://www.w3.org/2000/svg" xmlns:xlink="http://www.w3.org/1999/xlink" xml:space="preserve" xmlns:serif="http://www.serif.com/" style="fill-rule:evenodd;clip-rule:evenodd;stroke-linejoin:round;stroke-miterlimit:2;">
    <path d="M32.432,13.762C33.442,9.846 36.656,7.332 39.561,8.156C42.466,8.981 44.073,12.793 43.064,16.708C42.054,20.624 38.84,23.138 35.914,22.313C32.989,21.489 31.402,17.677 32.412,13.762L32.432,13.762ZM21.431,8.156C24.356,7.332 27.612,9.846 28.58,13.762C29.548,17.677 28.023,21.489 25.098,22.313C22.172,23.138 18.917,20.624 17.949,16.708C16.98,12.793 18.505,8.96 21.431,8.156ZM8.307,26.352C7.297,22.437 8.863,18.604 11.789,17.8C14.714,16.997 17.969,19.47 18.938,23.385C19.906,27.3 18.381,31.133 15.456,31.916C12.53,32.699 9.337,30.267 8.307,26.352ZM41.168,52.976L40.797,52.976C38.906,53.061 37.05,52.445 35.585,51.245C34.113,50.124 32.278,49.588 30.434,49.741C28.59,49.584 26.753,50.12 25.283,51.245C23.711,52.514 21.714,53.133 19.7,52.976C12.324,52.791 11.212,49.081 11.212,45.619C11.212,40.591 13.931,39.437 16.527,38.407C18.254,37.841 19.803,36.832 21.019,35.481C22.225,33.87 23.082,32.024 23.532,30.061C24.459,26.991 25.325,24.065 30.269,24.065L30.723,24.065C35.667,24.065 36.533,26.991 37.46,30.061C37.904,32.022 38.753,33.868 39.953,35.481C41.176,36.833 42.731,37.841 44.465,38.407C47.081,39.458 49.759,40.591 49.759,45.619C49.759,49.081 48.75,52.791 41.168,52.976ZM52.685,26.352C51.655,30.267 48.462,32.761 45.536,31.957C42.61,31.154 41.045,27.321 42.033,23.385C43.022,19.449 46.154,16.976 49.183,17.8C52.211,18.625 53.695,22.437 52.685,26.352Z" style="fill:rgb(53,63,91);fill-rule:nonzero;"/>
    <path d="M32.968,31.38L32.967,35.492L37.08,35.493L37.08,40.428L32.967,40.427L32.968,44.54L28.033,44.54L28.032,40.427L23.92,40.428L23.92,35.493L28.032,35.492L28.033,31.38L32.968,31.38Z" style="fill:white;fill-rule:nonzero;"/>
</svg>
