<?xml version="1.0" encoding="UTF-8" standalone="no"?>
<!DOCTYPE svg PUBLIC "-//W3C//DTD SVG 1.1//EN" "http://www.w3.org/Graphics/SVG/1.1/DTD/svg11.dtd">
<svg width="100%" height="100%" viewBox="0 0 230 141" version="1.1" xmlns="http://www.w3.org/2000/svg" xmlns:xlink="http://www.w3.org/1999/xlink" xml:space="preserve" xmlns:serif="http://www.serif.com/" style="fill-rule:evenodd;clip-rule:evenodd;stroke-linejoin:round;stroke-miterlimit:2;">
    <path d="M229.412,78.819C225.746,51.648 201.184,33.999 179.736,20.351L178.763,19.737C152.084,3.021 122.252,-4.399 91.224,2.663C62.393,9.226 36.248,26.722 17.932,49.702C6.178,64.451 -3.135,83.363 0.996,101.834C5.335,121.238 23.919,134.853 43.228,138.73C78.469,145.806 111.877,127.057 146.35,123.301C162.382,121.555 178.318,123.904 194.212,122.617C205.822,121.676 217.974,117.306 224.54,107.585C230.094,99.364 230.743,88.682 229.412,78.819Z" style="fill:rgb(209,209,209);fill-rule:nonzero;"/>
    <path d="M159.258,23.143C160.791,21.385 163.376,20.52 165.534,21.272C167.487,21.952 168.517,23.647 169.232,25.603C169.371,25.979 169.493,26.359 169.62,26.739C169.693,26.926 169.756,27.115 169.823,27.302C169.843,27.356 169.863,27.413 169.886,27.469C170.021,27.758 170.167,28.032 170.317,28.312C170.36,28.377 170.407,28.439 170.458,28.497L170.493,28.54L170.505,28.54C170.556,28.565 170.605,28.593 170.653,28.625L170.699,28.64C170.729,28.652 170.76,28.662 170.79,28.671C170.928,28.666 171.456,28.597 170.954,28.701L170.986,28.694L171.19,28.651L171.424,28.593C171.794,28.49 172.143,28.332 172.501,28.193L173.185,27.878C174.833,27.128 176.687,26.541 178.306,27.71C178.942,28.167 179.292,28.753 179.774,29.37C179.626,29.179 179.843,29.407 179.93,29.514C180.017,29.546 180.227,29.672 180.132,29.651C180.239,29.688 180.349,29.72 180.458,29.749L180.661,29.796L180.75,29.809L181.11,29.835C181.628,29.857 182.13,29.857 182.64,29.857L189.739,29.909L194.006,29.939C196.045,31.414 198.066,32.934 200.047,34.506C193.997,34.895 187.93,34.223 181.859,34.438C180.266,34.482 178.677,34.619 177.098,34.846C175.434,35.122 173.8,35.574 172.135,35.828C170.39,36.093 168.683,36.093 166.983,35.528C166.232,35.268 165.501,34.942 164.756,34.659C164.386,34.518 164.013,34.388 163.633,34.283C163.507,34.249 163.382,34.218 163.254,34.19C163.244,34.188 162.86,34.131 162.874,34.131C161.447,34.049 160.192,34.598 158.623,34.918C156.799,35.289 155.085,35.129 153.263,34.759C151.573,34.416 150.273,34.149 148.567,34.166C146.81,34.183 145.048,34.409 143.316,34.568C141.583,34.727 139.47,34.318 139.065,32.134C138.674,30.066 140.105,28.319 141.812,27.645C143.15,27.115 144.755,27.332 146.063,27.745C147.37,28.158 148.585,28.914 149.943,29.151C149.915,29.14 150.267,29.175 150.299,29.175C150.332,29.175 150.658,29.147 150.658,29.16C150.743,29.14 150.828,29.116 150.911,29.086C151.008,29.021 151.109,28.962 151.212,28.908L151.261,28.858C151.356,28.758 151.447,28.649 151.536,28.54C151.536,28.517 151.728,28.251 151.738,28.236C151.824,28.104 151.904,27.969 151.987,27.836C152.86,26.441 153.915,25.157 155.534,24.853C156.353,24.697 157.197,24.851 157.922,25.288C158.262,24.503 158.713,23.78 159.258,23.143ZM53.258,20.143C54.791,18.385 57.376,17.52 59.534,18.272C61.487,18.952 62.517,20.647 63.232,22.603C63.371,22.979 63.493,23.359 63.62,23.739C63.693,23.926 63.756,24.115 63.823,24.302C63.843,24.356 63.863,24.413 63.886,24.469C64.021,24.758 64.167,25.032 64.317,25.312C64.36,25.377 64.407,25.439 64.458,25.497L64.493,25.54L64.505,25.54C64.556,25.565 64.605,25.593 64.653,25.625L64.699,25.64C64.729,25.652 64.76,25.662 64.79,25.671C64.928,25.666 65.456,25.597 64.954,25.701L64.986,25.694L65.19,25.651L65.424,25.593C65.794,25.49 66.143,25.332 66.501,25.193L67.185,24.878C68.833,24.128 70.687,23.541 72.306,24.71C72.942,25.167 73.292,25.753 73.774,26.37L73.742,26.328C73.664,26.22 73.851,26.417 73.93,26.514C74.017,26.546 74.227,26.672 74.132,26.651C74.239,26.688 74.349,26.72 74.458,26.749L74.66,26.796L74.75,26.809L75.11,26.835C75.628,26.857 76.13,26.857 76.64,26.857L83.739,26.909L98.174,27.011C99.101,27.034 99.872,27.783 99.985,28.771C100.097,29.671 99.56,30.814 98.645,30.975C91.075,32.294 83.47,31.168 75.859,31.438C74.266,31.482 72.677,31.619 71.098,31.846C69.434,32.122 67.8,32.574 66.135,32.828C64.39,33.093 62.683,33.093 60.983,32.528C60.232,32.268 59.501,31.942 58.756,31.659C58.386,31.518 58.013,31.388 57.633,31.283C57.507,31.249 57.382,31.218 57.254,31.19C57.244,31.188 56.86,31.131 56.874,31.131C55.447,31.049 54.192,31.598 52.623,31.918C50.799,32.289 49.085,32.129 47.263,31.759C45.573,31.416 44.273,31.149 42.567,31.166C40.81,31.183 39.048,31.409 37.316,31.568C36.706,31.624 36.048,31.609 35.435,31.472C37.729,29.48 40.091,27.564 42.514,25.728C42.979,25.912 43.451,26.065 43.943,26.151C43.915,26.14 44.267,26.175 44.299,26.175C44.332,26.175 44.658,26.147 44.658,26.16C44.743,26.14 44.828,26.116 44.911,26.086C45.008,26.021 45.109,25.962 45.212,25.908L45.261,25.858C45.356,25.758 45.447,25.649 45.536,25.54C45.536,25.517 45.728,25.251 45.739,25.236C45.824,25.104 45.904,24.969 45.987,24.836C46.86,23.441 47.915,22.157 49.534,21.853C50.353,21.697 51.197,21.851 51.922,22.288C52.262,21.503 52.713,20.78 53.258,20.143Z" style="fill:white;fill-rule:nonzero;"/>
    <path d="M90.285,62.314L90.285,64.152L90.92,64.152L90.92,62.314L91.28,62.314L91.28,64.152L92.99,64.152L92.99,65.103L92.383,65.103L92.383,67.297L96.3,67.297L96.3,65.103L118.07,65.103L118.07,67.297L123.617,67.297L123.617,70.44L122.071,70.44L122.072,127.931C108.735,131.276 95.456,135.439 82.063,137.984L82.063,70.44L81.07,70.44L81.07,67.297L87.525,67.297L87.525,65.103L86.864,65.103L86.864,64.152L89.927,64.152L89.927,62.314L90.285,62.314Z" style="fill:rgb(170,170,170);fill-rule:nonzero;"/>
    <path d="M118.07,65.103L118.07,67.297L123.617,67.297L123.617,70.44L122.071,70.44L122.071,127.931C116.962,129.213 111.862,130.614 106.761,131.998L106.761,65.103L118.07,65.103Z" style="fill:rgb(209,209,209);fill-rule:nonzero;"/>
    <rect x="81.07" y="69.315" width="42.547" height="1" style="fill:rgb(237,237,237);fill-rule:nonzero;"/>
    <rect x="81.07" y="68.306" width="42.547" height="1" style="fill:rgb(237,237,237);fill-rule:nonzero;"/>
    <path d="M85.319,74.925L85.319,83.133L89.017,83.133L89.017,74.925L85.319,74.925ZM88.353,82.42L85.978,82.42L85.978,79.381L88.349,79.381L88.353,82.42ZM88.353,75.629L88.353,78.67L85.978,78.67L85.978,75.622L88.353,75.629ZM91.941,74.925L91.941,83.133L95.639,83.133L95.639,74.925L91.941,74.925ZM94.976,82.42L92.61,82.42L92.61,79.381L94.984,79.381L94.976,82.42ZM94.976,75.629L94.976,78.67L92.61,78.67L92.61,75.622L94.976,75.629ZM98.563,78.67L98.563,83.133L102.257,83.133L102.257,74.925L98.559,74.925L98.563,78.67ZM101.598,82.42L99.224,82.42L99.224,79.381L101.598,79.381L101.598,82.42ZM101.598,75.629L101.598,78.67L99.224,78.67L99.224,75.622L101.598,75.629ZM112.909,74.918L109.211,74.918L109.211,83.127L112.909,83.127L112.909,74.918ZM112.245,75.629L112.245,78.67L109.874,78.67L109.874,75.622L112.245,75.629ZM112.245,82.42L109.874,82.42L109.874,79.381L112.245,79.381L112.245,82.42ZM116.221,74.918L116.221,83.127L119.919,83.127L119.919,74.918L116.221,74.918ZM119.257,75.622L119.257,78.664L116.884,78.664L116.884,75.622L119.257,75.622ZM116.884,82.414L116.884,79.381L119.257,79.381L119.257,82.42L116.884,82.414ZM85.319,86.699L85.319,94.908L89.017,94.908L89.017,86.699L85.319,86.699ZM88.353,94.199L85.978,94.199L85.978,91.156L88.349,91.156L88.353,94.199ZM88.353,87.408L88.353,90.447L85.978,90.447L85.978,87.404L88.353,87.408ZM91.941,86.699L91.941,94.908L95.639,94.908L95.639,86.699L91.941,86.699ZM94.976,94.199L92.61,94.199L92.61,91.156L94.984,91.156L94.976,94.199ZM94.976,87.408L94.976,90.447L92.61,90.447L92.61,87.404L94.976,87.408ZM98.563,90.443L98.563,94.908L102.257,94.908L102.257,86.699L98.559,86.699L98.563,90.443ZM101.598,94.199L99.224,94.199L99.224,91.156L101.598,91.156L101.598,94.199ZM101.598,87.408L101.598,90.447L99.224,90.447L99.224,87.404L101.598,87.408ZM112.909,86.691L109.211,86.691L109.211,94.899L112.909,94.899L112.909,86.691ZM112.245,87.404L112.245,90.443L109.874,90.443L109.874,87.404L112.245,87.404ZM112.245,94.195L109.874,94.195L109.874,91.156L112.245,91.156L112.245,94.195ZM116.221,86.691L116.221,94.899L119.919,94.899L119.919,86.691L116.221,86.691ZM119.257,87.404L119.257,90.443L116.884,90.443L116.884,87.404L119.257,87.404ZM116.884,94.199L116.884,91.156L119.257,91.156L119.257,94.199L116.884,94.199ZM85.319,98.474L85.319,106.683L89.017,106.683L89.017,98.474L85.319,98.474ZM88.353,105.97L85.978,105.97L85.978,102.931L88.349,102.931L88.353,105.97ZM88.353,99.178L88.353,102.218L85.978,102.218L85.978,99.178L88.353,99.178ZM91.941,98.474L91.941,106.683L95.639,106.683L95.639,98.474L91.941,98.474ZM94.976,105.97L92.61,105.97L92.61,102.931L94.984,102.931L94.976,105.97ZM94.976,99.178L94.976,102.218L92.61,102.218L92.61,99.178L94.976,99.178ZM98.563,102.218L98.563,106.683L102.257,106.683L102.257,98.474L98.559,98.474L98.563,102.218ZM101.598,105.97L99.224,105.97L99.224,102.931L101.598,102.931L101.598,105.97ZM101.598,99.178L101.598,102.218L99.224,102.218L99.224,99.178L101.598,99.178ZM112.909,98.466L109.211,98.466L109.211,106.674L112.909,106.674L112.909,98.466ZM112.245,99.178L112.245,102.218L109.874,102.218L109.874,99.178L112.245,99.178ZM112.245,105.97L109.874,105.97L109.874,102.931L112.245,102.931L112.245,105.97ZM116.221,98.466L116.221,106.674L119.919,106.674L119.919,98.466L116.221,98.466ZM119.257,99.178L119.257,102.218L116.884,102.218L116.884,99.178L119.257,99.178ZM116.884,105.97L116.884,102.931L119.257,102.931L119.257,105.97L116.884,105.97ZM85.319,110.247L85.319,118.455L89.017,118.455L89.017,110.247L85.319,110.247ZM88.353,117.745L85.978,117.745L85.978,114.705L88.349,114.705L88.353,117.745ZM88.353,110.953L88.353,113.992L85.978,113.992L85.978,110.953L88.353,110.953ZM91.941,110.247L91.941,118.455L95.639,118.455L95.639,110.247L91.941,110.247ZM94.976,117.745L92.61,117.745L92.61,114.705L94.984,114.705L94.976,117.745ZM94.976,110.953L94.976,113.992L92.61,113.992L92.61,110.953L94.976,110.953ZM98.563,113.992L98.563,118.455L102.257,118.455L102.257,110.247L98.559,110.247L98.563,113.992ZM101.598,117.745L99.224,117.745L99.224,114.705L101.598,114.705L101.598,117.745ZM101.598,110.953L101.598,113.992L99.224,113.992L99.224,110.953L101.598,110.953ZM112.909,110.24L109.211,110.24L109.211,118.449L112.909,118.449L112.909,110.24ZM112.245,110.953L112.245,113.992L109.874,113.992L109.874,110.953L112.245,110.953ZM112.245,117.745L109.874,117.745L109.874,114.705L112.245,114.705L112.245,117.745ZM116.221,110.24L116.221,118.449L119.919,118.449L119.919,110.24L116.221,110.24ZM119.257,110.953L119.257,113.992L116.884,113.992L116.884,110.953L119.257,110.953ZM116.884,117.745L116.884,114.705L119.257,114.705L119.257,117.745L116.884,117.745ZM85.319,122.022L85.319,130.23L89.017,130.23L89.017,122.022L85.319,122.022ZM88.353,129.519L85.978,129.519L85.978,126.478L88.349,126.478L88.353,129.519ZM88.353,122.726L88.353,125.767L85.978,125.767L85.978,122.726L88.353,122.726ZM91.941,122.022L91.941,130.23L95.639,130.23L95.639,122.022L91.941,122.022ZM94.976,129.519L92.61,129.519L92.61,126.478L94.984,126.478L94.976,129.519ZM94.976,122.726L94.976,125.767L92.61,125.767L92.61,122.726L94.976,122.726ZM98.563,125.767L98.563,130.23L102.257,130.23L102.257,122.022L98.559,122.022L98.563,125.767ZM101.598,129.519L99.224,129.519L99.224,126.478L101.598,126.478L101.598,129.519ZM101.598,122.726L101.598,125.767L99.224,125.767L99.224,122.726L101.598,122.726ZM112.909,122.015L109.211,122.015L109.211,130.224L112.909,130.224L112.909,122.015ZM112.245,122.726L112.245,125.767L109.874,125.767L109.874,122.726L112.245,122.726ZM112.245,129.519L109.874,129.519L109.874,126.478L112.245,126.478L112.245,129.519ZM119.919,122.015L119.918,128.478C119.698,128.535 119.478,128.592 119.257,128.649L119.257,126.478L116.884,126.478L116.884,129.269C116.663,129.327 116.442,129.386 116.221,129.444L116.221,122.015L119.919,122.015ZM119.257,122.726L116.884,122.726L116.884,125.767L119.257,125.767L119.257,122.726Z" style="fill:rgb(237,237,237);fill-rule:nonzero;"/>
    <path d="M193.285,62.314L193.285,64.152L193.92,64.152L193.92,62.314L194.28,62.314L194.28,64.152L195.99,64.152L195.99,65.103L195.383,65.103L195.383,67.297L199.3,67.297L199.3,65.103L221.07,65.103L221.07,67.297L226.464,67.297C226.516,67.433 226.567,67.57 226.618,67.706L226.617,70.44L225.071,70.44L225.072,106.766C224.9,107.041 224.722,107.314 224.54,107.584C217.974,117.305 205.822,121.676 194.212,122.617C191.164,122.863 188.114,122.976 185.062,123.01L185.063,70.44L184.07,70.44L184.07,67.297L190.525,67.297L190.525,65.103L189.864,65.103L189.864,64.152L192.927,64.152L192.927,62.314L193.285,62.314Z" style="fill:rgb(170,170,170);fill-rule:nonzero;"/>
    <path d="M221.07,65.103L221.07,67.297L226.463,67.297C226.515,67.432 226.566,67.568 226.617,67.704L226.617,70.44L225.071,70.44L225.072,106.766C224.9,107.041 224.722,107.314 224.54,107.584C220.95,112.9 215.689,116.615 209.761,119.045L209.761,65.103L221.07,65.103Z" style="fill:rgb(209,209,209);fill-rule:nonzero;"/>
    <rect x="184.07" y="69.315" width="42.547" height="1" style="fill:rgb(237,237,237);fill-rule:nonzero;"/>
    <rect x="184.07" y="68.306" width="42.547" height="1" style="fill:rgb(237,237,237);fill-rule:nonzero;"/>
    <path d="M188.319,74.925L188.319,83.133L192.017,83.133L192.017,74.925L188.319,74.925ZM191.353,82.42L188.978,82.42L188.978,79.381L191.349,79.381L191.353,82.42ZM191.353,75.629L191.353,78.67L188.978,78.67L188.978,75.622L191.353,75.629ZM194.941,74.925L194.941,83.133L198.639,83.133L198.639,74.925L194.941,74.925ZM197.976,82.42L195.61,82.42L195.61,79.381L197.984,79.381L197.976,82.42ZM197.976,75.629L197.976,78.67L195.61,78.67L195.61,75.622L197.976,75.629ZM201.563,78.67L201.563,83.133L205.257,83.133L205.257,74.925L201.559,74.925L201.563,78.67ZM204.598,82.42L202.224,82.42L202.224,79.381L204.598,79.381L204.598,82.42ZM204.598,75.629L204.598,78.67L202.224,78.67L202.224,75.622L204.598,75.629ZM215.909,74.918L212.211,74.918L212.211,83.127L215.909,83.127L215.909,74.918ZM215.245,75.629L215.245,78.67L212.874,78.67L212.874,75.622L215.245,75.629ZM215.245,82.42L212.874,82.42L212.874,79.381L215.245,79.381L215.245,82.42ZM219.221,74.918L219.221,83.127L222.919,83.127L222.919,74.918L219.221,74.918ZM222.257,75.622L222.257,78.664L219.884,78.664L219.884,75.622L222.257,75.622ZM219.884,82.414L219.884,79.381L222.257,79.381L222.257,82.42L219.884,82.414ZM188.319,86.699L188.319,94.908L192.017,94.908L192.017,86.699L188.319,86.699ZM191.353,94.199L188.978,94.199L188.978,91.156L191.349,91.156L191.353,94.199ZM191.353,87.408L191.353,90.447L188.978,90.447L188.978,87.404L191.353,87.408ZM194.941,86.699L194.941,94.908L198.639,94.908L198.639,86.699L194.941,86.699ZM197.976,94.199L195.61,94.199L195.61,91.156L197.984,91.156L197.976,94.199ZM197.976,87.408L197.976,90.447L195.61,90.447L195.61,87.404L197.976,87.408ZM201.563,90.443L201.563,94.908L205.257,94.908L205.257,86.699L201.559,86.699L201.563,90.443ZM204.598,94.199L202.224,94.199L202.224,91.156L204.598,91.156L204.598,94.199ZM204.598,87.408L204.598,90.447L202.224,90.447L202.224,87.404L204.598,87.408ZM215.909,86.691L212.211,86.691L212.211,94.899L215.909,94.899L215.909,86.691ZM215.245,87.404L215.245,90.443L212.874,90.443L212.874,87.404L215.245,87.404ZM215.245,94.195L212.874,94.195L212.874,91.156L215.245,91.156L215.245,94.195ZM219.221,86.691L219.221,94.899L222.919,94.899L222.919,86.691L219.221,86.691ZM222.257,87.404L222.257,90.443L219.884,90.443L219.884,87.404L222.257,87.404ZM219.884,94.199L219.884,91.156L222.257,91.156L222.257,94.199L219.884,94.199ZM188.319,98.474L188.319,106.683L192.017,106.683L192.017,98.474L188.319,98.474ZM191.353,105.97L188.978,105.97L188.978,102.931L191.349,102.931L191.353,105.97ZM191.353,99.178L191.353,102.218L188.978,102.218L188.978,99.178L191.353,99.178ZM194.941,98.474L194.941,106.683L198.639,106.683L198.639,98.474L194.941,98.474ZM197.976,105.97L195.61,105.97L195.61,102.931L197.984,102.931L197.976,105.97ZM197.976,99.178L197.976,102.218L195.61,102.218L195.61,99.178L197.976,99.178ZM201.563,102.218L201.563,106.683L205.257,106.683L205.257,98.474L201.559,98.474L201.563,102.218ZM204.598,105.97L202.224,105.97L202.224,102.931L204.598,102.931L204.598,105.97ZM204.598,99.178L204.598,102.218L202.224,102.218L202.224,99.178L204.598,99.178ZM215.909,98.466L212.211,98.466L212.211,106.674L215.909,106.674L215.909,98.466ZM215.245,99.178L215.245,102.218L212.874,102.218L212.874,99.178L215.245,99.178ZM215.245,105.97L212.874,105.97L212.874,102.931L215.245,102.931L215.245,105.97ZM219.221,98.466L219.221,106.674L222.919,106.674L222.919,98.466L219.221,98.466ZM222.257,99.178L222.257,102.218L219.884,102.218L219.884,99.178L222.257,99.178ZM219.884,105.97L219.884,102.931L222.257,102.931L222.257,105.97L219.884,105.97ZM188.319,110.247L188.319,118.455L192.017,118.455L192.017,110.247L188.319,110.247ZM191.353,117.745L188.978,117.745L188.978,114.705L191.349,114.705L191.353,117.745ZM191.353,110.953L191.353,113.992L188.978,113.992L188.978,110.953L191.353,110.953ZM194.941,110.247L194.941,118.455L198.639,118.455L198.639,110.247L194.941,110.247ZM197.976,117.745L195.61,117.745L195.61,114.705L197.984,114.705L197.976,117.745ZM197.976,110.953L197.976,113.992L195.61,113.992L195.61,110.953L197.976,110.953ZM201.563,113.992L201.563,118.455L205.257,118.455L205.257,110.247L201.559,110.247L201.563,113.992ZM204.598,117.745L202.224,117.745L202.224,114.705L204.598,114.705L204.598,117.745ZM204.598,110.953L204.598,113.992L202.224,113.992L202.224,110.953L204.598,110.953ZM215.909,110.24L215.908,115.873C215.689,116.014 215.468,116.152 215.245,116.288L215.245,114.705L212.874,114.705L212.874,117.615C212.654,117.728 212.433,117.838 212.211,117.947L212.211,110.24L215.909,110.24ZM215.245,110.953L212.874,110.953L212.874,113.992L215.245,113.992L215.245,110.953ZM222.497,110.241C222.287,110.483 222.072,110.72 221.855,110.954L219.884,110.953L219.885,112.874C219.667,113.068 219.446,113.258 219.222,113.446L219.221,110.24L222.497,110.241ZM192.017,122.022L192.016,122.772C191.795,122.785 191.575,122.798 191.354,122.81L191.353,122.726L188.978,122.726L188.978,122.919C188.758,122.927 188.539,122.935 188.319,122.942L188.319,122.022L192.017,122.022ZM198.639,122.022L198.639,122.09C197.406,122.285 196.171,122.438 194.94,122.553L194.941,122.022L198.639,122.022Z" style="fill:rgb(237,237,237);fill-rule:nonzero;"/>
    <path d="M151.524,30.764L160.936,41.05L160.936,42.489L170.281,42.489L170.281,45.366L172.53,45.366L172.531,122.845C163.827,122.615 155.103,122.348 146.35,123.301C141.168,123.866 136.01,124.769 130.867,125.873L130.866,45.366L132.902,45.366L132.902,42.489L142.113,42.489L142.113,41.05L151.524,30.764Z" style="fill:rgb(170,170,170);fill-rule:nonzero;"/>
    <path d="M151.524,30.764L160.936,41.05L160.936,42.489L170.281,42.489L170.281,45.366L172.53,45.366L172.53,122.845C165.542,122.66 158.542,122.452 151.524,122.87L151.524,30.764Z" style="fill:rgb(209,209,209);fill-rule:nonzero;"/>
    <path d="M134.654,55.268L134.654,125.099C134.159,125.195 133.664,125.293 133.169,125.393L133.169,55.268L134.654,55.268ZM137.625,55.268L137.624,124.551C137.129,124.638 136.634,124.727 136.139,124.818L136.14,55.268L137.625,55.268ZM140.593,55.268L140.593,124.062C140.098,124.139 139.603,124.218 139.108,124.299L139.108,55.268L140.593,55.268ZM143.564,55.268L143.564,123.637C143.069,123.702 142.574,123.77 142.079,123.841L142.078,55.268L143.564,55.268ZM146.534,55.268L146.534,123.282L146.35,123.301C145.916,123.348 145.482,123.398 145.049,123.45L145.049,55.268L146.534,55.268ZM149.502,55.268L149.502,123.008C149.007,123.047 148.512,123.089 148.017,123.134L148.017,55.268L149.502,55.268ZM155.433,55.268L155.434,122.698C154.939,122.712 154.444,122.729 153.948,122.749L153.948,55.268L155.433,55.268ZM158.404,55.268L158.403,122.638C157.908,122.644 157.413,122.651 156.918,122.661L156.918,55.268L158.404,55.268ZM161.372,55.268L161.372,122.628C160.877,122.626 160.382,122.626 159.887,122.628L159.887,55.268L161.372,55.268ZM164.342,55.268L164.343,122.657C163.848,122.649 163.353,122.643 162.858,122.638L162.857,55.268L164.342,55.268ZM167.313,55.268L167.313,122.713C166.818,122.702 166.323,122.691 165.828,122.682L165.828,55.268L167.313,55.268ZM170.281,55.268L170.281,122.786C169.786,122.773 169.291,122.76 168.796,122.748L168.796,55.268L170.281,55.268Z" style="fill:rgb(237,237,237);fill-rule:nonzero;"/>
    <rect x="130.866" y="53.02" width="41.664" height="1" style="fill:rgb(237,237,237);fill-rule:nonzero;"/>
    <rect x="130.866" y="50.89" width="41.664" height="1" style="fill:rgb(237,237,237);fill-rule:nonzero;"/>
    <rect x="130.866" y="49.136" width="41.664" height="1" style="fill:rgb(237,237,237);fill-rule:nonzero;"/>
    <path d="M80.166,30.764L89.578,41.05L89.578,42.489L98.923,42.489L98.923,45.366L101.174,45.366L101.174,133.501C87.385,137.159 73.561,140.329 59.51,140.311L59.51,45.366L61.544,45.366L61.544,42.489L70.755,42.489L70.755,41.05L80.166,30.764Z" style="fill:rgb(170,170,170);fill-rule:nonzero;"/>
    <path d="M80.166,30.764L89.578,41.05L89.578,42.489L98.923,42.489L98.923,45.366L101.174,45.366L101.173,133.502C94.188,135.355 87.194,137.082 80.166,138.334L80.166,30.764Z" style="fill:rgb(209,209,209);fill-rule:nonzero;"/>
    <path d="M63.296,55.268L63.297,140.241C62.802,140.259 62.307,140.275 61.811,140.286L61.811,55.268L63.296,55.268ZM66.267,55.268L66.267,140.084C65.772,140.117 65.277,140.147 64.782,140.173L64.782,55.268L66.267,55.268ZM69.237,55.268L69.238,139.844C68.743,139.891 68.247,139.934 67.752,139.974L67.752,55.268L69.237,55.268ZM72.206,55.268L72.206,139.527C71.711,139.586 71.216,139.642 70.721,139.695L70.72,55.268L72.206,55.268ZM75.176,55.268L75.176,139.137C74.681,139.208 74.186,139.276 73.69,139.341L73.691,55.268L75.176,55.268ZM78.146,55.268L78.146,138.68C77.651,138.761 77.156,138.84 76.66,138.917L76.661,55.268L78.146,55.268ZM84.075,55.268L84.076,137.59C83.58,137.69 83.085,137.788 82.59,137.884L82.59,55.268L84.075,55.268ZM87.046,55.268L87.046,136.967C86.551,137.074 86.056,137.18 85.561,137.284L85.56,55.268L87.046,55.268ZM90.014,55.268L90.014,136.3C89.519,136.414 89.024,136.527 88.529,136.638L88.529,55.268L90.014,55.268ZM92.984,55.268L92.985,135.594C92.49,135.715 91.995,135.834 91.5,135.951L91.499,55.268L92.984,55.268ZM95.955,55.268L95.955,134.857C95.46,134.982 94.965,135.106 94.47,135.229L94.47,55.268L95.955,55.268ZM98.925,55.268L98.925,134.093C98.43,134.222 97.935,134.351 97.44,134.478L97.44,55.268L98.925,55.268Z" style="fill:rgb(237,237,237);fill-rule:nonzero;"/>
    <rect x="59.508" y="53.02" width="41.664" height="1" style="fill:rgb(237,237,237);fill-rule:nonzero;"/>
    <rect x="59.508" y="50.89" width="41.664" height="1" style="fill:rgb(237,237,237);fill-rule:nonzero;"/>
    <rect x="59.508" y="49.136" width="41.664" height="1" style="fill:rgb(237,237,237);fill-rule:nonzero;"/>
    <path d="M44.432,28.012L44.432,29.63L54.786,29.63L54.786,32.864L57.073,32.864L57.073,140.276C52.485,140.147 47.872,139.663 43.227,138.73C30.693,136.213 18.464,129.592 10.239,119.948L10.239,60.653C12.577,56.815 15.188,53.145 17.932,49.702C24.28,41.738 31.568,34.432 39.583,28.011L44.432,28.012Z" style="fill:rgb(209,209,209);fill-rule:nonzero;"/>
    <path d="M33.658,33.037L33.658,135.984C24.654,132.599 16.343,127.106 10.239,119.948L10.239,60.653C12.577,56.815 15.188,53.145 17.932,49.702C22.678,43.748 27.95,38.161 33.658,33.037Z" style="fill:rgb(170,170,170);fill-rule:nonzero;"/>
    <rect x="52.815" y="43.993" width="1.668" height="4.659" style="fill:rgb(237,237,237);fill-rule:nonzero;"/>
    <rect x="49.48" y="43.993" width="1.668" height="4.659" style="fill:rgb(237,237,237);fill-rule:nonzero;"/>
    <rect x="46.14" y="43.993" width="1.668" height="4.659" style="fill:rgb(237,237,237);fill-rule:nonzero;"/>
    <rect x="42.802" y="43.993" width="1.668" height="4.659" style="fill:rgb(237,237,237);fill-rule:nonzero;"/>
    <rect x="39.464" y="43.993" width="1.668" height="4.659" style="fill:rgb(237,237,237);fill-rule:nonzero;"/>
    <rect x="36.126" y="43.993" width="1.668" height="4.659" style="fill:rgb(237,237,237);fill-rule:nonzero;"/>
    <rect x="52.815" y="52.534" width="1.668" height="4.659" style="fill:rgb(237,237,237);fill-rule:nonzero;"/>
    <rect x="49.48" y="52.534" width="1.668" height="4.659" style="fill:rgb(237,237,237);fill-rule:nonzero;"/>
    <rect x="46.14" y="52.534" width="1.668" height="4.659" style="fill:rgb(237,237,237);fill-rule:nonzero;"/>
    <rect x="42.802" y="52.534" width="1.668" height="4.659" style="fill:rgb(237,237,237);fill-rule:nonzero;"/>
    <rect x="39.464" y="52.534" width="1.668" height="4.659" style="fill:rgb(237,237,237);fill-rule:nonzero;"/>
    <rect x="36.126" y="52.534" width="1.668" height="4.659" style="fill:rgb(237,237,237);fill-rule:nonzero;"/>
    <rect x="52.815" y="61.073" width="1.668" height="4.659" style="fill:rgb(237,237,237);fill-rule:nonzero;"/>
    <rect x="49.48" y="61.073" width="1.668" height="4.659" style="fill:rgb(237,237,237);fill-rule:nonzero;"/>
    <rect x="46.14" y="61.073" width="1.668" height="4.659" style="fill:rgb(237,237,237);fill-rule:nonzero;"/>
    <rect x="42.802" y="61.073" width="1.668" height="4.659" style="fill:rgb(237,237,237);fill-rule:nonzero;"/>
    <rect x="39.464" y="61.073" width="1.668" height="4.659" style="fill:rgb(237,237,237);fill-rule:nonzero;"/>
    <rect x="36.126" y="61.073" width="1.668" height="4.659" style="fill:rgb(237,237,237);fill-rule:nonzero;"/>
    <rect x="52.815" y="69.614" width="1.668" height="4.659" style="fill:rgb(237,237,237);fill-rule:nonzero;"/>
    <rect x="49.48" y="69.614" width="1.668" height="4.659" style="fill:rgb(237,237,237);fill-rule:nonzero;"/>
    <rect x="46.14" y="69.614" width="1.668" height="4.659" style="fill:rgb(237,237,237);fill-rule:nonzero;"/>
    <rect x="42.802" y="69.614" width="1.668" height="4.659" style="fill:rgb(237,237,237);fill-rule:nonzero;"/>
    <rect x="39.464" y="69.614" width="1.668" height="4.659" style="fill:rgb(237,237,237);fill-rule:nonzero;"/>
    <rect x="36.126" y="69.614" width="1.668" height="4.659" style="fill:rgb(237,237,237);fill-rule:nonzero;"/>
    <rect x="52.815" y="78.154" width="1.668" height="4.659" style="fill:rgb(237,237,237);fill-rule:nonzero;"/>
    <rect x="49.48" y="78.154" width="1.668" height="4.659" style="fill:rgb(237,237,237);fill-rule:nonzero;"/>
    <rect x="46.14" y="78.154" width="1.668" height="4.659" style="fill:rgb(237,237,237);fill-rule:nonzero;"/>
    <rect x="42.802" y="78.154" width="1.668" height="4.659" style="fill:rgb(237,237,237);fill-rule:nonzero;"/>
    <rect x="39.464" y="78.154" width="1.668" height="4.659" style="fill:rgb(237,237,237);fill-rule:nonzero;"/>
    <rect x="36.126" y="78.154" width="1.668" height="4.659" style="fill:rgb(237,237,237);fill-rule:nonzero;"/>
    <rect x="52.815" y="86.693" width="1.668" height="4.659" style="fill:rgb(237,237,237);fill-rule:nonzero;"/>
    <rect x="49.48" y="86.693" width="1.668" height="4.659" style="fill:rgb(237,237,237);fill-rule:nonzero;"/>
    <rect x="46.14" y="86.693" width="1.668" height="4.659" style="fill:rgb(237,237,237);fill-rule:nonzero;"/>
    <rect x="42.802" y="86.693" width="1.668" height="4.659" style="fill:rgb(237,237,237);fill-rule:nonzero;"/>
    <rect x="39.464" y="86.693" width="1.668" height="4.659" style="fill:rgb(237,237,237);fill-rule:nonzero;"/>
    <rect x="36.126" y="86.693" width="1.668" height="4.659" style="fill:rgb(237,237,237);fill-rule:nonzero;"/>
    <rect x="52.815" y="95.233" width="1.668" height="4.659" style="fill:rgb(237,237,237);fill-rule:nonzero;"/>
    <rect x="49.48" y="95.233" width="1.668" height="4.659" style="fill:rgb(237,237,237);fill-rule:nonzero;"/>
    <rect x="46.14" y="95.233" width="1.668" height="4.659" style="fill:rgb(237,237,237);fill-rule:nonzero;"/>
    <rect x="42.802" y="95.233" width="1.668" height="4.659" style="fill:rgb(237,237,237);fill-rule:nonzero;"/>
    <rect x="39.464" y="95.233" width="1.668" height="4.659" style="fill:rgb(237,237,237);fill-rule:nonzero;"/>
    <rect x="36.126" y="95.233" width="1.668" height="4.659" style="fill:rgb(237,237,237);fill-rule:nonzero;"/>
    <rect x="52.815" y="103.773" width="1.668" height="4.659" style="fill:rgb(237,237,237);fill-rule:nonzero;"/>
    <rect x="49.48" y="103.773" width="1.668" height="4.659" style="fill:rgb(237,237,237);fill-rule:nonzero;"/>
    <rect x="46.14" y="103.773" width="1.668" height="4.659" style="fill:rgb(237,237,237);fill-rule:nonzero;"/>
    <rect x="42.802" y="103.773" width="1.668" height="4.659" style="fill:rgb(237,237,237);fill-rule:nonzero;"/>
    <rect x="39.464" y="103.773" width="1.668" height="4.659" style="fill:rgb(237,237,237);fill-rule:nonzero;"/>
    <rect x="36.126" y="103.773" width="1.668" height="4.659" style="fill:rgb(237,237,237);fill-rule:nonzero;"/>
    <rect x="52.815" y="112.313" width="1.668" height="4.659" style="fill:rgb(237,237,237);fill-rule:nonzero;"/>
    <rect x="49.48" y="112.313" width="1.668" height="4.659" style="fill:rgb(237,237,237);fill-rule:nonzero;"/>
    <rect x="46.14" y="112.313" width="1.668" height="4.659" style="fill:rgb(237,237,237);fill-rule:nonzero;"/>
    <rect x="42.802" y="112.313" width="1.668" height="4.659" style="fill:rgb(237,237,237);fill-rule:nonzero;"/>
    <rect x="39.464" y="112.313" width="1.668" height="4.659" style="fill:rgb(237,237,237);fill-rule:nonzero;"/>
    <rect x="36.126" y="112.313" width="1.668" height="4.659" style="fill:rgb(237,237,237);fill-rule:nonzero;"/>
    <rect x="52.815" y="120.853" width="1.668" height="4.659" style="fill:rgb(237,237,237);fill-rule:nonzero;"/>
    <rect x="49.48" y="120.853" width="1.668" height="4.659" style="fill:rgb(237,237,237);fill-rule:nonzero;"/>
    <rect x="46.14" y="120.853" width="1.668" height="4.659" style="fill:rgb(237,237,237);fill-rule:nonzero;"/>
    <rect x="42.802" y="120.853" width="1.668" height="4.659" style="fill:rgb(237,237,237);fill-rule:nonzero;"/>
    <rect x="39.464" y="120.853" width="1.668" height="4.659" style="fill:rgb(237,237,237);fill-rule:nonzero;"/>
    <rect x="36.126" y="120.853" width="1.668" height="4.659" style="fill:rgb(237,237,237);fill-rule:nonzero;"/>
    <rect x="52.815" y="129.394" width="1.668" height="4.659" style="fill:rgb(237,237,237);fill-rule:nonzero;"/>
    <rect x="49.48" y="129.394" width="1.668" height="4.659" style="fill:rgb(237,237,237);fill-rule:nonzero;"/>
    <rect x="46.14" y="129.394" width="1.668" height="4.659" style="fill:rgb(237,237,237);fill-rule:nonzero;"/>
    <rect x="42.802" y="129.394" width="1.668" height="4.659" style="fill:rgb(237,237,237);fill-rule:nonzero;"/>
    <rect x="39.464" y="129.394" width="1.668" height="4.659" style="fill:rgb(237,237,237);fill-rule:nonzero;"/>
    <rect x="36.126" y="129.394" width="1.668" height="4.659" style="fill:rgb(237,237,237);fill-rule:nonzero;"/>
    <path d="M54.485,137.933L54.485,140.165C53.929,140.133 53.373,140.095 52.816,140.052L52.817,137.933L54.485,137.933ZM51.147,137.933L51.147,139.906C50.591,139.851 50.035,139.791 49.479,139.725L49.478,137.933L51.147,137.933ZM47.808,137.933L47.809,139.509C47.253,139.432 46.697,139.348 46.14,139.258L46.14,137.933L47.808,137.933ZM44.47,137.933L44.47,138.969C44.056,138.893 43.642,138.813 43.227,138.73C43.085,138.702 42.943,138.673 42.802,138.643L42.802,137.933L44.47,137.933Z" style="fill:rgb(237,237,237);fill-rule:nonzero;"/>
    <rect x="29.461" y="43.993" width="1.668" height="4.659" style="fill:rgb(237,237,237);fill-rule:nonzero;"/>
    <rect x="26.123" y="43.993" width="1.668" height="4.659" style="fill:rgb(237,237,237);fill-rule:nonzero;"/>
    <rect x="22.785" y="43.993" width="1.668" height="4.659" style="fill:rgb(237,237,237);fill-rule:nonzero;"/>
    <path d="M21.115,45.856L21.115,48.652L19.447,48.652L19.447,47.836C19.996,47.171 20.552,46.511 21.115,45.856Z" style="fill:rgb(237,237,237);fill-rule:nonzero;"/>
    <rect x="29.461" y="52.534" width="1.668" height="4.659" style="fill:rgb(237,237,237);fill-rule:nonzero;"/>
    <rect x="26.123" y="52.534" width="1.668" height="4.659" style="fill:rgb(237,237,237);fill-rule:nonzero;"/>
    <rect x="22.785" y="52.534" width="1.668" height="4.659" style="fill:rgb(237,237,237);fill-rule:nonzero;"/>
    <rect x="19.445" y="52.534" width="1.668" height="4.659" style="fill:rgb(237,237,237);fill-rule:nonzero;"/>
    <rect x="16.11" y="52.534" width="1.668" height="4.659" style="fill:rgb(237,237,237);fill-rule:nonzero;"/>
    <path d="M14.438,54.319L14.438,57.191L12.77,57.191L12.77,56.714C13.316,55.907 13.873,55.108 14.438,54.319Z" style="fill:rgb(237,237,237);fill-rule:nonzero;"/>
    <rect x="29.461" y="61.073" width="1.668" height="4.659" style="fill:rgb(237,237,237);fill-rule:nonzero;"/>
    <rect x="26.123" y="61.073" width="1.668" height="4.659" style="fill:rgb(237,237,237);fill-rule:nonzero;"/>
    <rect x="22.785" y="61.073" width="1.668" height="4.659" style="fill:rgb(237,237,237);fill-rule:nonzero;"/>
    <rect x="19.445" y="61.073" width="1.668" height="4.659" style="fill:rgb(237,237,237);fill-rule:nonzero;"/>
    <rect x="16.11" y="61.073" width="1.668" height="4.659" style="fill:rgb(237,237,237);fill-rule:nonzero;"/>
    <rect x="12.77" y="61.073" width="1.668" height="4.659" style="fill:rgb(237,237,237);fill-rule:nonzero;"/>
    <rect x="29.461" y="69.614" width="1.668" height="4.659" style="fill:rgb(237,237,237);fill-rule:nonzero;"/>
    <rect x="26.123" y="69.614" width="1.668" height="4.659" style="fill:rgb(237,237,237);fill-rule:nonzero;"/>
    <rect x="22.785" y="69.614" width="1.668" height="4.659" style="fill:rgb(237,237,237);fill-rule:nonzero;"/>
    <rect x="19.445" y="69.614" width="1.668" height="4.659" style="fill:rgb(237,237,237);fill-rule:nonzero;"/>
    <rect x="16.11" y="69.614" width="1.668" height="4.659" style="fill:rgb(237,237,237);fill-rule:nonzero;"/>
    <rect x="12.77" y="69.614" width="1.668" height="4.659" style="fill:rgb(237,237,237);fill-rule:nonzero;"/>
    <rect x="29.461" y="78.154" width="1.668" height="4.659" style="fill:rgb(237,237,237);fill-rule:nonzero;"/>
    <rect x="26.123" y="78.154" width="1.668" height="4.659" style="fill:rgb(237,237,237);fill-rule:nonzero;"/>
    <rect x="22.785" y="78.154" width="1.668" height="4.659" style="fill:rgb(237,237,237);fill-rule:nonzero;"/>
    <rect x="19.445" y="78.154" width="1.668" height="4.659" style="fill:rgb(237,237,237);fill-rule:nonzero;"/>
    <rect x="16.11" y="78.154" width="1.668" height="4.659" style="fill:rgb(237,237,237);fill-rule:nonzero;"/>
    <rect x="12.77" y="78.154" width="1.668" height="4.659" style="fill:rgb(237,237,237);fill-rule:nonzero;"/>
    <rect x="29.461" y="86.693" width="1.668" height="4.659" style="fill:rgb(237,237,237);fill-rule:nonzero;"/>
    <rect x="26.123" y="86.693" width="1.668" height="4.659" style="fill:rgb(237,237,237);fill-rule:nonzero;"/>
    <rect x="22.785" y="86.693" width="1.668" height="4.659" style="fill:rgb(237,237,237);fill-rule:nonzero;"/>
    <rect x="19.445" y="86.693" width="1.668" height="4.659" style="fill:rgb(237,237,237);fill-rule:nonzero;"/>
    <rect x="16.11" y="86.693" width="1.668" height="4.659" style="fill:rgb(237,237,237);fill-rule:nonzero;"/>
    <rect x="12.77" y="86.693" width="1.668" height="4.659" style="fill:rgb(237,237,237);fill-rule:nonzero;"/>
    <rect x="29.461" y="95.233" width="1.668" height="4.659" style="fill:rgb(237,237,237);fill-rule:nonzero;"/>
    <rect x="26.123" y="95.233" width="1.668" height="4.659" style="fill:rgb(237,237,237);fill-rule:nonzero;"/>
    <rect x="22.785" y="95.233" width="1.668" height="4.659" style="fill:rgb(237,237,237);fill-rule:nonzero;"/>
    <rect x="19.445" y="95.233" width="1.668" height="4.659" style="fill:rgb(237,237,237);fill-rule:nonzero;"/>
    <rect x="16.11" y="95.233" width="1.668" height="4.659" style="fill:rgb(237,237,237);fill-rule:nonzero;"/>
    <rect x="12.77" y="95.233" width="1.668" height="4.659" style="fill:rgb(237,237,237);fill-rule:nonzero;"/>
    <rect x="29.461" y="103.773" width="1.668" height="4.659" style="fill:rgb(237,237,237);fill-rule:nonzero;"/>
    <rect x="26.123" y="103.773" width="1.668" height="4.659" style="fill:rgb(237,237,237);fill-rule:nonzero;"/>
    <rect x="22.785" y="103.773" width="1.668" height="4.659" style="fill:rgb(237,237,237);fill-rule:nonzero;"/>
    <rect x="19.445" y="103.773" width="1.668" height="4.659" style="fill:rgb(237,237,237);fill-rule:nonzero;"/>
    <rect x="16.11" y="103.773" width="1.668" height="4.659" style="fill:rgb(237,237,237);fill-rule:nonzero;"/>
    <rect x="12.77" y="103.773" width="1.668" height="4.659" style="fill:rgb(237,237,237);fill-rule:nonzero;"/>
    <rect x="29.461" y="112.313" width="1.668" height="4.659" style="fill:rgb(237,237,237);fill-rule:nonzero;"/>
    <rect x="26.123" y="112.313" width="1.668" height="4.659" style="fill:rgb(237,237,237);fill-rule:nonzero;"/>
    <rect x="22.785" y="112.313" width="1.668" height="4.659" style="fill:rgb(237,237,237);fill-rule:nonzero;"/>
    <rect x="19.445" y="112.313" width="1.668" height="4.659" style="fill:rgb(237,237,237);fill-rule:nonzero;"/>
    <rect x="16.11" y="112.313" width="1.668" height="4.659" style="fill:rgb(237,237,237);fill-rule:nonzero;"/>
    <rect x="12.77" y="112.313" width="1.668" height="4.659" style="fill:rgb(237,237,237);fill-rule:nonzero;"/>
    <rect x="29.461" y="120.853" width="1.668" height="4.659" style="fill:rgb(237,237,237);fill-rule:nonzero;"/>
    <rect x="26.123" y="120.853" width="1.668" height="4.659" style="fill:rgb(237,237,237);fill-rule:nonzero;"/>
    <rect x="22.785" y="120.853" width="1.668" height="4.659" style="fill:rgb(237,237,237);fill-rule:nonzero;"/>
    <rect x="19.445" y="120.853" width="1.668" height="4.659" style="fill:rgb(237,237,237);fill-rule:nonzero;"/>
    <rect x="16.11" y="120.853" width="1.668" height="4.659" style="fill:rgb(237,237,237);fill-rule:nonzero;"/>
    <path d="M14.438,120.854L14.438,124.303C13.869,123.779 13.312,123.243 12.77,122.697L12.77,120.854L14.438,120.854Z" style="fill:rgb(237,237,237);fill-rule:nonzero;"/>
    <rect x="29.461" y="129.394" width="1.668" height="4.659" style="fill:rgb(237,237,237);fill-rule:nonzero;"/>
    <path d="M27.791,129.395L27.791,133.428C27.23,133.149 26.674,132.86 26.122,132.564L26.123,129.395L27.791,129.395ZM24.453,129.395L24.452,131.633C23.89,131.308 23.334,130.974 22.783,130.631L22.785,129.395L24.453,129.395ZM57.071,41.48L57.071,42.48L24.111,42.48C24.418,42.145 24.727,41.812 25.037,41.48L57.071,41.48ZM57.071,39.087L57.071,40.087L26.36,40.087C26.682,39.752 27.006,39.418 27.332,39.086L57.071,39.087ZM57.071,37.115L57.071,38.115L28.296,38.115C28.631,37.78 28.968,37.446 29.307,37.115L57.071,37.115Z" style="fill:rgb(237,237,237);fill-rule:nonzero;"/>
    <path d="M123.198,85.6C130.031,86.136 139.36,110.138 144.061,123.573C133.233,124.956 122.504,127.734 111.784,130.635L102.313,104.695L102.314,104.641C102.339,103.472 103.059,84.021 123.198,85.6Z" style="fill:rgb(0,153,114);fill-rule:nonzero;"/>
    <path d="M54.854,119.261C54.854,119.261 71.887,111.701 75.887,122.439L70.807,139.686C64.165,140.401 57.484,140.558 50.742,139.865C52.575,129.971 54.854,119.261 54.854,119.261Z" style="fill:rgb(207,145,108);fill-rule:nonzero;"/>
    <path d="M107.596,84.097C111.363,84.425 116.065,85.103 118.487,85.424C128.083,86.704 133.932,105.608 133.826,121.465C133.817,122.708 133.798,123.978 133.769,125.271C113.533,129.294 93.544,136.809 73.207,139.403C73.074,135.327 72.924,132.094 72.924,132.094L71.611,139.596C70.532,139.72 69.452,139.829 68.371,139.922L48.791,130.654C48.791,130.654 58.36,94.509 62.183,92.038C66.006,89.568 69.277,88.354 76.748,87.142C86.174,85.616 97.306,84.008 99.43,84.555C102.058,84.528 104.678,82.221 107.596,84.097Z" style="fill:rgb(0,191,143);fill-rule:nonzero;"/>
    <path d="M86.774,67.783L86.23,86.641C96.491,92.038 110.472,93.576 112.25,86.641L111.795,71.022L86.774,67.783Z" style="fill:rgb(207,145,108);fill-rule:nonzero;"/>
    <path d="M86.775,67.794C86.775,67.794 86.685,71.316 86.754,76.018C93.891,81.997 102.94,85.212 112.25,85.077L111.796,71.034L86.775,67.794Z" style="fill:rgb(35,31,32);fill-rule:nonzero;"/>
    <path d="M85.777,22.282C85.777,22.282 85.648,18.677 91.366,18.083C97.084,17.488 111.369,18.255 115.459,20.407C119.549,22.56 122.736,30.228 122.64,31.664C103.182,22.266 91.873,29.752 91.873,29.752L86.978,33.021L84.593,50.384L81.101,48.261C81.101,48.261 77.202,20.19 85.777,22.282Z" style="fill:rgb(25,16,14);fill-rule:nonzero;"/>
    <path d="M122.921,49.27C118.425,70.785 113.166,75.171 101.837,74.422C90.507,73.672 83.546,61.987 84.508,47.445C85.47,32.903 86.781,20.493 103.041,21.568C119.301,22.643 127.074,29.395 122.921,49.27Z" style="fill:rgb(207,145,108);fill-rule:nonzero;"/>
    <path d="M104.125,51.322C104.125,51.322 113.993,36.119 122.494,51.925C125.159,56.88 116.693,71.083 116.693,71.083C116.693,71.083 113.099,78.216 111.244,78.791C108.53,79.455 105.689,79.394 103.006,78.613C95.429,76.486 85.301,66.631 85.085,65.6C84.157,60.582 83.991,55.452 84.593,50.384C84.984,47.594 85.131,44.776 85.033,41.961L104.125,51.322Z" style="fill:rgb(207,145,108);fill-rule:nonzero;"/>
    <path d="M113.566,40.317C113.566,40.317 115.163,38.02 116.069,38.095C117.242,38.501 118.471,38.724 119.713,38.756C119.713,38.756 122.44,38.853 122.737,38.936C123.034,39.019 124.501,39.449 123.892,43.382C123.892,43.382 123.844,41.497 123.094,41.376C122.344,41.256 119.885,41.584 118.889,41.384C117.892,41.185 114.902,40.553 113.566,40.317ZM106.976,39.122C106.976,39.122 105.694,36.128 105.105,36.081C104.196,36.132 103.29,36.231 102.39,36.377C101.991,36.405 96.169,35.172 95.303,35.185C94.438,35.198 92.461,37.303 91.968,38.509C92.817,37.934 93.805,37.601 94.828,37.545C96.227,37.59 102.03,39.002 102.809,39.123C103.588,39.244 106.976,39.122 106.976,39.122Z" style="fill:rgb(1,1,1);fill-rule:nonzero;"/>
    <path d="M94.721,45.187C94.677,45.178 94.636,45.158 94.602,45.129C94.509,45.047 94.478,45.202 94.536,45.097C95.074,44.122 97.715,43.108 99.576,43.19C102.282,43.31 104.154,44.749 104.681,45.925C103.771,44.707 102.419,43.895 100.916,43.665C98.806,43.247 96.62,43.788 94.948,45.141C94.882,45.188 94.8,45.205 94.721,45.187Z" style="fill:rgb(123,85,51);fill-rule:nonzero;"/>
    <path d="M99.592,44.69C97.097,44.253 94.773,45.051 94.156,46.492C94.109,46.598 94.073,46.708 94.046,46.821C93.952,47.241 93.995,47.68 94.169,48.074C95.023,49.53 96.523,50.488 98.203,50.651C100.374,51.031 102.417,50.476 103.317,49.376C103.417,49.255 103.503,49.124 103.575,48.985C103.653,48.838 103.711,48.681 103.749,48.52C104.133,46.873 102.272,45.159 99.592,44.69Z" style="fill:white;fill-rule:nonzero;"/>
    <path d="M100.517,50.937C100.526,50.938 100.534,50.94 100.543,50.941C102.107,51.163 103.568,50.122 103.78,48.633C103.992,47.144 102.879,45.736 101.316,45.514C101.307,45.512 101.299,45.511 101.29,45.51C101.281,45.509 101.273,45.507 101.264,45.506C99.7,45.284 98.239,46.325 98.027,47.814C97.815,49.303 98.928,50.711 100.491,50.933C100.5,50.935 100.508,50.936 100.517,50.937Z" style="fill:rgb(40,26,21);fill-rule:nonzero;"/>
    <path d="M100.583,49.746C101.591,49.889 102.532,49.218 102.669,48.258C102.805,47.298 102.089,46.39 101.081,46.247C101.081,46.247 101.081,46.247 101.081,46.247C100.073,46.104 99.132,46.775 98.995,47.735C98.859,48.695 99.575,49.603 100.583,49.746C100.583,49.746 100.583,49.746 100.583,49.746Z" style="fill:rgb(1,1,1);fill-rule:nonzero;"/>
    <path d="M101.554,48.899C101.537,48.897 101.521,48.894 101.504,48.891C100.965,48.789 100.606,48.261 100.708,47.722C100.807,47.198 101.309,46.842 101.836,46.919C101.853,46.921 101.869,46.924 101.886,46.927C102.425,47.029 102.784,47.557 102.682,48.096C102.583,48.62 102.081,48.976 101.554,48.899" style="fill:white;fill-rule:nonzero;"/>
    <path d="M97.639,43.785C103.851,43.652 103.799,48.097 103.799,48.097C103.799,48.097 103.308,44.957 98.899,44.592C94.402,44.22 93.943,47.162 93.943,47.162C93.943,47.162 93.619,43.871 97.639,43.785Z" style="fill:rgb(1,1,1);fill-rule:nonzero;"/>
    <path d="M103.793,48.513C101.898,48.917 99.952,49.029 98.023,48.845C94.959,48.522 93.99,47.424 93.99,47.424L92.201,47.99C92.201,47.99 91.243,49.574 94.557,50.69C97.87,51.807 104.175,50.767 104.72,50.297C105.265,49.828 103.793,48.513 103.793,48.513Z" style="fill:rgb(207,145,108);fill-rule:nonzero;"/>
    <path d="M121.855,49.36C121.896,49.363 121.938,49.355 121.975,49.336C122.079,49.284 122.067,49.436 122.042,49.324C121.815,48.274 119.739,46.648 118.072,46.247C116.235,45.685 114.239,46.162 112.854,47.492C113.949,46.597 115.36,46.184 116.764,46.347C118.761,46.506 120.571,47.582 121.666,49.259C121.711,49.319 121.78,49.356 121.855,49.36Z" style="fill:rgb(123,85,51);fill-rule:nonzero;"/>
    <path d="M118.193,47.318C120.146,47.543 121.702,49.055 121.985,51C121.993,51.112 121.991,51.224 121.979,51.336C121.932,51.749 121.759,52.137 121.484,52.449C120.32,53.515 118.705,53.937 117.169,53.578C115.157,53.26 113.547,52.124 113.102,50.836C113.053,50.694 113.018,50.547 112.998,50.398C112.976,50.239 112.973,50.077 112.99,49.917C113.164,48.287 115.71,46.926 118.193,47.318Z" style="fill:white;fill-rule:nonzero;"/>
    <path d="M119.653,53.725C120.867,53.784 121.925,52.634 121.996,51.176C122.067,49.718 121.126,48.47 119.912,48.411C119.912,48.411 119.912,48.411 119.912,48.411C118.698,48.352 117.64,49.502 117.569,50.96C117.498,52.418 118.439,53.666 119.653,53.725C119.653,53.725 119.653,53.725 119.653,53.725Z" style="fill:rgb(40,26,21);fill-rule:nonzero;"/>
    <path d="M119.647,52.563C120.429,52.601 121.111,51.86 121.157,50.921C121.203,49.981 120.596,49.177 119.814,49.139C119.814,49.139 119.814,49.139 119.814,49.139C119.032,49.101 118.35,49.842 118.304,50.781C118.258,51.721 118.865,52.525 119.647,52.563C119.647,52.563 119.647,52.563 119.647,52.563Z" style="fill:rgb(1,1,1);fill-rule:nonzero;"/>
    <path d="M120.229,52.138C119.976,52.126 119.737,52.018 119.561,51.837C119.178,51.443 119.187,50.805 119.58,50.422C119.779,50.229 120.049,50.127 120.326,50.14C120.579,50.152 120.818,50.26 120.994,50.441C121.377,50.835 121.368,51.473 120.975,51.856C120.776,52.049 120.506,52.151 120.229,52.138" style="fill:white;fill-rule:nonzero;"/>
    <path d="M112.977,50.139C114.544,51.001 116.239,51.606 117.997,51.931C120.79,52.416 121.929,51.639 121.929,51.639L121.615,53.49C121.615,53.49 122.004,54.197 120.591,54.547C117.462,55.321 112.062,52.147 111.7,51.569C111.338,50.99 112.977,50.139 112.977,50.139Z" style="fill:rgb(207,145,108);fill-rule:nonzero;"/>
    <path d="M119.632,47.3C114.171,45.58 112.956,49.587 112.956,49.587C112.956,49.587 114.317,46.94 118.311,47.731C122.385,48.538 122.038,51.407 122.038,51.407C122.038,51.407 123.167,48.414 119.632,47.3Z" style="fill:rgb(1,1,1);fill-rule:nonzero;"/>
    <path d="M108.983,62.269C108.018,62.289 104.721,58.704 104.672,58.226C104.623,57.747 109.984,58.01 109.984,58.01C109.984,58.01 113.517,58.9 113.522,59.14C113.526,59.379 109.948,62.25 108.983,62.269Z" style="fill:rgb(35,31,32);fill-rule:nonzero;"/>
    <path d="M96.491,61.914C96.491,61.914 100.472,64.262 107.837,65.021C109.296,65.171 115.114,65.467 117.181,64.979C117.181,64.979 114.136,67.596 113.605,67.934C113.131,68.236 112.258,69.021 107.11,68.564C100.892,68.013 97.974,65.549 96.491,61.914Z" style="fill:rgb(81,39,47);fill-rule:nonzero;"/>
    <g>
        <path d="M115.687,64.945L97.972,62.507C97.972,62.507 98.442,65.825 98.563,66.452C103.521,68.74 109.045,69.51 114.439,68.663L115.687,64.945Z" style="fill:white;fill-rule:nonzero;"/>
    </g>
    <path d="M99.859,67.862C99.859,67.862 106.242,72.736 112.734,69.198C112.734,69.198 106.682,75.345 99.859,67.862Z" style="fill:rgb(35,31,32);fill-rule:nonzero;"/>
    <path d="M92.777,30.952C92.777,30.952 86.718,35.008 87.829,41.854C88.666,47.017 86.42,46.701 87.841,52.732C87.841,52.732 82.949,49.353 83.514,41.609C83.797,37.726 88.155,23.94 88.155,23.94C90.067,26.01 91.629,28.379 92.777,30.952Z" style="fill:rgb(25,16,14);fill-rule:nonzero;"/>
    <path d="M82.067,45.797C81.159,44.508 79.108,44.743 77.544,45.716C76.221,50.019 79.003,56.925 84.074,56.729C84.281,56.348 84.468,55.968 84.637,55.591C84.573,52.11 84.355,48.668 82.067,45.797Z" style="fill:rgb(207,145,108);fill-rule:nonzero;"/>
    <path d="M82.067,45.797C81.159,44.508 79.108,44.743 77.544,45.716C76.221,50.019 79.003,56.925 84.074,56.729C84.281,56.348 84.468,55.968 84.637,55.591C84.573,52.11 84.355,48.668 82.067,45.797Z" style="fill:rgb(35,31,32);fill-rule:nonzero;"/>
    <path d="M82.067,45.797C84.355,48.668 84.573,52.11 84.637,55.591C85.7,53.215 86.233,50.637 86.199,48.034C86.199,48.034 86.985,41.014 80.737,42.511C79.162,42.907 77.934,44.14 77.544,45.716C79.108,44.743 81.159,44.508 82.067,45.797Z" style="fill:rgb(207,145,108);fill-rule:nonzero;"/>
    <path d="M85.105,22.304C85.681,19.255 88.01,17.675 90.865,16.922C93.12,16.138 95.235,14.998 97.13,13.545L96.661,15.913C96.661,15.913 98.419,13.496 99.903,13.098C101.896,12.562 103.638,12.392 104.93,11.717C106.084,10.976 107.116,10.059 107.989,8.999C107.989,8.999 108.11,11.834 106.965,13.236C108.841,11.916 110.344,10.133 111.325,8.059C111.325,8.059 113.651,9.497 113.665,13.481L115.765,10.36C115.765,10.36 117.49,14.639 117.536,16.589L119.744,13.805C121.507,16.329 122.192,19.452 121.648,22.482L124.306,19.759C124.306,19.759 125.603,24.953 124.878,28.096L126.637,26.387C126.637,26.387 127.014,30.834 124.425,34.023C123.643,34.986 123.473,35.198 123.473,35.198C123.473,35.198 121.745,29.621 117.845,30.353C113.375,31.193 106.563,29.969 100.471,28.335C98.106,27.693 95.58,28.433 93.936,30.251" style="fill:rgb(25,16,14);fill-rule:nonzero;"/>
    <path d="M141.822,95L167.777,105.456C167.777,105.456 170.812,112.355 176.347,115.58C180.128,117.784 188.761,120.256 195.031,122.545L194.732,122.573L194.212,122.617C178.318,123.904 162.382,121.555 146.35,123.301C142.146,123.759 137.957,124.44 133.779,125.27C132.99,121.909 132.681,118.389 133.421,115.676C135.093,109.538 141.822,95 141.822,95Z" style="fill:rgb(206,142,81);fill-rule:nonzero;"/>
    <path d="M141.78,100.358L142.401,102.287C142.401,102.287 140.116,105.496 138.816,107.129C137.464,107.443 134.765,105.273 135.796,104.093C136.823,102.918 141.78,100.358 141.78,100.358Z" style="fill:rgb(50,63,93);fill-rule:nonzero;"/>
    <path d="M146.093,111.005C139.868,109.017 138.06,100.204 137.525,101.915C136.38,105.573 136.045,102.065 136.045,105.592C136.045,106.443 136.414,106.757 136.414,107.255C136.414,109.896 136.897,112.553 137.525,114.846C137.959,116.429 138.964,121.439 139.546,124.394C141.136,124.125 142.729,123.882 144.325,123.669C146.279,122.392 148.389,121.107 149.48,120.746C151.917,119.94 152.459,117.774 153.785,117.346C155.109,116.918 170.382,111.846 171.364,111.253C173.516,109.952 169.861,107.16 169.861,107.16C169.861,107.16 175.176,102.497 172.638,101.415C168.495,104.863 154.086,113.557 146.093,111.005Z" style="fill:rgb(119,134,183);fill-rule:nonzero;"/>
    <path d="M170.123,106.717C167.185,107.764 168.234,108.196 164.587,109.067C160.94,109.939 155.271,113.194 155.271,113.194C157.795,112.692 160.269,111.981 162.66,111.07C164.113,110.476 167.841,109.257 168.931,109.593C170.012,109.926 167.608,112.625 167.608,112.625C167.608,112.625 173.476,112.336 171.791,108.817C171.267,107.722 170.123,106.717 170.123,106.717ZM135.256,100.342C135.256,100.342 135.592,104.316 135.693,105.157C135.836,106.341 136.572,107.803 136.987,109.689C137.589,112.428 141.895,114.639 141.895,114.639L135.256,100.342Z" style="fill:rgb(97,106,155);fill-rule:nonzero;"/>
    <path d="M162.532,102.034C162.743,101.965 162.951,101.885 163.155,101.795C162.933,101.83 162.721,101.912 162.532,102.034Z" style="fill:rgb(36,31,32);fill-rule:nonzero;"/>
    <path d="M175.286,79.515C175.293,79.281 180.808,57.065 174.377,53.1C174.377,53.1 170.022,51.531 166.556,58.304C163.875,63.41 160.878,68.344 157.584,73.077C156.527,74.589 159.487,81.543 160.249,82.117C161.012,82.691 175.286,79.515 175.286,79.515Z" style="fill:rgb(206,142,81);fill-rule:nonzero;"/>
    <path d="M175.286,79.515C175.293,79.281 180.808,57.065 174.377,53.1C174.377,53.1 170.022,51.531 166.556,58.304C163.875,63.41 160.878,68.344 157.584,73.077C156.527,74.589 159.487,81.543 160.249,82.117C161.012,82.691 175.286,79.515 175.286,79.515Z" style="fill:rgb(163,106,59);fill-rule:nonzero;"/>
    <path d="M140.071,90.972C137.796,93.255 134.647,94.444 131.431,94.235C128.216,94.025 125.247,92.438 123.288,89.88C123.256,89.839 122.675,91.467 122.644,91.422C122.639,91.4 122.631,91.378 122.626,91.356C122.107,89.102 121.861,81.882 123.267,80.046C125.169,77.563 128.799,76.908 131.798,77.796C132.153,77.947 132.545,77.988 132.924,77.912C133.321,77.715 133.634,77.381 133.805,76.972C136.61,72.113 141.36,68.685 146.857,67.556C152.353,66.427 158.07,67.703 162.564,71.063C162.564,71.063 177.457,78.339 176.723,90.773C175.855,105.48 161.016,108.308 161.016,108.308C154.538,111.156 146.827,110.343 140.495,107.185C134.322,104.107 129.827,103.446 125.943,97.98C129.083,99.859 137.955,97.799 140.071,90.972Z" style="fill:rgb(206,142,81);fill-rule:nonzero;"/>
    <path d="M140.071,90.972C137.796,93.255 134.647,94.444 131.431,94.235C128.216,94.025 125.247,92.438 123.288,89.88C123.256,89.839 122.675,91.467 122.644,91.422C122.639,91.4 122.631,91.378 122.626,91.356C122.107,89.102 121.861,81.882 123.267,80.046C125.169,77.563 128.799,76.908 131.798,77.796C132.153,77.947 132.545,77.988 132.924,77.912C133.321,77.715 133.634,77.381 133.805,76.972C136.61,72.113 141.36,68.685 146.857,67.556C152.353,66.427 158.07,67.703 162.564,71.063C162.564,71.063 177.457,78.339 176.723,90.773C175.855,105.48 161.016,108.308 161.016,108.308C154.538,111.156 146.827,110.343 140.495,107.185C134.322,104.107 129.827,103.446 125.943,97.98C129.083,99.859 137.955,97.799 140.071,90.972Z" style="fill:rgb(206,142,81);fill-rule:nonzero;"/>
    <path d="M162.791,77.464C163.052,77.298 184.537,56.037 193.379,60.657C193.379,60.657 198.101,64.539 192.755,73.046C188.772,79.537 185.197,86.269 182.05,93.204C181.049,95.424 171.159,96.761 169.992,96.284C168.826,95.806 162.791,77.464 162.791,77.464Z" style="fill:rgb(206,142,81);fill-rule:nonzero;"/>
    <path d="M162.791,77.464C163.052,77.298 184.537,56.037 193.379,60.657C193.379,60.657 198.101,64.539 192.755,73.046C188.772,79.537 185.197,86.269 182.05,93.204C181.049,95.424 171.159,96.761 169.992,96.284C168.826,95.806 162.791,77.464 162.791,77.464Z" style="fill:rgb(163,106,59);fill-rule:nonzero;"/>
    <path d="M171.302,96.372C177.652,80.156 168.961,73.394 186.957,60.576C177.388,63.108 163.006,77.327 162.791,77.464C162.791,77.464 168.826,95.806 169.992,96.284C170.421,96.384 170.864,96.414 171.302,96.372Z" style="fill:rgb(206,142,81);fill-rule:nonzero;"/>
    <path d="M145.155,74.03C148.22,75.167 152.111,83.449 151.868,86.162L151.863,86.158C151.845,88.223 150.755,90.13 148.985,91.192C147.215,92.255 145.02,92.321 143.19,91.366C140.28,89.853 141.026,85.899 139.665,82.84L139.671,82.836C139.381,82.027 139.358,81.145 139.606,80.322C140.08,78.214 141.494,72.672 145.155,74.03ZM141.799,71.859C141.799,71.859 143.19,68.942 145.6,69.418C147.234,69.823 148.75,70.605 150.026,71.703C150.026,71.703 145.18,69.933 141.799,71.859Z" style="fill:rgb(163,107,59);fill-rule:nonzero;"/>
    <path d="M126.536,98.762C126.421,98.616 126.307,98.462 126.193,98.309C126.116,98.205 126.04,98.097 125.964,97.991C129.121,99.85 137.959,97.785 140.071,90.972C137.796,93.255 134.647,94.444 131.431,94.235C128.216,94.025 125.247,92.438 123.288,89.88C123.256,89.84 122.706,91.378 122.651,91.411C122.646,91.39 122.639,91.37 122.634,91.349C122.115,89.096 121.868,81.875 123.275,80.04C123.51,79.733 123.773,79.45 124.063,79.195C126.248,77.47 129.147,76.946 131.798,77.796C132.153,77.947 132.545,77.988 132.924,77.912C133.018,77.879 133.106,77.832 133.186,77.772C133.417,77.945 133.633,78.137 133.834,78.345C134.762,78.339 135.321,78.204 135.52,77.181C135.525,76.784 135.59,76.389 135.713,76.011C136.276,74.899 137.656,75.451 138.593,73.498C138.975,74.418 138.838,75 138.244,75.429C137.882,75.691 137.156,75.897 137.061,76.385C136.928,77.062 137.233,77.678 137.173,78.011C136.968,79.063 136.083,79.847 135.014,79.925C140.965,85.471 138.49,92.419 147.176,98.673C150.175,100.832 150.926,107.31 148.093,109.676C145.455,109.216 142.898,108.374 140.502,107.178C137.344,105.603 134.625,104.665 132.202,103.392C132.171,103.376 132.142,103.359 132.111,103.343C131.854,103.206 131.6,103.065 131.35,102.92C131.26,102.868 131.173,102.813 131.084,102.76C130.891,102.643 130.697,102.526 130.507,102.402C130.392,102.326 130.278,102.246 130.164,102.168C130.002,102.057 129.84,101.946 129.681,101.828C129.554,101.734 129.428,101.634 129.303,101.535C129.158,101.422 129.014,101.309 128.872,101.189C128.741,101.079 128.613,100.963 128.484,100.847C128.348,100.725 128.212,100.602 128.078,100.473C127.95,100.349 127.823,100.218 127.696,100.087C127.564,99.95 127.431,99.813 127.3,99.668C127.177,99.532 127.055,99.388 126.934,99.245C126.801,99.088 126.668,98.929 126.536,98.762Z" style="fill:rgb(163,106,59);fill-rule:nonzero;"/>
    <path d="M125.995,98.007C127.582,98.92 130.565,98.861 133.419,97.729C133.005,99.621 131.74,101.216 129.992,102.049C129.203,101.494 128.466,100.869 127.79,100.181L127.743,100.134C127.106,99.471 126.522,98.759 125.995,98.007ZM129.925,94.019C127.289,93.478 124.934,92.009 123.288,89.88C123.258,89.842 122.764,91.216 122.665,91.389L122.66,91.37C122.142,89.121 121.896,81.93 123.291,80.074C123.297,82.896 125.843,89.427 129.925,94.019Z" style="fill:rgb(103,71,47);fill-rule:nonzero;"/>
    <path d="M129.18,84.326C129.81,82.512 128.634,79.923 126.552,78.543C124.47,77.164 122.271,77.516 121.641,79.33C121.01,81.144 122.116,86.499 123.466,87.467C124.867,88.473 128.549,86.14 129.18,84.326Z" style="fill-rule:nonzero;"/>
    <path d="M124.302,81.268C124.314,81.274 124.326,81.28 124.338,81.286C125.262,81.739 126.251,81.645 126.529,81.077C126.808,80.509 126.277,79.669 125.354,79.216C125.342,79.21 125.329,79.204 125.317,79.198C125.305,79.192 125.293,79.186 125.281,79.18C124.357,78.727 123.368,78.821 123.09,79.389C122.811,79.957 123.342,80.797 124.265,81.25C124.277,81.256 124.29,81.262 124.302,81.268Z" style="fill:white;fill-rule:nonzero;"/>
    <path d="M149.242,81.676C149.242,81.676 145.081,78.896 141.383,84.451C141.383,84.451 145.512,85.307 147.217,86.641C147.217,86.641 145.029,84.179 143.325,83.763C143.325,83.763 146.359,81.448 149.242,81.676Z" style="fill:rgb(51,33,30);fill-rule:nonzero;"/>
</svg>
