<?xml version="1.0" encoding="utf-8" standalone="no"?><svg xmlns:android="http://schemas.android.com/apk/res/android" height="64.0" width="64.0" xmlns="http://www.w3.org/2000/svg">
    <path d="M5.8021,29.549a23.0392,22.549 0,1 0,46.0784 0a23.0392,22.549 0,1 0,-46.0784 0z" fill="#dbed5c" fill-opacity="1.0" fill-rule="nonZero" stroke="#00000000" stroke-width="1.0"/>
    <path d="M17.2191,25.105C16.8547,26.0954 16.392,27.0914 15.9033,28.1215C14.7089,30.6755 13.474,33.306 13.6649,36.158C13.9686,40.7154 17.491,45.0202 22.2541,46.5952C23.6302,47.0173 25.0666,47.2195 26.5081,47.1939C31.1902,47.1939 36.9684,45.4913 40.2277,42.1967C44.9705,37.4179 48.737,25.6669 48.9394,18.8138C48.3463,17.6425 47.6475,16.5256 46.8514,15.4766C47.45,21.6146 43.9409,35.6557 38.7961,40.8402C34.6664,45.0004 26.4937,45.9482 22.8903,44.7506C18.9456,43.4311 15.9004,39.7704 15.6604,36.0445C15.5042,33.6891 16.5829,31.3877 17.7223,28.9501C18.2053,27.9172 18.7056,26.8474 19.1018,25.7804C20.6432,21.589 21.4327,19.1968 21.0915,14.3528C21.0127,12.9236 20.4981,10.1097 19.6281,8.9608C18.9775,9.2048 18.3412,9.4744 17.7223,9.7752C18.5465,10.6796 19.0362,13.2743 19.0931,14.4862C19.4084,18.9301 18.7056,21.0697 17.2191,25.105Z" fill="#a2c23f" fill-opacity="1.0" fill-rule="nonZero" stroke="#00000000" stroke-width="1.0"/>
    <path d="M47.2131,41.3801C48.2539,39.9845 49.727,37.8882 50.8149,37.273C52.144,36.5232 53.6759,35.905 55.1695,37.0221C56.3457,37.8882 57.4777,39.6662 57.0366,41.0924C56.3427,43.3418 54.4668,44.6057 54.558,45.8666C54.6491,47.1274 56.4868,49.0004 57.0366,50.2276C57.6835,51.666 58.3745,53.7348 56.8191,54.9834C55.2636,56.2321 53.4495,56.3759 51.9293,55.5955C50.8914,55.0569 49.336,53.6307 48.3098,52.9268C47.9599,52.6851 33.6288,52.4311 33.1407,52.9452C32.6056,53.4961 29.6829,56.5259 28.4039,56.8135C27.1248,57.1012 25.5224,57.2236 24.0757,55.8954C22.6291,54.5672 22.3292,52.3852 22.8996,51.7058C23.47,51.0264 25.5782,48.676 25.3901,47.4396C25.2019,46.2032 23.4789,45.4534 22.4909,43.8865C21.503,42.3196 21.059,39.9753 22.0322,38.8736C23.0055,37.7719 25.1401,36.8017 26.6867,37.2608C27.51,37.5087 29.7888,40.0947 30.5386,40.9853C31.0884,41.6371 47.0807,41.5606 47.2131,41.3801Z" fill="#ce8e51" fill-opacity="1.0" fill-rule="nonZero" stroke="#00000000" stroke-width="1.0"/>
    <path d="M47.4688,48.6667m-1.4706,0a1.4706,1.4706 0,1 1,2.9412 0a1.4706,1.4706 0,1 1,-2.9412 0" fill="#a36a3b" fill-opacity="1.0" fill-rule="nonZero" stroke="#00000000" stroke-width="1.0"/>
    <path d="M39.6257,48.6667m-1.4706,0a1.4706,1.4706 0,1 1,2.9412 0a1.4706,1.4706 0,1 1,-2.9412 0" fill="#a36a3b" fill-opacity="1.0" fill-rule="nonZero" stroke="#00000000" stroke-width="1.0"/>
    <path d="M32.7629,47.6863m-1.4706,0a1.4706,1.4706 0,1 1,2.9412 0a1.4706,1.4706 0,1 1,-2.9412 0" fill="#a36a3b" fill-opacity="1.0" fill-rule="nonZero" stroke="#00000000" stroke-width="1.0"/>
</svg>