<?xml version="1.0" encoding="utf-8" standalone="no"?><svg xmlns:android="http://schemas.android.com/apk/res/android" height="153.0" width="283.0" xmlns="http://www.w3.org/2000/svg">
    <path d="M74.022,77.842a62.478,62.404 0,1 0,124.957 0a62.478,62.404 0,1 0,-124.957 0z" fill="#000000" fill-opacity="0.0" fill-rule="evenOdd" stroke="#ff3b5080" stroke-width="4.019243"/>
    <g>
        <clip-path android:pathData="M76.031,77.842a60.469,60.395 0,1 0,120.938 0a60.469,60.395 0,1 0,-120.938 0z"/>
        <path d="M182.673,130.353C182.673,130.353 186.346,158.961 187.155,162.464C187.263,162.927 187.544,163.931 187.544,163.931C187.544,163.931 182.831,168.39 174.625,165.739C174.598,165.731 174.567,165.803 174.567,165.803L167.919,134.029" fill="#f6be8a" fill-opacity="1.0" fill-rule="evenOdd" stroke="#00000000" stroke-width="1.0"/>
        <path d="M158.738,52.259C158.738,52.259 160.802,39.361 150.273,37.204C139.745,35.049 113.213,54.379 113.213,54.379L114.765,117.815L127.963,129.093C127.963,129.093 153.515,124.958 157.699,115.922C161.884,106.884 160.219,102.539 160.219,102.539L155.983,90.633L163.398,65.917L158.738,52.259Z" fill="#f2dfa0" fill-opacity="1.0" fill-rule="evenOdd" stroke="#00000000" stroke-width="1.0"/>
        <path d="M158.738,52.259C158.738,52.259 160.802,39.361 150.273,37.204C139.745,35.049 113.213,54.379 113.213,54.379L114.765,117.815L127.963,129.093C127.963,129.093 153.515,124.958 157.699,115.922C161.884,106.884 160.219,102.539 160.219,102.539L155.983,90.633L163.398,65.917L158.738,52.259Z" fill="#33211e" fill-opacity="1.0" fill-rule="evenOdd" stroke="#00000000" stroke-width="1.0"/>
        <path d="M169.569,137.152C170.21,137.195 170.847,137.263 171.477,137.364C170.699,137.313 170.052,137.23 169.569,137.152" fill="#33211e" fill-opacity="1.0" fill-rule="evenOdd" stroke="#00000000" stroke-width="1.0"/>
        <path d="M115.942,215.275C120.898,213.165 122.315,206.136 118.774,201.916C115.393,198.559 110.663,196.1 105.661,196.298C98,199.584 94.346,209.299 94.346,209.299C94.346,209.299 91.918,205.632 87.267,194.885C81.483,181.526 79.477,174.494 79.477,174.494C79.477,174.494 89.922,157.443 98.241,143.557C99.386,141.917 100.705,140.95 101.743,140.344C101.483,131.825 99.766,121.061 93.416,116.139C91.298,117.679 89.365,119.908 87.975,123.169C86.966,125.537 87.278,128.663 84.789,133.713C75.778,147.409 64.61,170.8 64.61,177.658C64.61,186.915 77.236,199.807 90.099,215.626C92.598,216.124 94.775,216.151 96.389,216.044C97.018,215.941 97.654,215.872 98.297,215.829C98.94,215.724 99.302,215.626 99.302,215.626C99.302,215.626 99.252,215.693 99.182,215.786C104.612,215.61 110.405,216.968 115.942,215.275" fill="#f6be8a" fill-opacity="1.0" fill-rule="evenOdd" stroke="#00000000" stroke-width="1.0"/>
        <path d="M171.647,141.151C168.867,135.671 166.222,130.511 165.292,124.503C165.292,130.46 164.739,136.969 166.303,142.802C166.322,142.389 166.345,141.971 166.364,141.558C168.172,141.546 169.947,141.393 171.647,141.151" fill="#279f78" fill-opacity="1.0" fill-rule="evenOdd" stroke="#00000000" stroke-width="1.0"/>
        <path d="M160.549,104.534C162.172,104.534 163.672,104.617 165.052,104.761L165.052,104.761L165.672,104.831C166.285,104.906 166.874,104.991 167.439,105.087C167.441,105.087 181.41,105.823 182.514,117.541C182.793,120.496 183.105,123.213 183.417,125.625C180.681,127.497 177.223,128.28 173.892,127.517C175.023,131.63 178.952,132.405 182.766,132.945L183.274,133.016C183.358,133.027 183.442,133.039 183.526,133.051L184.029,133.12C184.196,133.144 184.362,133.167 184.526,133.191C184.953,135.77 185.251,137.229 185.251,137.229C185.251,137.229 179.227,140.072 171.647,141.151C168.867,135.671 166.222,130.511 165.292,124.503C165.292,129.972 164.83,135.905 165.966,141.358C166.066,141.841 166.176,142.325 166.303,142.802C166.17,145.575 166.031,148.367 165.833,151.179C165.723,152.716 165.602,154.256 165.448,155.803C165.111,157.853 164.553,160.376 163.975,162.994C163.625,164.577 163.27,166.191 162.949,167.759C162.5,169.943 162.121,172.034 161.936,173.799C161.419,178.709 162.187,188.508 163.394,198.689L163.574,200.181C164.944,211.384 166.793,222.783 168.005,228.418C146.888,234.511 122.56,234.34 103.336,224.159C105.976,224.031 108.6,223.702 111.157,222.977C115.207,221.469 119.759,219.458 121.276,214.937C122.106,211.639 122.591,208.007 120.504,205.42C120.213,204.159 119.643,202.952 118.773,201.915C115.392,198.557 110.664,196.101 105.662,196.297C105.666,196.295 105.671,196.293 105.675,196.291C110.113,184.548 108.86,178.229 108.86,171.966C108.86,170.949 108.671,169.65 108.365,168.152C108.219,167.443 108.051,166.693 107.862,165.901C106.449,160.045 103.979,152.154 103.394,145.49L103.394,145.49L101.488,148.714C93.694,147.796 88.756,145.197 85.66,142.552C84.994,141.982 84.41,141.411 83.904,140.853C81.353,138.041 80.72,135.588 80.72,135.588C81.64,134.463 82.661,132.896 83.64,131.252L83.964,130.702C86.113,127.022 87.974,123.17 87.974,123.17C89.291,119.938 91.199,117.525 93.34,115.991C93.321,115.977 93.665,115.752 93.648,115.737C95.41,114.458 97.069,114.064 98.885,113.551C101.07,112.89 102.664,112.809 102.664,112.809C103.361,112.725 104.018,112.665 104.614,112.619C106.378,112.485 109.116,111.266 112.389,109.813C114.924,108.687 117.783,107.423 120.759,106.412C127.937,106.538 136.217,107.011 142.871,104.553C147.48,105.635 155.439,105.044 158.882,104.711L159.421,104.657C160.134,104.585 160.549,104.534 160.549,104.534Z" fill="#00bf8f" fill-opacity="1.0" fill-rule="evenOdd" stroke="#00000000" stroke-width="1.0"/>
        <path d="M173.892,127.517C175.197,132.27 180.242,132.565 184.527,133.193C184.206,131.257 183.813,128.689 183.418,125.624C180.681,127.497 177.223,128.282 173.892,127.517" fill="#279f78" fill-opacity="1.0" fill-rule="evenOdd" stroke="#00000000" stroke-width="1.0"/>
        <path d="M154.88,51.033C154.88,51.033 158.346,43.309 160.954,45.289C164.759,48.177 166.415,53.744 166.415,53.744C166.415,53.744 169.803,61.602 169.358,70.314C168.912,79.023 158.502,85.202 158.877,90.599C159.254,95.996 166.671,102.381 166.569,109.177C166.363,122.982 155.666,123.321 155.666,123.321C155.666,123.321 160.398,119.953 161.332,114.502C161.332,114.502 159.549,118.112 157.125,118.765C157.125,118.765 159.811,113.335 158.748,108.088C157.685,102.842 150.535,99.918 150.508,91.494C150.483,83.069 160.775,55.662 154.88,51.033" fill="#452d22" fill-opacity="1.0" fill-rule="evenOdd" stroke="#00000000" stroke-width="1.0"/>
        <path d="M123.778,88.353C123.778,88.353 124,90.206 124.108,92.841C124.167,94.229 124.192,95.835 124.133,97.498C123.992,101.639 123.345,106.148 121.426,108.609C121.426,108.609 136.41,121.321 146.907,109.21C146.907,109.21 145.723,105.088 145.675,103.243C145.665,102.819 145.731,102.379 145.765,101.926C145.973,99.096 146.324,95.705 146.907,91.863C144.949,92.392 126.903,91.919 123.778,88.353" fill="#f6be8a" fill-opacity="1.0" fill-rule="evenOdd" stroke="#00000000" stroke-width="1.0"/>
        <path android:fillAlpha="0.2" android:strokeAlpha="0.2" d="M142.87,102.543C143.889,102.464 144.851,102.249 145.764,101.927C145.974,99.096 146.324,95.703 146.906,91.864C144.948,92.393 126.904,91.918 123.777,88.353C123.777,88.353 124.002,90.207 124.108,92.841C128.294,99.001 135.161,103.264 142.87,102.543" fill="#221f1f" fill-opacity="1.0" fill-rule="evenOdd" stroke="#00000000" stroke-width="1.0"/>
        <path d="M160.335,71.813C161.442,70.968 162.763,72.181 163.47,73.894C162.765,78.797 158.266,84.323 154.858,81.705C154.858,81.227 154.873,80.763 154.898,80.306C156.248,76.882 157.688,73.57 160.335,71.813" fill="#f6be8a" fill-opacity="1.0" fill-rule="evenOdd" stroke="#00000000" stroke-width="1.0"/>
        <path d="M160.335,71.813C161.442,70.968 162.763,72.181 163.47,73.894C162.765,78.797 158.266,84.323 154.858,81.705C154.858,81.227 154.873,80.763 154.898,80.306C156.248,76.882 157.688,73.57 160.335,71.813" fill="#f6be8a" fill-opacity="1.0" fill-rule="evenOdd" stroke="#00000000" stroke-width="1.0"/>
        <path d="M160.335,71.813C157.688,73.57 156.248,76.882 154.898,80.306C155.162,75.551 156.658,72.061 156.658,72.061C156.658,72.061 158.751,64.716 162.48,69.187C163.479,70.388 163.728,72.098 163.47,73.894C162.763,72.181 161.442,70.968 160.335,71.813" fill="#f6be8a" fill-opacity="1.0" fill-rule="evenOdd" stroke="#00000000" stroke-width="1.0"/>
        <path d="M112.55,68.966C111.135,67.941 109.06,68.914 107.764,70.485C107.91,75.448 113.301,81.674 118.565,79.669C118.646,79.2 118.707,78.738 118.75,78.283C117.44,74.669 115.981,71.152 112.55,68.966" fill="#f6be8a" fill-opacity="1.0" fill-rule="evenOdd" stroke="#00000000" stroke-width="1.0"/>
        <path d="M112.55,68.966C111.135,67.941 109.06,68.914 107.764,70.485C107.91,75.448 113.301,81.674 118.565,79.669C118.646,79.2 118.707,78.738 118.75,78.283C117.44,74.669 115.981,71.152 112.55,68.966" fill="#f6be8a" fill-opacity="1.0" fill-rule="evenOdd" stroke="#00000000" stroke-width="1.0"/>
        <path d="M112.55,68.966C115.981,71.152 117.44,74.669 118.75,78.283C119.202,73.539 117.693,69.836 117.693,69.836C117.693,69.836 116.014,62.226 109.978,66.005C108.359,67.019 107.71,68.666 107.764,70.485C109.06,68.914 111.135,67.941 112.55,68.966" fill="#f6be8a" fill-opacity="1.0" fill-rule="evenOdd" stroke="#00000000" stroke-width="1.0"/>
        <path d="M160.251,69.471C158.302,84.836 150.364,91.452 137.191,90.52C124.015,89.588 114.099,78.226 115.037,65.144C115.975,52.06 127.417,42.212 140.591,43.144C153.766,44.075 162.237,53.829 160.251,69.471" fill="#f6be8a" fill-opacity="1.0" fill-rule="evenOdd" stroke="#00000000" stroke-width="1.0"/>
        <path d="M138.927,66.836C138.927,66.836 163.55,53.707 160.177,71.907C155.916,94.899 139.732,98.562 139.732,98.562C139.732,98.562 116.852,94.622 115.427,71.26C113.914,46.477 138.927,66.836 138.927,66.836" fill="#f6be8a" fill-opacity="1.0" fill-rule="evenOdd" stroke="#00000000" stroke-width="1.0"/>
        <path d="M123.999,64.455C123.951,64.453 123.901,64.434 123.857,64.403C123.739,64.314 123.724,64.153 123.803,64.029C124.621,62.752 126.781,61.136 128.812,60.874C131.762,60.49 134.099,62 134.925,63.432C135,63.56 133.595,61.455 130.362,61.227C129.627,61.176 126.806,61.058 124.234,64.35C124.176,64.424 124.086,64.461 123.999,64.455" fill="#7b5533" fill-opacity="1.0" fill-rule="evenOdd" stroke="#00000000" stroke-width="1.0"/>
        <path d="M129.156,62.832C126.364,62.757 124.025,64.266 123.673,66.276C123.646,66.425 123.63,66.576 123.625,66.729C123.611,67.299 123.759,67.845 124.033,68.343C124.832,69.797 126.724,70.851 128.956,70.911C131.387,70.973 133.472,69.841 134.206,68.221C134.287,68.039 134.352,67.851 134.4,67.657C134.449,67.448 134.481,67.233 134.487,67.014C134.541,64.782 132.154,62.912 129.156,62.832" fill="#ffffff" fill-opacity="1.0" fill-rule="evenOdd" stroke="#00000000" stroke-width="1.0"/>
        <path d="M124.468,66.745C124.768,68.733 126.634,70.103 128.636,69.803C130.638,69.504 132.017,67.65 131.716,65.665C131.416,63.677 129.55,62.307 127.548,62.606C125.546,62.904 124.167,64.757 124.468,66.745" fill="#452d22" fill-opacity="1.0" fill-rule="evenOdd" stroke="#00000000" stroke-width="1.0"/>
        <path d="M125.618,66.273C125.812,67.554 127.015,68.437 128.305,68.244C129.595,68.052 130.483,66.858 130.29,65.577C130.096,64.294 128.893,63.413 127.603,63.603C126.313,63.798 125.425,64.992 125.618,66.273" fill="#010101" fill-opacity="1.0" fill-rule="evenOdd" stroke="#00000000" stroke-width="1.0"/>
        <path d="M128.171,65.118C128.137,65.568 127.742,65.909 127.288,65.878C126.833,65.845 126.489,65.453 126.523,65C126.556,64.55 126.951,64.209 127.405,64.242C127.861,64.273 128.204,64.665 128.171,65.118" fill="#ffffff" fill-opacity="1.0" fill-rule="evenOdd" stroke="#00000000" stroke-width="1.0"/>
        <path d="M122.271,66.389C122.271,66.389 123.546,62.428 127.402,61.893C133.544,61.04 134.447,66.451 134.447,66.451C134.447,66.451 133.232,62.441 128.384,62.843C123.442,63.253 123.59,67.195 123.59,67.195L122.271,66.389Z" fill="#33211e" fill-opacity="1.0" fill-rule="evenOdd" stroke="#00000000" stroke-width="1.0"/>
        <path d="M156.398,66.482C156.446,66.484 156.498,66.476 156.545,66.449C156.674,66.379 156.712,66.222 156.652,66.087C156.025,64.709 154.119,62.804 152.147,62.258C149.28,61.463 146.749,62.628 145.728,63.93C145.636,64.046 147.328,62.161 150.559,62.391C151.296,62.44 154.105,62.723 156.181,66.344C156.227,66.426 156.31,66.476 156.398,66.482" fill="#7b5533" fill-opacity="1.0" fill-rule="evenOdd" stroke="#00000000" stroke-width="1.0"/>
        <path d="M151.525,64.148C148.545,63.803 145.915,65.32 145.651,67.537C145.626,67.756 145.626,67.973 145.645,68.186C145.664,68.384 145.701,68.581 145.757,68.771C146.25,70.477 148.154,71.895 150.57,72.172C152.788,72.428 154.811,71.653 155.809,70.325C156.153,69.87 156.375,69.349 156.442,68.783C156.461,68.63 156.465,68.479 156.461,68.328C156.398,66.291 154.301,64.469 151.525,64.148" fill="#ffffff" fill-opacity="1.0" fill-rule="evenOdd" stroke="#00000000" stroke-width="1.0"/>
        <path d="M149.952,63.81C148.375,64.389 146.556,64.354 146.154,66.947C146.109,67.284 146.107,67.633 146.161,67.987C146.46,69.974 148.327,71.344 150.328,71.045C152.33,70.747 153.71,68.894 153.408,66.906C153.144,65.158 151.666,63.889 149.952,63.81Z" fill="#452d22" fill-opacity="1.0" fill-rule="evenOdd" stroke="#00000000" stroke-width="1.0"/>
        <path d="M149.294,64.847C148.004,65.039 147.116,66.233 147.309,67.516C147.503,68.795 148.705,69.678 149.995,69.485C151.285,69.293 152.174,68.099 151.98,66.818C151.787,65.537 150.584,64.654 149.294,64.847" fill="#010101" fill-opacity="1.0" fill-rule="evenOdd" stroke="#00000000" stroke-width="1.0"/>
        <path d="M149.398,65.44C148.943,65.407 148.547,65.748 148.516,66.201C148.483,66.651 148.826,67.044 149.28,67.077C149.735,67.11 150.131,66.769 150.164,66.316C150.195,65.866 149.854,65.473 149.398,65.44" fill="#ffffff" fill-opacity="1.0" fill-rule="evenOdd" stroke="#00000000" stroke-width="1.0"/>
        <path d="M157.832,68.639C157.832,68.639 157.135,64.537 153.396,63.465C147.437,61.754 145.77,66.984 145.77,66.984C145.77,66.984 147.547,63.186 152.287,64.267C157.121,65.37 156.411,69.251 156.411,69.251L157.832,68.639Z" fill="#33211e" fill-opacity="1.0" fill-rule="evenOdd" stroke="#00000000" stroke-width="1.0"/>
        <path d="M146.256,55.757C146.256,55.757 149.055,53.839 150.228,54.011C157.374,55.063 159.121,59.162 159.523,60.127C159.523,60.127 157.08,56.953 154.121,56.625C151.165,56.298 146.256,55.757 146.256,55.757" fill="#6d492c" fill-opacity="1.0" fill-rule="evenOdd" stroke="#00000000" stroke-width="1.0"/>
        <path d="M137,54.663C137,54.663 134.504,52.37 133.318,52.376C126.093,52.411 123.779,56.221 123.245,57.118C123.245,57.118 126.116,54.32 129.089,54.415C132.065,54.508 137,54.663 137,54.663" fill="#6d492c" fill-opacity="1.0" fill-rule="evenOdd" stroke="#00000000" stroke-width="1.0"/>
        <path d="M145.601,67.591C145.601,67.591 148.15,69.376 151.466,70.052C154.785,70.727 156.242,69.684 156.242,69.684L157.871,71.031C157.871,71.031 158.22,73.37 154.319,73.61C150.418,73.848 144.284,70.302 143.909,69.517C143.533,68.731 145.601,67.591 145.601,67.591" fill="#f6be8a" fill-opacity="1.0" fill-rule="evenOdd" stroke="#00000000" stroke-width="1.0"/>
        <path d="M134.532,66.997C134.532,66.997 131.75,68.393 128.366,68.583C124.985,68.772 123.697,67.528 123.697,67.528L121.887,68.627C121.887,68.627 121.198,70.889 125.023,71.689C128.849,72.491 135.437,69.869 135.922,69.148C136.408,68.422 134.532,66.997 134.532,66.997" fill="#f6be8a" fill-opacity="1.0" fill-rule="evenOdd" stroke="#00000000" stroke-width="1.0"/>
        <path android:fillAlpha="0.2" android:strokeAlpha="0.2" d="M140.21,81.089C139.276,81.156 135.903,77.864 135.832,77.405C135.761,76.949 140.972,76.938 140.972,76.938C140.972,76.938 144.44,77.624 144.457,77.854C144.473,78.085 141.144,81.023 140.21,81.089" fill="#221f1f" fill-opacity="1.0" fill-rule="evenOdd" stroke="#00000000" stroke-width="1.0"/>
        <path d="M139.118,91.003C142.441,91.003 146.174,88.675 147.807,84.972C147.807,84.972 145.72,83.1 143.631,82.831C141.134,82.511 138.96,82.246 136.837,82.133C135.441,82.058 129.621,83.255 129.621,83.255C129.621,83.255 132.434,90.946 139.118,91.003" fill="#bd4d34" fill-opacity="1.0" fill-rule="evenOdd" stroke="#00000000" stroke-width="1.0"/>
        <path d="M128.877,82.939C128.877,82.939 132.743,84.865 139.667,85.1C141.039,85.146 146.49,85.051 148.388,84.468C148.388,84.468 145.712,87.088 145.237,87.435C144.815,87.745 144.049,88.528 139.214,88.431C133.375,88.315 130.493,86.214 128.877,82.939" fill="#51272f" fill-opacity="1.0" fill-rule="evenOdd" stroke="#00000000" stroke-width="1.0"/>
        <g>
            <clip-path android:pathData="M139.215,88.433C144.05,88.526 144.814,87.745 145.239,87.435L145.239,87.435C145.713,87.088 148.387,84.47 148.387,84.47L148.387,84.47C146.491,85.051 141.04,85.146 139.666,85.1L139.666,85.1C132.744,84.863 128.878,82.939 128.878,82.939L128.878,82.939C130.494,86.216 133.374,88.315 139.215,88.433L139.215,88.433Z"/>
            <path d="M146.991,84.532L130.297,83.395C130.297,83.395 130.948,86.441 131.1,87.016C131.1,87.016 137.9,89.973 146.063,88.059L146.991,84.532Z" fill="#ffffff" fill-opacity="1.0" fill-rule="evenOdd" stroke="#00000000" stroke-width="1.0"/>
        </g>
        <g>
            <clip-path android:pathData="M139.215,88.433C144.05,88.526 144.814,87.745 145.239,87.435L145.239,87.435C145.713,87.088 148.387,84.47 148.387,84.47L148.387,84.47C146.491,85.051 141.04,85.146 139.666,85.1L139.666,85.1C132.744,84.863 128.878,82.939 128.878,82.939L128.878,82.939C130.494,86.216 133.374,88.315 139.215,88.433L139.215,88.433Z"/>
            <path d="M146.991,84.532L130.297,83.395C130.297,83.395 130.948,86.441 131.1,87.016C131.1,87.016 137.9,89.973 146.063,88.059L146.991,84.532Z" fill="#ffffff" fill-opacity="1.0" fill-rule="evenOdd" stroke="#00000000" stroke-width="1.0"/>
        </g>
        <path d="M154.36,40.899C149.707,38.44 141.685,41.493 134.82,50.231C127.954,58.969 116.435,56.955 115.361,72.221C114.826,79.845 120.317,88.762 121.839,98.562C122.589,103.393 123.022,107.019 120.741,108.641C120.741,108.641 118.328,110.883 115.172,112.243C114.842,112.386 115.52,108.588 115.172,108.76C114.67,109.01 114.3,111.373 112.557,113.114C110.913,114.756 109.111,114.855 107.326,114.855C103.839,114.855 102.967,113.114 102.096,111.373C102.096,111.373 107.326,110.502 107.326,106.148C107.326,102.666 107.326,100.053 106.193,97.122C105.905,93.894 99.697,89.633 103.176,73.665C103.687,71.322 103.54,68.306 103.786,64.768C102.096,63.484 101.143,59.832 101.224,59.13C101.301,58.463 102.967,61.742 104.268,60.669C105.024,56.302 106.756,51.35 110.939,46.028C114.314,41.736 127.901,14.331 158.501,41.149C159.017,48.363 155.39,49.929 155.39,49.929C155.39,49.929 158.973,43.336 154.36,40.899Z" fill="#452d22" fill-opacity="1.0" fill-rule="evenOdd" stroke="#00000000" stroke-width="1.0"/>
    </g>
    <path d="M253.086,105.613m-29.219,0a29.219,29.219 0,1 1,58.439 0a29.219,29.219 0,1 1,-58.439 0" fill="#ededed" fill-opacity="1.0" fill-rule="evenOdd" stroke="#00000000" stroke-width="1.0"/>
    <g>
        <clip-path android:pathData="M253.086,105.613m-29.219,0a29.219,29.219 0,1 1,58.439 0a29.219,29.219 0,1 1,-58.439 0"/>
        <path d="M273.424,97.716C273.101,96.079 269.444,94.746 268.243,94.089C266.757,93.287 264.43,92.378 262.773,91.412C262.03,91.806 261.658,92.203 260.915,92.641C259.8,93.328 261.078,93.877 261.658,94.497C262.985,95.952 263.984,97.545 265.311,99C266.303,100.114 267.541,100.934 268.656,102.044C268.925,102.426 269.224,102.785 269.552,103.117C270.273,103.555 270.209,103.344 270.533,102.705C271.101,101.755 271.874,100.943 272.796,100.329C273.86,99.677 274.979,99.119 276.141,98.662" fill="#000000" fill-opacity="1.0" fill-rule="nonZero" stroke="#00000000" stroke-width="1.0"/>
        <path d="M274.167,96.004C270.406,94.111 266.972,91.921 262.717,91.383C264.07,93.402 267.221,94.627 269.269,95.774C271.317,96.921 271.499,97.964 272.298,100.229C272.993,102.126 273.658,104.19 274.587,105.779C276.074,105.359 278.304,101.198 278.753,99.702C279.203,98.206 278.672,98.273 277.378,97.675C276.234,97.111 275.282,96.572 274.167,96.004Z" fill="#5c3d27" fill-opacity="1.0" fill-rule="nonZero" stroke="#00000000" stroke-width="1.0"/>
        <path d="M240.151,89.088C241.266,87.86 245.097,88.621 246.469,88.688C248.152,88.784 250.613,89.222 252.527,89.259C252.965,90.002 253.077,90.521 253.467,91.271C254.08,92.448 252.683,92.24 251.865,92.459C249.973,93.012 248.29,93.855 246.398,94.408C244.982,94.82 243.481,94.891 241.972,95.273C241.542,95.458 241.099,95.608 240.645,95.722C239.805,95.722 239.965,95.57 240.021,94.857C240.032,93.751 239.796,92.657 239.33,91.654C238.77,90.548 238.116,89.492 237.375,88.498" fill="#000000" fill-opacity="1.0" fill-rule="nonZero" stroke="#00000000" stroke-width="1.0"/>
        <path d="M240.407,87.255C244.603,87.592 248.684,87.5 252.59,89.263C250.382,90.284 247.056,89.69 244.707,89.604C242.358,89.519 241.663,90.314 239.798,91.832C238.215,93.087 236.572,94.508 234.948,95.381C233.896,94.245 234.179,89.541 234.576,88.023C234.974,86.505 235.375,86.861 236.795,87.013C238.051,87.114 239.147,87.154 240.407,87.255Z" fill="#5c3d27" fill-opacity="1.0" fill-rule="nonZero" stroke="#00000000" stroke-width="1.0"/>
        <path d="M269.841,101.925C267.017,96.19 263.932,93.387 255.188,91.687C246.443,89.987 240.965,94.141 238.597,97.426C237.256,99.282 237.077,102.456 237.289,103.173C236.75,103.344 232.919,104.81 233.61,109.714C234.442,115.601 240.515,122.655 248.896,124.284C257.276,125.914 265.794,121.686 268.515,116.489C270.681,112.372 271.48,105.248 269.841,101.925Z" fill="#c8a477" fill-opacity="1.0" fill-rule="nonZero" stroke="#00000000" stroke-width="1.0"/>
        <path android:fillAlpha="0.5" android:strokeAlpha="0.5" d="M265.813,110.935C264.014,108.763 261.914,109.276 260.015,109.239C259.095,109.27 258.182,109.066 257.362,108.648C256.094,107.654 256.02,106.54 255.641,105.589C255.366,104.849 254.991,104.15 254.526,103.511C253.847,102.591 252.874,101.929 251.768,101.636C251.363,101.287 251.114,101.265 251.631,100.719C251.843,100.485 252.133,100.392 252.333,100.114C252.636,99.7 252.769,99.186 252.705,98.677C252.601,97.872 252.025,97.564 252.333,96.699C252.647,96 252.791,95.236 252.753,94.471C252.426,95.526 252.638,95.659 251.932,96.442C251.701,96.677 251.58,96.998 251.597,97.326C251.635,98.25 252.556,98.659 251.768,99.698C251.438,100.132 250.531,100.288 250.438,100.908C250.414,101.096 250.464,101.286 250.575,101.439C249.59,101.38 248.609,101.615 247.758,102.115C247.035,102.555 246.381,103.1 245.818,103.733C245.12,104.476 244.514,105.523 243.38,105.723C242.531,105.69 241.691,105.539 240.883,105.274C239.099,104.617 237.873,104.962 236.687,105.912C239.289,105.144 240.032,106.328 242.017,106.685C244.291,107.093 246.134,105.404 248.223,104.951C248.658,104.858 246.138,104.984 245.25,105.382C245.621,105.01 245.975,104.576 246.365,104.171C247.636,102.809 249.338,101.354 251.341,101.807C253.79,102.36 254.314,104.082 254.931,105.623C255.113,106.065 255.277,106.796 255.451,107.23C254.905,106.673 252.2,105.638 252.571,105.886C254.351,107.063 256.102,109.32 258.369,109.762C260.32,110.148 263.527,109.302 265.813,110.935Z" fill="#7b5533" fill-opacity="1.0" fill-rule="nonZero" stroke="#00000000" stroke-width="1.0"/>
        <path d="M242.749,98.429C239.82,98.332 238.073,101.421 237.646,103.975C238.337,104.004 239.019,104.146 239.664,104.394C240.861,104.851 241.82,105.816 243.042,106.183C244.157,106.518 246.48,105.563 246.785,103.299C247.089,101.035 245.246,98.514 242.749,98.429Z" fill="#7b5634" fill-opacity="1.0" fill-rule="nonZero" stroke="#00000000" stroke-width="1.0"/>
        <path d="M261.933,109.758C254.585,110.304 255.541,105.4 248.591,104.784C245.205,104.483 244.54,106.889 240.924,105.667C238.467,104.843 235.394,105.63 234.814,108.463C234.306,110.965 234.701,113.566 235.929,115.806C238.415,119.781 242.749,123.278 248.097,124.322L248.186,124.322L248.275,124.322C253.623,125.365 258.952,123.742 262.769,120.981C264.745,119.362 266.083,117.095 266.545,114.584C267.073,111.796 265.809,109.469 261.933,109.758Z" fill="#5c3d27" fill-opacity="1.0" fill-rule="nonZero" stroke="#00000000" stroke-width="1.0"/>
        <path d="M240.467,102.612a2.787,2.784 0,1 0,5.575 0a2.787,2.784 0,1 0,-5.575 0z" fill="#000000" fill-opacity="1.0" fill-rule="nonZero" stroke="#00000000" stroke-width="1.0"/>
        <path d="M241.697,101.313a1,1 0,1 0,2 0a1,1 0,1 0,-2 0z" fill="#ffffff" fill-opacity="1.0" fill-rule="nonZero" stroke="#00000000" stroke-width="1.0"/>
        <path d="M260.692,101.896C263.542,102.575 264.408,106.016 264.14,108.578C263.467,108.422 262.773,108.379 262.085,108.452C260.807,108.574 259.629,109.25 258.369,109.279C257.198,109.305 255.217,107.795 255.526,105.508C255.834,103.221 258.261,101.317 260.692,101.896Z" fill="#7b5634" fill-opacity="1.0" fill-rule="nonZero" stroke="#00000000" stroke-width="1.0"/>
        <path d="M237.04,106.852C236.23,106.763 235.509,107.498 235.349,108.511C235.955,107.538 236.628,107.319 237.208,107.568C237.787,107.817 238.01,108.444 238.077,109.135C238.118,109.543 238.627,109.439 238.59,109.027C238.49,107.936 237.958,106.956 237.04,106.852Z" fill="#7b5533" fill-opacity="1.0" fill-rule="nonZero" stroke="#00000000" stroke-width="1.0"/>
        <path d="M263.761,110.66C262.587,110.482 261.624,111.258 261.16,112.272C261.113,112.379 261.128,112.503 261.198,112.597C261.268,112.691 261.382,112.74 261.499,112.727C261.615,112.713 261.715,112.639 261.762,112.531C262.01,111.861 262.61,111.384 263.319,111.292C264.126,111.24 264.828,111.622 265.363,112.776C265.496,111.753 264.783,110.812 263.761,110.66L263.761,110.66Z" fill="#7b5533" fill-opacity="1.0" fill-rule="nonZero" stroke="#00000000" stroke-width="1.0"/>
        <path android:fillAlpha="0.5" android:strokeAlpha="0.5" d="M257.834,94.349C258.926,94.401 259.175,95.462 259.547,96.253C259.742,96.761 260.072,97.205 260.502,97.538C260.79,97.671 261.085,97.788 261.387,97.887C262.264,98.343 262.501,98.362 263.115,99.925C263.011,98.959 262.825,97.872 261.881,97.385C261.138,97.014 260.617,96.925 260.22,96.153C259.989,95.704 259.848,95.214 259.58,94.779C258.283,92.615 255.526,94.249 254.154,95.488C255.749,94.627 256.7,94.286 257.834,94.349Z" fill="#7b5634" fill-opacity="1.0" fill-rule="nonZero" stroke="#00000000" stroke-width="1.0"/>
        <path android:fillAlpha="0.5" android:strokeAlpha="0.5" d="M248.806,92.853C247.747,92.593 247.208,93.528 246.621,94.189C246.292,94.62 245.849,94.952 245.343,95.147C245.028,95.194 244.71,95.222 244.391,95.232C243.421,95.418 243.187,95.366 242.161,96.691C242.533,95.797 243.027,94.809 244.072,94.609C244.882,94.453 245.413,94.531 246.015,93.9C246.361,93.528 246.647,93.109 247.019,92.767C248.877,91.063 251.055,93.413 252.017,94.995C250.728,93.714 249.921,93.124 248.806,92.853Z" fill="#7b5634" fill-opacity="1.0" fill-rule="nonZero" stroke="#00000000" stroke-width="1.0"/>
        <path d="M264.337,112.691C264.408,109.424 260.848,112.509 259.632,113.352C256.317,116.01 252.653,116.362 250.144,115.208C249.197,114.777 248,113.281 247.732,111.098C247.056,112.724 245.718,114.566 243.522,114.272C239.891,113.782 238.148,104.286 236.089,108.871C235.193,110.857 236.832,114.001 237.828,115.828C240.155,119.715 242.529,122.733 248.39,123.52C254.251,124.307 257.559,122.057 260.833,118.924C262.275,117.443 264.289,114.87 264.337,112.691Z" fill="#000000" fill-opacity="1.0" fill-rule="nonZero" stroke="#00000000" stroke-width="1.0"/>
        <path d="M247.807,113.07C247.931,112.666 247.972,112.242 247.926,111.822C247.903,111.711 247.766,111.477 247.784,111.381C247.825,111.191 247.9,111.128 248.13,110.976C248.784,110.542 248.045,108.875 248.045,108.875C248.045,108.875 248.52,110.36 247.502,110.653C247.194,110.738 247.089,111.288 247.108,111.447C247.127,111.607 247.275,111.819 247.298,112.038C247.302,112.359 247.254,112.678 247.156,112.984C247.056,113.393 247.706,113.478 247.807,113.07L247.807,113.07Z" fill="#000000" fill-opacity="1.0" fill-rule="nonZero" stroke="#00000000" stroke-width="1.0"/>
        <path d="M250.992,111.154C251.171,111.178 251.336,111.051 251.36,110.872C251.383,110.693 251.257,110.528 251.077,110.505C250.898,110.481 250.733,110.607 250.709,110.787C250.686,110.966 250.812,111.131 250.992,111.154L250.992,111.154Z" fill="#000000" fill-opacity="1.0" fill-rule="nonZero" stroke="#00000000" stroke-width="1.0"/>
        <path d="M251.542,113.4C251.713,113.41 251.862,113.286 251.885,113.117C251.907,112.947 251.795,112.789 251.627,112.754C251.456,112.744 251.307,112.868 251.284,113.037C251.262,113.207 251.374,113.365 251.542,113.4L251.542,113.4Z" fill="#000000" fill-opacity="1.0" fill-rule="nonZero" stroke="#00000000" stroke-width="1.0"/>
        <path d="M255.957,112.728C256.129,112.741 256.281,112.618 256.305,112.447C256.329,112.276 256.215,112.117 256.046,112.082C255.874,112.07 255.722,112.193 255.698,112.363C255.674,112.534 255.788,112.694 255.957,112.728L255.957,112.728Z" fill="#000000" fill-opacity="1.0" fill-rule="nonZero" stroke="#00000000" stroke-width="1.0"/>
        <path d="M255.169,110.397C255.349,110.42 255.513,110.294 255.537,110.115C255.561,109.935 255.434,109.771 255.254,109.747C255.075,109.724 254.91,109.85 254.887,110.029C254.863,110.209 254.989,110.373 255.169,110.397L255.169,110.397Z" fill="#000000" fill-opacity="1.0" fill-rule="nonZero" stroke="#00000000" stroke-width="1.0"/>
        <path d="M244.284,112.038C244.463,112.062 244.629,111.937 244.653,111.757C244.678,111.578 244.552,111.413 244.373,111.388C244.257,111.372 244.141,111.419 244.069,111.512C243.997,111.604 243.98,111.728 244.024,111.837C244.069,111.945 244.167,112.022 244.284,112.038Z" fill="#000000" fill-opacity="1.0" fill-rule="nonZero" stroke="#00000000" stroke-width="1.0"/>
        <path d="M240.296,109.628C240.467,109.638 240.616,109.515 240.639,109.345C240.661,109.176 240.549,109.017 240.381,108.982C240.21,108.973 240.061,109.096 240.038,109.266C240.016,109.435 240.128,109.593 240.296,109.628L240.296,109.628Z" fill="#000000" fill-opacity="1.0" fill-rule="nonZero" stroke="#00000000" stroke-width="1.0"/>
        <path d="M245.551,109.877C245.73,109.902 245.896,109.776 245.921,109.597C245.945,109.417 245.82,109.252 245.64,109.228C245.46,109.203 245.295,109.328 245.27,109.508C245.246,109.687 245.371,109.853 245.551,109.877L245.551,109.877Z" fill="#000000" fill-opacity="1.0" fill-rule="nonZero" stroke="#00000000" stroke-width="1.0"/>
        <path d="M242.816,107.824C242.995,107.849 243.161,107.723 243.185,107.544C243.21,107.365 243.084,107.199 242.905,107.175C242.725,107.15 242.56,107.275 242.535,107.455C242.51,107.634 242.636,107.8 242.816,107.824Z" fill="#000000" fill-opacity="1.0" fill-rule="nonZero" stroke="#00000000" stroke-width="1.0"/>
        <path d="M245.551,105.118C245.053,106.707 246.517,108.218 248.673,108.886C250.828,109.554 252.906,109.135 253.393,107.542C254.047,105.4 252.608,103.796 250.453,103.132C248.297,102.467 246.138,103.303 245.551,105.118Z" fill="#29292c" fill-opacity="1.0" fill-rule="nonZero" stroke="#00000000" stroke-width="1.0"/>
        <path d="M245.551,105.118C245.06,106.707 246.491,109.692 248.569,110.107C250.185,110.427 252.902,109.131 253.4,107.542C253.898,105.953 252.545,104.123 250.382,103.455C248.219,102.787 246.06,103.529 245.551,105.118Z" fill="#000000" fill-opacity="1.0" fill-rule="nonZero" stroke="#00000000" stroke-width="1.0"/>
        <path d="M245.923,107.008C246.324,107.373 246.886,107.505 247.409,107.357C248.264,107.171 248.483,106.8 248.576,106.421C248.669,106.042 248.676,105.27 248.338,105.085C248,104.899 247.889,104.806 247.654,105.085C247.483,105.309 247.348,105.56 247.257,105.827C247.13,106.102 247.049,106.414 246.733,106.57C246.417,106.725 246.261,106.651 245.9,106.466C245.692,106.367 245.536,106.185 245.469,105.964C245.55,106.339 245.704,106.693 245.923,107.008L245.923,107.008Z" fill="#554b46" fill-opacity="1.0" fill-rule="nonZero" stroke="#00000000" stroke-width="1.0"/>
        <path d="M252.181,108.556C251.631,108.668 251.06,108.52 250.635,108.155C249.918,107.55 249.892,107.097 249.981,106.67C250.07,106.243 250.453,105.523 250.865,105.512C251.278,105.5 251.434,105.467 251.519,105.849C251.57,106.152 251.57,106.46 251.519,106.763C251.445,107.086 251.497,107.426 251.664,107.713C251.895,108.006 252.036,107.98 252.463,107.976C252.741,107.969 253.01,107.88 253.236,107.72C253.236,107.72 252.549,108.455 252.181,108.556Z" fill="#554b46" fill-opacity="1.0" fill-rule="nonZero" stroke="#00000000" stroke-width="1.0"/>
        <path d="M245.923,106.8C246.327,107.185 246.912,107.317 247.443,107.141C248.294,106.944 248.513,106.584 248.606,106.202C248.699,105.82 248.714,105.133 248.368,104.869C248.171,104.721 247.918,104.591 247.684,104.869C247.514,105.095 247.38,105.345 247.286,105.612C247.16,105.886 247.078,106.195 246.762,106.354C246.455,106.481 246.104,106.437 245.837,106.239C245.465,106.054 245.465,105.953 245.465,105.953C245.562,106.262 245.717,106.55 245.923,106.8L245.923,106.8Z" fill="#29292c" fill-opacity="1.0" fill-rule="nonZero" stroke="#00000000" stroke-width="1.0"/>
        <path d="M252.326,108.348C251.75,108.518 251.126,108.357 250.706,107.928C249.988,107.323 249.962,106.874 250.051,106.443C250.141,106.013 250.527,105.348 250.936,105.285C251.181,105.252 251.523,105.285 251.59,105.627C251.635,105.928 251.635,106.235 251.59,106.536C251.516,106.861 251.568,107.202 251.735,107.49C251.968,107.759 252.323,107.89 252.675,107.835C252.907,107.851 253.137,107.785 253.326,107.65C253.033,107.935 252.695,108.171 252.326,108.348L252.326,108.348Z" fill="#29292c" fill-opacity="1.0" fill-rule="nonZero" stroke="#00000000" stroke-width="1.0"/>
        <path android:fillAlpha="0.5" android:strokeAlpha="0.5" d="M249.52,105.438a1,1.14 103.45,1 0,0.465 -1.945a1,1.14 103.45,1 0,-0.465 1.945z" fill="#ffffff" fill-opacity="1.0" fill-rule="nonZero" stroke="#00000000" stroke-width="1.0"/>
        <path d="M251.947,117.673C251.233,117.005 249.672,116.255 248.799,116.789C248.394,117.034 247.684,117.45 247.071,117.354C246.172,117.209 246.253,116.028 244.566,116.318C242.879,116.607 240.887,119.626 239.935,121.207C238.724,123.215 237.798,125.729 238.371,127.937C238.999,130.384 243.336,133.005 246.528,130.829C248.279,129.614 249.434,127.717 249.71,125.606C250.107,122.573 250.211,120.836 251.3,120.858C252.389,120.88 253.192,122.413 253.976,120.969C254.47,120.026 252.612,118.304 251.947,117.673Z" fill="#e3787c" fill-opacity="1.0" fill-rule="nonZero" stroke="#00000000" stroke-width="1.0"/>
        <path d="M251.947,117.673C251.233,117.005 249.672,116.255 248.799,116.789C248.394,117.034 247.684,117.45 247.071,117.354C246.172,117.209 246.253,116.028 244.566,116.318C244.108,116.421 243.682,116.631 243.321,116.93C243.965,117.106 244.492,117.568 244.752,118.181C245.443,119.863 243.867,121.43 243.158,122.814C242.247,124.593 242.332,126.527 242.823,128.446C242.748,126.344 243.363,124.275 244.573,122.555C245.317,121.537 246.294,120.672 247.138,119.748C247.822,119.006 248.624,118.315 249.68,118.263C251.512,118.178 252.679,119.845 253.98,120.951C254.47,120.012 252.612,118.304 251.947,117.673Z" fill="#b54a4e" fill-opacity="1.0" fill-rule="nonZero" stroke="#00000000" stroke-width="1.0"/>
        <path d="M246.387,103.195C246.387,103.195 241.017,102.694 240.274,103.362C240.274,103.362 241.147,105.664 243.102,105.712C245.629,105.794 246.387,103.195 246.387,103.195Z" fill="#7b5634" fill-opacity="1.0" fill-rule="nonZero" stroke="#00000000" stroke-width="1.0"/>
        <path d="M261.97,103.173C262.137,103.099 257.752,103.581 256.373,106.607C256.373,106.607 261.048,107.241 262.197,107.683C262.197,107.683 260.16,106.347 258.224,105.938C259.274,104.774 260.548,103.834 261.97,103.173L261.97,103.173Z" fill="#000000" fill-opacity="1.0" fill-rule="nonZero" stroke="#00000000" stroke-width="1.0"/>
    </g>
    <path d="M29.219,41.558m-29.219,0a29.219,29.219 0,1 1,58.439 0a29.219,29.219 0,1 1,-58.439 0" fill="#ededed" fill-opacity="1.0" fill-rule="evenOdd" stroke="#00000000" stroke-width="1.0"/>
    <g>
        <clip-path android:pathData="M29.219,41.558m-29.219,0a29.219,29.219 0,1 1,58.439 0a29.219,29.219 0,1 1,-58.439 0"/>
        <path d="M11.305,63.004C10.573,63.376 9.664,62.438 9.664,62.438C12.91,62.446 11.717,60.379 11.717,60.379C9.984,57.295 13.597,57.168 13.681,57.165C11.969,57.155 11.834,56.169 11.834,56.169C13.256,56.967 14.085,55.148 15.745,54.713C14.433,54.463 14.153,53.612 14.153,53.612C15.625,53.769 15.996,53.3 17.574,52.944L17.564,52.984L44.213,51.814C44.213,51.814 44.24,56.061 46.544,56.155C46.744,56.162 46.942,56.123 47.124,56.041L45.876,78.305L9.179,79.399C8.75,76.073 9.99,66.503 11.305,63.004Z" fill="#000000" fill-opacity="1.0" fill-rule="nonZero" stroke="#00000000" stroke-width="1.0"/>
        <path d="M53.213,61.741C50.698,61.322 50.003,58.818 50.003,58.818C52.185,54.038 44.489,50.838 43.873,49.071L14.815,49.739C12.68,53.573 9.185,55.744 10.094,58.248C10.372,59.011 7.367,61.674 6.206,61.917C6.206,61.917 9.722,64.271 12.001,62.884C12.001,62.884 11.092,64.004 12.699,65.938C12.779,66.544 12.587,67.153 12.173,67.602C12.173,67.602 12.934,67.505 13.386,66.396C13.386,66.396 15.175,69.375 18.143,68.998C18.143,68.998 17.62,71.291 15.412,71.495C16.6,71.817 17.87,71.557 18.836,70.794C18.836,70.794 19.455,73.063 22.652,72.918C23.138,73.721 23.253,74.694 22.968,75.588C22.968,75.588 23.805,75.649 24.258,74.538C24.258,74.538 26.096,76.624 28.224,76.659C27.979,76.332 27.797,75.962 27.687,75.569C27.687,75.569 29.751,77.651 31.045,77.703C32.34,77.597 34.386,75.429 34.386,75.429C34.278,75.829 34.099,76.206 33.858,76.542C35.609,76.441 37.147,74.963 37.643,74.439C37.75,74.326 37.807,74.257 37.807,74.257C38.269,75.349 39.106,75.253 39.106,75.253C38.816,74.359 38.923,73.383 39.399,72.572C42.597,72.585 43.196,70.29 43.196,70.29C44.185,71.012 45.459,71.22 46.625,70.848C44.417,70.737 43.874,68.466 43.874,68.466C46.844,68.719 47.442,65.795 47.442,65.795C47.903,66.887 48.665,66.951 48.665,66.951C48.246,66.513 48.048,65.91 48.125,65.309C49.715,63.309 48.797,62.227 48.797,62.227C51.089,63.516 53.213,61.741 53.213,61.741Z" fill="#706f6f" fill-opacity="1.0" fill-rule="nonZero" stroke="#00000000" stroke-width="1.0"/>
        <path d="M47.497,26.238C49.155,25.238 52.774,24.782 52.774,24.782C48.917,22.615 45.788,25.459 45.788,25.459C46.456,24.259 47.392,23.23 48.524,22.452C45.75,22.541 38.706,25.305 40.087,31.814C40.387,31.166 40.815,30.584 41.344,30.104C41.344,30.104 39.32,33.277 41.29,35.746C41.264,34.813 41.53,33.895 42.051,33.12C42.051,33.12 41.119,37.038 43.897,39.46C43.897,39.46 43.472,36.722 43.96,35.616C43.96,35.616 43.842,39.16 45.816,41.613C45.816,41.613 45.762,40.802 45.719,39.835C45.976,41.291 46.818,42.579 48.048,43.399C48.048,43.399 47.684,42.051 47.985,41.561C47.985,41.561 49.797,44.677 52.448,44.78C54.615,42.267 53.546,37.287 53.546,37.287C53.775,37.652 54.361,39.087 54.361,39.087C55.634,36.292 53.865,32.578 53.865,32.578C54.325,33.082 54.742,33.623 55.113,34.196C56.256,29.693 51.263,27.882 51.263,27.882C51.982,27.657 52.739,27.579 53.488,27.651C51.163,25.248 47.497,26.238 47.497,26.238Z" fill="#000000" fill-opacity="1.0" fill-rule="nonZero" stroke="#00000000" stroke-width="1.0"/>
        <path d="M8.394,31.099C6.556,30.492 2.929,30.851 2.929,30.851C6.208,27.881 9.891,29.961 9.891,29.961C8.973,28.939 7.831,28.143 6.554,27.636C10.544,26.694 18.516,27.666 16.86,34.891C16.423,34.325 15.877,33.853 15.254,33.502C15.254,33.502 17.932,36.147 16.56,38.992C16.378,38.076 15.915,37.24 15.235,36.6C15.235,36.6 17.014,40.213 14.843,43.192C14.843,43.192 14.649,40.428 13.928,39.458C13.928,39.458 14.829,42.887 13.45,45.719C13.45,45.719 13.323,44.917 13.149,43.964C13.222,45.441 12.688,46.884 11.67,47.957C11.67,47.957 11.726,46.561 11.324,46.152C11.324,46.152 10.249,49.593 7.687,50.282C5.015,48.313 4.952,43.221 4.952,43.221C4.811,43.628 4.557,45.155 4.557,45.155C2.696,42.713 3.596,38.698 3.596,38.698C3.258,39.292 2.971,39.913 2.736,40.554C0.622,36.418 5.087,33.541 5.087,33.541C4.337,33.482 3.582,33.573 2.867,33.809C4.598,30.947 8.394,31.099 8.394,31.099Z" fill="#000000" fill-opacity="1.0" fill-rule="nonZero" stroke="#00000000" stroke-width="1.0"/>
        <path d="M44.548,47.659C44.548,47.659 45.409,48.45 44.275,50.182C44.268,50.675 44.489,51.144 44.874,51.452C44.38,51.395 43.954,51.082 43.754,50.627C43.611,52.015 42.437,53.068 41.042,53.059C41.042,53.059 41.701,54.832 43.542,54.74C42.604,55.133 41.536,55.072 40.649,54.574C40.649,54.574 40.363,56.461 37.711,56.714C37.391,57.402 37.392,58.197 37.715,58.885C37.217,58.934 36.744,58.654 36.547,58.194C36.547,58.194 35.241,60.074 33.484,60.348C33.653,60.06 33.766,59.743 33.819,59.414C33.819,59.414 32.322,61.317 31.259,61.508C30.182,61.573 28.278,60.076 28.278,60.076C28.407,60.383 28.593,60.664 28.825,60.904C27.37,61.026 25.953,60.021 25.494,59.659C25.395,59.581 25.34,59.533 25.34,59.533C25.257,60.027 24.863,60.41 24.367,60.479C24.519,59.735 24.333,58.962 23.86,58.369C21.223,58.748 20.501,56.981 20.501,56.981C19.756,57.675 18.733,57.986 17.728,57.825C19.54,57.481 19.76,55.6 19.76,55.6C18.406,55.937 17.018,55.191 16.552,53.876C16.464,54.364 16.123,54.769 15.657,54.94C15.959,54.55 16.064,54.042 15.94,53.565C14.43,52.149 15.08,51.177 15.08,51.177C13.319,52.473 11.391,51.299 11.391,51.299C12.608,50.887 13.509,49.852 13.749,48.59C10.368,47.015 12.438,42.424 12.438,42.424C11.884,43.13 10.801,42.62 10.801,42.62C13.899,41.293 11.966,39.544 11.966,39.544C9.128,36.916 12.522,35.291 12.602,35.254C10.406,36.093 10.46,34.94 10.46,34.94C11.502,34.915 12.405,34.209 12.679,33.203C15.161,27.039 18.505,27.42 18.576,27.426C17.812,27.292 17.028,27.33 16.281,27.537C18.147,25.191 21.644,25.836 21.644,25.836C20.438,25.08 17.899,25.044 17.899,25.044C21.446,22.13 25.849,25.308 25.849,25.308C25.849,25.308 27.429,20.914 31.922,22.156C31.922,22.156 30.437,22.193 28.778,24.533C29.871,23.737 32.55,21.616 36.327,23.227C35.523,23.557 34.736,23.928 33.969,24.34C38.812,23.696 40.759,26.578 43.632,26.726C42.786,27.14 41.869,27.389 40.931,27.463C42.578,28.251 43.663,31.452 45.213,30.787C45.213,30.787 44.957,31.891 43.205,31.603C43.29,31.62 46.972,32.4 44.833,35.622C44.833,35.622 43.366,37.777 46.689,38.338C46.689,38.338 45.647,39.251 44.942,38.697C44.942,38.697 47.586,41.841 45.884,44.162C45.48,44.703 45.533,45.458 46.009,45.937C46.581,46.517 47.348,46.864 48.161,46.911C48.161,46.911 46.565,48.505 44.548,47.659Z" fill="#29292c" fill-opacity="1.0" fill-rule="nonZero" stroke="#00000000" stroke-width="1.0"/>
        <path d="M27.858,43.704C27.858,43.704 25.585,36.654 21.442,38.086C17.299,39.519 17.982,45.822 19.125,45.967C20.267,46.112 27.858,43.704 27.858,43.704Z" fill="#696969" fill-opacity="1.0" fill-rule="nonZero" stroke="#00000000" stroke-width="1.0"/>
        <path d="M29.114,43.553C29.114,43.553 30.013,36.042 34.374,36.458C38.736,36.875 39.211,43.285 38.135,43.695C37.058,44.105 29.114,43.553 29.114,43.553Z" fill="#696969" fill-opacity="1.0" fill-rule="nonZero" stroke="#00000000" stroke-width="1.0"/>
        <path d="M23.061,41.819m-2.11,0.366a2.141,2.141 125.157,1 1,4.219 -0.732a2.141,2.141 125.157,1 1,-4.219 0.732" fill="#000000" fill-opacity="1.0" fill-rule="nonZero" stroke="#00000000" stroke-width="1.0"/>
        <path d="M23.546,40.916m-0.985,0.171a1,1 64.645,1 1,1.971 -0.342a1,1 64.645,1 1,-1.971 0.342" fill="#ffffff" fill-opacity="1.0" fill-rule="nonZero" stroke="#00000000" stroke-width="1.0"/>
        <path d="M33.555,40.565m-2.11,0.366a2.141,2.141 125.157,1 1,4.219 -0.732a2.141,2.141 125.157,1 1,-4.219 0.732" fill="#000000" fill-opacity="1.0" fill-rule="nonZero" stroke="#00000000" stroke-width="1.0"/>
        <path d="M34.04,39.662m-0.985,0.171a1,1 64.645,1 1,1.971 -0.342a1,1 64.645,1 1,-1.971 0.342" fill="#ffffff" fill-opacity="1.0" fill-rule="nonZero" stroke="#00000000" stroke-width="1.0"/>
        <path d="M41.251,37.261C41.134,35.952 40.097,34.915 38.788,34.797C39.457,34.541 40.151,34.358 40.86,34.253L40.86,34.253C38.95,32.104 35.58,32.381 33.742,33.028L35.317,31.808C30.414,32.152 28.952,35.112 28.952,35.112C29.055,34.704 29.117,34.287 29.137,33.866C28.592,34.236 28.176,34.768 27.949,35.387C27.879,35.268 27.798,35.157 27.707,35.054C27.642,35.175 27.59,35.303 27.551,35.434C27.184,34.887 26.655,34.468 26.038,34.236C26.157,34.64 26.315,35.031 26.511,35.403C26.511,35.403 24.393,32.871 19.546,33.692L21.365,34.504C19.426,34.308 16.086,34.834 14.736,37.372L14.736,37.372C15.449,37.307 16.167,37.321 16.878,37.412C15.633,37.835 14.869,39.088 15.064,40.387C15.532,40.074 15.967,39.713 16.36,39.31C16.36,39.31 15.272,42.131 16.048,43.338L17.332,41.616C16.933,42.975 17.768,44.411 18.509,44.495C19.272,41.462 20.506,38.674 23.2,38.785C25.894,38.895 26.331,43.258 26.331,43.258L27.452,42.996L27.798,42.915L27.798,42.93L28.22,42.817L28.545,42.741L28.626,42.741L28.706,42.722L29.039,42.719L29.474,42.73L29.47,42.716L29.825,42.713L30.976,42.703C30.976,42.703 30.372,38.361 32.963,37.619C35.554,36.877 37.413,39.296 38.869,42.063C39.568,41.808 40.043,40.215 39.334,38.988L40.988,40.359C41.458,39.005 39.736,36.518 39.736,36.518C40.214,36.817 40.722,37.067 41.251,37.261L41.251,37.261Z" fill="#ece8df" fill-opacity="1.0" fill-rule="nonZero" stroke="#00000000" stroke-width="1.0"/>
        <path d="M30.127,39.554C30.151,38.905 30.743,36.467 31.161,35.845C29.855,36.06 28.681,37.598 28.681,37.598L28.681,37.598C28.757,37.192 28.779,36.778 28.748,36.366C28.442,36.816 28.204,37.309 28.043,37.829L28.038,37.821L28.034,37.83C27.756,37.362 27.408,36.938 27.005,36.573C27.071,36.98 27.19,37.378 27.36,37.754L27.36,37.754C27.36,37.754 25.86,36.536 24.538,36.635C25.09,37.141 26.239,39.371 26.416,39.996C26.126,39.745 25.779,39.571 25.405,39.489C25.405,39.489 28.326,44.937 28.289,45.348C28.224,46.046 28.799,46.539 28.942,46.883C29.053,46.96 29.204,46.942 29.294,46.841C29.352,46.473 29.795,45.858 29.567,45.196C29.434,44.809 30.99,38.823 30.99,38.823C30.646,38.991 30.349,39.242 30.127,39.554L30.127,39.554Z" fill="#f7f5f2" fill-opacity="1.0" fill-rule="nonZero" stroke="#00000000" stroke-width="1.0"/>
        <path d="M37.223,49.695C37.223,49.695 37.438,49.478 37.194,47.439C37.071,46.409 32.749,47.004 29.233,47.99C25.586,47.86 22.041,48.204 22.164,49.235C22.406,51.274 22.667,51.434 22.667,51.434C22.667,51.434 22.092,53.978 22.618,55.229C22.765,54.893 23.018,54.614 23.339,54.437C23.339,54.437 23.019,56.4 23.655,57.476C23.655,57.476 23.889,56.549 24.38,56.434C24.422,57.596 24.809,58.719 25.493,59.66C25.951,60.022 27.368,61.027 28.823,60.905C28.591,60.665 28.406,60.384 28.277,60.077C28.277,60.077 30.101,61.565 31.258,61.509C32.329,61.337 33.804,59.417 33.804,59.417C33.751,59.746 33.637,60.063 33.469,60.351C34.911,60.126 36.052,58.815 36.412,58.356C36.854,57.28 36.966,56.098 36.733,54.958C37.239,54.954 37.684,55.799 37.684,55.799C38.049,54.604 37.276,52.772 37.276,52.772C37.63,52.868 37.943,53.078 38.165,53.371C38.38,52.032 37.223,49.695 37.223,49.695Z" fill="#ece8df" fill-opacity="1.0" fill-rule="nonZero" stroke="#00000000" stroke-width="1.0"/>
        <path d="M32.286,48.755C29.679,49.136 29.068,45.543 29.068,45.543C29.068,45.543 29.321,49.179 26.698,49.423C24.771,49.602 23.134,48.292 21.887,46.911C22.509,49.082 25.272,55.681 30.214,55.091C35.155,54.5 36.278,47.436 36.371,45.181C35.484,46.817 34.202,48.475 32.286,48.755Z" fill="#33211e" fill-opacity="1.0" fill-rule="nonZero" stroke="#00000000" stroke-width="1.0"/>
        <path d="M41.778,46.74C41.23,44.637 39.602,44.588 39.602,44.588C40.15,44.312 40.744,44.138 41.355,44.074C40.265,42.412 37.641,42.969 37.641,42.969C38.453,42.557 39.33,42.287 40.234,42.171C37.25,40.122 31.492,42.769 31.492,42.769C31.797,42.383 32.17,42.057 32.593,41.807C32.034,41.723 31.464,41.757 30.919,41.907C30.944,41.474 31.077,41.053 31.306,40.684C30.505,40.953 29.84,41.523 29.451,42.273C29.451,42.273 29.419,41.998 29.396,41.191C29.049,41.593 28.78,42.055 28.603,42.556C28.312,42.112 27.942,41.725 27.51,41.416C27.678,42.206 27.711,42.48 27.711,42.48C27.157,41.842 26.376,41.445 25.534,41.373C25.844,41.677 26.073,42.054 26.199,42.47C25.635,42.452 25.073,42.553 24.55,42.766C25.019,42.911 25.457,43.14 25.843,43.443C25.843,43.443 19.624,42.228 17.208,44.922C18.113,44.822 19.029,44.878 19.916,45.086C19.916,45.086 17.235,45.163 16.567,47.035C17.175,46.954 17.793,46.983 18.391,47.123C18.391,47.123 16.823,47.553 16.785,49.726C16.785,49.726 17.834,49.547 18.148,49.528C18.013,50.219 18.07,50.935 18.314,51.596L19.392,49.836C19.349,50.625 19.465,51.414 19.733,52.157C20.196,51.687 20.605,51.167 20.953,50.607C20.953,50.607 20.718,51.848 20.904,52.337C21.478,52.098 21.992,51.734 22.408,51.273C22.284,51.555 22.244,51.866 22.29,52.17C22.29,52.17 26.581,50.915 29.259,48.039C32.539,50.203 37.006,50.412 37.006,50.412C36.979,50.105 36.866,49.813 36.679,49.568C37.193,49.917 37.777,50.149 38.391,50.245C38.457,49.726 37.936,48.575 37.936,48.575C38.406,49.038 38.926,49.447 39.486,49.795C39.572,49.01 39.499,48.216 39.272,47.46L40.734,48.916C40.815,48.216 40.702,47.507 40.408,46.867C40.717,46.813 41.778,46.74 41.778,46.74Z" fill="#d3cecd" fill-opacity="1.0" fill-rule="nonZero" stroke="#00000000" stroke-width="1.0"/>
        <path d="M31.797,44.726C31.711,43.918 30.394,43.395 28.851,43.558C27.308,43.721 26.13,44.507 26.215,45.316C26.3,46.124 28.263,47.609 29.28,47.528C30.337,47.445 31.882,45.534 31.797,44.726Z" fill="#000000" fill-opacity="1.0" fill-rule="nonZero" stroke="#00000000" stroke-width="1.0"/>
        <path android:fillAlpha="0.5" android:strokeAlpha="0.5" d="M27.095,44.956a1,1.206 75.836,1 0,2.338 -0.59a1,1.206 75.836,1 0,-2.338 0.59z" fill="#ffffff" fill-opacity="1.0" fill-rule="nonZero" stroke="#00000000" stroke-width="1.0"/>
        <path d="M28.459,51.757C28.617,50.697 29.516,50.206 30.288,49.71C30.684,49.484 30.96,49.095 31.042,48.646C31.055,48.095 31.001,47.545 30.879,47.008C30.718,45.941 31.437,44.941 32.499,44.754C33.413,44.607 34.341,44.914 34.987,45.576C35.665,46.26 36.053,47.18 36.07,48.143C36.167,50.33 34.724,52.135 33.147,53.313C32.773,53.648 32.345,53.92 31.882,54.115C31.447,54.218 30.992,54.058 30.717,53.705C30.622,53.571 30.517,53.445 30.404,53.327C30.324,53.264 30.32,53.289 30.162,53.321C30.025,53.349 29.885,53.364 29.745,53.366C28.915,53.471 28.334,52.597 28.459,51.757Z" fill="#e3787c" fill-opacity="1.0" fill-rule="nonZero" stroke="#00000000" stroke-width="1.0"/>
        <path d="M28.504,52.425C28.511,52.383 28.519,52.34 28.53,52.298C28.54,52.256 28.555,52.206 28.57,52.16C28.573,52.153 28.576,52.147 28.58,52.142C28.611,52.092 28.64,52.041 28.665,51.989C28.706,51.949 28.899,51.768 28.828,51.816C28.914,51.753 29.003,51.698 29.093,51.642C29.238,51.554 29.118,51.618 29.245,51.565C29.303,51.54 29.363,51.516 29.422,51.497C29.583,51.44 29.747,51.4 29.91,51.352C30.198,51.273 30.476,51.162 30.738,51.021C31.889,50.392 31.891,49.098 31.787,47.898C31.758,47.566 31.738,47.231 31.742,46.897C31.737,46.631 31.771,46.366 31.842,46.109C31.964,45.697 32.271,45.365 32.673,45.211C32.834,45.151 33,45.104 33.169,45.071L33.238,45.061C33.301,45.054 33.363,45.049 33.426,45.046C33.558,45.038 33.691,45.038 33.823,45.046C33.924,45.043 34.025,45.056 34.121,45.085C34.255,45.114 34.387,45.152 34.515,45.199C34.683,45.311 34.841,45.437 34.988,45.577C35.666,46.261 36.054,47.181 36.07,48.144C36.167,50.331 34.724,52.136 33.148,53.314C32.773,53.649 32.346,53.921 31.883,54.116C31.447,54.219 30.992,54.059 30.717,53.706C30.622,53.572 30.518,53.446 30.404,53.328C30.324,53.265 30.32,53.29 30.162,53.322C30.025,53.35 29.885,53.365 29.745,53.367C29.153,53.412 28.621,53.007 28.504,52.425Z" fill="#b54a4e" fill-opacity="1.0" fill-rule="nonZero" stroke="#00000000" stroke-width="1.0"/>
    </g>
    <path d="M55.408,105.719m-29.219,0a29.219,29.219 0,1 1,58.439 0a29.219,29.219 0,1 1,-58.439 0" fill="#3b5080" fill-opacity="1.0" fill-rule="evenOdd" stroke="#00000000" stroke-width="1.0"/>
    <g>
        <clip-path android:pathData="M55.408,105.719m-29.219,0a29.219,29.219 0,1 1,58.439 0a29.219,29.219 0,1 1,-58.439 0"/>
        <path d="M66.739,91.422C66.739,91.422 67.48,89.011 73.307,90.309C73.307,90.309 69.237,90.867 69.237,91.422C69.237,91.422 72.013,89.196 78.766,96.617L77.194,96.617L78.766,97.915C78.766,97.915 79.94,101.254 73.851,105.938L66.739,102.276L66.739,91.422Z" fill="#e5d1a1" fill-opacity="1.0" fill-rule="nonZero" stroke="#00000000" stroke-width="1.0"/>
        <path d="M35.085,103.466L36.761,101.983C36.761,101.983 35.219,104.051 35.494,106.57C35.626,107.692 36.093,108.747 36.835,109.596L37.294,107.209C37.234,107.629 36.48,113.494 39.333,115.999L39.608,113.309C39.608,113.386 39.635,117.512 45.054,120.915L45.054,120.259C45.329,120.999 46.563,122.361 51.264,124.247L51.12,123.612C51.324,124.008 51.911,124.587 53.608,125.266L54.553,126.164C55.294,126.473 57.745,125.471 57.745,125.471C60.562,124.167 60.907,123.286 60.948,123.117L60.74,124.301C65.334,122.172 66.497,120.747 66.732,119.99L66.765,120.643C67.684,120.005 68.528,119.265 69.28,118.437C69.602,118.08 69.902,117.703 70.179,117.31L70.263,117.186C71.923,114.738 71.805,112.757 71.805,112.757L72.224,115.447C72.496,115.182 72.735,114.885 72.935,114.563C73.04,114.39 73.137,114.215 73.227,114.038C73.411,113.649 73.562,113.246 73.68,112.831C74.441,110.121 73.867,106.933 73.804,106.573L74.384,108.927C77.244,105.154 74.079,101.328 74.079,101.328L75.826,102.706C76.714,100.228 70.511,94.972 70.511,94.972L74.602,96.99C71.433,87.78 60.421,89.754 60.421,89.754L65.689,87.713C60.958,86.704 58.543,87.884 57.487,88.748L60.217,85.863C57.611,85.006 55.673,88.325 55.16,89.32L55.16,89.276C54.972,88.92 52.655,84.73 49.792,85.843L52.655,88.584C51.555,87.78 49.081,86.714 44.413,87.978L49.778,89.74C49.584,89.717 45.225,89.226 41.365,91.166C40.836,91.428 40.331,91.734 39.853,92.081L39.803,92.114C37.94,93.496 36.602,95.471 36.007,97.716L39.987,95.49C39.987,95.49 34.065,101.055 35.085,103.466" fill="#ede8df" fill-opacity="1.0" fill-rule="nonZero" stroke="#00000000" stroke-width="1.0"/>
        <path d="M53.604,97.326C53.604,97.326 55.11,97.958 56.448,100.417C56.448,100.417 56.488,96.674 56.853,96.845C57.102,96.963 57.806,98.729 58.228,99.246C58.634,98.712 58.939,97.642 59.181,97.518C59.539,97.33 58.919,100.057 58.919,100.057C59.699,98.557 61.121,97.497 62.778,97.182C74.092,97.925 73.274,109.136 72.248,106.516C71.021,103.386 68.697,106.735 65.914,107.189C64.074,107.458 62.203,107.443 60.368,107.145L58.245,107.7L56.008,107.538C56.008,107.538 55.116,107.142 52.32,106.775C49.523,106.409 45.027,103.944 43.897,107.111C42.971,109.694 42.331,98.439 53.621,97.313" fill="#ddd5bf" fill-opacity="1.0" fill-rule="nonZero" stroke="#00000000" stroke-width="1.0"/>
        <path d="M42.391,91.422C42.391,91.422 41.65,89.011 35.822,90.309C35.822,90.309 39.893,90.867 39.893,91.422C39.893,91.422 37.12,89.196 30.367,96.617L31.939,96.617L30.367,97.915C30.367,97.915 29.183,101.254 35.283,105.938C36.45,105.36 37.531,104.622 38.495,103.745C39.393,102.77 40.221,101.732 40.973,100.638C40.973,100.638 42.113,97.767 42.391,95.706C42.551,94.282 42.551,92.845 42.391,91.422" fill="#e5d1a1" fill-opacity="1.0" fill-rule="nonZero" stroke="#00000000" stroke-width="1.0"/>
        <path d="M45.258,120.713C45.842,121.507 47.371,122.7 51.22,124.24L51.073,123.605C51.277,124.002 51.867,124.583 53.567,125.266L54.513,126.164L54.684,126.208C55.573,126.342 57.702,125.471 57.702,125.471C60.522,124.16 60.867,123.275 60.911,123.117L60.7,124.304C61.072,124.133 61.42,123.968 61.749,123.803C61.844,123.689 61.919,123.56 61.97,123.42L61.92,123.719C64.636,122.347 65.857,121.308 66.386,120.589L65.092,120.414L66.034,117.209L64.854,111.493L48.407,111.87L45.748,117.192L46.838,119.718L45.298,119.519C45.348,119.92 45.334,120.326 45.258,120.723" fill="#ddd5bf" fill-opacity="1.0" fill-rule="nonZero" stroke="#00000000" stroke-width="1.0"/>
        <path d="M52.947,111.355L64.14,111.355C64.14,111.355 64.301,115.821 59.697,120.249L56.186,119.879C56.186,119.879 52.41,117.767 52.944,111.355" fill="#33211e" fill-opacity="1.0" fill-rule="nonZero" stroke="#00000000" stroke-width="1.0"/>
        <path d="M50.902,102.303C50.177,103.154 50.035,104.36 50.542,105.357C51.05,106.354 52.106,106.947 53.219,106.858C54.332,106.77 55.282,106.018 55.626,104.953C55.97,103.888 55.641,102.72 54.791,101.994C53.632,101.002 51.891,101.141 50.902,102.303" fill="#020000" fill-opacity="1.0" fill-rule="nonZero" stroke="#00000000" stroke-width="1.0"/>
        <path d="M51.217,102.791C50.905,103.151 50.943,103.696 51.301,104.009C51.66,104.322 52.204,104.285 52.517,103.925C52.829,103.566 52.792,103.02 52.434,102.706C52.26,102.557 52.034,102.483 51.805,102.502C51.577,102.52 51.365,102.629 51.217,102.804" fill="#ffffff" fill-opacity="1.0" fill-rule="nonZero" stroke="#00000000" stroke-width="1.0"/>
        <path d="M62.661,101.062C61.253,101.351 60.384,102.949 60.726,104.626C61.068,106.304 62.49,107.431 63.902,107.142C65.313,106.853 66.179,105.255 65.837,103.577C65.495,101.899 64.073,100.773 62.661,101.062" fill="#020000" fill-opacity="1.0" fill-rule="nonZero" stroke="#00000000" stroke-width="1.0"/>
        <path d="M61.511,102.639C61.285,102.905 61.241,103.282 61.399,103.593C61.558,103.905 61.888,104.089 62.235,104.061C62.583,104.034 62.88,103.798 62.987,103.466C63.094,103.133 62.99,102.768 62.725,102.542C62.552,102.392 62.326,102.317 62.098,102.336C61.869,102.354 61.658,102.463 61.511,102.639" fill="#ffffff" fill-opacity="1.0" fill-rule="nonZero" stroke="#00000000" stroke-width="1.0"/>
        <path d="M53.604,96.388C55.271,96.648 56.728,97.659 57.558,99.132C57.558,99.132 56.488,96.664 56.853,96.835C57.102,96.953 57.806,97.79 58.228,98.308C58.634,97.774 59.305,96.926 59.546,96.802C59.905,96.617 58.919,99.119 58.919,99.119C59.701,97.62 61.122,96.561 62.778,96.244C74.092,96.987 73.415,109.66 72.248,106.506C71.081,103.352 66.192,100.884 63.406,101.361C60.619,101.839 60.723,106.557 60.723,106.557L58.268,106.792L56.008,106.61C56.008,106.61 55.948,101.879 53.148,101.509C50.348,101.139 44.943,103.924 43.887,107.115C42.831,110.306 42.321,97.515 53.611,96.388" fill="#ffffff" fill-opacity="1.0" fill-rule="nonZero" stroke="#00000000" stroke-width="1.0"/>
        <path d="M46.184,109.963C45.768,109.869 44.795,110.565 44.795,110.565C45.446,108.292 48.682,107.132 48.682,107.132C48.082,106.762 46.415,107.411 46.415,107.411C47.525,105.787 50.533,105.834 50.533,105.834L53.349,106.59C53.558,106.647 53.774,106.668 53.99,106.651L59.174,106.251L59.174,106.251L64.391,106.651C64.607,106.668 64.823,106.647 65.032,106.59L67.848,105.834C67.848,105.834 70.866,105.787 71.963,107.411C71.963,107.411 70.286,106.762 69.696,107.132C69.696,107.132 72.935,108.292 73.582,110.565C73.582,110.565 72.61,109.869 72.194,109.963C72.194,109.963 74.229,112.001 74.229,114.183C74.229,114.183 74.092,114.832 73.767,114.647C73.767,114.647 72.798,112.929 72.519,113.208C72.519,113.208 73.72,115.481 72.751,116.547C72.751,116.547 72.519,116.779 72.335,116.547C72.335,116.547 72.379,115.343 71.594,114.647C71.594,114.647 72.01,117.707 70.947,118.218C70.947,118.218 70.3,118.82 70.484,117.754C70.484,117.754 70.668,117.522 70.206,116.641C70.206,116.641 70.303,118.124 69.468,118.867C69.468,118.867 68.911,116.779 68.402,116.873C68.402,116.873 68.496,118.077 68.066,118.867C68.066,118.867 67.466,118.726 66.608,117.381L66.608,118.356C66.608,118.356 66.678,119.005 66.215,118.356C65.272,116.336 64.716,114.156 64.576,111.93C64.576,111.93 64.723,113.208 60.468,112.35C60.292,112.296 60.123,112.219 59.965,112.122C59.768,112.222 59.56,112.3 59.345,112.354C55.09,113.211 53.789,111.933 53.789,111.933C53.649,114.159 53.094,116.339 52.152,118.359C51.69,119.008 51.757,118.359 51.757,118.359L51.757,117.384C50.902,118.729 50.301,118.87 50.301,118.87C50.036,118.241 49.921,117.558 49.966,116.876C49.46,116.782 48.9,118.87 48.9,118.87C48.068,118.127 48.162,116.644 48.162,116.644C47.699,117.525 47.887,117.757 47.887,117.757C48.072,118.823 47.424,118.221 47.424,118.221C46.358,117.71 46.777,114.65 46.777,114.65C45.989,115.346 46.036,116.55 46.036,116.55C45.852,116.782 45.62,116.55 45.62,116.55C44.648,115.484 45.852,113.211 45.852,113.211C45.573,112.932 44.601,114.65 44.601,114.65C44.266,114.835 44.138,114.186 44.138,114.186C44.138,112.004 46.174,109.966 46.174,109.966" fill="#ffffff" fill-opacity="1.0" fill-rule="nonZero" stroke="#00000000" stroke-width="1.0"/>
        <path d="M60.368,106.775C61.313,106.775 63.124,107.169 63.01,108.15C62.896,109.132 61.487,110.356 60.327,110.366C59.291,110.366 57.89,108.9 57.883,108.157C57.876,107.414 58.939,106.785 60.361,106.775" fill="#000000" fill-opacity="1.0" fill-rule="nonZero" stroke="#00000000" stroke-width="1.0"/>
        <g>
            <clip-path android:pathData="M59.026,107.152l1.874,0l0,0.915l-1.874,0z"/>
            <path android:fillAlpha="0.5" android:strokeAlpha="0.5" d="M59.026,107.67C59.026,107.922 59.476,108.097 59.995,108.063C60.515,108.029 60.917,107.797 60.901,107.549C60.884,107.3 60.455,107.122 59.935,107.155C59.415,107.189 59.026,107.414 59.026,107.67" fill="#ffffff" fill-opacity="1.0" fill-rule="nonZero" stroke="#00000000" stroke-width="1.0"/>
        </g>
        <path d="M61.213,120.246C61.155,119.806 61.017,119.38 60.803,118.991C60.24,118.188 59.348,118.857 58.614,118.877C58.188,118.877 57.182,118.279 56.424,118.47C56.247,118.509 56.092,118.614 55.988,118.763C55.821,119.042 55.921,119.479 55.945,119.772C56.009,120.267 55.971,120.771 55.831,121.251C55.701,121.555 55.546,121.847 55.368,122.125C55.285,122.392 55.237,122.667 55.224,122.946C55.228,123.415 55.342,123.876 55.559,124.291C56.149,125.347 57.417,126.006 58.61,126.174C59.33,126.264 60.06,126.118 60.689,125.757C61.652,125.236 62.178,123.992 62.064,122.899C61.977,122.085 61.367,121.443 61.196,120.209" fill="#e3787c" fill-opacity="1.0" fill-rule="nonZero" stroke="#00000000" stroke-width="1.0"/>
        <path d="M58.755,124.072C58.755,124.23 58.775,124.409 58.788,124.553C58.989,123.765 59.115,122.96 59.167,122.149C59.224,121.033 59.382,119.173 60.968,119.402L61.005,119.402C60.957,119.257 60.889,119.12 60.803,118.995C60.243,118.191 59.348,118.857 58.614,118.877C58.188,118.877 57.185,118.275 56.428,118.46C56.251,118.501 56.095,118.606 55.992,118.756C55.908,118.917 55.875,119.1 55.898,119.281C57.088,119.17 58.245,120.289 58.557,121.53C58.706,122.367 58.773,123.216 58.755,124.066" fill="#b54a4e" fill-opacity="1.0" fill-rule="nonZero" stroke="#00000000" stroke-width="1.0"/>
    </g>
    <path d="M231.5,40.5m-29.5,0a29.5,29.5 0,1 1,59 0a29.5,29.5 0,1 1,-59 0" fill="#ededed" fill-opacity="1.0" fill-rule="evenOdd" stroke="#00000000" stroke-width="1.0"/>
    <g>
        <clip-path android:pathData="M231.5,40.5m-29.5,0a29.5,29.5 0,1 1,59 0a29.5,29.5 0,1 1,-59 0"/>
        <path d="M226.952,24.824C226.83,21.693 226.191,18.402 223.902,15.987C223.646,15.717 223.342,15.446 222.946,15.388C222.391,15.307 221.89,15.671 221.511,16.035C220.22,17.275 219.325,18.789 218.534,20.318C217.81,21.715 217.158,23.147 216.74,24.637C216.102,26.907 216.021,29.299 216.526,31.597C216.677,32.286 216.895,32.993 217.416,33.528C217.937,34.062 218.836,34.374 219.568,34.089L226.952,24.824Z" fill="#000000" fill-opacity="1.0" fill-rule="evenOdd" stroke="#00000000" stroke-width="1.0"/>
        <path d="M223.448,16.049C221.555,16.445 218.153,23.635 219.027,29.469C219.551,29.612 222.813,29.03 223.185,29.383L226.945,24.276C227.062,23.2 225.681,16.351 223.448,16.049" fill="#e5e5e1" fill-opacity="1.0" fill-rule="evenOdd" stroke="#00000000" stroke-width="1.0"/>
        <path d="M234.349,23.619C233.555,20.618 233.215,17.308 234.729,14.329C234.897,13.997 235.114,13.647 235.48,13.473C235.994,13.229 236.586,13.422 237.058,13.652C238.67,14.437 239.977,15.6 241.189,16.808C242.297,17.913 243.346,19.072 244.185,20.356C245.464,22.313 246.238,24.554 246.419,26.882C246.473,27.581 246.468,28.316 246.119,28.98C245.77,29.644 244.991,30.21 244.198,30.161L234.349,23.619Z" fill="#000000" fill-opacity="1.0" fill-rule="evenOdd" stroke="#00000000" stroke-width="1.0"/>
        <path d="M235.685,14.708C237.572,14.532 242.862,20.454 243.756,26.332C243.307,26.624 240.085,27.026 239.84,27.475L234.826,23.665C234.402,22.663 233.684,15.658 235.685,14.708" fill="#e5e5e1" fill-opacity="1.0" fill-rule="evenOdd" stroke="#00000000" stroke-width="1.0"/>
        <path d="M254.242,41.228C254.242,41.228 252.373,42.24 251.541,42.528C252.905,40.664 252.992,37.469 252.992,37.469C252.992,37.469 251.549,38.545 249.479,38.737C250.309,38.367 251.178,37.342 252.231,36.095C248.66,34.638 247.997,26.767 236.719,21.85C234.141,20.726 232.227,22.162 230.647,22.42L230.646,22.418C230.62,22.423 230.593,22.427 230.567,22.432C230.54,22.436 230.514,22.439 230.487,22.442L230.487,22.444C228.902,22.664 227.087,21.799 224.952,23.627C214.889,32.238 216.807,38.783 213.828,41.229C215.204,42.109 216.338,42.831 217.24,42.939C215.206,43.367 213.509,42.765 213.509,42.765C213.509,42.765 214.539,45.791 216.395,47.169C215.515,47.14 213.704,45.71 213.704,45.71C213.704,45.71 215.374,49.876 216.661,50.907C216.661,50.907 215.586,50.365 214.571,50.846C215.731,51.29 220.46,55.112 224.795,57.984C228.634,60.528 228.993,62.236 232.725,61.634C241.52,60.296 252.842,46.872 254.51,45.79C253.218,45.874 252.396,46.176 252.396,46.176C253.319,44.812 254.242,41.228 254.242,41.228" fill="#29292c" fill-opacity="1.0" fill-rule="evenOdd" stroke="#00000000" stroke-width="1.0"/>
        <path d="M249.803,43.036C248.312,43.572 247.727,43.911 246.647,44.175C248.222,41.901 249.02,39.138 248.882,38.461C247.89,38.606 246.068,38.712 245.156,38.241C245.79,37.948 247.009,37.352 247.466,36.385C242.196,36.185 238.854,31.666 236.066,29.681C234.651,28.673 233.003,28.689 231.868,29.027C229.62,29.695 229.794,38.198 232.079,39.312C231.586,39.463 230.246,38.887 229.735,38.334C229.913,39.429 230.603,41.292 230.603,41.292C230.603,41.292 229.238,40.867 229.053,38.137C228.731,37.751 228.411,38.204 228.135,37.776C228.538,39.8 227.267,40.955 227.021,41.006C227.865,36.086 227.436,30.004 224.556,30.06C220.242,30.142 219.581,37.792 218.919,39.098C217.833,41.24 216.87,41.07 216.275,41.195C216.992,41.981 218.33,42.183 219.02,42.272C218.286,42.997 216.514,43.445 215.525,43.605C215.59,44.294 217.155,46.693 219.32,48.39C218.211,48.463 217.553,48.316 215.974,48.253C216.917,51.891 228.739,61.149 233.834,60.364C238.929,59.577 249.958,46.795 249.803,43.036" fill="#e5e5e1" fill-opacity="1.0" fill-rule="evenOdd" stroke="#00000000" stroke-width="1.0"/>
        <path d="M228.911,56.814C230.341,53.858 231.938,50.985 233.673,48.195C232.512,48.771 231.373,49.413 230.295,49.718C228.681,50.175 226.987,49.903 225.427,49.349C224.549,49.037 224.154,48.446 223.88,47.662C223.667,47.562 223.528,47.329 223.637,47.057C224.383,45.202 225.805,43.761 226.377,41.818C226.408,41.715 226.433,41.609 226.462,41.504C226.448,41.512 226.435,41.521 226.424,41.523C227.274,36.72 226.841,30.782 223.943,30.836C219.601,30.917 218.936,38.386 218.269,39.661C217.176,41.752 216.207,41.585 215.608,41.708C216.329,42.475 217.676,42.672 218.37,42.76C217.632,43.467 215.849,43.904 214.853,44.061C214.918,44.733 216.493,47.075 218.673,48.732C217.556,48.803 216.894,48.659 215.304,48.599C215.964,51.067 222.162,56.475 227.75,59.066C228.053,58.396 228.591,57.477 228.911,56.814" fill="#adadad" fill-opacity="1.0" fill-rule="evenOdd" stroke="#00000000" stroke-width="1.0"/>
        <path d="M228.673,35.514C227.868,33.864 228.432,31.153 228.191,28.147C228.044,33.796 227.281,34.104 227.806,34.888C228.166,35.425 228.492,36.649 227.857,36.808C227.723,36.841 227.641,37.033 227.642,37.188C227.646,37.611 227.871,37.883 227.985,38.284C228.245,39.2 228.134,40.227 227.893,41.141C227.769,41.61 228.371,41.781 228.494,41.315C228.72,40.459 228.672,39.601 228.732,38.706C228.802,37.678 228.273,37.599 228.388,37.42C228.503,37.242 229.431,37.067 228.673,35.514" fill="#e5e5e1" fill-opacity="1.0" fill-rule="evenOdd" stroke="#00000000" stroke-width="1.0"/>
        <path d="M232.248,46.383C231.138,49.268 230.184,52.207 229.307,55.168C228.952,56.369 228.622,57.582 228.296,58.796C229.384,59.23 229.786,59.536 230.871,59.738C230.836,59.319 231.341,59.063 231.582,58.706C231.896,58.241 233.369,57.577 233.501,57.516C237.364,55.594 238.367,51.759 238.426,51.387C238.715,49.548 239.256,47.492 238.969,45.623C236.883,46.438 234.497,46.521 232.248,46.383" fill="#adadad" fill-opacity="1.0" fill-rule="evenOdd" stroke="#00000000" stroke-width="1.0"/>
        <path d="M234.222,33.936C232.251,35.179 233.142,38.559 233.638,40.918C234.071,40.595 234.563,40.353 235.095,40.19C236.058,39.894 237.115,40.07 238.048,39.69C239.674,39.028 239.723,35.605 239.723,35.605C239.723,35.605 236.638,32.414 234.222,33.936" fill="#adadad" fill-opacity="1.0" fill-rule="evenOdd" stroke="#00000000" stroke-width="1.0"/>
        <path d="M225.687,53.182C224.791,58.914 231.735,57.898 233.701,57.099C235.788,56.25 237.265,53.959 237.821,52.481C238.606,50.394 240.186,45.821 239.592,43.671C239.475,43.247 238.094,45.078 237.81,44.74C237.528,44.402 235.4,45.283 234.958,45.311C234.563,45.336 234.214,45.567 233.9,45.807C232.961,46.524 226.056,50.819 225.687,53.182" fill="#2f2d34" fill-opacity="1.0" fill-rule="evenOdd" stroke="#00000000" stroke-width="1.0"/>
        <path d="M237.148,41.751C234.301,45.085 230.023,43.513 226.627,40.918C225.384,43.575 223.471,45.992 222.567,46.933C221.232,48.276 220.307,49.563 221.356,51.456C221.712,52.1 222.159,52.904 222.676,53.702C224.312,55.665 225.569,53.149 225.569,53.149C225.569,53.149 229.183,54.025 232.733,51.883C234.557,50.782 238.582,46.396 238.446,43.536C238.799,44.675 238.446,57.005 229.77,57.713C235.53,57.975 237.544,52.726 238.564,49.685C240.029,45.312 240.626,43.693 237.148,41.751" fill="#e5e5e1" fill-opacity="1.0" fill-rule="evenOdd" stroke="#00000000" stroke-width="1.0"/>
        <path d="M233.673,51.173C232.078,51.629 228.296,51.427 227.517,49.656C226.4,50.357 224.739,50.513 223.52,50.08C223.121,50.769 222.868,52.03 222.927,53.188C223.006,53.321 223.085,53.455 223.166,53.589C224.76,55.614 225.984,53.017 225.984,53.017C225.984,53.017 230.123,54.177 233.673,51.173" fill="#adadad" fill-opacity="1.0" fill-rule="evenOdd" stroke="#00000000" stroke-width="1.0"/>
        <path d="M223.652,35.667C225.405,36.303 225.398,39.105 225.607,41.509C225.211,41.322 224.79,41.229 224.358,41.222C223.578,41.21 222.844,41.677 222.065,41.576C220.708,41.4 220.23,37.977 220.23,37.977C220.23,37.977 221.505,34.888 223.652,35.667" fill="#000000" fill-opacity="1.0" fill-rule="evenOdd" stroke="#00000000" stroke-width="1.0"/>
        <path d="M225.571,38.288C225.781,39.578 225.065,40.748 223.972,40.901C222.878,41.055 221.821,40.134 221.611,38.844C221.401,37.554 222.117,36.384 223.21,36.23C224.304,36.076 225.361,36.997 225.571,38.288" fill="#7a9cbc" fill-opacity="1.0" fill-rule="evenOdd" stroke="#00000000" stroke-width="1.0"/>
        <path d="M225.583,38.367C225.723,39.288 225.246,40.124 224.517,40.234C223.788,40.344 223.083,39.686 222.943,38.764C222.803,37.843 223.28,37.007 224.009,36.897C224.738,36.787 225.443,37.446 225.583,38.367" fill="#000000" fill-opacity="1.0" fill-rule="evenOdd" stroke="#00000000" stroke-width="1.0"/>
        <path d="M224.928,38.129C224.983,38.496 224.731,38.839 224.364,38.894C223.997,38.949 223.654,38.697 223.599,38.33C223.543,37.963 223.796,37.621 224.163,37.565C224.53,37.509 224.872,37.762 224.928,38.129" fill="#ffffff" fill-opacity="1.0" fill-rule="evenOdd" stroke="#00000000" stroke-width="1.0"/>
        <path d="M234.374,38.902C234.374,38.902 235.502,36.15 239.051,36.699C239.051,36.699 233.916,34.671 234.374,38.902" fill="#000000" fill-opacity="1.0" fill-rule="evenOdd" stroke="#00000000" stroke-width="1.0"/>
        <path d="M223.258,59.206C223.619,58.552 224.06,57.948 224.427,57.298C224.778,56.675 225.006,55.991 225.357,55.37C226.049,54.146 227.181,53.454 228.555,54.016C229.087,54.234 229.504,54.484 229.986,54.068C230.603,53.536 231.146,53.126 231.983,53.048C232.28,53.02 234.573,52.738 234.984,54.617C235.249,55.83 233.895,56.462 233.075,57.089C231.881,58.002 231.239,59.403 231.169,60.904C231.097,62.429 231.339,63.99 230.88,65.475C230.458,66.837 229.52,67.967 228.123,68.333C226.785,68.683 225.395,68.384 224.295,67.539C221.722,65.561 221.809,61.835 223.258,59.206" fill="#e3787c" fill-opacity="1.0" fill-rule="evenOdd" stroke="#00000000" stroke-width="1.0"/>
        <path d="M225.608,61.137C225.613,60.598 225.757,59.95 225.977,59.266C225.977,59.265 225.977,59.265 225.977,59.265C226.067,59.016 226.156,58.769 226.244,58.52C226.336,58.261 226.427,58.001 226.511,57.739C226.694,57.17 226.874,56.557 226.85,55.952C226.825,55.327 226.553,54.754 226.124,54.362C226.772,53.829 227.587,53.641 228.513,54.018C229.049,54.237 229.469,54.488 229.954,54.071C230.575,53.537 231.121,53.126 231.963,53.048C232.262,53.02 234.57,52.737 234.984,54.621C235.091,55.109 234.934,55.504 234.656,55.842C234.302,55.39 233.82,55.049 233.246,54.898C232.361,54.665 231.492,54.94 230.712,55.363C229.441,56.053 228.38,57.216 227.576,58.408C226.614,59.836 226.056,61.439 225.82,63.099C225.667,62.467 225.601,61.97 225.608,61.137" fill="#b54a4e" fill-opacity="1.0" fill-rule="evenOdd" stroke="#00000000" stroke-width="1.0"/>
        <path d="M224.922,45.669C226.288,45.495 228.964,45.777 228.968,47.246C228.973,48.715 227.142,50.775 225.478,50.987C223.985,51.178 221.715,49.241 221.583,48.144C221.451,47.048 222.875,45.93 224.922,45.669" fill="#000000" fill-opacity="1.0" fill-rule="evenOdd" stroke="#00000000" stroke-width="1.0"/>
        <path d="M222.924,47.203C222.991,47.551 223.645,47.727 224.384,47.597C225.123,47.467 225.669,47.08 225.602,46.732C225.535,46.384 224.882,46.208 224.142,46.338C223.403,46.468 222.858,46.856 222.924,47.203" fill="#ffffff" fill-opacity="1.0" fill-rule="evenOdd" stroke="#00000000" stroke-width="1.0"/>
    </g>
</svg>