<?xml version="1.0" encoding="utf-8" standalone="no"?><svg xmlns:android="http://schemas.android.com/apk/res/android" height="160.0" width="160.0" xmlns="http://www.w3.org/2000/svg">
    <path d="M62.9,57.6l-1.4,-1.1c-3.5,-2.7 -4.1,-7.9 -1.4,-11.4l8.8,-11.4c2.7,-3.5 7.8,-4.2 11.3,-1.4l1.4,1.1c3.5,2.7 4.1,7.9 1.4,11.4l-8.8,11.4C71.4,59.7 66.4,60.4 62.9,57.6" fill="#6c78a9" fill-opacity="1.0" fill-rule="evenOdd"/>
    <g>
        <clip-path android:pathData="M59.6,29.7l21.3,0l0,23.7l-21.3,0l0,-23.7"/>
        <path d="M74.1,29.7L74.1,29.7C74,29.7 74,29.7 74.1,29.7L74.1,29.7C74.1,29.7 74.1,29.7 74.1,29.7" fill="#ffffff" fill-opacity="1.0"/>
    </g>
    <g>
        <clip-path android:pathData="M59.6,29.7l21.3,0l0,23.7l-21.3,0l0,-23.7"/>
        <path d="M80.9,36.5l0,0.1l0,0l0,0l0,-0.1" fill="#6c78a9" fill-opacity="1.0"/>
    </g>
    <g>
        <clip-path android:pathData="M59.6,29.7l21.3,0l0,23.7l-21.3,0l0,-23.7"/>
        <path d="M74.1,29.7H74c-2,0 -4,0.9 -5.3,2.6l-7.7,10l0.9,0.4l7,-9c1.6,-2.1 4,-3.1 6.4,-3.1c1.1,0 2.1,0.2 3.2,0.6c0,0 -0.1,-0.1 -0.1,-0.1C77,30.2 75.6,29.7 74.1,29.7" fill="#8592be" fill-opacity="1.0"/>
    </g>
    <g>
        <clip-path android:pathData="M59.6,29.7l21.3,0l0,23.7l-21.3,0l0,-23.7"/>
        <path d="M75.2,30.6c-2.4,0 -4.8,1.1 -6.4,3.1l-7,9l11.5,5.9l6.1,-7.9c1,-1.2 1.4,-2.7 1.4,-4.2v-0.1c0,-2 -0.9,-4 -2.5,-5.3C77.3,30.8 76.3,30.6 75.2,30.6" fill="#8592be" fill-opacity="1.0"/>
    </g>
    <path d="M85,54.8c9.5,6.9 9.7,22.8 0.6,35.5c-7.3,10.1 -19.7,14.6 -28.2,12.8l0,0c0,0 -9.9,-3.3 -24.2,18.4l-2,-9.9l14.3,-20l0.3,-0.4c-2.3,-7.8 -0.7,-17.5 5.5,-26.1C60.4,52.5 75.5,47.9 85,54.8" fill="#6c78a9" fill-opacity="1.0" fill-rule="evenOdd"/>
    <path d="M35.2,47.8C41.7,37.5 53,38.2 53,38.2L79.7,52l1.2,0.6l0.3,0.1l2.6,1.3c-8.7,-2.6 -18.1,11.7 -18.1,11.7l-34.4,45.9l-24,-13.9l0.1,-0.1l-2.4,-1.4c0,0 22.7,-36.3 29.7,-47.7L35.2,47.8" fill="#8592be" fill-opacity="1.0" fill-rule="evenOdd"/>
    <g>
        <clip-path android:pathData="M4.9,96.3l28.3,0l0,25.3l-28.3,0l0,-25.3"/>
        <path d="M4.9,96.3l0,0l5,11.4l23.3,13.9l-1.9,-9.9l0,0l0,0l-24,-13.9l0,-0.1l-2.4,-1.4" fill="#616a9b" fill-opacity="1.0"/>
    </g>
    <g>
        <clip-path android:pathData="M4.9,96.3l28.3,0l0,25.3l-28.3,0l0,-25.3"/>
        <path d="M7.3,97.7l0,0.1l24,13.9l-24,-14" fill="#616a9b" fill-opacity="1.0"/>
    </g>
    <path d="M54.9,66.3c2.3,-4.1 5.4,-7.3 9.4,-9.6c-14.1,-7.3 -21.1,-10.9 -21.1,-10.9s-2.8,0 -7.9,9.5L54.9,66.3z" fill="#616a9b" fill-opacity="1.0" fill-rule="evenOdd"/>
    <path d="M97.3,130c-1.9,0 -3.9,-0.1 -5.8,-0.3c-12,-1.1 -24,-5.8 -23.9,-13.9c0.1,-15.5 20.4,-17.4 39.9,-19.3c11.8,-1.1 24,-2.3 32.1,-6.1c1.1,-26.5 -42.4,-40.8 -59.2,-46.3c-4.6,-1.5 -6.3,-2.1 -7.2,-2.7c-1.2,-0.8 -1.5,-2.5 -0.7,-3.6c0.8,-1.2 2.4,-1.5 3.6,-0.7c0.6,0.3 3.3,1.2 5.9,2.1c0.6,0.2 1.3,0.4 1.9,0.6c0.3,-0.1 0.7,-0.1 1.1,-0.1c3.1,0.5 6.6,0.9 10.4,1.4c22.3,2.6 52.9,6.3 58.2,28.3c1.8,7.5 0.9,13.7 -2.5,18.4c-1.7,2.4 -3.9,4.3 -6.6,5.8c0,0.3 -0.1,0.6 -0.1,0.8C140.1,119.5 118.5,130 97.3,130zM138.6,96.6c-8.7,3.2 -19.8,4.2 -30.7,5.2c-18.1,1.7 -35.1,3.3 -35.2,14.1c0,3.3 7.7,7.6 19.2,8.6C120.7,127.1 134.8,111.7 138.6,96.6zM104.7,47.7c18.3,7.9 38.6,20.6 40.1,39.6c0.8,-0.7 1.5,-1.5 2.1,-2.3c2.5,-3.5 3.1,-8.2 1.7,-14.2C144.8,55.1 123.7,50.3 104.7,47.7z" fill="#a68d6e" fill-opacity="1.0"/>
</svg>