<?xml version="1.0" encoding="utf-8" standalone="no"?><svg xmlns:android="http://schemas.android.com/apk/res/android" height="24.0" width="24.0" xmlns="http://www.w3.org/2000/svg">
    <path d="M20.3236,8.1563C19.8726,7.7188 19.3253,7.5001 18.6813,7.5001C18.0376,7.5001 17.4903,7.7188 17.0393,8.1563C16.5887,8.5938 16.3634,9.125 16.3634,9.7501C16.3634,10.2344 16.5062,10.6681 16.7919,11.0508C17.0779,11.4337 17.45,11.707 17.9088,11.8711L17.9088,16.5001C17.9088,17.3282 17.5304,18.0353 16.7739,18.6212C16.0174,19.207 15.108,19.5001 14.0453,19.5001C12.983,19.5001 12.0733,19.207 11.3167,18.6212C10.5601,18.0354 10.1818,17.3282 10.1818,16.5001L10.1818,14.9532C11.5019,14.797 12.6046,14.2968 13.49,13.453C14.3754,12.6094 14.8182,11.625 14.8182,10.4998L14.8182,4.5001C14.8182,4.297 14.7416,4.1211 14.5887,3.9727C14.4359,3.8244 14.2544,3.75 14.0451,3.75C13.9971,3.75 13.9325,3.7579 13.8521,3.7735C13.7152,3.539 13.5262,3.3518 13.2845,3.2109C13.0434,3.0702 12.7816,3 12.4999,3C12.0735,3 11.7092,3.1467 11.4073,3.4394C11.1054,3.7325 10.9545,4.086 10.9545,4.5001C10.9545,4.914 11.1054,5.2676 11.4073,5.5606C11.7092,5.8536 12.0735,6.0001 12.4999,6.0001C12.7656,6.0001 13.023,5.9298 13.2726,5.7891L13.2726,10.5C13.2726,11.3283 12.8944,12.0352 12.1378,12.6212C11.3811,13.207 10.4715,13.4999 9.4091,13.4999C8.3467,13.4999 7.4371,13.207 6.6805,12.6212C5.924,12.0354 5.5456,11.3284 5.5456,10.5L5.5456,5.7891C5.795,5.9298 6.0528,6.0001 6.3183,6.0001C6.7448,6.0001 7.1091,5.8536 7.4109,5.5606C7.7128,5.2676 7.8636,4.914 7.8636,4.5001C7.8636,4.086 7.7128,3.7325 7.4109,3.4394C7.109,3.1467 6.7448,3 6.3183,3C6.0365,3 5.7749,3.0702 5.5334,3.2109C5.292,3.3516 5.1028,3.539 4.966,3.7735C4.8854,3.758 4.8211,3.75 4.7728,3.75C4.5634,3.75 4.3823,3.8244 4.2294,3.9727C4.0765,4.1211 4,4.297 4,4.5001L4,10.5001C4,11.625 4.4426,12.6092 5.3281,13.4531C6.2135,14.2969 7.3162,14.7971 8.6363,14.9534L8.6363,16.5002C8.6363,17.7425 9.1655,18.803 10.224,19.6817C11.2825,20.5606 12.5562,21 14.0451,21C15.5346,21 16.8081,20.5606 17.8666,19.6817C18.9253,18.803 19.4541,17.7425 19.4541,16.5002L19.4541,11.8711C19.9131,11.707 20.2853,11.4337 20.571,11.0508C20.857,10.6681 21,10.2344 21,9.7501C21,9.1252 20.7746,8.5938 20.3236,8.1563ZM19.2252,10.2774C19.0721,10.4259 18.8909,10.5001 18.6816,10.5001C18.4723,10.5001 18.2914,10.4259 18.1383,10.2774C17.9855,10.129 17.9091,9.9532 17.9091,9.7501C17.9091,9.547 17.9855,9.3711 18.1383,9.2227C18.2914,9.0744 18.4723,9 18.6816,9C18.8909,9 19.072,9.0744 19.2252,9.2227C19.378,9.3711 19.4544,9.547 19.4544,9.7501C19.4544,9.9534 19.378,10.129 19.2252,10.2774Z" fill="#aaaaaa" fill-opacity="1.0" fill-rule="nonZero" stroke="#00000000" stroke-width="1.0"/>
</svg>