<?xml version="1.0" encoding="UTF-8" standalone="no"?>
<!DOCTYPE svg PUBLIC "-//W3C//DTD SVG 1.1//EN" "http://www.w3.org/Graphics/SVG/1.1/DTD/svg11.dtd">
<svg width="100%" height="100%" viewBox="0 0 24 24" version="1.1" xmlns="http://www.w3.org/2000/svg" xmlns:xlink="http://www.w3.org/1999/xlink" xml:space="preserve" xmlns:serif="http://www.serif.com/" style="fill-rule:evenodd;clip-rule:evenodd;stroke-linejoin:round;stroke-miterlimit:2;">
    <path d="M20.324,8.156C19.873,7.719 19.325,7.5 18.681,7.5C18.038,7.5 17.49,7.719 17.039,8.156C16.589,8.594 16.363,9.125 16.363,9.75C16.363,10.234 16.506,10.668 16.792,11.051C17.078,11.434 17.45,11.707 17.909,11.871L17.909,16.5C17.909,17.328 17.53,18.035 16.774,18.621C16.017,19.207 15.108,19.5 14.045,19.5C12.983,19.5 12.073,19.207 11.317,18.621C10.56,18.035 10.182,17.328 10.182,16.5L10.182,14.953C11.502,14.797 12.605,14.297 13.49,13.453C14.375,12.609 14.818,11.625 14.818,10.5L14.818,4.5C14.818,4.297 14.742,4.121 14.589,3.973C14.436,3.824 14.254,3.75 14.045,3.75C13.997,3.75 13.932,3.758 13.852,3.774C13.715,3.539 13.526,3.352 13.285,3.211C13.043,3.07 12.782,3 12.5,3C12.073,3 11.709,3.147 11.407,3.439C11.105,3.733 10.955,4.086 10.955,4.5C10.955,4.914 11.105,5.268 11.407,5.561C11.709,5.854 12.073,6 12.5,6C12.766,6 13.023,5.93 13.273,5.789L13.273,10.5C13.273,11.328 12.894,12.035 12.138,12.621C11.381,13.207 10.472,13.5 9.409,13.5C8.347,13.5 7.437,13.207 6.681,12.621C5.924,12.035 5.546,11.328 5.546,10.5L5.546,5.789C5.795,5.93 6.053,6 6.318,6C6.745,6 7.109,5.854 7.411,5.561C7.713,5.268 7.864,4.914 7.864,4.5C7.864,4.086 7.713,3.733 7.411,3.439C7.109,3.147 6.745,3 6.318,3C6.037,3 5.775,3.07 5.533,3.211C5.292,3.352 5.103,3.539 4.966,3.774C4.885,3.758 4.821,3.75 4.773,3.75C4.563,3.75 4.382,3.824 4.229,3.973C4.077,4.121 4,4.297 4,4.5L4,10.5C4,11.625 4.443,12.609 5.328,13.453C6.214,14.297 7.316,14.797 8.636,14.953L8.636,16.5C8.636,17.743 9.166,18.803 10.224,19.682C11.283,20.561 12.556,21 14.045,21C15.535,21 16.808,20.561 17.867,19.682C18.925,18.803 19.454,17.743 19.454,16.5L19.454,11.871C19.913,11.707 20.285,11.434 20.571,11.051C20.857,10.668 21,10.234 21,9.75C21,9.125 20.775,8.594 20.324,8.156ZM19.225,10.277C19.072,10.426 18.891,10.5 18.682,10.5C18.472,10.5 18.291,10.426 18.138,10.277C17.985,10.129 17.909,9.953 17.909,9.75C17.909,9.547 17.985,9.371 18.138,9.223C18.291,9.074 18.472,9 18.682,9C18.891,9 19.072,9.074 19.225,9.223C19.378,9.371 19.454,9.547 19.454,9.75C19.454,9.953 19.378,10.129 19.225,10.277Z" style="fill:rgb(170,170,170);fill-rule:nonzero;"/>
</svg>
