<?xml version="1.0" encoding="utf-8" standalone="no"?><svg xmlns:android="http://schemas.android.com/apk/res/android" height="64.0" width="64.0" xmlns="http://www.w3.org/2000/svg">
    <path d="M0,32C0,49.673 14.327,64 32,64L32,64C49.673,64 64,49.673 64,32L64,32C64,14.327 49.673,0 32,0L32,0C14.327,0 0,14.327 0,32L0,32Z" fill="#ededed" fill-opacity="1.0" fill-rule="evenOdd" stroke="#00000000" stroke-width="1.0"/>
    <g>
        <clip-path android:pathData="M0,32C0,49.673 14.327,64 32,64L32,64C49.673,64 64,49.673 64,32L64,32C64,14.327 49.673,0 32,0L32,0C14.327,0 0,14.327 0,32L0,32Z"/>
        <path d="M41.783,40.377C41.783,40.377 42.811,44.814 45.074,45.05C47.336,45.287 49.228,45.122 50.524,46.037C50.916,46.296 51.254,46.628 51.521,47.014C51.521,47.014 51.521,44.958 50.262,44.392C49.002,43.827 46.59,43.878 46.277,42.608C45.963,41.338 45.48,38.798 45.701,38.274C45.922,37.749 41.279,38.207 41.783,40.377Z" fill="#000000" fill-opacity="1.0" fill-rule="nonZero" stroke="#00000000" stroke-width="1.0"/>
        <path d="M30.024,50.603C30.024,50.603 28.307,50.845 27.618,50.135C26.929,49.426 27.309,47.832 26.888,46.845C26.322,45.534 23.361,42.521 23.361,42.521L27.202,42.125C27.748,43.336 28.231,44.575 28.646,45.837C29.037,47.22 28.132,48.264 28.523,49.23C28.826,49.865 29.365,50.357 30.024,50.603L30.024,50.603Z" fill="#000000" fill-opacity="1.0" fill-rule="nonZero" stroke="#00000000" stroke-width="1.0"/>
        <path d="M18.641,36.402C18.641,36.402 16.306,36.227 15.042,35.43C13.628,34.551 12.07,31.497 12.07,31.497C12.07,31.497 12.538,35.317 13.936,36.639C15.335,37.96 17.679,38.387 17.679,38.387L18.641,36.402Z" fill="#000000" fill-opacity="1.0" fill-rule="nonZero" stroke="#00000000" stroke-width="1.0"/>
        <path d="M38.179,42.911C37.501,44.459 36.707,45.952 35.803,47.379C37.572,47.207 39.289,46.683 40.852,45.837C39.732,45.099 38.813,44.094 38.179,42.911Z" fill="#000000" fill-opacity="1.0" fill-rule="nonZero" stroke="#00000000" stroke-width="1.0"/>
        <path d="M45.922,37.754C45.84,35.276 44.59,29.152 44.59,29.152L33.793,30.787C33.793,30.787 32.024,33.132 29.633,33.872C27.243,34.613 20.852,34.608 19.186,35.415C17.767,36.088 15.705,38.654 16.615,41.415C17.525,44.176 22.158,43.837 22.425,43.261C22.651,42.788 22.996,42.685 24.482,43.132C25.968,43.58 31.32,47.03 32.806,47.349C33.79,47.509 34.793,47.53 35.783,47.41C36.687,45.983 37.481,44.49 38.158,42.942C38.789,44.132 39.709,45.145 40.832,45.888C41.392,45.583 41.924,45.229 42.421,44.829C43.68,43.811 46.004,40.238 45.922,37.754Z" fill="#2e2829" fill-opacity="1.0" fill-rule="nonZero" stroke="#00000000" stroke-width="1.0"/>
        <path d="M23.428,41.569C23.428,41.569 22.636,47.775 19.201,47.924C16.769,48.022 16.075,48.259 15.443,48.757C14.81,49.256 14.79,50.135 12.733,50.084C12.733,50.084 13.437,49.719 14.075,47.919C14.713,46.12 15.33,45.708 16.281,45.6C17.232,45.492 16.636,42.685 16.512,40.973C16.389,39.261 22.548,37.528 23.428,41.569Z" fill="#2e2829" fill-opacity="1.0" fill-rule="nonZero" stroke="#00000000" stroke-width="1.0"/>
        <path d="M41.835,42.104C41.835,42.104 39.382,48.274 38.678,50.156C38.259,51.249 38.385,52.476 39.017,53.462C39.017,53.462 37.228,53.215 36.96,50.737C36.693,48.259 37.166,47.055 36.863,45.009C36.559,42.963 39.001,38.901 41.835,42.104Z" fill="#2e2829" fill-opacity="1.0" fill-rule="nonZero" stroke="#00000000" stroke-width="1.0"/>
        <path d="M46.696,34.992a1.491,2.386 120,1 0,4.132 2.386a1.491,2.386 120,1 0,-4.132 -2.386z" fill="#faab43" fill-opacity="1.0" fill-rule="evenOdd" stroke="#00000000" stroke-width="1.0"/>
        <path d="M32.851,31.736C34.636,33.17 36.181,34.128 37.489,34.61C39.45,35.332 39.853,35.437 41.745,35.406C43.006,35.386 44.263,34.85 45.517,33.798L45.824,35.926C44.674,36.995 43.423,37.53 42.071,37.53C40.043,37.53 39.056,37.461 36.835,36.479C34.615,35.497 32.085,33.378 31.587,32.738C32.038,32.382 32.46,32.048 32.851,31.736Z" fill="#7786b7" fill-opacity="1.0" fill-rule="evenOdd" stroke="#00000000" stroke-width="1.0"/>
        <path d="M34.281,19.315C34.281,19.315 30.133,14.775 27.025,13.723C23.918,12.672 24.603,14.059 24.846,15.354C25.088,16.65 28.395,25.703 29.51,26.347C30.624,26.99 34.281,19.315 34.281,19.315" fill="#2d2829" fill-opacity="1.0" fill-rule="evenOdd" stroke="#00000000" stroke-width="1.0"/>
        <path d="M34.281,19.315C34.281,19.315 30.133,14.775 27.025,13.723C23.918,12.672 24.852,14.424 26.018,15.04C27.725,15.943 30.32,18.597 32.406,21.48C33.47,20.301 34.281,19.315 34.281,19.315" fill="#000000" fill-opacity="1.0" fill-rule="evenOdd" stroke="#00000000" stroke-width="1.0"/>
        <path d="M37.939,17.69C37.939,17.69 37.583,14.453 38.213,12.505C38.842,10.557 40.214,9.038 41.742,12.397C43.27,15.755 42.385,17.501 42.914,18.302C43.431,19.085 44.043,19.842 44.043,19.842L37.939,17.69Z" fill="#000000" fill-opacity="1.0" fill-rule="evenOdd" stroke="#00000000" stroke-width="1.0"/>
        <path d="M42.515,35.007C43.284,34.774 44.385,33.198 45.042,32.917C45.7,32.636 46.729,32.57 47.324,32.253C47.92,31.937 48.373,30.891 48.373,30.891C48.373,30.891 48.858,31.146 49.418,30.756C50,30.35 50.032,28.493 49.575,27.568C49.119,26.644 47.815,25.685 47.58,24.806C47.344,23.927 47.221,21.937 46.66,21.293C46.099,20.65 44.58,19.277 42.73,18.622C40.88,17.966 38.785,17.376 37.808,17.638C36.832,17.899 35.973,18.281 35.973,18.281L32.622,23.476L37.001,33.763L39.554,34.749C39.554,34.749 41.746,35.241 42.515,35.007" fill="#ffffff" fill-opacity="1.0" fill-rule="evenOdd" stroke="#00000000" stroke-width="1.0"/>
        <path d="M40.225,34.713C41.02,33.675 39.565,31.537 39.263,30.491C38.813,28.933 38.663,27.105 39.192,25.543C39.39,24.959 39.971,24.154 39.965,23.533C39.959,22.727 39.688,21.769 39.413,21.012C38.964,19.78 38.026,18.757 37.06,17.848C35.792,18.194 34.654,18.803 34.033,19.172C33.078,19.742 29.747,23.88 29.534,25.821C29.322,27.762 31.362,29.518 32.419,31.119C33.476,32.719 37.36,34.714 38.513,34.719C38.942,34.721 39.523,34.798 40.121,34.879C40.149,34.823 40.183,34.767 40.225,34.713" fill="#000000" fill-opacity="1.0" fill-rule="evenOdd" stroke="#00000000" stroke-width="1.0"/>
        <path d="M47.046,21.4C47.545,22.224 47.498,23.165 46.943,23.501C46.387,23.837 45.532,23.441 45.034,22.617C44.535,21.793 44.582,20.852 45.138,20.517C45.694,20.18 46.548,20.576 47.046,21.4" fill="#818080" fill-opacity="1.0" fill-rule="evenOdd" stroke="#00000000" stroke-width="1.0"/>
        <path d="M39.88,23.807C40.195,24.98 39.4,26.213 38.106,26.559C36.811,26.906 35.507,26.236 35.193,25.063C34.878,23.89 35.673,22.657 36.967,22.31C38.261,21.963 39.566,22.634 39.88,23.807" fill="#818080" fill-opacity="1.0" fill-rule="evenOdd" stroke="#00000000" stroke-width="1.0"/>
        <path d="M39.032,24.158C39.181,24.713 38.716,25.319 37.994,25.513C37.272,25.706 36.566,25.414 36.417,24.859C36.269,24.304 36.734,23.698 37.456,23.504C38.178,23.311 38.883,23.604 39.032,24.158" fill="#000000" fill-opacity="1.0" fill-rule="evenOdd" stroke="#00000000" stroke-width="1.0"/>
        <path d="M38.535,23.911C38.581,24.085 38.436,24.274 38.211,24.334C37.985,24.395 37.765,24.304 37.718,24.13C37.672,23.957 37.817,23.768 38.043,23.708C38.268,23.647 38.488,23.738 38.535,23.911" fill="#ffffff" fill-opacity="1.0" fill-rule="evenOdd" stroke="#00000000" stroke-width="1.0"/>
        <path d="M47.145,21.752C47.279,22.253 46.988,22.764 46.495,22.897C46.002,23.029 45.494,22.731 45.359,22.231C45.226,21.731 45.517,21.219 46.01,21.086C46.503,20.954 47.011,21.252 47.145,21.752" fill="#000000" fill-opacity="1.0" fill-rule="evenOdd" stroke="#00000000" stroke-width="1.0"/>
        <path d="M46.718,21.542C46.753,21.673 46.644,21.815 46.473,21.861C46.304,21.906 46.137,21.838 46.102,21.707C46.067,21.576 46.177,21.434 46.347,21.388C46.517,21.343 46.683,21.411 46.718,21.542" fill="#ffffff" fill-opacity="1.0" fill-rule="evenOdd" stroke="#00000000" stroke-width="1.0"/>
        <path d="M43.256,22.929C44.244,22.622 45.091,23.115 45.687,23.652C46.242,24.151 46.652,25.055 47.004,25.588C47.356,26.122 48.09,26.71 48.556,27.475C49.023,28.239 49.638,30.713 49.276,30.871C47.798,31.516 48.291,29.561 47.219,29.714C46.735,29.783 44.931,32.041 43.942,32.741C43.071,33.359 40.019,34.292 40.019,34.292C40.019,34.292 43,32.991 43.685,32.069C44.136,31.461 44.393,30.701 44.409,30.044C44.434,29.041 44.134,28.434 43.244,27.343C42.392,26.298 41.623,26.165 41.448,24.774C41.374,24.189 42.1,23.288 43.256,22.929" fill="#818080" fill-opacity="1.0" fill-rule="evenOdd" stroke="#00000000" stroke-width="1.0"/>
        <path d="M45.615,24.263C45.694,24.759 45.021,25.279 44.111,25.424C43.201,25.568 42.399,25.284 42.32,24.787C42.241,24.291 42.915,23.771 43.825,23.626C44.734,23.481 45.536,23.766 45.615,24.263" fill="#000000" fill-opacity="1.0" fill-rule="evenOdd" stroke="#00000000" stroke-width="1.0"/>
        <path d="M49.308,29.885C48.81,29.55 48.643,29.69 48.203,28.365C47.913,28.689 47.438,28.325 47.087,28.548C46.656,28.862 46.265,29.227 45.923,29.635C45.948,29.637 45.607,29.274 45.632,29.296C46.463,30.132 46.474,30.998 46.67,31.291C46.791,31.49 46.959,31.656 47.16,31.775C47.721,32.049 48.377,32.057 48.945,31.796C49.274,31.649 49.547,31.4 49.724,31.086C50.026,30.617 49.806,30.204 49.308,29.885Z" fill="#ac676d" fill-opacity="1.0" fill-rule="nonZero" stroke="#00000000" stroke-width="1.0"/>
        <path android:fillAlpha="0.5" android:strokeAlpha="0.5" d="M47.882,28.507C47.615,28.36 47.285,28.394 47.053,28.593C46.583,28.923 46.106,29.089 46.94,29.292C47.773,29.495 48.68,31.062 48.68,31.062C48.306,30.323 48.037,29.536 47.881,28.724C47.852,28.181 47.882,28.507 47.882,28.507Z" fill="#322631" fill-opacity="1.0" fill-rule="nonZero" stroke="#00000000" stroke-width="1.0"/>
        <path d="M47.784,27.767C47.229,27.468 46.631,27.243 46.008,27.098C46.008,27.098 46.749,27.904 46.324,28.702C46.159,29.003 45.217,30.655 45.054,31.019C44.632,31.838 43.859,32.453 42.931,32.71C43.967,32.636 44.879,32.021 45.289,31.121C45.793,30.241 46.441,29.235 47.082,28.842C47.626,28.508 48.161,28.603 48.324,28.835C48.692,28.499 47.854,27.875 47.784,27.767Z" fill="#241f20" fill-opacity="1.0" fill-rule="nonZero" stroke="#00000000" stroke-width="1.0"/>
    </g>
</svg>