<?xml version="1.0" encoding="utf-8" standalone="no"?><svg xmlns:android="http://schemas.android.com/apk/res/android" height="60.0" width="60.0" xmlns="http://www.w3.org/2000/svg">
    <path d="M60,30C60,46.5688 46.5684,60 30,60C13.4312,60 0,46.5688 0,30C0,13.4312 13.4312,0 30,0C46.5684,0 60,13.4312 60,30" fill="#ededed" fill-opacity="1.0" fill-rule="evenOdd" stroke="#00000000" stroke-width="1.0"/>
    <g>
        <clip-path android:pathData="M60,30C60,46.5688 46.5684,60 30,60C13.4312,60 0,46.5688 0,30C0,13.4312 13.4312,0 30,0C46.5684,0 60,13.4312 60,30"/>
        <path android:fillAlpha="0.045042492" android:strokeAlpha="0.090084985" d="M11,49.5a18.5,1.5 0,1 0,37 0a18.5,1.5 0,1 0,-37 0z" fill="#000000" fill-opacity="1.0" fill-rule="nonZero" stroke="#00000000" stroke-width="1.0"/>
        <path android:fillAlpha="0.13" android:strokeAlpha="0.13" d="M29.4974,48.7525C18.1019,48.7525 8.84,48.7525 8.84,48.7525C8.84,48.7525 18.1019,48.7525 29.4974,48.7525C40.8928,48.7525 50.1547,48.7525 50.1547,48.7525C50.1547,48.7525 40.8928,48.7525 29.4974,48.7525Z" fill="#000000" fill-opacity="1.0" fill-rule="nonZero" stroke="#00000000" stroke-width="1.0"/>
        <path d="M36.8196,21.5242C36.965,20.6331 35.3648,20.1381 34.8314,20.1876C34.8314,20.1876 35.6073,21.0787 35.6558,21.6232C35.7043,22.2668 36.6256,22.2668 36.7226,22.1183" fill="#5f6a9e" fill-opacity="1.0" fill-rule="nonZero" stroke="#00000000" stroke-width="1.0"/>
        <path d="M40.8443,46.4257C40.5534,45.7821 40.7959,45.0395 41.4262,44.693C41.9596,44.396 42.6385,44.594 42.978,45.089L42.978,45.089C43.1234,45.2871 43.7538,47.0693 44.9661,46.8712C46.4209,46.6237 46.9543,47.7128 46.8088,48.4059C46.8088,48.4059 46.1299,48.604 44.0933,48.4554C42.881,48.4059 41.5232,47.1188 41.1838,46.8712L41.1838,46.8712C41.0868,46.7722 40.9413,46.6237 40.8443,46.4257Z" fill="#ca9a61" fill-opacity="1.0" fill-rule="nonZero" stroke="#00000000" stroke-width="1.0"/>
        <path d="M34.0071,39.3464C34.201,39.3464 34.5405,39.2968 34.9284,39.1978C34.3465,38.8018 33.8131,38.3067 33.5706,38.0097C36.2862,36.376 35.8982,32.267 36.0437,31.3264C36.0437,31.2769 36.0437,31.1779 36.0922,31.1284C36.0922,31.1284 36.0922,31.1284 36.0922,31.0789L36.0922,31.0789C36.2862,30.1878 36.8681,29.4452 37.6439,29.0986C38.2743,28.8016 39.0502,28.8016 39.6806,29.0986C40.3594,29.3957 40.8443,29.8907 41.1353,30.5838C41.2808,30.9799 41.3778,31.4254 41.3293,31.871L41.3293,31.871C41.2323,33.1581 40.4079,35.2869 41.0383,39.2473L41.0383,39.2473C41.2323,40.5345 40.5534,41.8216 39.3896,42.3662C38.7107,42.6632 37.9349,42.6632 37.256,42.3662C36.5771,42.0692 36.0437,41.5246 35.7528,40.8315C35.6558,40.6335 35.6073,40.485 35.6073,40.287C34.7829,40.1384 34.0071,39.3464 34.0071,39.3464Z" fill="#ca9a61" fill-opacity="1.0" fill-rule="nonZero" stroke="#00000000" stroke-width="1.0"/>
        <path d="M35.5588,40.1384C35.3648,38.8018 36.0922,37.5146 37.353,37.0196C38.0318,36.772 38.8077,36.772 39.4866,37.1186C40.1655,37.4156 40.6989,38.0097 40.9413,38.7028C41.0383,38.9008 41.0868,39.1483 41.0868,39.3959L41.0868,39.3959C41.2808,41.1781 41.8627,43.1583 43.0265,45.2376L43.0265,45.2376C43.2204,45.5841 43.2204,45.9306 43.1234,46.2772C42.978,46.6237 42.7355,46.9208 42.3961,47.0198C41.9596,47.1683 41.4747,47.1188 41.1353,46.7722L41.1353,46.7722C39.4381,45.2376 35.6073,41.8216 35.5588,40.1384Z" fill="#ca9a61" fill-opacity="1.0" fill-rule="nonZero" stroke="#00000000" stroke-width="1.0"/>
        <path d="M20.7689,46.3267C20.7204,45.8316 21.2538,45.4851 21.6903,45.4356C22.1267,45.3861 22.3206,45.6336 22.5146,46.1287L22.9995,47.0693C23.145,47.4653 24.9392,46.4752 24.8907,48.5544L23.0965,48.5544C22.6116,48.604 22.0782,48.604 21.5933,48.5544C21.4478,48.2574 21.0114,47.1683 20.7689,46.3267L20.7689,46.3267L20.7689,46.3267Z" fill="#ca9a61" fill-opacity="1.0" fill-rule="nonZero" stroke="#00000000" stroke-width="1.0"/>
        <path d="M18.9262,42.0692C18.6838,41.4751 18.7808,40.8315 19.2172,40.3365C19.6536,39.8414 20.3325,39.7424 20.8659,39.9899C21.4478,40.2375 21.7872,40.8315 21.7872,41.4256C21.7872,41.4751 21.7872,41.5246 21.7872,41.5246C21.7872,41.5741 21.7872,41.5741 21.7872,41.6236C21.6903,42.3167 21.6418,43.7524 22.5631,46.0792C22.7571,46.5247 22.7571,47.0198 22.3206,47.2178C21.9327,47.4158 21.2053,47.1683 20.9629,46.7722L20.9629,46.7722C20.2355,45.3366 19.6536,43.3563 18.4898,43.0593C18.4413,42.6137 18.6838,42.2672 18.9262,42.0692Z" fill="#ca9a61" fill-opacity="1.0" fill-rule="nonZero" stroke="#00000000" stroke-width="1.0"/>
        <path d="M18.2474,41.3266C18.2474,41.3266 20.09,38.6038 19.7991,36.772C19.7991,36.079 20.09,38.6533 19.7991,36.772C19.5081,34.9898 17.5685,33.7027 17.6655,31.772L17.6655,31.7224C17.4715,29.6927 18.7808,27.861 20.7204,27.3659C22.6601,26.8709 24.6482,27.9105 25.4241,29.7917C25.7635,30.6333 25.909,33.9007 25.715,34.6928L25.715,34.6928C25.715,34.6928 26.5879,36.8711 21.7872,41.6731C21.6903,42.3662 21.1568,42.8613 20.478,42.9108C19.7991,42.9603 19.1687,42.6137 18.9262,41.9702L18.9262,41.9702C18.6838,41.8712 18.4413,41.7226 18.2474,41.3266Z" fill="#ca9a61" fill-opacity="1.0" fill-rule="nonZero" stroke="#00000000" stroke-width="1.0"/>
        <path d="M3.2635,27.9105C1.1784,26.3758 2.7786,23.1579 3.0696,22.6629C5.7851,26.5243 9.6644,27.3164 10.3433,27.3164C13.0103,27.4649 15.3864,27.0689 17.9079,28.1085C18.6353,28.4056 19.5566,29.1976 19.2657,30.0392C16.6471,28.8511 11.7495,34.8413 5.6396,31.772C6.7064,31.6234 7.7247,31.0294 7.9187,30.8808C4.3788,31.5244 1.9058,29.2472 2.0028,27.5144C2.0997,27.663 2.8756,28.0095 3.2635,27.9105Z" fill="#e2bd83" fill-opacity="1.0" fill-rule="nonZero" stroke="#00000000" stroke-width="1.0"/>
        <path d="M20.187,27.4649C26.6849,25.1877 35.8497,27.2174 36.965,20.4351C39.1471,17.6133 43.7053,17.8608 43.1719,23.2074C41.5232,31.4254 44.5782,31.1779 43.8023,34.4453C43.3174,33.6037 42.9295,33.3066 42.5415,33.1086C42.8325,33.4056 43.4144,35.6334 41.9596,36.8216C42.1051,36.178 41.9596,35.3364 41.6687,35.1384C41.8142,36.079 41.6202,36.9206 40.8928,37.4651C40.9898,37.1681 40.9413,36.673 40.7959,36.5245C39.5351,39.6929 34.7829,38.2572 33.6676,37.5641C31.34,36.178 27.2668,35.0393 24.5512,35.2374C21.9812,35.4354 22.1752,36.6235 19.7991,36.7225C16.5502,36.8711 16.4047,35.4849 16.2107,33.9007C16.1137,33.1086 15.8228,28.9996 20.187,27.4649Z" fill="#e2bd83" fill-opacity="1.0" fill-rule="nonZero" stroke="#00000000" stroke-width="1.0"/>
        <path d="M35.8497,31.1284C35.7043,31.3759 35.5103,31.6234 35.3648,31.871C35.3648,31.871 35.3163,31.9205 35.2678,31.97C35.1709,32.069 35.1224,32.168 35.0254,32.267C34.6375,32.7126 34.298,33.1581 33.9101,33.6037C33.5221,34.0492 33.1342,34.4453 32.7463,34.8413C32.6493,34.9403 32.5523,35.0393 32.4068,35.1384C32.3584,35.1879 32.3099,35.2374 32.2614,35.2374C32.0674,35.3859 31.8249,35.5344 31.631,35.6829C31.2915,35.8809 30.9036,36.079 30.5642,36.277C28.77,35.6829 26.7818,35.2869 25.1816,35.2869C25.6665,35.1384 26.1515,34.9898 26.6364,34.8413C28.964,33.9997 31.0976,32.8611 32.9403,31.1779C33.1827,30.9799 33.4252,30.7323 33.6676,30.5343C33.7646,30.4848 34.1525,30.1383 34.1525,30.1383C34.298,30.0392 34.4435,29.9402 34.589,29.8412C34.6859,29.7917 34.8314,29.6927 34.9284,29.6432C34.9284,29.6432 34.9769,29.6432 34.9769,29.5937C35.2678,29.4947 35.5588,29.3957 35.8497,29.3462L35.8497,29.3462C35.9952,29.3462 36.1407,29.3462 36.2862,29.2967C36.3831,29.2967 36.4801,29.2967 36.5771,29.2967C36.6256,29.2967 36.7226,29.3462 36.7711,29.3462C36.7711,29.3462 36.8196,29.3462 36.8196,29.3957C36.5286,29.9897 36.2377,30.5838 35.8497,31.1284Z" fill="#c38b53" fill-opacity="1.0" fill-rule="nonZero" stroke="#00000000" stroke-width="1.0"/>
        <path d="M26.8788,32.2175C28.7215,32.069 30.4672,33.9502 32.2129,34.4453C32.7463,34.5938 39.3896,36.475 41.1838,30.6333C42.4446,29.0491 42.784,28.158 43.9478,33.1581C43.9963,33.6037 43.9478,34.0987 43.8508,34.5443C43.3659,33.7027 42.978,33.4056 42.59,33.2076C42.881,33.5047 43.4629,35.7324 42.0081,36.9206C42.1536,36.277 42.0081,35.4354 41.7172,35.2374C41.8627,36.178 41.6687,37.0196 40.9413,37.5641C41.0383,37.2671 40.9898,36.772 40.8443,36.6235C39.5836,39.7919 34.8314,38.3562 33.7161,37.6632C31.3885,36.277 27.3153,35.1384 24.5997,35.3364C22.0297,35.5344 22.2237,36.7225 19.8476,36.8216C19.4596,36.8216 19.0717,36.8216 18.6838,36.8216C22.0782,35.5344 21.8357,32.564 26.8788,32.2175Z" fill="#e7ccab" fill-opacity="1.0" fill-rule="nonZero" stroke="#00000000" stroke-width="1.0"/>
        <path d="M44.8508,18.4054a1,1 0,1 1,-2 0a1,1 0,1 1,2 0z" fill="#ffffff" fill-opacity="1.0" fill-rule="nonZero" stroke="#00000000" stroke-width="1.0"/>
        <path d="M30.3702,44.2474C30.4187,43.5544 31.0006,43.1088 31.6795,43.2573C32.3099,43.3563 32.7948,43.9009 32.7948,44.5445L32.7948,44.5445C32.6008,46.3762 32.6493,47.0198 32.6493,47.0198C34.7829,47.0198 34.492,48.604 34.492,48.604C34.492,48.604 31.0491,48.604 30.3217,48.604C30.2247,48.1584 30.5157,46.9208 30.3702,44.891L30.3702,44.891C30.3702,44.8415 30.3702,44.396 30.3702,44.2474Z" fill="#e2bd83" fill-opacity="1.0" fill-rule="nonZero" stroke="#00000000" stroke-width="1.0"/>
        <path d="M29.3034,34.1977C29.4489,34.3463 29.7883,34.4948 30.0793,34.6928C29.8853,33.9997 29.7883,33.3066 29.7398,32.9106C32.8433,33.4056 35.0739,30.0392 35.7528,29.3957C35.8012,29.3462 35.8497,29.2967 35.8982,29.2967L35.8982,29.2967L35.8982,29.2967C37.0135,28.4056 38.5653,28.5046 39.5351,29.5442C40.5049,30.5838 40.5049,32.2175 39.5351,33.2571L39.5351,33.2571C38.7107,34.1977 36.7226,35.2374 34.7829,38.7028L34.7829,38.7028C34.0071,40.0394 32.3584,40.5345 31.0491,39.7919C29.7398,39.0493 29.2064,37.3661 29.9338,35.9799C29.4004,35.3364 29.3034,34.1977 29.3034,34.1977Z" fill="#e2bd83" fill-opacity="1.0" fill-rule="nonZero" stroke="#00000000" stroke-width="1.0"/>
        <path d="M29.9823,35.9799C30.4672,35.0888 31.3885,34.4948 32.3584,34.4948C33.3767,34.4948 34.298,34.9898 34.8314,35.8809C35.3648,36.772 35.3648,37.8612 34.8314,38.7523L34.8314,38.7523C33.9586,40.287 32.9887,42.8613 32.7463,45.2376L32.7463,45.2376C32.7463,45.2871 32.7463,45.188 32.7463,45.2376C32.5523,45.9306 32.0674,45.7821 31.437,45.6336C31.0006,45.4851 30.3702,45.6831 30.3702,44.99L30.3702,44.891C30.1278,42.5642 29.0124,37.3166 29.9823,35.9799Z" fill="#e2bd83" fill-opacity="1.0" fill-rule="nonZero" stroke="#00000000" stroke-width="1.0"/>
        <path d="M35.8497,22.7124C35.8497,22.8609 35.8982,23.0094 35.9467,23.1579C36.0922,23.5045 36.3346,24.049 36.965,24.7916C38.0318,25.4847 38.5653,26.6728 38.8562,27.564C39.0987,28.3065 39.7775,29.2967 40.4079,29.7917C41.7657,30.8313 43.2689,31.0789 43.9963,32.0195L43.9963,32.0195C44.2387,32.3165 44.3842,32.6631 44.3842,33.1581C44.3842,33.1581 44.9661,32.8611 45.0146,31.5244C44.9661,30.4353 43.8023,30.1878 44.6267,29.2967C45.2086,28.8511 44.8691,28.3065 44.7237,27.8115C44.6752,27.7125 44.6752,27.6135 44.6752,27.5144C44.6752,27.4154 44.6752,27.3164 44.7237,27.2174C44.8691,26.8214 45.548,26.6233 45.4025,26.0293C45.2086,25.2867 44.1418,25.4847 43.5599,25.4352C39.1471,25.1382 36.8681,22.4153 36.5286,21.6728C36.5286,21.6728 36.2862,21.7223 36.1892,21.8213C36.0437,21.9698 35.9952,22.2173 36.0437,22.4153C35.8982,22.4648 35.8497,22.5144 35.8497,22.7124Z" fill="#7786b7" fill-opacity="1.0" fill-rule="nonZero" stroke="#00000000" stroke-width="1.0"/>
        <path d="M12.3314,45.0395C12.4769,44.594 12.9618,44.3464 13.3982,44.4455C13.8347,44.594 13.6892,46.3762 13.5922,46.8217L13.5922,46.8217C13.5922,46.8217 15.8713,46.8217 15.4834,48.5049L11.5556,48.5049C11.3616,48.3564 12.1859,45.7326 12.3314,45.0395L12.3314,45.0395L12.3314,45.0395Z" fill="#e2bd83" fill-opacity="1.0" fill-rule="nonZero" stroke="#00000000" stroke-width="1.0"/>
        <path d="M13.5922,40.5345C13.3497,40.4355 13.1073,40.386 12.8163,40.4355C12.8163,40.4355 13.1558,39.8414 13.8831,40.0394C14.1256,39.2473 14.95,38.8018 15.7258,39.0493C16.5017,39.2968 17.7625,39.8414 17.52,40.6335C17.52,40.6335 16.8411,41.1286 16.3562,41.5741C16.3562,41.5741 14.562,43.2573 13.5922,46.6732C13.4467,47.1188 13.3012,46.3267 12.8648,46.1782C12.4284,46.0296 12.1859,45.5841 12.2829,45.1385L12.2829,45.1385C12.6224,43.6534 13.2043,41.9207 12.4284,41.2276C12.8163,40.5345 13.5922,40.5345 13.5922,40.5345Z" fill="#e2bd83" fill-opacity="1.0" fill-rule="nonZero" stroke="#00000000" stroke-width="1.0"/>
        <path d="M12.9618,39.4454C12.9618,39.4454 13.8347,39.2968 14.2711,38.7028C14.6105,38.0592 14.9984,37.2671 15.3864,36.4255C16.1137,34.7918 15.9683,32.465 16.8896,30.7818C16.8896,30.7818 16.8896,30.7323 16.9381,30.7323C17.52,29.1976 18.9262,28.2075 20.5265,28.158C22.1267,28.1085 23.5814,28.9996 24.3088,30.4848C24.9877,31.97 24.7937,33.7027 23.7754,34.9403L23.7754,34.9403C23.7754,34.9403 21.4963,40.0394 16.2107,41.5246C15.8228,42.0692 15.0954,42.2672 14.465,42.0197C13.8347,41.7721 13.4467,41.1286 13.4952,40.485L13.4952,40.485C13.2528,40.2375 12.9618,39.8909 12.9618,39.4454Z" fill="#e2bd83" fill-opacity="1.0" fill-rule="nonZero" stroke="#00000000" stroke-width="1.0"/>
        <path d="M36.965,20.4351C36.5286,20.9302 36.2862,21.5242 36.3831,22.4648C36.5771,22.1678 37.3045,21.5242 37.4015,21.4747C37.5469,22.4648 37.2075,23.3064 36.965,23.6035C37.6439,23.851 38.4198,23.2569 38.6137,22.9599C38.5168,23.554 38.6622,24.6431 39.0017,25.0392C39.0502,24.4451 39.1471,24.148 39.2926,23.9005C39.1471,24.7916 40.4079,26.0293 40.9898,26.1778C40.7959,25.6332 40.7959,25.2867 40.7959,25.1382C40.8928,25.3362 41.3293,26.2768 42.5415,26.9699C42.4446,27.0689 42.2021,27.3659 42.0081,27.6135C43.1234,27.861 44.0448,26.2273 44.0448,26.2273C44.0448,26.2273 44.1418,27.564 44.9661,28.2075C44.9176,27.564 45.0146,26.7224 45.0146,26.7224C45.0146,26.7224 45.645,27.1679 46.1784,27.4649C45.645,27.0194 44.7721,24.5441 45.2086,24.4946C45.3055,24.4946 45.4025,24.4946 45.4995,24.5441C45.6935,24.5936 45.9359,24.6926 46.1784,24.7916C46.3724,24.5936 46.6633,24.4451 46.9058,24.3461C47.8271,23.9995 48.8454,23.851 49.8153,23.5045C49.8637,23.5045 49.8637,23.455 49.9122,23.455C49.9607,23.455 49.9122,23.455 49.9122,23.455C49.9122,23.4055 49.8637,23.4055 49.8637,23.356C49.8153,23.2569 49.7668,23.1579 49.9122,23.0589C49.9122,23.0589 50.0577,22.1183 50.1062,22.1183C50.3002,21.8708 50.4941,21.6728 50.7366,21.4747C51.3185,20.9302 51.7549,20.6331 51.6094,20.1381C51.367,19.7915 51.076,19.5935 50.7366,19.445C50.2517,19.247 49.6698,19.247 49.2818,19.0984C48.7969,18.9004 47.7786,18.6034 47.3422,17.6628C47.0028,16.6727 46.7118,16.0786 45.5965,15.5835C44.4812,15.039 43.2689,14.8409 42.0566,15.138C40.6504,15.4845 39.5351,16.8707 38.2258,16.7222C38.3713,17.2172 38.7592,17.2667 39.0502,17.2667C37.7409,17.6628 37.062,19.1975 35.4618,18.1578C35.7043,18.6529 36.0437,19.148 36.4801,19.445C36.3831,19.841 35.8012,20.5341 35.2193,20.7816C35.8982,20.9797 36.3831,20.9302 36.965,20.4351Z" fill="#e2bd83" fill-opacity="1.0" fill-rule="nonZero" stroke="#00000000" stroke-width="1.0"/>
        <path d="M42.493,26.9699C43.2204,26.1283 43.3659,24.2966 43.3659,24.2966C43.3659,24.2966 43.1719,24.6926 42.9295,25.4352C42.7355,23.5045 43.5599,22.8609 43.5599,22.8609C43.2204,23.0094 42.9295,23.2569 42.687,23.5045C43.0265,22.1678 45.0631,21.7718 46.4693,22.0688C47.0028,22.1678 48.0211,19.6925 48.312,19.247C48.409,19.0984 48.506,18.9499 48.603,18.8014C48.8939,18.9499 49.1364,19.0489 49.2818,19.0984C49.9607,19.346 51.1245,19.247 51.464,20.1876C51.7064,20.8807 50.8821,20.9797 50.0092,22.0193C49.7668,22.1183 50.0092,23.356 49.7668,23.455C48.7969,23.8015 47.7786,23.9995 46.8088,24.2966C45.3055,24.7916 45.8874,27.0194 46.0814,27.4154C45.548,27.1184 44.9176,26.6728 44.9176,26.6728C44.9176,26.6728 44.8206,27.5144 44.8691,28.158C44.0448,27.4649 43.9478,26.1778 43.9478,26.1778C43.9478,26.1778 43.0265,27.861 41.9112,27.564C42.1051,27.4154 41.7172,27.8115 42.493,26.9699Z" fill="#ca9a61" fill-opacity="1.0" fill-rule="nonZero" stroke="#00000000" stroke-width="1.0"/>
        <path d="M45.451,16.6727C46.0329,16.5736 46.6148,18.1083 46.9543,18.2568C46.9543,18.3064 47.5846,18.3559 47.6331,18.4054C47.6331,18.4549 47.6816,18.5044 47.7301,18.5539C47.7786,18.7024 47.8271,18.8509 47.8271,18.9994C47.6331,19.0489 47.4877,19.0984 47.3422,19.148C48.312,22.5144 46.8573,22.6134 46.0814,22.0193C46.5663,21.6728 46.4209,20.6826 44.2387,19.346C43.2689,18.7519 44.0933,16.8212 45.451,16.6727Z" fill="#e8cca6" fill-opacity="1.0" fill-rule="nonZero" stroke="#00000000" stroke-width="1.0"/>
        <path d="M45.4025,24.5441C45.548,24.6431 45.742,24.6926 45.8874,24.7421C46.1299,24.8411 46.9058,24.6431 47.6816,24.3956C48.506,24.148 49.3303,23.8015 49.5728,23.7025L49.6698,23.5045L49.7668,23.4055L50.6396,21.5737L51.27,20.1876C51.173,19.8905 50.979,19.643 50.7366,19.445C50.2517,19.247 49.6698,19.247 49.2818,19.0984C48.7969,18.9004 47.7786,18.6034 47.3422,17.6628C47.1967,17.4648 47.0028,17.2172 46.9058,17.0192C46.9058,17.1677 46.9058,17.3162 46.8573,17.5143C46.7603,17.4152 46.1784,16.9202 46.0329,16.9202C46.8088,18.1578 48.6999,21.9698 44.4812,20.3361C42.59,19.5935 42.881,23.2074 45.4025,24.5441Z" fill="#f4e8d9" fill-opacity="1.0" fill-rule="nonZero" stroke="#00000000" stroke-width="1.0"/>
        <path d="M38.7107,18.2073C39.2926,17.6133 42.978,16.6231 43.7053,16.2766C43.5114,16.6727 42.978,18.1083 42.9295,20.0391C42.9295,20.9302 42.6385,24.148 40.8443,24.4946C40.7474,24.4946 41.0868,24.1976 41.1353,23.9995C41.5232,23.0589 39.4866,22.8609 38.7592,21.5242C38.2743,20.6331 38.1288,18.8509 38.7107,18.2073Z" fill="#7b5533" fill-opacity="1.0" fill-rule="nonZero" stroke="#00000000" stroke-width="1.0"/>
        <path d="M38.5653,17.9598C39.3411,17.2667 40.6504,17.0687 42.1051,16.5241C41.8627,16.4746 41.5717,16.4746 41.3293,16.4746C41.7172,16.0786 42.3476,15.9301 42.881,16.1281C42.687,15.8806 42.59,15.534 42.7355,15.237C42.8325,15.534 43.1719,15.8311 43.6084,16.1776C43.6568,16.1776 43.7538,16.1776 43.7538,16.1776C43.6568,16.2271 42.881,17.8113 42.687,19.9896C42.6385,20.8807 42.2021,24.0985 40.8443,24.4451C40.7474,24.4451 40.6504,24.3956 40.7474,24.1976C41.1838,23.3064 39.1471,22.6134 38.4683,21.2272C37.9834,20.3361 37.9349,18.5539 38.5653,17.9598Z" fill="#ca9a61" fill-opacity="1.0" fill-rule="nonZero" stroke="#00000000" stroke-width="1.0"/>
        <path d="M44.3842,18.5044C44.6752,18.6034 44.7721,18.8509 45.0146,19.0984C45.2571,19.3955 45.4995,19.5935 45.8874,19.544C45.9844,19.544 46.6633,19.1975 46.6633,19.1975C46.4693,18.7024 46.5663,17.9598 45.9359,17.7123C45.4995,17.5638 44.9176,18.1083 44.3842,18.5044Z" fill="#866a4a" fill-opacity="1.0" fill-rule="nonZero" stroke="#00000000" stroke-width="1.0"/>
        <path d="M45.2571,18.6034C45.2086,18.9994 45.451,19.346 45.742,19.346C46.0329,19.3955 46.3239,19.0984 46.3724,18.7024C46.4209,18.3064 46.1784,17.9598 45.8874,17.9598C45.5965,17.9598 45.3055,18.2073 45.2571,18.6034Z" fill="#210204" fill-opacity="1.0" fill-rule="nonZero" stroke="#00000000" stroke-width="1.0"/>
        <path d="M46.9844,18.4549a1,1 0,1 1,-2 0a1,1 0,1 1,2 0z" fill="#ffffff" fill-opacity="1.0" fill-rule="nonZero" stroke="#00000000" stroke-width="1.0"/>
        <path d="M51.0275,21.8708C51.0275,21.8708 49.4758,23.4055 49.8637,23.9995C49.7183,24.2966 49.3788,24.3461 49.1364,24.4946C49.3303,23.455 49.7183,22.4648 50.5426,21.8213L51.0275,21.8708Z" fill="#ab9990" fill-opacity="1.0" fill-rule="nonZero" stroke="#00000000" stroke-width="1.0"/>
        <path d="M45.0631,21.1777L50.7366,21.8708C49.9122,22.5144 49.5243,23.5045 49.3303,24.5441C47.8271,25.5342 45.0631,23.8015 45.0631,23.8015L43.8993,22.3658L45.0631,21.1777Z" fill="#2d2d30" fill-opacity="1.0" fill-rule="nonZero" stroke="#00000000" stroke-width="1.0"/>
        <path d="M46.3724,25.0392C45.354,24.6926 44.3842,23.9995 43.8993,22.8114C43.3659,21.4252 44.0448,20.2371 44.7721,20.5836C46.0814,21.1777 47.3422,21.2767 47.4392,20.2866C47.5362,18.8014 47.5362,19.6925 46.7603,17.5638C47.2452,18.1083 47.0028,18.1578 47.8271,18.6529C48.2635,18.9499 50.9305,19.3955 51.4155,19.6925C51.9489,19.94 51.5124,21.9203 51.3185,22.0688C51.173,22.1678 51.076,22.0688 51.0275,21.9698C49.8637,23.2569 47.7786,23.1084 46.3724,22.5144C45.0146,21.9698 45.354,21.4747 44.9661,21.4252C44.7721,21.4252 44.7237,21.8213 44.7721,22.1183C44.8206,22.4648 45.2571,23.0589 46.8573,23.653C48.6515,24.2966 49.5243,24.148 49.7183,24.0985C49.8153,24.049 49.9122,23.9995 49.9607,23.851C49.9607,24.049 50.0092,24.3461 49.9122,24.4451C49.3788,25.2867 49.0879,24.8906 49.0879,24.8906C49.0879,24.8906 47.9241,25.4352 46.3724,25.0392Z" fill="#f4e8d9" fill-opacity="1.0" fill-rule="nonZero" stroke="#00000000" stroke-width="1.0"/>
        <path d="M46.4209,23.455L46.4209,23.455C46.5663,23.554 46.7118,23.653 47.0997,23.851C47.0997,23.851 47.1482,23.851 47.1482,23.9005C47.2937,23.9995 47.4877,24.0985 47.7301,24.1976C48.8939,24.7916 49.4273,26.6233 50.2517,26.6728C50.7851,26.6728 51.173,26.3263 51.173,25.8808C51.1245,24.8906 50.5426,24.148 49.5243,23.7025C49.1364,23.5045 48.6999,23.4055 48.2635,23.3064C48.215,23.3064 48.215,23.3064 48.1665,23.3064C47.5846,23.1084 46.7603,23.1084 46.4209,23.455Z" fill="#e3787c" fill-opacity="1.0" fill-rule="nonZero" stroke="#00000000" stroke-width="1.0"/>
        <path d="M46.4209,23.455L46.4209,23.455C46.6633,23.554 46.8573,23.7025 47.0997,23.851C47.0997,23.851 47.1482,23.851 47.1482,23.9005L47.1482,23.9005C47.1967,23.7025 47.3907,23.5045 47.5846,23.5045C48.215,23.455 49.0879,23.653 49.8637,24.2471C50.3971,24.6926 50.7366,25.0887 50.8336,25.8808C50.8821,25.5837 50.8336,25.2867 50.7366,24.9896C50.5426,24.4946 50.3002,24.2966 49.8637,23.9995C49.7183,23.9005 49.4758,23.8015 49.4758,23.653C49.0879,23.455 48.6515,23.356 48.215,23.2569C48.1665,23.2569 48.1665,23.2569 48.118,23.2569C47.5846,23.1084 46.7603,23.1084 46.4209,23.455Z" fill="#b54a4e" fill-opacity="1.0" fill-rule="nonZero" stroke="#00000000" stroke-width="1.0"/>
        <path d="M33.5706,21.5737C33.5706,21.5737 34.7344,22.1678 34.9769,22.8114C35.1224,23.1579 35.4133,23.2074 35.7043,23.1579C35.7528,23.1579 35.8497,23.1084 35.8982,23.1084C36.0922,23.0589 36.2377,22.9104 36.2377,22.8609L36.2377,22.8114L36.1407,22.1678C36.1407,22.0688 36.0922,21.9698 36.0437,21.8708C35.6558,21.1282 34.104,21.3262 33.5706,21.5737Z" fill="#7786b7" fill-opacity="1.0" fill-rule="nonZero" stroke="#00000000" stroke-width="1.0"/>
        <path d="M49.0394,21.2767C49.0394,21.2767 49.0879,21.2767 49.0394,21.2767L49.0394,21.2767C49.0879,21.2767 49.0879,21.2767 49.0394,21.2767C49.0879,21.2767 49.0879,21.2767 49.0394,21.2767L49.0394,21.2767C49.1364,21.2767 49.1849,21.2272 49.1849,21.1282C49.1849,21.0292 49.1364,20.9797 49.0394,20.9797L48.9909,20.9797C48.9424,20.9797 48.9424,21.0292 48.8939,21.0787L48.8939,21.1282L48.8939,21.1282C48.9424,21.2272 48.9909,21.2767 49.0394,21.2767L49.0394,21.2767Z" fill="#d1af86" fill-opacity="1.0" fill-rule="nonZero" stroke="#00000000" stroke-width="1.0"/>
        <path d="M50.2032,21.9203C50.1062,21.9203 50.0577,22.0193 50.1062,22.0688C50.1062,22.1678 50.2032,22.2173 50.2517,22.1678C50.3487,22.1678 50.3971,22.0688 50.3487,22.0193C50.3487,21.9698 50.3002,21.9203 50.2032,21.9203Z" fill="#d1af86" fill-opacity="1.0" fill-rule="nonZero" stroke="#00000000" stroke-width="1.0"/>
        <path d="M49.1364,22.2668C49.1364,22.3163 49.1849,22.3658 49.2334,22.3658C49.2818,22.3658 49.3303,22.3658 49.3303,22.3163C49.3788,22.2668 49.3788,22.2173 49.3303,22.1678C49.3303,21.9698 49.0879,22.1183 49.1364,22.2668Z" fill="#d1af86" fill-opacity="1.0" fill-rule="nonZero" stroke="#00000000" stroke-width="1.0"/>
        <path d="M47.7786,18.5044C48.2635,19.247 48.7969,19.445 48.8939,19.3955C49.1364,19.346 49.1364,19.0489 49.3788,19.1975C49.3788,19.1975 49.4273,19.247 49.3788,19.2965C49.3303,19.3955 49.1849,19.5935 49.2818,19.544C49.3788,19.445 49.4758,19.346 49.5728,19.346C49.7183,19.346 49.8153,19.346 49.9607,19.3955C49.9607,19.3955 50.0092,19.445 49.9607,19.445C49.9122,19.544 49.8637,19.5935 49.7668,19.5935C49.5728,19.5935 49.6213,19.4945 49.4273,19.6925C49.3303,19.742 49.2818,19.841 49.2334,19.8905C49.1849,19.8905 49.1849,19.8905 49.1364,19.8905C49.0394,19.7915 49.1364,19.643 49.1849,19.4945C49.2334,19.346 49.2818,19.2965 49.1364,19.445C48.8454,19.7915 48.215,19.346 47.7786,18.5044" fill="#d1af86" fill-opacity="1.0" fill-rule="nonZero" stroke="#00000000" stroke-width="1.0"/>
        <path d="M49.6213,20.1876C49.5728,19.643 50.0577,19.148 50.6881,19.0489C51.3185,18.9499 51.9489,19.346 51.9974,19.8905C52.0459,20.4351 51.4155,21.6232 50.979,21.6728C50.4941,21.7718 49.6698,20.6826 49.6213,20.1876Z" fill="#000000" fill-opacity="1.0" fill-rule="nonZero" stroke="#00000000" stroke-width="1.0"/>
        <path android:fillAlpha="0.5" android:strokeAlpha="0.5" d="M50.5911,19.6925C50.2517,19.544 50.0092,19.445 50.0092,19.445C50.0092,19.445 50.2517,19.544 50.5911,19.6925C50.9305,19.841 51.173,19.94 51.173,19.94C51.173,19.94 50.9305,19.841 50.5911,19.6925Z" fill="#ffffff" fill-opacity="1.0" fill-rule="nonZero" stroke="#00000000" stroke-width="1.0"/>
        <path d="M35.8497,22.7124C35.8982,22.5639 35.8982,22.4153 35.9467,22.2173C36.0437,22.4153 36.1407,22.6629 36.2377,22.8609C36.3831,23.1084 36.5771,23.554 36.8681,23.9995C37.5469,24.9896 40.02,26.8709 40.7474,27.762C41.4747,28.6531 43.2689,29.4452 43.3174,29.4947C42.8325,29.3462 42.3476,29.1976 41.9112,28.9501C41.2323,28.6036 39.4866,27.0689 39.4381,27.0689C39.4381,27.1184 39.9715,28.5541 40.5049,29.2967C41.0383,30.0392 43.0749,30.6828 43.8993,31.97C43.1719,31.0294 41.6687,30.7818 40.3109,29.7422C39.729,29.2967 39.0017,28.3065 38.7592,27.5144C38.4683,26.5738 37.9349,25.4352 36.8681,24.7421C36.2862,23.95 35.9952,23.455 35.8497,23.1084L35.8497,22.7124L35.8497,22.7124Z" fill="#5f6a9e" fill-opacity="1.0" fill-rule="nonZero" stroke="#00000000" stroke-width="1.0"/>
        <path d="M35.8982,22.5144L35.8982,22.5144L35.8982,22.4153L35.8497,22.3658C35.4618,22.1183 34.8314,21.9698 34.8314,21.9698C34.8314,21.9698 35.6073,22.4648 35.6558,22.6629C35.7043,22.7619 35.8012,22.8114 35.8982,22.8609L35.8982,22.5144Z" fill="#5f6a9e" fill-opacity="1.0" fill-rule="nonZero" stroke="#00000000" stroke-width="1.0"/>
        <path d="M35.4133,21.8708L35.4133,21.8708C35.4133,21.8708 35.7528,22.2173 35.8497,22.3658C35.8497,22.3658 35.8497,22.3658 35.8497,22.4153C35.8497,22.4648 35.8982,22.4648 35.8982,22.5144L35.8982,22.5144L35.8982,22.5144L35.8982,22.5144L35.8982,22.3658L35.8982,22.2668L35.8982,22.2668C35.7528,22.0688 35.5588,21.9698 35.4133,21.8708L35.4133,21.8708Z" fill="#5f6a9e" fill-opacity="1.0" fill-rule="nonZero" stroke="#00000000" stroke-width="1.0"/>
        <path d="M24.4231,24.8632C22.526,24.8632 18.3914,23.6695 15.7161,22.3764C13.0407,21.0832 8.6629,17.7011 7.2523,16.5571C4.5769,14.0206 1.9502,11.2353 -1.017,7.9527C-6.0758,2.2329 -7,-0.8011 -7,-1L-5.8812,-0.8508C-5.8812,-0.6518 -6.8541,0.5916 5.112,12.8766C11.4355,19.3424 18.9265,26.1066 35.6595,23.6695L36,24.3161C29.0928,25.4103 26.2715,24.8632 24.4231,24.8632Z" fill="#5f6a9e" fill-opacity="1.0" fill-rule="nonZero" stroke="#00000000" stroke-width="1.0"/>
    </g>
</svg>